<svg xmlns="http://www.w3.org/2000/svg" viewBox="0 0 46.78 46.78"><defs><style>.cls-1{fill:#fff;}</style></defs><g id="Layer_2" data-name="Layer 2"><g id="Layer_1-2" data-name="Layer 1"><path class="cls-1" d="M15.59,38.28l-4.21-3h0l-2.9-4.1a10.09,10.09,0,0,0-6.85,6.85C2.63,36.7,0,46.78,0,46.78s10.09-2.64,8.74-1.65A10.09,10.09,0,0,0,15.59,38.28Z"/><path class="cls-1" d="M32.81,30.27C48,13.22,46.75,0,46.75,0S33.56-1.23,16.51,14C9.45,12.21,5.7,15.56,4.19,17.13A13.82,13.82,0,0,0,1.25,28.3s-.68-6,9-6.31c-5.67,8.62.8,13.74.8,13.74s5.12,6.47,13.74.8c2.64,7.44-6.1,8.36-6.1,8.36S25.41,46.4,29.87,42C31.41,40.41,35.16,36.07,32.81,30.27Zm-7.09-9.21c-1.56-1.56-.63-5,2.08-7.73S34,9.69,35.52,11.26s.64,5-2.07,7.72S27.28,22.62,25.72,21.06Z"/></g></g></svg>