<svg id="Layer_1" data-name="Layer 1" xmlns="http://www.w3.org/2000/svg" viewBox="0 0 113.39 113.39"><defs><style>.cls-1{fill:#8527ff;}.cls-2{fill:#fff;}.cls-3{fill:none;}</style></defs><circle class="cls-1" cx="56.69" cy="56.69" r="56.69"/><path class="cls-2" d="M593.8,1032.29a17.13,17.13,0,0,1-16,17c-.33,0-.66,0-1,0h-.08c-.31,0-.61,0-.92,0a17,17,0,0,1-16.13-17c-.11-7.21,4-12.52,10.26-17.92l.81-.73,0,0a20.72,20.72,0,0,0,5.08-7h0l0,0a8.71,8.71,0,0,0,.33-6c-.1-.29-.22-.57-.35-.86a9.08,9.08,0,0,0-1.67-2.4c-5.07-5.12-13.12-1.93-16-.55-.66.33-1,.55-1,.55v0a39.69,39.69,0,0,0-7.29,65c11.24,1.68,19.67,1.23,26-.5l1-.3,1-.32c9.66-3.31,13.78-9.85,15.42-15.88A30.62,30.62,0,0,0,593.8,1032.29Z" transform="translate(-519.15 -975.96)"/><path class="cls-3" d="M595.79,1032c.1.51.18,1,.23,1.54C595.93,1032.8,595.83,1032.27,595.79,1032Z" transform="translate(-519.15 -975.96)"/><path class="cls-2" d="M595.57,997.88c-.41-.26-.91-.54-1.47-.82-.11,0-.21-.12-.31-.17-.38-.18-.86-.4-1.4-.62h0q-.54-.22-1.17-.45a44.29,44.29,0,0,0-19.1-2.28,11.11,11.11,0,0,1,3.49,2.38,11.51,11.51,0,0,1,2.06,3,10.81,10.81,0,0,1,.44,1.09,10.61,10.61,0,0,1-.36,7.37s-.05.09-.07.14a25.13,25.13,0,0,0,5.9,6.91l.73.65v0s9.76,8.06,11.53,17c0,.25.14.78.23,1.54v0h0a32.72,32.72,0,0,1-.85,12.19c-2.26,8.32-8,14.28-16.7,17.24-.35.12-.7.24-1.07.35l-1,.31a51.3,51.3,0,0,1-13.48,1.62,85,85,0,0,1-9.87-.61,39.66,39.66,0,1,0,42.57-66.82Z" transform="translate(-519.15 -975.96)"/></svg>