<svg id="Layer_1" data-name="Layer 1" xmlns="http://www.w3.org/2000/svg" viewBox="0 0 113.39 113.39"><defs><style>.cls-1{fill:#efc516;}.cls-2{fill:#fff;}</style></defs><circle class="cls-1" cx="56.69" cy="56.69" r="56.69"/><path class="cls-2" d="M706.84,1127.6l-.39,0A17,17,0,0,0,690,1140.2l-13.24,49.27a17,17,0,0,0,20.84-12l2-7.34h8a17,17,0,0,0,17-17H704.18l2.28-8.51h23.06a17,17,0,0,0,17-17H706.84Z" transform="translate(-654.97 -1102.14)"/><path class="cls-2" d="M742,1158.83s-4.84,23.57-15.2,28.85-29.41,2.38-29.41,2.38,24.65-.63,24.7-13C734.12,1180.09,742,1158.83,742,1158.83Z" transform="translate(-654.97 -1102.14)"/></svg>