<svg width="24" height="24" viewBox="0 0 24 24" fill="none"
    xmlns="http://www.w3.org/2000/svg">
    <path d="M6.83331 6.91666C6.16664 6.24998 3.33332 6.08334 2.41664 5.99998C2.33332 5.99998 2.24996 5.99998 2.16664 6.08331C2.08332 6.16666 2 6.33334 2 6.41666V13.9167C2 14.1667 2.16668 14.3333 2.41668 14.3333H4.91668C5.08336 14.3333 5.25 14.25 5.33335 14.0833C5.33335 13.8333 6.83335 9.41666 7.00003 7.25002C6.99999 7.16666 6.99999 7.00002 6.83331 6.91666Z" fill="#858997" />
    <path d="M15.75 8.91662C14.9167 8.66662 14.1667 8.3333 13.5 8.08331C12 7.41663 11.3334 7.74999 10 9.0833C9.41673 9.66662 9.00005 10.5 9.08337 10.8333C9.08337 10.9166 9.08337 10.9166 9.25005 11C9.66673 11.1667 10.25 11.25 10.8334 10.3333C10.9167 10.25 11 10.1666 11.1667 10.1666C11.4167 10.1666 11.5 10.0833 11.75 9.99994C11.9167 9.91662 12.0833 9.83326 12.3333 9.74994C12.4166 9.74994 12.4166 9.74994 12.5 9.74994C12.5833 9.74994 12.75 9.83326 12.8333 9.83326C13.25 10.25 14 10.8333 14.75 11.5C15.9167 12.4167 17.0834 13.4167 17.6667 14.1667H17.75C17.1667 12.5 16.1667 9.66662 15.75 8.91662Z" fill="#858997" />
    <path d="M21.5832 6.83331C18.3332 6.83331 16.4999 7.66663 16.4165 7.66663C16.3332 7.74995 16.2498 7.83331 16.1665 7.91663C16.1665 7.99995 16.1665 8.16663 16.2498 8.24995C16.7498 9.08327 18.4165 13.6666 18.6665 14.8333C18.7498 14.9999 18.9165 15.1666 19.0832 15.1666H21.5832C21.8332 15.1666 21.9999 14.9999 21.9999 14.7499V7.24991C21.9999 6.99999 21.8332 6.83331 21.5832 6.83331Z" fill="#858997" />
    <path d="M17.0834 15C16.7501 14.25 15.3334 13.1667 14.0834 12.1667C13.4168 11.5833 12.7501 11.0833 12.2501 10.6666C12.1668 10.7499 12.0001 10.7499 12.0001 10.8333C11.7501 10.9166 11.6668 11 11.3335 11C10.6668 11.8333 9.83345 12.1666 8.91681 11.8333C8.50013 11.75 8.25013 11.4166 8.16681 11.0833C8.00013 10.25 8.75013 9.0833 9.33349 8.49998H7.66681C7.33349 10.1667 6.75014 12.3333 6.3335 13.5C6.66682 13.8333 7.00017 14.25 7.25017 14.4167C8.83349 15.75 10.6668 17.0833 11.0002 17.3333C11.2502 17.5 11.7502 17.6667 12.0002 17.6667C12.0835 17.6667 12.1668 17.6667 12.2502 17.6667L10.9168 16.3333C10.7501 16.1666 10.7501 15.9166 10.9168 15.75C11.0835 15.5833 11.3335 15.5833 11.5001 15.75L13.1668 17.4167C13.3335 17.5833 13.5001 17.5 13.6668 17.5C13.9168 17.4167 14.0001 17.25 14.0835 17L12.1668 15.0833C12.0001 14.9166 12.0001 14.6666 12.1668 14.5C12.3335 14.3333 12.5835 14.3333 12.7501 14.5L14.8334 16.5833C14.9168 16.6666 15.2501 16.6666 15.5001 16.5833C15.5834 16.5 15.7501 16.4166 15.8334 16.25L13.5001 13.9166C13.3334 13.7499 13.3334 13.4999 13.5001 13.3333C13.6668 13.1667 13.9168 13.1666 14.0834 13.3333L16.5001 15.75C16.6668 15.8333 16.8334 15.75 17.0001 15.6667C17.0834 15.5833 17.2501 15.3333 17.0834 15Z" fill="#858997" />
</svg>
