<svg width="24" height="24" viewBox="0 0 24 24" fill="none"
    xmlns="http://www.w3.org/2000/svg">
    <path d="M8.16992 6.50353L9.05367 7.38728C10.6814 5.75978 13.3192 5.75978 14.9462 7.38728L15.8307 6.50353C13.7147 4.38778 10.2859 4.38778 8.16992 6.50353Z" fill="#53BA0C" />
    <path d="M20.3333 10.3333C20.3333 5.7305 16.6038 2 12 2C7.3975 2 3.66675 5.7305 3.66675 10.3333C2.74625 10.3333 2 11.0795 2 12V17C2 17.9205 2.74625 18.6667 3.66675 18.6667H6.16675C6.627 18.6667 7 18.294 7 17.8333V13.6667C7 13.2085 6.792 12.5208 6.53775 12.14L5.3335 10.3335C5.3335 6.651 8.318 3.66675 12.0002 3.66675C15.6835 3.66675 18.667 6.651 18.667 10.3335L17.4625 12.14C17.2083 12.5208 17 13.2085 17 13.6667V18.0662C15.7785 19.4538 13.994 20.3333 12 20.3333H10.3333V22H12C14.7245 22 17.135 20.6873 18.6553 18.6667H20.3333C21.2537 18.6667 22 17.9205 22 17V12C22 11.0795 21.2537 10.3333 20.3333 10.3333Z" fill="#53BA0C" />
</svg>
