<svg width="24" height="24" viewBox="0 0 24 24" fill="none"
    xmlns="http://www.w3.org/2000/svg">
    <path fillRule="evenodd" clipRule="evenodd" d="M20 15.444C20 12.8292 18.5967 9.61655 17.6518 7.75004L16.8106 6.21469C16.8894 6.8046 16.8583 7.40554 16.7189 7.98228C16.5361 8.48834 16.2562 8.94705 15.8977 9.3284C15.8568 7.99726 15.4925 6.70105 14.8412 5.56959C14.7176 5.37175 14.4027 4.83287 14.0518 4.35249C13.3598 3.4011 12.5043 2.60239 11.5322 2C11.8725 2.759 12.0767 3.5805 12.1342 4.4213C12.1063 5.41046 11.8153 6.00396 10.4399 7.93927C9.06448 9.87459 9.40335 12.7604 9.40335 12.7604C9.29348 12.3572 9.14379 11.9679 8.95684 11.5992C8.59804 10.8465 7.13492 9.96061 7.04323 9.909C7.08309 10.0165 7.7409 11.7841 6.84389 12.984C5.70369 14.5194 4.79074 15.6633 5.0419 17.9599C5.36084 20.8801 8.44256 21.6972 9.85784 21.9166H9.86182C10.2884 21.9854 10.5595 21.9983 10.5595 21.9983C9.6278 21.6542 9.09677 20.3898 9.02342 19.6944C8.96643 19.2982 8.98966 18.8935 9.09151 18.5079C9.19337 18.1224 9.37143 17.7653 9.61345 17.461C9.80322 17.1806 10.5045 16.4289 10.7405 16.1708C11.3593 15.6008 11.7904 14.83 11.9692 13.9736C12.0655 13.3748 12.0828 12.7644 12.0206 12.1604C12.6767 12.6094 13.2326 13.2096 13.6484 13.9177C13.9726 14.4726 14.1526 15.1113 14.1694 15.767C14.346 15.5783 14.4838 15.3518 14.5741 15.1021C14.6427 14.8161 14.6575 14.5183 14.6176 14.226C14.6176 14.226 16.2346 16.6344 16.1891 18.7745C16.1321 21.4564 14.5944 21.997 14.592 22C14.6084 21.9957 20 21.2706 20 15.444Z" fill="white" />
</svg>
