<svg width="24" height="24" viewBox="0 0 24 24" fill="none"
    xmlns="http://www.w3.org/2000/svg">
    <path d="M4.90987 4.41749L2.59035 2.0978C2.4536 1.96581 2.2364 1.96768 2.10202 2.10206C1.96765 2.23643 1.96578 2.45363 2.09777 2.59038L4.41746 4.9099L2.69241 10.0825L14.6103 22L22 14.6103L10.0825 2.69244L4.90987 4.41749ZM8.45267 8.45236C7.82028 9.08442 6.81216 9.13528 6.11955 8.56973C5.42711 8.00435 5.27505 7.00643 5.76797 6.26042L6.28028 6.7729C6.08196 7.19251 6.18486 7.69274 6.53287 7.99993C6.8807 8.30711 7.38978 8.34742 7.78167 8.09858C8.17356 7.84991 8.35385 7.37212 8.22373 6.92649C8.09378 6.48085 7.68506 6.17486 7.22088 6.17588C7.06593 6.17724 6.91319 6.21296 6.77355 6.28032L6.26038 5.76732C7.0064 5.2744 8.00415 5.42629 8.5697 6.11873C9.13508 6.81117 9.08456 7.81929 8.45267 8.45151V8.45236Z" fill="#858997" />
</svg>
