<svg width="24" height="24" viewBox="0 0 24 24" fill="none"
    xmlns="http://www.w3.org/2000/svg">
    <path d="M21.9092 9.97829L17.4997 14.2767L18.541 20.3477C18.5863 20.6132 18.4773 20.8815 18.2592 21.0401C18.1361 21.13 17.9895 21.1753 17.843 21.1753C17.7304 21.1753 17.6172 21.1484 17.5138 21.0939L12.0615 18.2275L6.60993 21.0931C6.37207 21.2192 6.08254 21.1986 5.8645 21.0393C5.64646 20.8808 5.53745 20.6125 5.58275 20.347L6.62408 14.276L2.21382 9.97829C2.02127 9.78999 1.95119 9.50824 2.03472 9.25269C2.11825 8.99713 2.33983 8.80954 2.60671 8.7706L8.70109 7.88572L11.4265 2.36263C11.6651 1.87912 12.4579 1.87912 12.6965 2.36263L15.422 7.88572L21.5163 8.7706C21.7832 8.80954 22.0048 8.99643 22.0883 9.25269C22.1719 9.50895 22.1018 9.78928 21.9092 9.97829Z" fill="#FFA113" />
</svg>
