<svg width="24" height="24" viewBox="0 0 24 24" fill="none"
    xmlns="http://www.w3.org/2000/svg">
    <path d="M8.12218 14.8148C6.22385 13.3542 5.20229 10.6812 6.04689 8.04423C6.88344 5.43124 9.32472 3.69058 12.0877 3.71059C14.8065 3.7346 17.2116 5.52327 18.012 8.12426C18.8123 10.7332 17.7908 13.3902 15.8723 14.8428C15.7396 14.5787 15.6109 14.3186 15.4822 14.0585C15.1001 13.2742 14.7181 12.4859 14.332 11.7016C14.2757 11.5896 14.2676 11.5095 14.34 11.3935C14.9232 10.4411 14.887 9.25669 14.2153 8.38436C13.5034 7.456 12.5462 7.09587 11.392 7.34396C10.3262 7.57205 9.51375 8.44438 9.32874 9.52879C9.21613 10.177 9.34081 10.7853 9.66658 11.3575C9.70278 11.4215 9.73093 11.5295 9.70278 11.5856C9.19602 12.638 8.68524 13.6864 8.17044 14.7348C8.1624 14.7628 8.14631 14.7828 8.12218 14.8148ZM7.9975 9.0286C8.00152 8.69647 7.71999 8.41237 7.3902 8.41237C7.05236 8.41237 6.77485 8.68447 6.77083 9.01659C6.7668 9.34872 7.04431 9.62883 7.37411 9.63683C7.70792 9.63683 7.99348 9.35672 7.9975 9.0286ZM11.4081 5.17914C11.4081 5.51127 11.6856 5.79138 12.0194 5.79138C12.3532 5.79138 12.6307 5.51127 12.6307 5.17914C12.6307 4.84702 12.3492 4.56691 12.0194 4.56691C11.6815 4.56691 11.4081 4.84302 11.4081 5.17914ZM17.2599 9.0246C17.2599 8.68847 16.9904 8.41637 16.6526 8.41637C16.3147 8.41637 16.0413 8.68847 16.0372 9.0206C16.0372 9.35272 16.3147 9.63283 16.6486 9.63283C16.9824 9.63283 17.2599 9.35672 17.2599 9.0246ZM7.905 13.0141C8.24283 13.0101 8.51632 12.738 8.51632 12.4059C8.51632 12.0778 8.23077 11.7976 7.90097 11.7976C7.56716 11.7976 7.29367 12.0778 7.29367 12.4099C7.29769 12.746 7.56716 13.0181 7.905 13.0141ZM9.45342 6.3956C9.45744 6.05548 9.192 5.77937 8.85818 5.77137C8.52437 5.76337 8.23881 6.03147 8.23077 6.36759C8.22272 6.70772 8.50828 6.99583 8.84612 6.99583C9.16384 6.99583 9.4494 6.71172 9.45342 6.3956ZM14.5813 6.36359C14.5733 6.69972 14.8387 6.97982 15.1725 6.99183C15.5023 7.00383 15.7919 6.73173 15.7999 6.39961C15.812 6.06748 15.5425 5.78337 15.2047 5.77537C14.8709 5.76337 14.5894 6.03147 14.5813 6.36359ZM16.7411 12.4179C16.7411 12.0778 16.4756 11.8016 16.1418 11.7936C15.812 11.7896 15.5224 12.0617 15.5184 12.3939C15.5104 12.734 15.7959 13.0141 16.1418 13.0141C16.4676 13.0101 16.737 12.742 16.7411 12.4179Z" fill="#858997" />
    <path d="M16.6647 16.4754C16.532 16.1993 16.4033 15.9392 16.2826 15.6911C16.6044 15.391 16.9301 15.1229 17.2157 14.8188C20.9641 10.8493 19.0376 4.35083 13.7247 3.03433C9.60227 2.00994 5.45571 4.815 4.93689 9.0286C4.61112 11.6536 5.53615 13.8184 7.57122 15.511C7.6959 15.6151 7.73612 15.6871 7.64763 15.8352C7.53502 16.0272 7.44654 16.2393 7.34599 16.4434C5.15407 14.9668 3.39651 11.8337 4.19686 8.2443C4.98515 4.68695 8.07395 2.15 11.758 2.00594C15.3455 1.86589 18.6595 4.21478 19.6932 7.65608C20.7469 11.1614 19.303 14.6467 16.6647 16.4754Z" fill="#858997" />
    <path d="M10.3987 12.2018C10.7004 12.3459 10.9819 12.4819 11.2795 12.626C11.1026 12.9901 10.9216 13.3663 10.7366 13.7384C9.45359 16.3754 8.16659 19.0124 6.88361 21.6494C6.79915 21.8214 6.69056 21.9535 6.49349 21.9895C6.30044 22.0215 6.13152 21.9615 6.01488 21.8054C5.8902 21.6414 5.88216 21.4613 5.97064 21.2772C6.24011 20.721 6.5136 20.1608 6.78708 19.6046C7.96549 17.1917 9.13988 14.7748 10.3183 12.3619C10.3384 12.3099 10.3706 12.2578 10.3987 12.2018Z" fill="#858997" />
    <path d="M12.7192 12.638C13.0128 12.5019 13.3024 12.3659 13.6081 12.2258C13.7167 12.4499 13.8333 12.69 13.9499 12.9261C15.2892 15.6791 16.6325 18.4281 17.9718 21.1812C18.0241 21.2852 18.0683 21.4053 18.0724 21.5213C18.0844 21.7414 17.9155 21.9335 17.7023 21.9855C17.4691 22.0415 17.2439 21.9335 17.1272 21.6934C16.8457 21.1252 16.5722 20.5529 16.2947 19.9847C15.1324 17.5998 13.97 15.2109 12.8077 12.826C12.7755 12.758 12.7474 12.694 12.7192 12.638Z" fill="#858997" />
    <path d="M13.8653 9.98097C13.8653 11.0014 13.0368 11.8297 12.0112 11.8217C11.0017 11.8177 10.1813 10.9974 10.1773 10.001C10.1732 8.97259 10.9897 8.15628 12.0193 8.15628C13.0449 8.15628 13.8613 8.96459 13.8653 9.98097ZM12.0273 9.06462C11.5206 9.06062 11.1023 9.46477 11.0942 9.96496C11.0862 10.4692 11.5085 10.9013 12.0153 10.9093C12.518 10.9173 12.9524 10.4852 12.9483 9.98097C12.9483 9.48078 12.5341 9.06863 12.0273 9.06462Z" fill="#858997" />
    <path d="M13.4112 16.0673C12.4581 16.2793 11.5411 16.2753 10.5879 16.0553C11.0544 15.0949 11.5169 14.1505 11.9955 13.1662C12.4742 14.1465 12.9367 15.0949 13.4112 16.0673Z" fill="#858997" />
    <path d="M13.8054 16.8835C13.9341 17.1436 14.0547 17.3957 14.1874 17.6678C12.7275 18.068 11.2836 18.056 9.80762 17.6598C9.9323 17.4077 10.0409 17.1717 10.1656 16.9396C10.1817 16.9076 10.2701 16.8955 10.3144 16.9076C11.4727 17.1757 12.627 17.1677 13.8054 16.8835Z" fill="#858997" />
</svg>
