<svg width="24" height="24" viewBox="0 0 24 24" fill="none"
    xmlns="http://www.w3.org/2000/svg">
    <path d="M10.217 13.5393C10.217 13.2152 9.95424 12.9524 9.6301 12.9524H9.4251L7.41499 8.41486C7.02914 8.51632 6.64044 8.60522 6.24951 8.68211L8.14125 12.9524H4.07584L5.94196 8.73994C5.48767 8.82148 5.03065 8.88671 4.57167 8.93496L2.79195 12.9524H2.58695C2.26281 12.9524 2.00003 13.2152 2.00003 13.5393C1.99134 15.5564 4.1431 16.9103 6.10853 16.8652C8.07356 16.9108 10.2263 15.5559 10.217 13.5393Z" fill="#858997" />
    <path d="M21.3684 12.9524H21.1634L19.3837 8.93496C18.9247 8.88671 18.4677 8.82148 18.0134 8.73994L19.8795 12.9524H15.8141L17.7058 8.68211C17.3149 8.60526 16.9262 8.51632 16.5404 8.41486L14.5302 12.9524H14.3252C14.0011 12.9524 13.7383 13.2152 13.7383 13.5393C13.7383 14.456 14.1851 15.3084 14.9963 15.9394C16.5093 17.1652 19.1843 17.1653 20.6972 15.9393C21.5085 15.3084 21.9552 14.456 21.9552 13.5393C21.9553 13.2152 21.6925 12.9524 21.3684 12.9524Z" fill="#858997" />
    <path d="M2.58746 7.86544C4.19823 7.86544 5.80195 7.64683 7.3541 7.21575C10.379 6.37546 13.5767 6.37546 16.6016 7.21575C18.1537 7.64687 19.7574 7.86544 21.3681 7.86544C22.0339 7.86544 22.1853 6.9323 21.5537 6.72175H21.5537C20.0303 6.21394 18.5461 5.56108 17.1424 4.78121L16.2151 4.26608C15.0935 3.64296 13.8422 3.27487 12.5647 3.1882V2.5832C12.5358 1.80528 11.4194 1.80587 11.3908 2.5832V3.1882C10.1133 3.27487 8.86208 3.64296 7.74046 4.26608L6.81311 4.78121C5.40941 5.56108 3.92527 6.21394 2.40184 6.72175H2.4018C1.77026 6.9323 1.92169 7.86544 2.58746 7.86544Z" fill="#858997" />
    <path d="M14.3258 19.6825H9.63041C8.65795 19.6825 7.86963 20.4708 7.86963 21.4433C7.86963 21.7674 8.13242 22.0302 8.45656 22.0302H15.4997C15.8238 22.0302 16.0866 21.7674 16.0866 21.4433C16.0866 20.4708 15.2983 19.6825 14.3258 19.6825Z" fill="#858997" />
    <path d="M11.3906 18.5086H12.5645V7.77049C12.1736 7.75594 11.7815 7.75594 11.3906 7.77049V18.5086Z" fill="#858997" />
</svg>
