<svg width="24" height="24" viewBox="0 0 24 24" fill="none"
    xmlns="http://www.w3.org/2000/svg">
    <path d="M4.38281 18.4844V19.6562H3.35156L2 22H10.2422L8.89061 19.6562H7.89843V18.4844H6.72655V5.4077C7.4071 5.165 7.89843 4.5207 7.89843 3.75781C7.89843 2.78852 7.10991 2 6.14062 2C5.17132 2 4.38281 2.78852 4.38281 3.75781C4.38281 4.5207 4.87413 5.165 5.55468 5.4077V18.4844H4.38281Z" fill="#858997" />
    <path d="M15.0808 4.47307C13.2423 4.85814 12.1791 5.43322 11.3254 5.89557C10.4711 6.35732 9.83195 6.69322 8.76305 6.68576C8.4868 6.68342 8.19121 6.60986 7.89844 6.51025V13.6708C8.42234 13.7363 8.96258 13.7777 9.51261 13.7777C11.4655 13.7777 13.4957 13.3303 14.9823 12.191C16.2526 11.1158 16.7133 11.2886 17.7336 11.7046L18.7001 12.0989L18.533 11.0683C18.3287 9.81006 17.9694 8.80186 17.4138 7.94068C18.1405 7.29865 19.3112 6.74705 20.5615 6.29787L22 5.77998L20.5838 5.20377C18.6544 4.41756 16.6675 4.17037 15.0808 4.47307Z" fill="#858997" />
</svg>
