<svg width="24" height="24" viewBox="0 0 24 24" fill="none"
    xmlns="http://www.w3.org/2000/svg">
    <path d="M14.8608 12.8367L16.8664 13.2347C16.8872 14.2184 17.7015 14.9991 18.6852 14.9783C19.6689 14.9575 20.4496 14.1432 20.4288 13.1595C20.408 12.1757 19.5937 11.3951 18.61 11.4159C17.9191 11.4305 17.299 11.8433 17.0189 12.475L14.9613 12.0666C14.9592 11.3136 14.6661 10.5906 14.1435 10.0487L16.8066 6.28654C17.9299 6.82065 19.2735 6.34301 19.8076 5.21972C20.3417 4.09642 19.8641 2.75285 18.7408 2.21874C17.6175 1.68463 16.2739 2.16227 15.7398 3.28556C15.3321 4.14306 15.5059 5.16412 16.1745 5.83835L13.537 9.56412C12.3241 8.83564 10.7636 9.08047 9.83195 10.1453L6.36945 7.45628C6.82395 6.58145 6.48322 5.50377 5.60839 5.04928C4.73355 4.59479 3.65588 4.93551 3.20138 5.81035C2.74689 6.68519 3.08762 7.76286 3.96245 8.21735C4.57716 8.53672 5.32113 8.47162 5.87099 8.05036L9.40027 10.7912C8.81385 11.9893 9.11272 13.4324 10.1268 14.299L7.98192 17.3315C6.84642 16.6424 5.36724 17.0043 4.67814 18.1398C3.98904 19.2753 4.35093 20.7545 5.48648 21.4436C6.62198 22.1327 8.10116 21.7708 8.79026 20.6353C9.32578 19.7528 9.23845 18.627 8.57318 17.8377L10.7759 14.7225C11.5295 15.0808 12.4002 15.1003 13.1691 14.7762L15.7827 18.637C15.014 19.4497 15.0497 20.7317 15.8624 21.5004C16.6751 22.269 17.9571 22.2333 18.7258 21.4206C19.4944 20.608 19.4587 19.326 18.646 18.5573C18.0468 17.9905 17.1637 17.8437 16.4133 18.1862L13.8374 14.381C14.3362 13.9901 14.6953 13.4484 14.8608 12.8367Z" fill="#858997" />
</svg>
