<svg width="24" height="24" viewBox="0 0 24 24" fill="none"
    xmlns="http://www.w3.org/2000/svg">
    <g clipPath="url(#clip0_22_3554)">
        <path d="M22.0001 7.73645C21.9501 7.93662 21.8833 8.22019 21.7833 8.52044C20.7991 11.573 19.7983 14.6422 18.7974 17.6948C18.3804 18.9792 17.8133 19.2627 16.5289 18.8457C14.5105 18.1785 12.4755 17.5113 10.4405 16.844C9.17276 16.427 8.87251 15.8599 9.3062 14.5755C10.307 11.4562 11.3245 8.35363 12.3421 5.23437C12.7257 4.06673 13.3095 3.76648 14.5105 4.15013C16.629 4.83404 18.7307 5.51794 20.8492 6.20184C21.5331 6.43537 22.0001 6.8357 22.0001 7.73645ZM16.0618 9.55464C15.4613 8.40368 14.8942 8.05338 14.0435 8.33695C13.1928 8.60384 12.6256 9.52127 12.8425 10.6222C12.9926 11.4229 13.2929 12.2402 13.7266 12.9241C14.7107 14.4754 14.3604 14.3086 16.0285 13.6914C17.1794 13.2744 18.2136 12.6739 18.6807 11.4562C19.1311 10.2886 18.3637 9.08758 17.2128 9.17098C16.8291 9.20434 16.4455 9.42119 16.0618 9.55464Z" fill="#858997" />
        <path d="M9.20582 17.6113C7.48772 17.7281 6.9873 17.2777 6.9873 15.6597C6.9873 12.5238 6.9873 9.37114 6.9873 6.2352C6.9873 4.66722 7.38764 4.28357 8.97229 4.28357C9.77296 4.28357 10.5736 4.28357 11.4911 4.28357C11.0907 5.51793 10.7404 6.63553 10.3735 7.76981C9.68956 9.85488 9.00565 11.9399 8.33843 14.025C7.78797 15.7264 7.92142 16.2936 9.20582 17.6113Z" fill="#858997" />
        <path d="M5.93683 5.31778C5.93683 8.92078 5.93683 12.3903 5.93683 15.8599C5.93683 17.3445 6.3038 17.945 7.60488 18.6456C6.60405 19.3461 5.66994 19.0959 5.28629 17.9616C4.21873 14.6756 3.15117 11.4062 2.1003 8.1ss68C1.81673 7.26941 2.1003 6.61886 2.90097 6.31861C3.86844 5.95164 4.85259 5.66807 5.93683 5.31778Z" fill="#858997" />
    </g>
    <defs>
        <clipPath id="clip0_22_3554">
            <rect width="20" height="15.0292" fill="#858997" transform="translate(2 4)" />
        </clipPath>
    </defs>
</svg>
