<svg width="24" height="24" viewBox="0 0 24 24" fill="none"
    xmlns="http://www.w3.org/2000/svg">
    <path d="M12.4995 4.00016C12.0928 4.00016 11.7195 3.76683 11.5328 3.40683L11.0528 2.44016C10.7461 1.8335 9.94613 1.3335 9.26613 1.3335H7.73946C7.05279 1.3335 6.25279 1.8335 5.94613 2.44016L5.46613 3.40683C5.27946 3.76683 4.90613 4.00016 4.49946 4.00016C3.05279 4.00016 1.90613 5.22016 1.99946 6.66016L2.34613 12.1668C2.42613 13.5402 3.16613 14.6668 5.00613 14.6668H11.9928C13.8328 14.6668 14.5661 13.5402 14.6528 12.1668L14.9995 6.66016C15.0928 5.22016 13.9461 4.00016 12.4995 4.00016ZM7.49946 4.8335H9.49946C9.77279 4.8335 9.99946 5.06016 9.99946 5.3335C9.99946 5.60683 9.77279 5.8335 9.49946 5.8335H7.49946C7.22613 5.8335 6.99946 5.60683 6.99946 5.3335C6.99946 5.06016 7.22613 4.8335 7.49946 4.8335ZM8.49946 12.0802C7.25946 12.0802 6.24613 11.0735 6.24613 9.82683C6.24613 8.58016 7.25279 7.5735 8.49946 7.5735C9.74613 7.5735 10.7528 8.58016 10.7528 9.82683C10.7528 11.0735 9.73946 12.0802 8.49946 12.0802Z" fill="white" />
</svg>
