<svg width="24" height="24" viewBox="0 0 24 24" fill="none"
    xmlns="http://www.w3.org/2000/svg">
    <path d="M13.2277 21.8087L15.1416 19.8949C15.775 20.3313 16.5418 20.5883 17.3693 20.5883C19.5409 20.5883 21.3014 18.8278 21.3014 16.6562C21.3014 14.4846 19.5409 12.7241 17.3693 12.7241C15.1977 12.7241 13.4372 14.4846 13.4372 16.6562C13.4372 17.4838 13.6942 18.2505 14.1307 18.8839L12.2168 20.7978L13.2277 21.8087ZM14.867 16.6562C14.867 15.2743 15.9873 14.154 17.3693 14.154C18.7512 14.154 19.8715 15.2743 19.8715 16.6562C19.8715 18.0382 18.7512 19.1585 17.3693 19.1585C15.9873 19.1585 14.867 18.0382 14.867 16.6562Z" fill="#858997" />
    <path d="M10.7613 20.2307L12.3774 18.6146C12.1333 17.9951 12.0067 17.3334 12.0067 16.656C12.0067 13.6994 14.4121 11.2941 17.3687 11.2941C18.4204 11.2941 19.3998 11.6029 20.2284 12.128V2.71493C20.2284 2.31993 19.9081 2 19.5135 2H5.21493C4.82029 2 4.5 2.31993 4.5 2.71493V19.5157C4.5 19.9104 4.82029 20.2307 5.21493 20.2307H10.7613ZM17.7262 8.43436H7.00225V7.0045H17.7262V8.43436ZM17.7262 5.57464H7.00225V4.14479H17.7262V5.57464Z" fill="#858997" />
</svg>
