<svg xmlns="http://www.w3.org/2000/svg" viewBox="0 0 130 180"><defs><style>.cls-1{fill:#fff;}</style></defs><g id="Layer_2" data-name="Layer 2"><g id="Ñëîé_1" data-name="Ñëîé 1"><rect class="cls-1" width="130" height="180" rx="10.03"/><path d="M29.89,79.11c-.47-.47-1.07-1.33-1.07-3.45V10.6H25.21l-.4,1a8.68,8.68,0,0,1-3.18,4.17,10.44,10.44,0,0,1-5.81,1.45H11.41v6.32h7.38a1.73,1.73,0,0,1,1.88,1.78V75.66a5.1,5.1,0,0,1-1,3.51c-.48.56-1.57,1.22-3.88,1.22H11.41v6.32h27V80.39H33.67A5.09,5.09,0,0,1,29.89,79.11Z"/><path d="M61.57,76.92c2.87-6.8,4.33-16.17,4.33-27.84s-1.47-21-4.35-27.65C58.58,14.52,54.73,11,50.15,11c-4.8,0-8.73,3.65-11.71,10.85-2.87,6.94-4.32,16.1-4.32,27.21,0,12,1.51,21.42,4.49,28.08,3.07,6.89,7,10.39,11.54,10.39S58.59,84,61.57,76.92Zm-5.86-4.1h0c-1.42,5.09-3.24,7.56-5.56,7.56s-4-2.5-5.58-7.64C42.85,67.24,42,59.27,42,49.08c0-9.66.87-17.42,2.6-23.08,1.59-5.27,3.42-7.82,5.57-7.82,2.53,0,4.34,2.45,5.68,7.71C57.29,31.57,58,39.37,58,49.08,58,59.3,57.24,67.29,55.71,72.82Z"/><path d="M25.48,166.61v-3.22h1.1a7.61,7.61,0,0,0,7.56-6.83A12.51,12.51,0,0,1,17.43,138l18.35-18.35L54.14,138a12.52,12.52,0,0,1-16.73,18.57A7.62,7.62,0,0,0,45,163.39h1.11v3.22Z"/><path class="cls-1" d="M35.78,121.19l17.58,17.58A11.41,11.41,0,0,1,37.22,154.9l-.94-.94v1.83A8.71,8.71,0,0,0,45,164.5v1H26.58v-1a8.7,8.7,0,0,0,8.7-8.71V154l-.94.94a11.41,11.41,0,0,1-16.13-16.13l17.57-17.58m0-3.11-1.56,1.55L16.65,137.21a13.62,13.62,0,0,0,15.52,21.91,6.51,6.51,0,0,1-5.59,3.17h-2.2v5.42H47.19v-5.42H45a6.5,6.5,0,0,1-5.59-3.18,13.62,13.62,0,0,0,15.53-21.9L37.34,119.63l-1.56-1.55Z"/><path d="M79.85,127v-4h1.38a9.6,9.6,0,0,0,9.53-8.61A15.77,15.77,0,0,1,69.69,91L92.83,67.83,116,91a15.78,15.78,0,0,1-21.09,23.41,9.62,9.62,0,0,0,9.55,8.62h1.38v4Z"/><path class="cls-1" d="M92.83,69.79,115,91.94a14.38,14.38,0,0,1-20.34,20.34l-1.19-1.2v2.31a11,11,0,0,0,11,11v1.27H81.23v-1.27a11,11,0,0,0,11-11v-2.3L91,112.28A14.38,14.38,0,1,1,70.68,91.94L92.83,69.79m0-3.93-2,2L68.71,90a17.17,17.17,0,0,0,19.56,27.61,8.19,8.19,0,0,1-7,4H78.45v6.82H107.2v-6.82h-2.77a8.21,8.21,0,0,1-7.05-4A17.16,17.16,0,0,0,116.94,90L94.79,67.82l-2-2Z"/></g></g></svg>