<svg xmlns="http://www.w3.org/2000/svg" viewBox="0 0 130 180"><defs><style>.cls-1{fill:#fff;}.cls-2{fill:#b4171e;}</style></defs><g id="Layer_2" data-name="Layer 2"><g id="Ñëîé_1" data-name="Ñëîé 1"><rect class="cls-1" width="130" height="180" rx="10.03"/><path class="cls-2" d="M29.89,79.11c-.47-.47-1.07-1.33-1.07-3.45V10.6H25.21l-.4,1a8.68,8.68,0,0,1-3.18,4.17,10.44,10.44,0,0,1-5.81,1.45H11.41v6.32h7.38a1.73,1.73,0,0,1,1.88,1.78V75.66a5.1,5.1,0,0,1-1,3.51c-.48.56-1.57,1.22-3.88,1.22H11.41v6.32h27V80.39H33.67A5.09,5.09,0,0,1,29.89,79.11Z"/><path class="cls-2" d="M61.57,76.92c2.87-6.8,4.33-16.17,4.33-27.84s-1.47-21-4.35-27.65C58.58,14.52,54.73,11,50.15,11c-4.8,0-8.73,3.65-11.71,10.85-2.87,6.94-4.32,16.1-4.32,27.21,0,12,1.51,21.42,4.49,28.08,3.07,6.89,7,10.39,11.54,10.39S58.59,84,61.57,76.92Zm-5.86-4.1h0c-1.42,5.09-3.24,7.56-5.56,7.56s-4-2.5-5.58-7.64C42.85,67.24,42,59.27,42,49.08c0-9.66.87-17.42,2.6-23.08,1.59-5.27,3.42-7.82,5.57-7.82,2.53,0,4.34,2.45,5.68,7.71C57.29,31.57,58,39.37,58,49.08,58,59.3,57.24,67.29,55.71,72.82Z"/><path class="cls-2" d="M14,144.41A14.82,14.82,0,0,1,24.52,119.1,14.7,14.7,0,0,1,35,123.44l.79.78.77-.79a14.83,14.83,0,0,1,21,21L35.79,166.15Z"/><path class="cls-1" d="M47.05,120.4a13.52,13.52,0,0,1,9.56,23.08L35.78,164.31,15,143.48a13.52,13.52,0,1,1,19.12-19.12l1.7,1.7,1.71-1.7a13.48,13.48,0,0,1,9.56-4m0-2.61a16,16,0,0,0-11.27,4.58,16.13,16.13,0,0,0-22.67,23l20.83,20.82L35.78,168l1.85-1.85,20.83-20.82a16.13,16.13,0,0,0-11.41-27.54Z"/><path class="cls-2" d="M67.38,102.13a17.22,17.22,0,0,1,12.17-29.4,17.06,17.06,0,0,1,12.18,5l.91.9.9-.91a17.22,17.22,0,0,1,24.36,24.35L92.64,127.38Z"/><path class="cls-1" d="M105.72,74.25a15.7,15.7,0,0,1,11.1,26.8L92.64,125.23,68.45,101.05a15.7,15.7,0,0,1,22.21-22.2l2,2,2-2a15.62,15.62,0,0,1,11.1-4.6m0-3a18.58,18.58,0,0,0-13.08,5.33,18.73,18.73,0,0,0-26.33,26.65l24.18,24.19,2.15,2.14,2.14-2.14L119,103.19a18.74,18.74,0,0,0-13.25-32Z"/></g></g></svg>