<svg xmlns="http://www.w3.org/2000/svg" viewBox="0 0 130 180"><defs><style>.cls-1{fill:#fff;}</style></defs><g id="Layer_2" data-name="Layer 2"><g id="Ñëîé_1" data-name="Ñëîé 1"><rect class="cls-1" width="130" height="180" rx="10.03"/><path d="M29.89,79.11c-.47-.47-1.07-1.33-1.07-3.45V10.6H25.21l-.4,1a8.68,8.68,0,0,1-3.18,4.17,10.44,10.44,0,0,1-5.81,1.45H11.41v6.32h7.38a1.73,1.73,0,0,1,1.88,1.78V75.66a5.1,5.1,0,0,1-1,3.51c-.48.56-1.57,1.22-3.88,1.22H11.41v6.32h27V80.39H33.67A5.09,5.09,0,0,1,29.89,79.11Z"/><path d="M61.57,76.92c2.87-6.8,4.33-16.17,4.33-27.84s-1.47-21-4.35-27.65C58.58,14.52,54.73,11,50.15,11c-4.8,0-8.73,3.65-11.71,10.85-2.87,6.94-4.32,16.1-4.32,27.21,0,12,1.51,21.42,4.49,28.08,3.07,6.89,7,10.39,11.54,10.39S58.59,84,61.57,76.92Zm-5.86-4.1h0c-1.42,5.09-3.24,7.56-5.56,7.56s-4-2.5-5.58-7.64C42.85,67.24,42,59.27,42,49.08c0-9.66.87-17.42,2.6-23.08,1.59-5.27,3.42-7.82,5.57-7.82,2.53,0,4.34,2.45,5.68,7.71C57.29,31.57,58,39.37,58,49.08,58,59.3,57.24,67.29,55.71,72.82Z"/><path d="M27.85,168.06v-3.67h1.28a8.47,8.47,0,0,0,8.45-8.47v-1.41a4.54,4.54,0,0,0-.5.36,12.58,12.58,0,0,1-10.33,5.31,12.82,12.82,0,1,1,0-25.63,11.61,11.61,0,0,1,1.17.06A12.62,12.62,0,0,1,26.6,129a12.82,12.82,0,1,1,25.63,0,12.62,12.62,0,0,1-1.32,5.59,11.66,11.66,0,0,1,1.18-.06,12.82,12.82,0,1,1-10.54,20.09,2.13,2.13,0,0,0-.31-.18v1.46a8.47,8.47,0,0,0,8.47,8.47H51v3.67Z"/><path class="cls-1" d="M39.41,117.48a11.49,11.49,0,0,1,8.66,19.1,11.34,11.34,0,0,1,4-.76,11.54,11.54,0,1,1-9.49,18.09A4.9,4.9,0,0,0,40,152.78v3.14a9.73,9.73,0,0,0,9.73,9.74v1.13H29.12v-1.13a9.74,9.74,0,0,0,9.74-9.74v-3.14a4.87,4.87,0,0,0-2.62,1.13,11.6,11.6,0,1,1-5.48-17.33,11.48,11.48,0,0,1,8.65-19.1m0-2.55A14.1,14.1,0,0,0,25.32,129a13.73,13.73,0,0,0,.69,4.27A14.09,14.09,0,1,0,36,158a7.19,7.19,0,0,1-6.89,5.14H26.57v6.23H52.25v-6.23H49.7A7.21,7.21,0,0,1,42.81,158a14.09,14.09,0,1,0,10-24.67A13.72,13.72,0,0,0,53.5,129a14.1,14.1,0,0,0-14.09-14.09Z"/><path d="M77.55,126.55v-4.24H79a9.77,9.77,0,0,0,9.76-9.76v-1.63a4.75,4.75,0,0,0-.58.42,14.51,14.51,0,0,1-11.92,6.12,14.79,14.79,0,1,1,0-29.57,12.34,12.34,0,0,1,1.35.07,14.5,14.5,0,0,1-1.52-6.46,14.79,14.79,0,0,1,29.57,0A14.63,14.63,0,0,1,104.16,88a12.39,12.39,0,0,1,1.36-.07,14.79,14.79,0,1,1-12.16,23.18l-.36-.2v1.68a9.77,9.77,0,0,0,9.77,9.76h1.47v4.24Z"/><path class="cls-1" d="M90.89,68.19a13.25,13.25,0,0,1,10,22,13.14,13.14,0,0,1,4.63-.87,13.32,13.32,0,1,1-11,20.87,5.55,5.55,0,0,0-3-1.3v3.62a11.23,11.23,0,0,0,11.24,11.23v1.3H79v-1.3a11.23,11.23,0,0,0,11.23-11.23v-3.62a5.59,5.59,0,0,0-3,1.3,13.37,13.37,0,1,1-6.32-20,13.25,13.25,0,0,1,10-22m0-2.94A16.22,16.22,0,0,0,75.42,86.44,16.26,16.26,0,1,0,87,114.91a8.32,8.32,0,0,1-8,5.93H76.08V128h29.63v-7.19h-2.94a8.32,8.32,0,0,1-8-5.94,16.25,16.25,0,1,0,11.55-28.46,15.85,15.85,0,0,0,.79-4.93A16.27,16.27,0,0,0,90.89,65.25Z"/></g></g></svg>