<svg xmlns="http://www.w3.org/2000/svg" viewBox="0 0 130 180"><defs><style>.cls-1{fill:#fff;}.cls-2{fill:#b4171e;}</style></defs><g id="Layer_2" data-name="Layer 2"><g id="Ñëîé_1" data-name="Ñëîé 1"><rect class="cls-1" width="130" height="180" rx="10.03"/><path class="cls-2" d="M29.89,79.11c-.47-.47-1.07-1.33-1.07-3.45V10.6H25.21l-.4,1a8.68,8.68,0,0,1-3.18,4.17,10.44,10.44,0,0,1-5.81,1.45H11.41v6.32h7.38a1.73,1.73,0,0,1,1.88,1.78V75.66a5.1,5.1,0,0,1-1,3.51c-.48.56-1.57,1.22-3.88,1.22H11.41v6.32h27V80.39H33.67A5.09,5.09,0,0,1,29.89,79.11Z"/><path class="cls-2" d="M61.57,76.92c2.87-6.8,4.33-16.17,4.33-27.84s-1.47-21-4.35-27.65C58.58,14.52,54.73,11,50.15,11c-4.8,0-8.73,3.65-11.71,10.85-2.87,6.94-4.32,16.1-4.32,27.21,0,12,1.51,21.42,4.49,28.08,3.07,6.89,7,10.39,11.54,10.39S58.59,84,61.57,76.92Zm-5.86-4.1h0c-1.42,5.09-3.24,7.56-5.56,7.56s-4-2.5-5.58-7.64C42.85,67.24,42,59.27,42,49.08c0-9.66.87-17.42,2.6-23.08,1.59-5.27,3.42-7.82,5.57-7.82,2.53,0,4.34,2.45,5.68,7.71C57.29,31.57,58,39.37,58,49.08,58,59.3,57.24,67.29,55.71,72.82Z"/><path class="cls-2" d="M34.65,167.37a68.92,68.92,0,0,0-11.72-14.89,77.46,77.46,0,0,0-12.63-9.91l-1.75-1.11,1.75-1.1a77.45,77.45,0,0,0,12.63-9.9,69.16,69.16,0,0,0,11.72-14.89l1.13-1.95,1.13,1.95a69.47,69.47,0,0,0,11.72,14.89,78.31,78.31,0,0,0,12.63,9.9l1.75,1.1-1.75,1.11a77.89,77.89,0,0,0-12.63,9.91,69.23,69.23,0,0,0-11.72,14.89l-1.13,1.95Z"/><path class="cls-1" d="M35.78,116.22A70.19,70.19,0,0,0,47.72,131.4a79.56,79.56,0,0,0,12.85,10.07,79.56,79.56,0,0,0-12.85,10.07,70.41,70.41,0,0,0-11.94,15.17,70.41,70.41,0,0,0-11.94-15.17A79.56,79.56,0,0,0,11,141.47,79.56,79.56,0,0,0,23.84,131.4a70.19,70.19,0,0,0,11.94-15.18m0-5.19-2.26,3.88A67.61,67.61,0,0,1,22,129.52,76.19,76.19,0,0,1,9.6,139.26l-3.49,2.21,3.49,2.21A77,77,0,0,1,22,153.41,67.43,67.43,0,0,1,33.52,168l2.26,3.88L38,168a68,68,0,0,1,11.5-14.62A77,77,0,0,1,62,143.68l3.49-2.21L62,139.26a77.05,77.05,0,0,1-12.42-9.74A67.92,67.92,0,0,1,38,114.91L35.78,111Z"/><path class="cls-2" d="M89.3,134.44A84.16,84.16,0,0,0,75,116.21,95.09,95.09,0,0,0,59.5,104.07l-2.15-1.35,2.15-1.34A96.18,96.18,0,0,0,75,89.25,84.35,84.35,0,0,0,89.3,71l1.38-2.39L92.07,71a84.3,84.3,0,0,0,14.34,18.22,96.26,96.26,0,0,0,15.46,12.13l2.15,1.34-2.15,1.35a95.6,95.6,0,0,0-15.46,12.14,84.11,84.11,0,0,0-14.34,18.23l-1.39,2.38Z"/><path class="cls-1" d="M90.68,71.83A86.45,86.45,0,0,0,105.3,90.4,96.65,96.65,0,0,0,121,102.73a97.66,97.66,0,0,0-15.72,12.32,86.47,86.47,0,0,0-14.62,18.58,86.15,86.15,0,0,0-14.62-18.58,97.66,97.66,0,0,0-15.72-12.32A96.65,96.65,0,0,0,76.06,90.4,86.13,86.13,0,0,0,90.68,71.83m0-6.36-2.76,4.75A83.33,83.33,0,0,1,73.84,88.11,93.85,93.85,0,0,1,58.63,100l-4.27,2.7,4.27,2.7a94.29,94.29,0,0,1,15.21,11.92,83.15,83.15,0,0,1,14.08,17.89L90.68,140l2.76-4.75a83.46,83.46,0,0,1,14.08-17.89,94.73,94.73,0,0,1,15.21-11.92l4.27-2.7-4.27-2.7a93.77,93.77,0,0,1-15.2-11.92A83.44,83.44,0,0,1,93.44,70.22l-2.76-4.75Z"/><path class="cls-2" d="M89.3,134.44A84.16,84.16,0,0,0,75,116.21,95.09,95.09,0,0,0,59.5,104.07l-2.15-1.35,2.15-1.34A96.18,96.18,0,0,0,75,89.25,84.35,84.35,0,0,0,89.3,71l1.38-2.39L92.07,71a84.3,84.3,0,0,0,14.34,18.22,96.26,96.26,0,0,0,15.46,12.13l2.15,1.34-2.15,1.35a95.6,95.6,0,0,0-15.46,12.14,84.11,84.11,0,0,0-14.34,18.23l-1.39,2.38Z"/><path class="cls-1" d="M90.68,71.83A86.45,86.45,0,0,0,105.3,90.4,96.65,96.65,0,0,0,121,102.73a97.66,97.66,0,0,0-15.72,12.32,86.47,86.47,0,0,0-14.62,18.58,86.15,86.15,0,0,0-14.62-18.58,97.66,97.66,0,0,0-15.72-12.32A96.65,96.65,0,0,0,76.06,90.4,86.13,86.13,0,0,0,90.68,71.83m0-6.36-2.76,4.75A83.33,83.33,0,0,1,73.84,88.11,93.85,93.85,0,0,1,58.63,100l-4.27,2.7,4.27,2.7a94.29,94.29,0,0,1,15.21,11.92,83.15,83.15,0,0,1,14.08,17.89L90.68,140l2.76-4.75a83.46,83.46,0,0,1,14.08-17.89,94.73,94.73,0,0,1,15.21-11.92l4.27-2.7-4.27-2.7a93.77,93.77,0,0,1-15.2-11.92A83.44,83.44,0,0,1,93.44,70.22l-2.76-4.75Z"/></g></g></svg>