<svg xmlns="http://www.w3.org/2000/svg" viewBox="0 0 130 180"><defs><style>.cls-1{fill:#fff;}.cls-2{fill:#b4171e;}</style></defs><g id="Layer_2" data-name="Layer 2"><g id="Ñëîé_1" data-name="Ñëîé 1"><rect class="cls-1" width="130" height="180" rx="10.03"/><path class="cls-2" d="M10.28,89.66V79.93l.44-.77A72.43,72.43,0,0,1,18,68.92c3.29-4,7.72-8.79,13.18-14.25a56.87,56.87,0,0,0,10-12.77,22.37,22.37,0,0,0,3-10.3c0-4.26-.88-7.46-2.6-9.52C40,20.18,37.5,19.25,34,19.25a10.47,10.47,0,0,0-6.65,2.07A5.09,5.09,0,0,0,25,25.66a2.3,2.3,0,0,0,.58,1.72A9.35,9.35,0,0,1,28,33.3,7.43,7.43,0,0,1,26,38.84a7.47,7.47,0,0,1-5.54,2A8.83,8.83,0,0,1,14,38.42c-1.63-1.62-2.46-4.06-2.46-7.25,0-7,2.6-12.51,7.74-16.27A25.85,25.85,0,0,1,34.83,9.58c7.7,0,13.58,2.07,17.48,6.12a21,21,0,0,1,5.81,15.05,27.81,27.81,0,0,1-2.63,11.56,34.46,34.46,0,0,1-8.24,10.87c-8,7.71-14.25,14.11-18.6,19-1.53,1.74-3.8,4.4-3.8,4.4H43.33a4.67,4.67,0,0,0,3.81-1.8c1.25-1.45,2.13-3.87,2.62-7.21l.41-2.86h9.3L56,89.66Z"/><path class="cls-1" d="M34.83,10.9c7.33,0,12.88,1.92,16.53,5.71A19.75,19.75,0,0,1,56.8,30.75a26.49,26.49,0,0,1-2.51,11,33.08,33.08,0,0,1-7.93,10.44C38.32,60,32,66.41,27.66,71.34c-1.54,1.74-2.77,3.17-3.75,4.35l-1.86,2.24H43.32a6,6,0,0,0,4.82-2.27c1.42-1.66,2.4-4.31,2.92-7.87l.26-1.74H58l-3.11,22.3H11.59V80.28l.27-.46a69.66,69.66,0,0,1,7.19-10.06c3.27-4,7.67-8.75,13.08-14.15A58.18,58.18,0,0,0,42.38,42.52,23.66,23.66,0,0,0,45.52,31.6c0-4.58-1-8.06-2.91-10.36s-4.69-3.3-8.63-3.3a11.75,11.75,0,0,0-7.46,2.34,6.39,6.39,0,0,0-2.8,5.38,3.58,3.58,0,0,0,1,2.67,7.92,7.92,0,0,1,2,5A6.21,6.21,0,0,1,25,37.91a6.23,6.23,0,0,1-4.61,1.66,7.57,7.57,0,0,1-5.48-2.08c-1.37-1.37-2.06-3.49-2.06-6.32,0-6.59,2.42-11.71,7.19-15.21A24.58,24.58,0,0,1,34.83,10.9m0-2.63A27.15,27.15,0,0,0,18.5,13.84c-5.48,4-8.26,9.86-8.26,17.33,0,3.56.95,6.31,2.83,8.18a10.17,10.17,0,0,0,7.34,2.85,8.91,8.91,0,0,0,6.48-2.43,8.78,8.78,0,0,0,2.42-6.48,10.49,10.49,0,0,0-2.53-6.56,1.36,1.36,0,0,1-.43-1.07,3.82,3.82,0,0,1,1.77-3.3A9.18,9.18,0,0,1,34,20.57c4.14,0,5.77,1.35,6.63,2.37,1.51,1.8,2.29,4.72,2.29,8.66a21.15,21.15,0,0,1-2.84,9.69,56,56,0,0,1-9.79,12.47C24.83,59.19,20.37,64,17,68.09A72.21,72.21,0,0,0,9.56,78.55L9.31,79l-.35.6V91H57.13l.32-2.27,3.11-22.3.42-3H49l-.32,2.25-.26,1.74c-.56,3.83-1.57,5.67-2.31,6.54a3.37,3.37,0,0,1-2.83,1.35H27.69c.58-.68,1.23-1.41,1.94-2.22C34,68.2,40.2,61.82,48.19,54.1a35.75,35.75,0,0,0,8.49-11.23,29.06,29.06,0,0,0,2.75-12.12A22.27,22.27,0,0,0,53.26,14.8C49.09,10.46,42.9,8.27,34.83,8.27Z"/><path class="cls-2" d="M13.48,144.41A14.82,14.82,0,0,1,24,119.1a14.72,14.72,0,0,1,10.49,4.34l.79.78.77-.79a14.83,14.83,0,0,1,21,21L35.24,166.15Z"/><path class="cls-1" d="M46.5,120.4a13.52,13.52,0,0,1,9.56,23.08L35.23,164.31,14.41,143.48a13.52,13.52,0,1,1,19.12-19.12l1.7,1.7,1.71-1.7a13.48,13.48,0,0,1,9.56-4m0-2.61a16,16,0,0,0-11.27,4.58,16.13,16.13,0,0,0-22.67,23l20.83,20.82L35.23,168l1.85-1.85,20.83-20.82A16.13,16.13,0,0,0,46.5,117.79Z"/><path class="cls-2" d="M66.7,102.13a17.22,17.22,0,0,1,12.18-29.4,17,17,0,0,1,12.17,5l.91.9.9-.91a17.23,17.23,0,1,1,24.37,24.35L92,127.38Z"/><path class="cls-1" d="M105,74.25a15.7,15.7,0,0,1,11.11,26.8L92,125.23,67.78,101.05A15.7,15.7,0,1,1,90,78.85l2,2,2-2a15.65,15.65,0,0,1,11.1-4.6m0-3A18.6,18.6,0,0,0,92,76.54a18.73,18.73,0,0,0-26.33,26.65l24.19,24.19L92,129.52l2.15-2.14,24.18-24.19a18.74,18.74,0,0,0-13.25-32Z"/></g></g></svg>