<svg xmlns="http://www.w3.org/2000/svg" viewBox="0 0 130 180"><defs><style>.cls-1{fill:#fff;}</style></defs><g id="Layer_2" data-name="Layer 2"><g id="Ñëîé_1" data-name="Ñëîé 1"><rect class="cls-1" width="130" height="180" rx="10.03"/><path d="M10.28,89.66V79.93l.44-.77A72.43,72.43,0,0,1,18,68.92c3.29-4,7.72-8.79,13.18-14.25a56.87,56.87,0,0,0,10-12.77,22.37,22.37,0,0,0,3-10.3c0-4.26-.88-7.46-2.6-9.52C40,20.18,37.5,19.25,34,19.25a10.47,10.47,0,0,0-6.65,2.07A5.09,5.09,0,0,0,25,25.66a2.3,2.3,0,0,0,.58,1.72A9.35,9.35,0,0,1,28,33.3,7.43,7.43,0,0,1,26,38.84a7.47,7.47,0,0,1-5.54,2A8.83,8.83,0,0,1,14,38.42c-1.63-1.62-2.46-4.06-2.46-7.25,0-7,2.6-12.51,7.74-16.27A25.85,25.85,0,0,1,34.83,9.58c7.7,0,13.58,2.07,17.48,6.12a21,21,0,0,1,5.81,15.05,27.81,27.81,0,0,1-2.63,11.56,34.46,34.46,0,0,1-8.24,10.87c-8,7.71-14.25,14.11-18.6,19-1.53,1.74-3.8,4.4-3.8,4.4H43.33a4.67,4.67,0,0,0,3.81-1.8c1.25-1.45,2.13-3.87,2.62-7.21l.41-2.86h9.3L56,89.66Z"/><path class="cls-1" d="M34.83,10.9c7.33,0,12.88,1.92,16.53,5.71A19.75,19.75,0,0,1,56.8,30.75a26.49,26.49,0,0,1-2.51,11,33.08,33.08,0,0,1-7.93,10.44C38.32,60,32,66.41,27.66,71.34c-1.54,1.74-2.77,3.17-3.75,4.35l-1.86,2.24H43.32a6,6,0,0,0,4.82-2.27c1.42-1.66,2.4-4.31,2.92-7.87l.26-1.74H58l-3.11,22.3H11.59V80.28l.27-.46a69.66,69.66,0,0,1,7.19-10.06c3.27-4,7.67-8.75,13.08-14.15A58.18,58.18,0,0,0,42.38,42.52,23.66,23.66,0,0,0,45.52,31.6c0-4.58-1-8.06-2.91-10.36s-4.69-3.3-8.63-3.3a11.75,11.75,0,0,0-7.46,2.34,6.39,6.39,0,0,0-2.8,5.38,3.58,3.58,0,0,0,1,2.67,7.92,7.92,0,0,1,2,5A6.21,6.21,0,0,1,25,37.91a6.23,6.23,0,0,1-4.61,1.66,7.57,7.57,0,0,1-5.48-2.08c-1.37-1.37-2.06-3.49-2.06-6.32,0-6.59,2.42-11.71,7.19-15.21A24.58,24.58,0,0,1,34.83,10.9m0-2.63A27.15,27.15,0,0,0,18.5,13.84c-5.48,4-8.26,9.86-8.26,17.33,0,3.56.95,6.31,2.83,8.18a10.17,10.17,0,0,0,7.34,2.85,8.91,8.91,0,0,0,6.48-2.43,8.78,8.78,0,0,0,2.42-6.48,10.49,10.49,0,0,0-2.53-6.56,1.36,1.36,0,0,1-.43-1.07,3.82,3.82,0,0,1,1.77-3.3A9.18,9.18,0,0,1,34,20.57c4.14,0,5.77,1.35,6.63,2.37,1.51,1.8,2.29,4.72,2.29,8.66a21.15,21.15,0,0,1-2.84,9.69,56,56,0,0,1-9.79,12.47C24.83,59.19,20.37,64,17,68.09A72.21,72.21,0,0,0,9.56,78.55L9.31,79l-.35.6V91H57.13l.32-2.27,3.11-22.3.42-3H49l-.32,2.25-.26,1.74c-.56,3.83-1.57,5.67-2.31,6.54a3.37,3.37,0,0,1-2.83,1.35H27.69c.58-.68,1.23-1.41,1.94-2.22C34,68.2,40.2,61.82,48.19,54.1a35.75,35.75,0,0,0,8.49-11.23,29.06,29.06,0,0,0,2.75-12.12A22.27,22.27,0,0,0,53.26,14.8C49.09,10.46,42.9,8.27,34.83,8.27Z"/><path d="M28.12,168.06v-3.67H29.4a8.48,8.48,0,0,0,8.46-8.47v-1.41a4.67,4.67,0,0,0-.51.36A12.57,12.57,0,0,1,27,160.18a12.82,12.82,0,1,1,0-25.63,11.46,11.46,0,0,1,1.17.06A12.62,12.62,0,0,1,26.87,129a12.82,12.82,0,1,1,25.63,0,12.62,12.62,0,0,1-1.32,5.59,11.66,11.66,0,0,1,1.18-.06,12.82,12.82,0,1,1-10.54,20.09,2.13,2.13,0,0,0-.31-.18v1.46A8.48,8.48,0,0,0,50,164.39h1.27v3.67Z"/><path class="cls-1" d="M39.68,117.48a11.48,11.48,0,0,1,8.66,19.1,11.34,11.34,0,0,1,4-.76,11.54,11.54,0,1,1-9.49,18.09,4.9,4.9,0,0,0-2.62-1.13v3.14A9.74,9.74,0,0,0,50,165.66v1.13H29.4v-1.13a9.74,9.74,0,0,0,9.73-9.74v-3.14a4.87,4.87,0,0,0-2.62,1.13A11.54,11.54,0,1,1,27,135.82a11.39,11.39,0,0,1,4,.76,11.48,11.48,0,0,1,8.65-19.1m0-2.55A14.1,14.1,0,0,0,25.59,129a13.73,13.73,0,0,0,.69,4.27,14.09,14.09,0,1,0,10,24.68,7.18,7.18,0,0,1-6.88,5.14H26.85v6.23H52.53v-6.23H50a7.21,7.21,0,0,1-6.9-5.15,14.09,14.09,0,1,0,10-24.67,13.73,13.73,0,0,0,.69-4.27,14.11,14.11,0,0,0-14.1-14.09Z"/><path d="M77.83,126.55v-4.24H79.3a9.76,9.76,0,0,0,9.75-9.76v-1.63a4.75,4.75,0,0,0-.58.42,14.51,14.51,0,0,1-11.92,6.12,14.79,14.79,0,1,1,0-29.57,12.52,12.52,0,0,1,1.36.07,14.51,14.51,0,0,1-1.53-6.46,14.79,14.79,0,0,1,29.57,0A14.63,14.63,0,0,1,104.43,88a12.39,12.39,0,0,1,1.36-.07,14.79,14.79,0,1,1-12.16,23.18l-.36-.2v1.68a9.77,9.77,0,0,0,9.77,9.76h1.47v4.24Z"/><path class="cls-1" d="M91.16,68.19a13.25,13.25,0,0,1,10,22,13.14,13.14,0,0,1,4.63-.87,13.32,13.32,0,1,1-11,20.87,5.55,5.55,0,0,0-3-1.3v3.62A11.23,11.23,0,0,0,103,123.78v1.3H79.29v-1.3a11.22,11.22,0,0,0,11.23-11.23v-3.62a5.62,5.62,0,0,0-3,1.3,13.37,13.37,0,1,1-6.32-20,13.25,13.25,0,0,1,10-22m0-2.94A16.27,16.27,0,0,0,74.91,81.51a15.85,15.85,0,0,0,.79,4.93,16.26,16.26,0,1,0,11.54,28.47,8.31,8.31,0,0,1-7.95,5.93H76.35V128H106v-7.19H103a8.32,8.32,0,0,1-8-5.94,16.25,16.25,0,1,0,11.56-28.46A16.22,16.22,0,0,0,91.16,65.25Z"/></g></g></svg>