<svg xmlns="http://www.w3.org/2000/svg" viewBox="0 0 130 180"><defs><style>.cls-1{fill:#fff;}</style></defs><g id="Layer_2" data-name="Layer 2"><g id="Ñëîé_1" data-name="Ñëîé 1"><rect class="cls-1" width="130" height="180" rx="10.03"/><path d="M32.33,89a23.71,23.71,0,0,1-14.86-4.83c-4.43-3.41-6.68-7.49-6.68-12.13a9.54,9.54,0,0,1,2.5-6.54,8.14,8.14,0,0,1,6.06-3c3,.28,5,1.59,6.09,3.56a9.91,9.91,0,0,1,1.45,4.71,9.32,9.32,0,0,1-1.47,5.31,2.83,2.83,0,0,0-.19.92c0,.33.52.8,1.37,1.25a10.93,10.93,0,0,0,5.32,1.28c4,0,6.86-1,8.71-3.2s3-6.11,3-11.36c0-4.2-1-7.43-3.15-9.91-1.94-2.23-6.18-3.42-12.26-3.42H24.9V42.21h3.28c4.61,0,8-1,9.94-3s3-4.84,3-8.68a13.7,13.7,0,0,0-2.49-8.26,7.45,7.45,0,0,0-6.37-3.12,14,14,0,0,0-5.62,1.3c-1.37.6-1.37,1.23-1.37,1.78a6.6,6.6,0,0,0,.22,2.31,5.41,5.41,0,0,1,1.44,3.92,9.17,9.17,0,0,1-1.37,5.13,6.35,6.35,0,0,1-5.64,2.71,8.09,8.09,0,0,1-5.24-2c-1.73-1.48-2.6-3.86-2.6-7.06a15.21,15.21,0,0,1,6.73-12.8A23.72,23.72,0,0,1,33.16,9.84c6.43,0,11.7,2.08,15.65,6.19S54.7,24.59,54.7,29.3A21,21,0,0,1,51,41.79a18.22,18.22,0,0,1-4.66,4.47l-.06,0,.07,0a21.55,21.55,0,0,1,7.46,7A23.75,23.75,0,0,1,57.6,65.82,22.67,22.67,0,0,1,50.88,82C46.37,86.66,40.13,89,32.33,89Z"/><path class="cls-1" d="M33.16,11.14c6.06,0,11,1.95,14.71,5.79s5.53,8,5.53,12.37A19.68,19.68,0,0,1,49.92,41a17.19,17.19,0,0,1-4.33,4.16l-1.75,1.18,1.82,1.09a20.25,20.25,0,0,1,7,6.53A22.49,22.49,0,0,1,56.3,65.82,21.43,21.43,0,0,1,49.94,81.1c-4.26,4.39-10.18,6.62-17.61,6.62a22.54,22.54,0,0,1-14.07-4.56c-4.09-3.15-6.17-6.89-6.17-11.11a8.28,8.28,0,0,1,2.17-5.67,6.81,6.81,0,0,1,5.09-2.55,4.4,4.4,0,0,1,.62,0,5.64,5.64,0,0,1,4.33,2.85,8.73,8.73,0,0,1,1.29,4.08,8.11,8.11,0,0,1-1.26,4.61,4.22,4.22,0,0,0-.4,1.62c0,.88.68,1.67,2.06,2.41a12.32,12.32,0,0,0,5.93,1.43c4.4,0,7.58-1.2,9.7-3.67S44.89,70.57,44.89,65c0-4.52-1.14-8-3.47-10.74s-6.67-3.88-13.24-3.88h-2V43.51h2c5,0,8.61-1.13,10.85-3.36s3.35-5.4,3.35-9.61a14.93,14.93,0,0,0-2.74-9,8.75,8.75,0,0,0-7.42-3.67,15.24,15.24,0,0,0-6.14,1.43c-1.89.83-2.15,2-2.15,3a7.87,7.87,0,0,0,.35,2.88l.33.42a4.21,4.21,0,0,1,1,2.93,7.84,7.84,0,0,1-1.15,4.41A5.12,5.12,0,0,1,19.88,35a6.74,6.74,0,0,1-4.4-1.72c-1.42-1.22-2.14-3.25-2.14-6.07a14,14,0,0,1,6.2-11.75,22.5,22.5,0,0,1,13.62-4.33m0-2.6A25.08,25.08,0,0,0,18,13.37a16.7,16.7,0,0,0-7.26,13.85c0,3.61,1,6.31,3,8a9.36,9.36,0,0,0,6.1,2.35,7.62,7.62,0,0,0,6.71-3.27,10.39,10.39,0,0,0,1.6-5.87,6.84,6.84,0,0,0-1.57-4.58,11.51,11.51,0,0,1-.09-1.65c0-.27.2-.41.59-.58a12.8,12.8,0,0,1,5.1-1.21A6.11,6.11,0,0,1,37.52,23a12.38,12.38,0,0,1,2.27,7.51c0,3.48-.85,6-2.6,7.78s-4.82,2.59-9,2.59H23.6V53h4.58c7.19,0,10.1,1.62,11.27,3,1.91,2.21,2.84,5.17,2.84,9,0,4.87-.92,8.5-2.64,10.52-1.6,1.85-4.13,2.76-7.73,2.76a9.65,9.65,0,0,1-4.71-1.13,3.84,3.84,0,0,1-.62-.39l.1-.26a10.25,10.25,0,0,0,1.5-5.69,11.24,11.24,0,0,0-1.61-5.33,8.23,8.23,0,0,0-6.33-4.18,6.48,6.48,0,0,0-.9-.06,9.43,9.43,0,0,0-7,3.43,10.77,10.77,0,0,0-2.82,7.39c0,5.07,2.42,9.5,7.18,13.17a25.07,25.07,0,0,0,15.66,5.09c8.16,0,14.71-2.49,19.48-7.41A23.92,23.92,0,0,0,58.9,65.82a25.11,25.11,0,0,0-4-13.19,21.8,21.8,0,0,0-6.34-6.41A19.4,19.4,0,0,0,52,42.55,22.25,22.25,0,0,0,56,29.3c0-5.06-2.11-9.83-6.25-14.16S40,8.54,33.16,8.54Z"/><path d="M28.12,168.06v-3.67H29.4a8.48,8.48,0,0,0,8.46-8.47v-1.41a4.67,4.67,0,0,0-.51.36A12.57,12.57,0,0,1,27,160.18a12.82,12.82,0,1,1,0-25.63,11.46,11.46,0,0,1,1.17.06A12.62,12.62,0,0,1,26.87,129a12.82,12.82,0,1,1,25.63,0,12.62,12.62,0,0,1-1.32,5.59,11.66,11.66,0,0,1,1.18-.06,12.82,12.82,0,1,1-10.54,20.09,2.13,2.13,0,0,0-.31-.18v1.46A8.48,8.48,0,0,0,50,164.39h1.27v3.67Z"/><path class="cls-1" d="M39.68,117.48a11.48,11.48,0,0,1,8.66,19.1,11.34,11.34,0,0,1,4-.76,11.54,11.54,0,1,1-9.49,18.09,4.9,4.9,0,0,0-2.62-1.13v3.14A9.74,9.74,0,0,0,50,165.66v1.13H29.4v-1.13a9.74,9.74,0,0,0,9.73-9.74v-3.14a4.87,4.87,0,0,0-2.62,1.13A11.54,11.54,0,1,1,27,135.82a11.39,11.39,0,0,1,4,.76,11.48,11.48,0,0,1,8.65-19.1m0-2.55A14.1,14.1,0,0,0,25.59,129a13.73,13.73,0,0,0,.69,4.27,14.09,14.09,0,1,0,10,24.68,7.18,7.18,0,0,1-6.88,5.14H26.85v6.23H52.53v-6.23H50a7.21,7.21,0,0,1-6.9-5.15,14.09,14.09,0,1,0,10-24.67,13.73,13.73,0,0,0,.69-4.27,14.11,14.11,0,0,0-14.1-14.09Z"/><path d="M77.83,126.55v-4.24H79.3a9.76,9.76,0,0,0,9.75-9.76v-1.63a4.75,4.75,0,0,0-.58.42,14.51,14.51,0,0,1-11.92,6.12,14.79,14.79,0,1,1,0-29.57,12.52,12.52,0,0,1,1.36.07,14.51,14.51,0,0,1-1.53-6.46,14.79,14.79,0,0,1,29.57,0A14.63,14.63,0,0,1,104.43,88a12.39,12.39,0,0,1,1.36-.07,14.79,14.79,0,1,1-12.16,23.18l-.36-.2v1.68a9.77,9.77,0,0,0,9.77,9.76h1.47v4.24Z"/><path class="cls-1" d="M91.16,68.19a13.25,13.25,0,0,1,10,22,13.14,13.14,0,0,1,4.63-.87,13.32,13.32,0,1,1-11,20.87,5.55,5.55,0,0,0-3-1.3v3.62A11.23,11.23,0,0,0,103,123.78v1.3H79.29v-1.3a11.22,11.22,0,0,0,11.23-11.23v-3.62a5.62,5.62,0,0,0-3,1.3,13.37,13.37,0,1,1-6.32-20,13.25,13.25,0,0,1,10-22m0-2.94A16.27,16.27,0,0,0,74.91,81.51a15.85,15.85,0,0,0,.79,4.93,16.26,16.26,0,1,0,11.54,28.47,8.31,8.31,0,0,1-7.95,5.93H76.35V128H106v-7.19H103a8.32,8.32,0,0,1-8-5.94,16.25,16.25,0,1,0,11.56-28.46A16.22,16.22,0,0,0,91.16,65.25Z"/></g></g></svg>