<svg xmlns="http://www.w3.org/2000/svg" viewBox="0 0 130 180"><defs><style>.cls-1{fill:#fff;}</style></defs><g id="Layer_2" data-name="Layer 2"><g id="Ñëîé_1" data-name="Ñëîé 1"><rect class="cls-1" width="130" height="180" rx="10.03"/><path d="M23,89V79.88h7.93c2.24,0,2.67-.47,2.69-.49a3.1,3.1,0,0,0,.29-1.65V67.21H5.76v-6L37.87,9.83H47.2V58.08H58.52v9.13H47.2V77.74c0,1,.21,1.44.34,1.54a4.27,4.27,0,0,0,2.64.6h7.09V89ZM33.86,58.08V34.14l-15,23.94Z"/><path class="cls-1" d="M45.9,11.13V59.37H57.22v6.54H45.9V77.74a3.1,3.1,0,0,0,.86,2.58,5.63,5.63,0,0,0,3.42.86H56v6.54H24.25V81.18h6.63c1.91,0,3.14-.31,3.67-.93l0,0A1.88,1.88,0,0,0,34.7,80a4.44,4.44,0,0,0,.46-2.3V65.91H7.06V61.22L38.59,11.13H45.9M16.48,59.37H35.16V29.63L16.48,59.37m32-50.83H37.15l-.76,1.21L4.86,59.84l-.4.63v8h28.1v9.23a5.6,5.6,0,0,1-.05.78h-.1c-.23,0-.73.06-1.53.06H21.65V90.32H58.57V78.58H50.18a4.38,4.38,0,0,1-1.67-.23c0-.08,0-.29,0-.61V68.51H59.82V56.77H48.5V8.54ZM21.18,56.77,32.56,38.66V56.77Z"/><path d="M25.26,166.61v-3.22h1.1a7.61,7.61,0,0,0,7.56-6.83A12.51,12.51,0,0,1,17.21,138l18.35-18.35L53.92,138a12.52,12.52,0,0,1-16.73,18.57,7.62,7.62,0,0,0,7.57,6.83h1.11v3.22Z"/><path class="cls-1" d="M35.56,121.19l17.58,17.58A11.41,11.41,0,0,1,37,154.9l-.94-.94v1.83a8.71,8.71,0,0,0,8.7,8.71v1H26.36v-1a8.71,8.71,0,0,0,8.71-8.71V154l-1,.94A11.41,11.41,0,0,1,18,138.77l17.57-17.58m0-3.11L34,119.63,16.43,137.21A13.62,13.62,0,0,0,32,159.12a6.51,6.51,0,0,1-5.59,3.17h-2.2v5.42H47v-5.42H44.76a6.47,6.47,0,0,1-5.58-3.18,13.62,13.62,0,0,0,15.52-2.65,13.64,13.64,0,0,0,0-19.25L37.12,119.63l-1.56-1.55Z"/><path d="M79.86,127v-4h1.39a9.6,9.6,0,0,0,9.53-8.61A15.77,15.77,0,0,1,69.71,91L92.85,67.83,116,91a15.77,15.77,0,0,1-11.16,26.92,15.65,15.65,0,0,1-9.93-3.51,9.61,9.61,0,0,0,9.54,8.62h1.39v4Z"/><path class="cls-1" d="M92.85,69.79,115,91.94a14.38,14.38,0,0,1-20.34,20.34l-1.19-1.2v2.31a11,11,0,0,0,11,11v1.27H81.25v-1.27a11,11,0,0,0,11-11v-2.3L91,112.28A14.38,14.38,0,0,1,70.7,91.94L92.85,69.79m0-3.93-2,2L68.73,90a17.17,17.17,0,0,0,19.56,27.61,8.19,8.19,0,0,1-7,4H78.47v6.82h28.75v-6.82h-2.78a8.19,8.19,0,0,1-7-4A17.16,17.16,0,0,0,117,90L94.81,67.82l-2-2Z"/></g></g></svg>