<svg xmlns="http://www.w3.org/2000/svg" viewBox="0 0 130 180"><defs><style>.cls-1{fill:#fff;}.cls-2{fill:#b4171e;}</style></defs><g id="Layer_2" data-name="Layer 2"><g id="Ñëîé_1" data-name="Ñëîé 1"><rect class="cls-1" width="130" height="180" rx="10.03"/><path class="cls-2" d="M23,89V79.88h7.93c2.24,0,2.67-.47,2.69-.49a3.1,3.1,0,0,0,.29-1.65V67.21H5.76v-6L37.87,9.83H47.2V58.08H58.52v9.13H47.2V77.74c0,1,.21,1.44.34,1.54a4.27,4.27,0,0,0,2.64.6h7.09V89ZM33.86,58.08V34.14l-15,23.94Z"/><path class="cls-1" d="M45.9,11.13V59.37H57.22v6.54H45.9V77.74a3.1,3.1,0,0,0,.86,2.58,5.63,5.63,0,0,0,3.42.86H56v6.54H24.25V81.18h6.63c1.91,0,3.14-.31,3.67-.93l0,0A1.88,1.88,0,0,0,34.7,80a4.44,4.44,0,0,0,.46-2.3V65.91H7.06V61.22L38.59,11.13H45.9M16.48,59.37H35.16V29.63L16.48,59.37m32-50.83H37.15l-.76,1.21L4.86,59.84l-.4.63v8h28.1v9.23a5.6,5.6,0,0,1-.05.78h-.1c-.23,0-.73.06-1.53.06H21.65V90.32H58.57V78.58H50.18a4.38,4.38,0,0,1-1.67-.23c0-.08,0-.29,0-.61V68.51H59.82V56.77H48.5V8.54ZM21.18,56.77,32.56,38.66V56.77Z"/><path class="cls-2" d="M13.81,144.41A14.82,14.82,0,0,1,24.3,119.1a14.68,14.68,0,0,1,10.48,4.34l.79.78.77-.79a14.83,14.83,0,0,1,21,21L35.57,166.15Z"/><path class="cls-1" d="M46.83,120.4a13.52,13.52,0,0,1,9.56,23.08L35.57,164.31,14.74,143.48a13.52,13.52,0,1,1,19.12-19.12l1.71,1.7,1.7-1.7a13.48,13.48,0,0,1,9.56-4m0-2.61a16,16,0,0,0-11.26,4.58,16.14,16.14,0,0,0-22.68,23l20.83,20.82L35.57,168l1.84-1.85,20.83-20.82a16.13,16.13,0,0,0-11.41-27.54Z"/><path class="cls-2" d="M66.7,102.13a17.22,17.22,0,0,1,12.18-29.4,17,17,0,0,1,12.17,5l.91.9.9-.91a17.23,17.23,0,1,1,24.37,24.35L92,127.38Z"/><path class="cls-1" d="M105,74.25a15.7,15.7,0,0,1,11.11,26.8L92,125.23,67.78,101.05A15.7,15.7,0,1,1,90,78.85l2,2,2-2a15.65,15.65,0,0,1,11.1-4.6m0-3A18.6,18.6,0,0,0,92,76.54a18.73,18.73,0,0,0-26.33,26.65l24.19,24.19L92,129.52l2.15-2.14,24.18-24.19a18.74,18.74,0,0,0-13.25-32Z"/></g></g></svg>