<svg xmlns="http://www.w3.org/2000/svg" viewBox="0 0 130 180"><defs><style>.cls-1{fill:#fff;}</style></defs><g id="Layer_2" data-name="Layer 2"><g id="Ñëîé_1" data-name="Ñëîé 1"><rect class="cls-1" width="130" height="180" rx="10.03"/><path d="M23,89V79.88h7.93c2.24,0,2.67-.47,2.69-.49a3.1,3.1,0,0,0,.29-1.65V67.21H5.76v-6L37.87,9.83H47.2V58.08H58.52v9.13H47.2V77.74c0,1,.21,1.44.34,1.54a4.27,4.27,0,0,0,2.64.6h7.09V89ZM33.86,58.08V34.14l-15,23.94Z"/><path class="cls-1" d="M45.9,11.13V59.37H57.22v6.54H45.9V77.74a3.1,3.1,0,0,0,.86,2.58,5.63,5.63,0,0,0,3.42.86H56v6.54H24.25V81.18h6.63c1.91,0,3.14-.31,3.67-.93l0,0A1.88,1.88,0,0,0,34.7,80a4.44,4.44,0,0,0,.46-2.3V65.91H7.06V61.22L38.59,11.13H45.9M16.48,59.37H35.16V29.63L16.48,59.37m32-50.83H37.15l-.76,1.21L4.86,59.84l-.4.63v8h28.1v9.23a5.6,5.6,0,0,1-.05.78h-.1c-.23,0-.73.06-1.53.06H21.65V90.32H58.57V78.58H50.18a4.38,4.38,0,0,1-1.67-.23c0-.08,0-.29,0-.61V68.51H59.82V56.77H48.5V8.54ZM21.18,56.77,32.56,38.66V56.77Z"/><path d="M28.71,168.06v-3.67H30a8.48,8.48,0,0,0,8.46-8.47v-1.41a4.67,4.67,0,0,0-.51.36,12.55,12.55,0,0,1-10.33,5.31,12.82,12.82,0,1,1,0-25.63,11.81,11.81,0,0,1,1.18.06A12.5,12.5,0,0,1,27.45,129a12.82,12.82,0,1,1,24.32,5.59,11.31,11.31,0,0,1,1.17-.06A12.82,12.82,0,1,1,42.4,154.64a2.13,2.13,0,0,0-.31-.18v1.46a8.48,8.48,0,0,0,8.47,8.47h1.28v3.67Z"/><path class="cls-1" d="M40.27,117.48A11.54,11.54,0,0,1,51.81,129a11.41,11.41,0,0,1-2.89,7.56,11.4,11.4,0,0,1,4-.76,11.54,11.54,0,1,1-9.49,18.09,4.93,4.93,0,0,0-2.63-1.13v3.14a9.74,9.74,0,0,0,9.74,9.74v1.13H30v-1.13a9.73,9.73,0,0,0,9.73-9.74v-3.14a4.9,4.9,0,0,0-2.62,1.13,11.59,11.59,0,1,1-5.47-17.33A11.41,11.41,0,0,1,28.73,129a11.54,11.54,0,0,1,11.54-11.54m0-2.55A14.1,14.1,0,0,0,26.18,129a13.72,13.72,0,0,0,.68,4.27,14.09,14.09,0,1,0,10,24.68A7.2,7.2,0,0,1,30,163.11H27.43v6.23H53.11v-6.23H50.56A7.2,7.2,0,0,1,43.67,158a14.09,14.09,0,1,0,10-24.67,13.72,13.72,0,0,0,.68-4.27,14.1,14.1,0,0,0-14.09-14.09Z"/><path d="M78.41,126.55v-4.24h1.47a9.77,9.77,0,0,0,9.76-9.76v-1.63a4.86,4.86,0,0,0-.59.42,14.51,14.51,0,0,1-11.92,6.12,14.79,14.79,0,1,1,0-29.57,12.52,12.52,0,0,1,1.36.07A14.51,14.51,0,0,1,77,81.5,14.79,14.79,0,1,1,105,88a12.08,12.08,0,0,1,1.35-.07,14.79,14.79,0,1,1-12.16,23.18l-.35-.2v1.68a9.76,9.76,0,0,0,9.76,9.76h1.48v4.24Z"/><path class="cls-1" d="M91.75,68.19a13.25,13.25,0,0,1,10,22,13.3,13.3,0,1,1-6.31,20,5.61,5.61,0,0,0-3-1.3v3.62a11.22,11.22,0,0,0,11.23,11.23v1.3H79.88v-1.3a11.23,11.23,0,0,0,11.23-11.23v-3.62a5.62,5.62,0,0,0-3,1.3,13.37,13.37,0,1,1-6.32-20,13.25,13.25,0,0,1,10-22m0-2.94A16.27,16.27,0,0,0,75.49,81.51a15.85,15.85,0,0,0,.79,4.93,16.26,16.26,0,1,0,11.54,28.47,8.29,8.29,0,0,1-7.94,5.93H76.93V128h29.63v-7.19h-2.94a8.29,8.29,0,0,1-8-5.94,16.25,16.25,0,1,0,11.55-28.46,15.85,15.85,0,0,0,.79-4.93A16.28,16.28,0,0,0,91.75,65.25Z"/></g></g></svg>