<svg xmlns="http://www.w3.org/2000/svg" viewBox="0 0 130 180"><defs><style>.cls-1{fill:#fff;}.cls-2{fill:#b4171e;}</style></defs><g id="Layer_2" data-name="Layer 2"><g id="Ñëîé_1" data-name="Ñëîé 1"><rect class="cls-1" width="130" height="180" rx="10.03"/><path class="cls-2" d="M34.43,167.37a68.92,68.92,0,0,0-11.72-14.89,77.38,77.38,0,0,0-12.62-9.91l-1.76-1.11,1.76-1.1a77.8,77.8,0,0,0,12.62-9.9,69.16,69.16,0,0,0,11.72-14.89l1.13-1.95,1.14,1.95a69.11,69.11,0,0,0,11.71,14.89A78.31,78.31,0,0,0,61,140.36l1.76,1.1L61,142.57a77.89,77.89,0,0,0-12.63,9.91A68.87,68.87,0,0,0,36.7,167.37l-1.14,1.95Z"/><path class="cls-1" d="M35.56,116.22A70,70,0,0,0,47.51,131.4a79.1,79.1,0,0,0,12.84,10.07,79.1,79.1,0,0,0-12.84,10.07,70.19,70.19,0,0,0-11.95,15.17,70.41,70.41,0,0,0-11.94-15.17,80,80,0,0,0-12.84-10.07A80,80,0,0,0,23.62,131.4a70.19,70.19,0,0,0,11.94-15.18m0-5.19-2.25,3.88A68,68,0,0,1,21.8,129.52a76.19,76.19,0,0,1-12.42,9.74l-3.49,2.21,3.49,2.21a77,77,0,0,1,12.42,9.73A67.78,67.78,0,0,1,33.31,168l2.25,3.88L37.82,168a68,68,0,0,1,11.5-14.62,77,77,0,0,1,12.42-9.73l3.49-2.21-3.49-2.21a77.05,77.05,0,0,1-12.42-9.74,68.23,68.23,0,0,1-11.5-14.61L35.56,111Z"/><path class="cls-2" d="M89.3,134.44A84.16,84.16,0,0,0,75,116.21,95.09,95.09,0,0,0,59.5,104.07l-2.15-1.35,2.15-1.34A96.18,96.18,0,0,0,75,89.25,84.35,84.35,0,0,0,89.3,71l1.38-2.39L92.07,71a84.3,84.3,0,0,0,14.34,18.22,96.26,96.26,0,0,0,15.46,12.13l2.15,1.34-2.15,1.35a95.6,95.6,0,0,0-15.46,12.14,84.11,84.11,0,0,0-14.34,18.23l-1.39,2.38Z"/><path class="cls-1" d="M90.68,71.83A86.45,86.45,0,0,0,105.3,90.4,96.65,96.65,0,0,0,121,102.73a97.66,97.66,0,0,0-15.72,12.32,86.47,86.47,0,0,0-14.62,18.58,86.15,86.15,0,0,0-14.62-18.58,97.66,97.66,0,0,0-15.72-12.32A96.65,96.65,0,0,0,76.06,90.4,86.13,86.13,0,0,0,90.68,71.83m0-6.36-2.76,4.75A83.33,83.33,0,0,1,73.84,88.11,93.85,93.85,0,0,1,58.63,100l-4.27,2.7,4.27,2.7a94.29,94.29,0,0,1,15.21,11.92,83.15,83.15,0,0,1,14.08,17.89L90.68,140l2.76-4.75a83.46,83.46,0,0,1,14.08-17.89,94.73,94.73,0,0,1,15.21-11.92l4.27-2.7-4.27-2.7a93.77,93.77,0,0,1-15.2-11.92A83.44,83.44,0,0,1,93.44,70.22l-2.76-4.75Z"/><path class="cls-2" d="M23,89V79.88h7.93c2.24,0,2.67-.47,2.69-.49a3.1,3.1,0,0,0,.29-1.65V67.21H5.76v-6L37.87,9.83H47.2V58.08H58.52v9.13H47.2V77.74c0,1,.21,1.44.34,1.54a4.27,4.27,0,0,0,2.64.6h7.09V89ZM33.86,58.08V34.14l-15,23.94Z"/><path class="cls-1" d="M45.9,11.13V59.37H57.22v6.54H45.9V77.74a3.1,3.1,0,0,0,.86,2.58,5.63,5.63,0,0,0,3.42.86H56v6.54H24.25V81.18h6.63c1.91,0,3.14-.31,3.67-.93l0,0A1.88,1.88,0,0,0,34.7,80a4.44,4.44,0,0,0,.46-2.3V65.91H7.06V61.22L38.59,11.13H45.9M16.48,59.37H35.16V29.63L16.48,59.37m32-50.83H37.15l-.76,1.21L4.86,59.84l-.4.63v8h28.1v9.23a5.6,5.6,0,0,1-.05.78h-.1c-.23,0-.73.06-1.53.06H21.65V90.32H58.57V78.58H50.18a4.38,4.38,0,0,1-1.67-.23c0-.08,0-.29,0-.61V68.51H59.82V56.77H48.5V8.54ZM21.18,56.77,32.56,38.66V56.77Z"/></g></g></svg>