<svg xmlns="http://www.w3.org/2000/svg" viewBox="0 0 130 180"><defs><style>.cls-1{fill:#fff;}</style></defs><g id="Layer_2" data-name="Layer 2"><g id="Ñëîé_1" data-name="Ñëîé 1"><rect class="cls-1" width="130" height="180" rx="10.03"/><path d="M33.4,90.53a25.76,25.76,0,0,1-15.76-5.18c-4.88-3.66-7.35-8.26-7.35-13.64a10.5,10.5,0,0,1,2.21-6.59,8.26,8.26,0,0,1,6.74-3.23c4,0,5.78,2.23,6.45,3.56A10.12,10.12,0,0,1,26.91,70a8.5,8.5,0,0,1-2.28,6.26l-.24.24,0,.4c-.07.81-.07,1.59,1.93,2.42a19.12,19.12,0,0,0,7.49,1.45,8.44,8.44,0,0,0,7.67-4c2-3.14,3.1-7.87,3.1-14,0-5-.92-9.14-2.74-12.21a7.14,7.14,0,0,0-6.75-3.71,14.73,14.73,0,0,0-6.63,1.37c-1.65.81-3.32,2.78-5,5.86l-1.09,2-9.31-1,2.5-45.43H58.12L55.48,22.76H25L24,38.83l.07,0a13.55,13.55,0,0,1,3.35-1.61,31.06,31.06,0,0,1,9.37-1.44,19.79,19.79,0,0,1,15.91,7.43c3.93,4.76,5.92,11,5.92,18.68,0,8.47-2,15.38-6.08,20.54C48.35,87.79,41.9,90.53,33.4,90.53Z"/><path class="cls-1" d="M56.5,10.88,54.39,21.43H23.76l-1.22,20,2.29-1.51a11.92,11.92,0,0,1,3-1.45,29.64,29.64,0,0,1,9-1.39,18.53,18.53,0,0,1,14.89,7c3.73,4.51,5.62,10.51,5.62,17.83,0,8.16-2,14.79-5.81,19.71-4,5.08-10.05,7.65-18.12,7.65a24.36,24.36,0,0,1-15-4.92c-4.53-3.39-6.83-7.62-6.83-12.57a9.22,9.22,0,0,1,1.94-5.78,7,7,0,0,1,5.69-2.71c3.16,0,4.61,1.54,5.27,2.83A8.83,8.83,0,0,1,25.58,70a7.22,7.22,0,0,1-1.89,5.32l-.79.8.24.36a2.92,2.92,0,0,0-.13.81c0,1.43.88,2.44,2.82,3.25a20.17,20.17,0,0,0,8,1.56,9.79,9.79,0,0,0,8.79-4.65c2.19-3.35,3.31-8.31,3.31-14.74,0-5.3-1-9.63-2.93-12.89a8.46,8.46,0,0,0-7.89-4.36A16.24,16.24,0,0,0,27.88,47c-1.9.95-3.76,3.11-5.54,6.43l-.66,1.22-7.18-.8,2.37-42.92H56.5m3.24-2.65H14.35l-.14,2.51L11.85,53.66l-.14,2.51,2.5.27,7.18.8,1.78.2L24,55.86l.66-1.22c1.9-3.53,3.43-4.83,4.39-5.31a13.54,13.54,0,0,1,6-1.22,5.81,5.81,0,0,1,5.62,3.08C42.41,54,43.27,57.9,43.27,62.7c0,5.89-1,10.37-2.88,13.29a7.12,7.12,0,0,1-6.56,3.44,17.54,17.54,0,0,1-7-1.35c-1-.41-1.18-.71-1.18-.72l.13-.42a9.88,9.88,0,0,0,2.43-7,11.39,11.39,0,0,0-1.35-5.12c-.82-1.62-2.89-4.31-7.65-4.31a9.7,9.7,0,0,0-7.79,3.73A11.84,11.84,0,0,0,9,71.71c0,5.83,2.65,10.78,7.88,14.7A27,27,0,0,0,33.4,91.86c8.93,0,15.73-2.92,20.22-8.67C57.84,77.79,60,70.6,60,61.84c0-8-2.09-14.52-6.23-19.52a21.06,21.06,0,0,0-16.93-7.93,32.36,32.36,0,0,0-9.77,1.51,15.39,15.39,0,0,0-1.55.59l.76-12.4H56.57L57,22l2.1-10.54.64-3.18Z"/><path d="M25.46,166.61v-3.22h1.1a7.61,7.61,0,0,0,7.56-6.83A12.51,12.51,0,0,1,17.4,138l18.36-18.35L54.12,138a12.52,12.52,0,0,1-16.73,18.57A7.61,7.61,0,0,0,45,163.39h1.1v3.22Z"/><path class="cls-1" d="M35.76,121.19l17.57,17.58A11.41,11.41,0,0,1,37.2,154.9l-1-.94v1.83A8.71,8.71,0,0,0,45,164.5v1H26.56v-1a8.7,8.7,0,0,0,8.7-8.71V154l-.94.94a11.41,11.41,0,0,1-16.13-16.13l17.57-17.58m0-3.11-1.56,1.55L16.63,137.21a13.62,13.62,0,0,0,15.51,21.91,6.49,6.49,0,0,1-5.58,3.17H24.35v5.42H47.16v-5.42H45a6.5,6.5,0,0,1-5.59-3.18,13.62,13.62,0,0,0,15.52-21.9L37.32,119.63l-1.56-1.55Z"/><path d="M80.45,127v-4h1.39a9.6,9.6,0,0,0,9.53-8.61A15.77,15.77,0,0,1,70.3,91L93.44,67.83,116.58,91a15.78,15.78,0,0,1-21.09,23.41A9.61,9.61,0,0,0,105,123h1.39v4Z"/><path class="cls-1" d="M93.44,69.79l22.15,22.15a14.38,14.38,0,0,1-20.34,20.34l-1.19-1.2v2.31a11,11,0,0,0,11,11v1.27H81.84v-1.27a11,11,0,0,0,11-11v-2.3l-1.19,1.19A14.38,14.38,0,0,1,71.29,91.94L93.44,69.79m0-3.93-2,2L69.32,90a17.17,17.17,0,0,0,19.56,27.61,8.19,8.19,0,0,1-7,4H79.06v6.82h28.75v-6.82H105a8.19,8.19,0,0,1-7-4A17.16,17.16,0,0,0,117.55,90L95.4,67.82l-2-2Z"/></g></g></svg>