<svg xmlns="http://www.w3.org/2000/svg" viewBox="0 0 130 180"><defs><style>.cls-1{fill:#fff;}.cls-2{fill:#b4171e;}</style></defs><g id="Layer_2" data-name="Layer 2"><g id="Ñëîé_1" data-name="Ñëîé 1"><rect class="cls-1" width="130" height="180" rx="10.03"/><path class="cls-2" d="M33.4,90.53a25.76,25.76,0,0,1-15.76-5.18c-4.88-3.66-7.35-8.26-7.35-13.64a10.5,10.5,0,0,1,2.21-6.59,8.26,8.26,0,0,1,6.74-3.23c4,0,5.78,2.23,6.45,3.56A10.12,10.12,0,0,1,26.91,70a8.5,8.5,0,0,1-2.28,6.26l-.24.24,0,.4c-.07.81-.07,1.59,1.93,2.42a19.12,19.12,0,0,0,7.49,1.45,8.44,8.44,0,0,0,7.67-4c2-3.14,3.1-7.87,3.1-14,0-5-.92-9.14-2.74-12.21a7.14,7.14,0,0,0-6.75-3.71,14.73,14.73,0,0,0-6.63,1.37c-1.65.81-3.32,2.78-5,5.86l-1.09,2-9.31-1,2.5-45.43H58.12L55.48,22.76H25L24,38.83l.07,0a13.55,13.55,0,0,1,3.35-1.61,31.06,31.06,0,0,1,9.37-1.44,19.79,19.79,0,0,1,15.91,7.43c3.93,4.76,5.92,11,5.92,18.68,0,8.47-2,15.38-6.08,20.54C48.35,87.79,41.9,90.53,33.4,90.53Z"/><path class="cls-1" d="M56.5,10.88,54.39,21.43H23.76l-1.22,20,2.29-1.51a11.92,11.92,0,0,1,3-1.45,29.64,29.64,0,0,1,9-1.39,18.53,18.53,0,0,1,14.89,7c3.73,4.51,5.62,10.51,5.62,17.83,0,8.16-2,14.79-5.81,19.71-4,5.08-10.05,7.65-18.12,7.65a24.36,24.36,0,0,1-15-4.92c-4.53-3.39-6.83-7.62-6.83-12.57a9.22,9.22,0,0,1,1.94-5.78,7,7,0,0,1,5.69-2.71c3.16,0,4.61,1.54,5.27,2.83A8.83,8.83,0,0,1,25.58,70a7.22,7.22,0,0,1-1.89,5.32l-.79.8.24.36a2.92,2.92,0,0,0-.13.81c0,1.43.88,2.44,2.82,3.25a20.17,20.17,0,0,0,8,1.56,9.79,9.79,0,0,0,8.79-4.65c2.19-3.35,3.31-8.31,3.31-14.74,0-5.3-1-9.63-2.93-12.89a8.46,8.46,0,0,0-7.89-4.36A16.24,16.24,0,0,0,27.88,47c-1.9.95-3.76,3.11-5.54,6.43l-.66,1.22-7.18-.8,2.37-42.92H56.5m3.24-2.65H14.35l-.14,2.51L11.85,53.66l-.14,2.51,2.5.27,7.18.8,1.78.2L24,55.86l.66-1.22c1.9-3.53,3.43-4.83,4.39-5.31a13.54,13.54,0,0,1,6-1.22,5.81,5.81,0,0,1,5.62,3.08C42.41,54,43.27,57.9,43.27,62.7c0,5.89-1,10.37-2.88,13.29a7.12,7.12,0,0,1-6.56,3.44,17.54,17.54,0,0,1-7-1.35c-1-.41-1.18-.71-1.18-.72l.13-.42a9.88,9.88,0,0,0,2.43-7,11.39,11.39,0,0,0-1.35-5.12c-.82-1.62-2.89-4.31-7.65-4.31a9.7,9.7,0,0,0-7.79,3.73A11.84,11.84,0,0,0,9,71.71c0,5.83,2.65,10.78,7.88,14.7A27,27,0,0,0,33.4,91.86c8.93,0,15.73-2.92,20.22-8.67C57.84,77.79,60,70.6,60,61.84c0-8-2.09-14.52-6.23-19.52a21.06,21.06,0,0,0-16.93-7.93,32.36,32.36,0,0,0-9.77,1.51,15.39,15.39,0,0,0-1.55.59l.76-12.4H56.57L57,22l2.1-10.54.64-3.18Z"/><path class="cls-2" d="M14,144.41A14.82,14.82,0,0,1,24.5,119.1,14.7,14.7,0,0,1,35,123.44l.79.78.77-.79a14.83,14.83,0,0,1,21,21L35.77,166.15Z"/><path class="cls-1" d="M47,120.4a13.52,13.52,0,0,1,9.56,23.08L35.76,164.31,14.94,143.48a13.52,13.52,0,1,1,19.12-19.12l1.7,1.7,1.71-1.7a13.48,13.48,0,0,1,9.56-4m0-2.61a16,16,0,0,0-11.27,4.58,16.13,16.13,0,0,0-22.67,23l20.83,20.82L35.76,168l1.85-1.85,20.83-20.82A16.13,16.13,0,0,0,47,117.79Z"/><path class="cls-2" d="M66.7,102.13a17.22,17.22,0,0,1,12.18-29.4,17,17,0,0,1,12.17,5l.91.9.9-.91a17.23,17.23,0,1,1,24.37,24.35L92,127.38Z"/><path class="cls-1" d="M105,74.25a15.7,15.7,0,0,1,11.11,26.8L92,125.23,67.78,101.05A15.7,15.7,0,1,1,90,78.85l2,2,2-2a15.65,15.65,0,0,1,11.1-4.6m0-3A18.6,18.6,0,0,0,92,76.54a18.73,18.73,0,0,0-26.33,26.65l24.19,24.19L92,129.52l2.15-2.14,24.18-24.19a18.74,18.74,0,0,0-13.25-32Z"/></g></g></svg>