<svg xmlns="http://www.w3.org/2000/svg" viewBox="0 0 130 180"><defs><style>.cls-1{fill:#fff;}</style></defs><g id="Layer_2" data-name="Layer 2"><g id="Ñëîé_1" data-name="Ñëîé 1"><rect class="cls-1" width="130" height="180" rx="10.03"/><path d="M54,44.88c-3.33-5.06-8.77-7.63-16.19-7.63a19.69,19.69,0,0,0-10.52,3,16.11,16.11,0,0,0-1.35.93l-2.41,1.87.21-3c.61-8.4,2.06-14.13,4.29-17,3-3.86,6.48-5.74,10.62-5.74,2.86,0,3.36.63,3.58.89l.41.51-.13.68,0,.95-.08.22a5.61,5.61,0,0,0-.34,1.9A6.15,6.15,0,0,0,43.75,27a6.57,6.57,0,0,0,5,1.64,6.54,6.54,0,0,0,4.72-2A7.84,7.84,0,0,0,55,21.59c0-2.28-1.37-4.69-4.22-7.35a15.15,15.15,0,0,0-10.82-3.91c-8.8,0-15.86,3.76-21,11.17-5,7.17-7.51,17.53-7.51,30.8,0,11.32,2.09,20.12,6.24,26.16C22,84.76,28.32,88,36.56,88a21.32,21.32,0,0,0,15.49-6.69c4.45-4.43,6.69-11.21,6.69-20.14A29.15,29.15,0,0,0,54,44.88ZM44.62,77.2A9.32,9.32,0,0,1,36.56,81c-3.51,0-6.46-2-9-6s-4-10.14-4.1-17.76l.13-.59c2-4.31,4.12-7.27,6.36-8.8,5.42-3.71,11-3.14,14.53,1.46,2.1,2.72,3.16,6.7,3.16,11.82C47.59,69.07,46.59,74.48,44.62,77.2Z"/><path d="M25.56,166.61v-3.22h1.1a7.61,7.61,0,0,0,7.56-6.83A12.51,12.51,0,0,1,17.51,138l18.35-18.35L54.22,138a12.52,12.52,0,0,1-16.73,18.57,7.62,7.62,0,0,0,7.58,6.83h1.1v3.22Z"/><path class="cls-1" d="M35.86,121.19l17.58,17.58A11.41,11.41,0,0,1,37.3,154.9l-.94-.94v1.83a8.71,8.71,0,0,0,8.71,8.71v1H26.66v-1a8.71,8.71,0,0,0,8.71-8.71V154l-.95.94a11.41,11.41,0,0,1-16.13-16.13l17.57-17.58m0-3.11-1.56,1.55L16.73,137.21a13.62,13.62,0,0,0,15.52,21.91,6.51,6.51,0,0,1-5.59,3.17h-2.2v5.42H47.27v-5.42h-2.2a6.48,6.48,0,0,1-5.59-3.18A13.62,13.62,0,0,0,55,156.46a13.64,13.64,0,0,0,0-19.25L37.42,119.63l-1.56-1.55Z"/><path d="M80,127v-4h1.39a9.59,9.59,0,0,0,9.52-8.61A15.77,15.77,0,0,1,69.84,91L93,67.83,116.12,91A15.78,15.78,0,0,1,95,114.36a9.62,9.62,0,0,0,9.55,8.62H106v4Z"/><path class="cls-1" d="M93,69.79l22.15,22.15a14.38,14.38,0,0,1-20.34,20.34l-1.19-1.2v2.31a11,11,0,0,0,11,11v1.27H81.38v-1.27a11,11,0,0,0,11-11v-2.3l-1.18,1.19A14.38,14.38,0,0,1,70.83,91.94L93,69.79m0-3.93-2,2L68.87,90a17.16,17.16,0,0,0,19.55,27.61,8.19,8.19,0,0,1-7,4H78.61v6.82h28.75v-6.82h-2.78a8.22,8.22,0,0,1-7-4A17.17,17.17,0,0,0,117.1,90L94.94,67.82l-2-2Z"/></g></g></svg>