<svg xmlns="http://www.w3.org/2000/svg" viewBox="0 0 130 180"><defs><style>.cls-1{fill:#fff;}.cls-2{fill:#b4171e;}</style></defs><g id="Layer_2" data-name="Layer 2"><g id="Ñëîé_1" data-name="Ñëîé 1"><rect class="cls-1" width="130" height="180" rx="10.03"/><path class="cls-2" d="M54,44.88c-3.33-5.06-8.77-7.63-16.19-7.63a19.69,19.69,0,0,0-10.52,3,16.11,16.11,0,0,0-1.35.93l-2.41,1.87.21-3c.61-8.4,2.06-14.13,4.29-17,3-3.86,6.48-5.74,10.62-5.74,2.86,0,3.36.63,3.58.89l.41.51-.13.68,0,.95-.08.22a5.61,5.61,0,0,0-.34,1.9A6.15,6.15,0,0,0,43.75,27a6.57,6.57,0,0,0,5,1.64,6.54,6.54,0,0,0,4.72-2A7.84,7.84,0,0,0,55,21.59c0-2.28-1.37-4.69-4.22-7.35a15.15,15.15,0,0,0-10.82-3.91c-8.8,0-15.86,3.76-21,11.17-5,7.17-7.51,17.53-7.51,30.8,0,11.32,2.09,20.12,6.24,26.16C22,84.76,28.32,88,36.56,88a21.32,21.32,0,0,0,15.49-6.69c4.45-4.43,6.69-11.21,6.69-20.14A29.15,29.15,0,0,0,54,44.88ZM44.62,77.2A9.32,9.32,0,0,1,36.56,81c-3.51,0-6.46-2-9-6s-4-10.14-4.1-17.76l.13-.59c2-4.31,4.12-7.27,6.36-8.8,5.42-3.71,11-3.14,14.53,1.46,2.1,2.72,3.16,6.7,3.16,11.82C47.59,69.07,46.59,74.48,44.62,77.2Z"/><path class="cls-2" d="M14.11,144.41A14.82,14.82,0,0,1,24.6,119.1a14.68,14.68,0,0,1,10.48,4.34l.79.78.77-.79a14.83,14.83,0,0,1,21,21L35.87,166.15Z"/><path class="cls-1" d="M47.13,120.4a13.52,13.52,0,0,1,9.56,23.08L35.87,164.31,15,143.48a13.52,13.52,0,1,1,19.12-19.12l1.71,1.7,1.7-1.7a13.48,13.48,0,0,1,9.56-4m0-2.61a16,16,0,0,0-11.26,4.58,16.14,16.14,0,0,0-22.68,23L34,166.15,35.87,168l1.84-1.85,20.83-20.82a16.13,16.13,0,0,0-11.41-27.54Z"/><path class="cls-2" d="M66.47,102.13a17.22,17.22,0,0,1,12.18-29.4,17.06,17.06,0,0,1,12.17,5l.91.9.9-.91A17.22,17.22,0,1,1,117,102.12L91.73,127.38Z"/><path class="cls-1" d="M104.81,74.25a15.7,15.7,0,0,1,11.1,26.8L91.73,125.23,67.55,101.05a15.7,15.7,0,1,1,22.2-22.2l2,2,2-2a15.63,15.63,0,0,1,11.1-4.6m0-3a18.6,18.6,0,0,0-13.08,5.33A18.73,18.73,0,0,0,65.4,103.19l24.19,24.19,2.14,2.14,2.14-2.14,24.19-24.19a18.74,18.74,0,0,0-13.25-32Z"/></g></g></svg>