<svg xmlns="http://www.w3.org/2000/svg" viewBox="0 0 130 180"><defs><style>.cls-1{fill:#fff;}</style></defs><g id="Layer_2" data-name="Layer 2"><g id="Ñëîé_1" data-name="Ñëîé 1"><rect class="cls-1" width="130" height="180" rx="10.03"/><path d="M54,44.88c-3.33-5.06-8.77-7.63-16.19-7.63a19.69,19.69,0,0,0-10.52,3,16.11,16.11,0,0,0-1.35.93l-2.41,1.87.21-3c.61-8.4,2.06-14.13,4.29-17,3-3.86,6.48-5.74,10.62-5.74,2.86,0,3.36.63,3.58.89l.41.51-.13.68,0,.95-.08.22a5.61,5.61,0,0,0-.34,1.9A6.15,6.15,0,0,0,43.75,27a6.57,6.57,0,0,0,5,1.64,6.54,6.54,0,0,0,4.72-2A7.84,7.84,0,0,0,55,21.59c0-2.28-1.37-4.69-4.22-7.35a15.15,15.15,0,0,0-10.82-3.91c-8.8,0-15.86,3.76-21,11.17-5,7.17-7.51,17.53-7.51,30.8,0,11.32,2.09,20.12,6.24,26.16C22,84.76,28.32,88,36.56,88a21.32,21.32,0,0,0,15.49-6.69c4.45-4.43,6.69-11.21,6.69-20.14A29.15,29.15,0,0,0,54,44.88ZM44.62,77.2A9.32,9.32,0,0,1,36.56,81c-3.51,0-6.46-2-9-6s-4-10.14-4.1-17.76l.13-.59c2-4.31,4.12-7.27,6.36-8.8,5.42-3.71,11-3.14,14.53,1.46,2.1,2.72,3.16,6.7,3.16,11.82C47.59,69.07,46.59,74.48,44.62,77.2Z"/><path d="M28.77,168.06v-3.67h1.28a8.48,8.48,0,0,0,8.46-8.47v-1.41a4.67,4.67,0,0,0-.51.36,12.57,12.57,0,0,1-10.33,5.31,12.82,12.82,0,1,1,0-25.63,11.46,11.46,0,0,1,1.17.06A12.62,12.62,0,0,1,27.52,129a12.82,12.82,0,1,1,25.63,0,12.62,12.62,0,0,1-1.32,5.59,11.66,11.66,0,0,1,1.18-.06,12.82,12.82,0,1,1-10.54,20.09,2.13,2.13,0,0,0-.31-.18v1.46a8.48,8.48,0,0,0,8.47,8.47H51.9v3.67Z"/><path class="cls-1" d="M40.33,117.48A11.48,11.48,0,0,1,49,136.58a11.34,11.34,0,0,1,4-.76,11.54,11.54,0,1,1-9.49,18.09,4.9,4.9,0,0,0-2.62-1.13v3.14a9.74,9.74,0,0,0,9.74,9.74v1.13H30.05v-1.13a9.74,9.74,0,0,0,9.73-9.74v-3.14a4.87,4.87,0,0,0-2.62,1.13,11.54,11.54,0,1,1-9.49-18.09,11.39,11.39,0,0,1,4,.76,11.48,11.48,0,0,1,8.65-19.1m0-2.55A14.1,14.1,0,0,0,26.24,129a13.73,13.73,0,0,0,.69,4.27,14.09,14.09,0,1,0,10,24.68,7.18,7.18,0,0,1-6.88,5.14H27.5v6.23H53.18v-6.23H50.63a7.21,7.21,0,0,1-6.9-5.15,14.09,14.09,0,1,0,10-24.67,13.73,13.73,0,0,0,.69-4.27,14.11,14.11,0,0,0-14.1-14.09Z"/><path d="M78.48,126.55v-4.24H80a9.76,9.76,0,0,0,9.75-9.76v-1.63a4.75,4.75,0,0,0-.58.42,14.51,14.51,0,0,1-11.92,6.12,14.79,14.79,0,1,1,0-29.57,12.52,12.52,0,0,1,1.36.07A14.51,14.51,0,0,1,77,81.5a14.79,14.79,0,0,1,29.57,0A14.63,14.63,0,0,1,105.08,88a12.39,12.39,0,0,1,1.36-.07,14.79,14.79,0,1,1-12.16,23.18l-.36-.2v1.68a9.77,9.77,0,0,0,9.77,9.76h1.47v4.24Z"/><path class="cls-1" d="M91.81,68.19a13.25,13.25,0,0,1,10,22,13.14,13.14,0,0,1,4.63-.87,13.32,13.32,0,1,1-11,20.87,5.55,5.55,0,0,0-3-1.3v3.62a11.23,11.23,0,0,0,11.24,11.23v1.3H79.94v-1.3a11.22,11.22,0,0,0,11.23-11.23v-3.62a5.62,5.62,0,0,0-3,1.3,13.37,13.37,0,1,1-6.32-20,13.25,13.25,0,0,1,10-22m0-2.94A16.27,16.27,0,0,0,75.56,81.51a15.85,15.85,0,0,0,.79,4.93,16.26,16.26,0,1,0,11.54,28.47,8.31,8.31,0,0,1-8,5.93H77V128h29.63v-7.19h-2.94a8.32,8.32,0,0,1-8-5.94,16.25,16.25,0,1,0,11.55-28.46,15.85,15.85,0,0,0,.79-4.93A16.27,16.27,0,0,0,91.81,65.25Z"/></g></g></svg>