<svg xmlns="http://www.w3.org/2000/svg" viewBox="0 0 130 180"><defs><style>.cls-1{fill:#fff;}.cls-2{fill:#b4171e;}</style></defs><g id="Layer_2" data-name="Layer 2"><g id="Ñëîé_1" data-name="Ñëîé 1"><rect class="cls-1" width="130" height="180" rx="10.03"/><path class="cls-2" d="M34.73,167.37A68.92,68.92,0,0,0,23,152.48a77.38,77.38,0,0,0-12.62-9.91l-1.76-1.11,1.76-1.1A77.8,77.8,0,0,0,23,130.46a69.16,69.16,0,0,0,11.72-14.89l1.13-1.95L37,115.57a68.85,68.85,0,0,0,11.72,14.89,77.8,77.8,0,0,0,12.62,9.9l1.76,1.1-1.76,1.11a77.38,77.38,0,0,0-12.62,9.91A68.61,68.61,0,0,0,37,167.37l-1.14,1.95Z"/><path class="cls-1" d="M35.86,116.22a70,70,0,0,0,12,15.18,79.1,79.1,0,0,0,12.84,10.07,79.1,79.1,0,0,0-12.84,10.07,70.19,70.19,0,0,0-12,15.17,70.41,70.41,0,0,0-11.94-15.17,80,80,0,0,0-12.84-10.07A80,80,0,0,0,23.92,131.4a70.19,70.19,0,0,0,11.94-15.18m0-5.19-2.25,3.88A68,68,0,0,1,22.1,129.52a76.19,76.19,0,0,1-12.42,9.74l-3.49,2.21,3.49,2.21a77,77,0,0,1,12.42,9.73A67.78,67.78,0,0,1,33.61,168l2.25,3.88L38.12,168a68,68,0,0,1,11.5-14.62,76.65,76.65,0,0,1,12.43-9.73l3.49-2.21L62,139.26a77.05,77.05,0,0,1-12.42-9.74,68.23,68.23,0,0,1-11.5-14.61L35.86,111Z"/><path class="cls-2" d="M89.3,134.44A84.16,84.16,0,0,0,75,116.21,95.09,95.09,0,0,0,59.5,104.07l-2.15-1.35,2.15-1.34A96.18,96.18,0,0,0,75,89.25,84.35,84.35,0,0,0,89.3,71l1.38-2.39L92.07,71a84.3,84.3,0,0,0,14.34,18.22,96.26,96.26,0,0,0,15.46,12.13l2.15,1.34-2.15,1.35a95.6,95.6,0,0,0-15.46,12.14,84.11,84.11,0,0,0-14.34,18.23l-1.39,2.38Z"/><path class="cls-1" d="M90.68,71.83A86.45,86.45,0,0,0,105.3,90.4,96.65,96.65,0,0,0,121,102.73a97.66,97.66,0,0,0-15.72,12.32,86.47,86.47,0,0,0-14.62,18.58,86.15,86.15,0,0,0-14.62-18.58,97.66,97.66,0,0,0-15.72-12.32A96.65,96.65,0,0,0,76.06,90.4,86.13,86.13,0,0,0,90.68,71.83m0-6.36-2.76,4.75A83.33,83.33,0,0,1,73.84,88.11,93.85,93.85,0,0,1,58.63,100l-4.27,2.7,4.27,2.7a94.29,94.29,0,0,1,15.21,11.92,83.15,83.15,0,0,1,14.08,17.89L90.68,140l2.76-4.75a83.46,83.46,0,0,1,14.08-17.89,94.73,94.73,0,0,1,15.21-11.92l4.27-2.7-4.27-2.7a93.77,93.77,0,0,1-15.2-11.92A83.44,83.44,0,0,1,93.44,70.22l-2.76-4.75Z"/><path class="cls-2" d="M54,44.88c-3.33-5.06-8.77-7.63-16.19-7.63a19.69,19.69,0,0,0-10.52,3,16.11,16.11,0,0,0-1.35.93l-2.41,1.87.21-3c.61-8.4,2.06-14.13,4.29-17,3-3.86,6.48-5.74,10.62-5.74,2.86,0,3.36.63,3.58.89l.41.51-.13.68,0,.95-.08.22a5.61,5.61,0,0,0-.34,1.9A6.15,6.15,0,0,0,43.75,27a6.57,6.57,0,0,0,5,1.64,6.54,6.54,0,0,0,4.72-2A7.84,7.84,0,0,0,55,21.59c0-2.28-1.37-4.69-4.22-7.35a15.15,15.15,0,0,0-10.82-3.91c-8.8,0-15.86,3.76-21,11.17-5,7.17-7.51,17.53-7.51,30.8,0,11.32,2.09,20.12,6.24,26.16C22,84.76,28.32,88,36.56,88a21.32,21.32,0,0,0,15.49-6.69c4.45-4.43,6.69-11.21,6.69-20.14A29.15,29.15,0,0,0,54,44.88ZM44.62,77.2A9.32,9.32,0,0,1,36.56,81c-3.51,0-6.46-2-9-6s-4-10.14-4.1-17.76l.13-.59c2-4.31,4.12-7.27,6.36-8.8,5.42-3.71,11-3.14,14.53,1.46,2.1,2.72,3.16,6.7,3.16,11.82C47.59,69.07,46.59,74.48,44.62,77.2Z"/></g></g></svg>