<svg xmlns="http://www.w3.org/2000/svg" viewBox="0 0 130 180"><defs><style>.cls-1{fill:#fff;}</style></defs><g id="Layer_2" data-name="Layer 2"><g id="Ñëîé_1" data-name="Ñëîé 1"><rect class="cls-1" width="130" height="180" rx="10.03"/><path d="M31.73,89.68a8.33,8.33,0,0,1-6-2.46c-1.64-1.66-2.44-4.16-2.44-7.66,0-5.69,1.25-12.73,3.73-20.93,2.28-7.5,7.79-19.25,16.84-35.92l0-.08H28.33a6.32,6.32,0,0,0-5,1.9c-1.41,1.52-2.49,4-3.21,7.35L19.48,35l-9-1.49,4-23.93H58.85v7.28l-.51.81A167.08,167.08,0,0,0,44.41,45.31C41,54.08,39.32,61.76,39.32,68.09a28.17,28.17,0,0,0,.38,4l0,8.31c0,3.12-.57,5.28-1.81,6.8A7.7,7.7,0,0,1,31.73,89.68Z"/><path class="cls-1" d="M57.54,10.89v5.58l-.31.49a168.73,168.73,0,0,0-14,27.88C39.75,53.75,38,61.58,38,68.09a29.84,29.84,0,0,0,.4,4.19l0,8.12c0,2.81-.49,4.71-1.52,6a6.38,6.38,0,0,1-5.18,2,7,7,0,0,1-5.06-2.08c-1.38-1.39-2.06-3.59-2.06-6.74,0-5.57,1.24-12.48,3.68-20.54C30.54,51.61,36,39.93,45,23.33l1.09-2H28.33a7.62,7.62,0,0,0-5.93,2.32c-1.58,1.69-2.77,4.37-3.53,8l-.41,1.89L12,32.42l3.58-21.53h42m2.62-2.63H13.34L13,10.45,9.39,32,9,34.58l2.6.43L18,36.09l2.48.41L21,34l.41-1.89c.65-3.07,1.65-5.39,2.88-6.72a5,5,0,0,1,4-1.48H41.7C33.21,39.72,28,51,25.77,58.24,23.25,66.58,22,73.74,22,79.55c0,3.87.92,6.68,2.83,8.59A9.61,9.61,0,0,0,31.73,91c3.14,0,5.56-1,7.2-3,1.46-1.78,2.13-4.2,2.13-7.65l0-8.13a34.42,34.42,0,0,1-.4-4.18c0-6.19,1.69-13.69,5-22.3A165,165,0,0,1,59.46,18.34l.31-.48.39-.64v-9Z"/><path d="M25.23,166.61v-3.22h1.1a7.61,7.61,0,0,0,7.56-6.83A12.51,12.51,0,0,1,17.18,138l18.35-18.35L53.89,138a12.52,12.52,0,0,1-16.73,18.57,7.62,7.62,0,0,0,7.57,6.83h1.11v3.22Z"/><path class="cls-1" d="M35.53,121.19l17.58,17.58A11.41,11.41,0,0,1,37,154.9L36,154v1.83a8.7,8.7,0,0,0,8.7,8.71v1H26.33v-1a8.7,8.7,0,0,0,8.7-8.71V154l-.94.94A11.41,11.41,0,0,1,18,138.77l17.57-17.58m0-3.11L34,119.63,16.4,137.21a13.62,13.62,0,0,0,15.51,21.91,6.49,6.49,0,0,1-5.58,3.17h-2.2v5.42H46.94v-5.42H44.73a6.5,6.5,0,0,1-5.59-3.18,13.62,13.62,0,0,0,15.52-21.9L37.09,119.63l-1.56-1.55Z"/><path d="M79.77,127v-4h1.39a9.58,9.58,0,0,0,9.52-8.61A15.77,15.77,0,0,1,69.62,91L92.76,67.83,115.89,91a15.77,15.77,0,0,1-11.15,26.92,15.63,15.63,0,0,1-9.93-3.51,9.6,9.6,0,0,0,9.54,8.62h1.39v4Z"/><path class="cls-1" d="M92.75,69.79,114.9,91.94a14.38,14.38,0,1,1-20.33,20.34l-1.19-1.2v2.31a11,11,0,0,0,11,11v1.27H81.16v-1.27a11,11,0,0,0,11-11v-2.3l-1.19,1.19A14.38,14.38,0,0,1,70.6,91.94L92.75,69.79m0-3.93-2,2L68.64,90a17.16,17.16,0,0,0,19.55,27.61,8.19,8.19,0,0,1-7,4H78.38v6.82h28.75v-6.82h-2.78a8.19,8.19,0,0,1-7-4A17.16,17.16,0,0,0,116.87,90L94.72,67.82l-2-2Z"/></g></g></svg>