<svg xmlns="http://www.w3.org/2000/svg" viewBox="0 0 130 180"><defs><style>.cls-1{fill:#fff;}.cls-2{fill:#b4171e;}</style></defs><g id="Layer_2" data-name="Layer 2"><g id="Ñëîé_1" data-name="Ñëîé 1"><rect class="cls-1" width="130" height="180" rx="10.03"/><path class="cls-2" d="M31.73,89.68a8.33,8.33,0,0,1-6-2.46c-1.64-1.66-2.44-4.16-2.44-7.66,0-5.69,1.25-12.73,3.73-20.93,2.28-7.5,7.79-19.25,16.84-35.92l0-.08H28.33a6.32,6.32,0,0,0-5,1.9c-1.41,1.52-2.49,4-3.21,7.35L19.48,35l-9-1.49,4-23.93H58.85v7.28l-.51.81A167.08,167.08,0,0,0,44.41,45.31C41,54.08,39.32,61.76,39.32,68.09a28.17,28.17,0,0,0,.38,4l0,8.31c0,3.12-.57,5.28-1.81,6.8A7.7,7.7,0,0,1,31.73,89.68Z"/><path class="cls-1" d="M57.54,10.89v5.58l-.31.49a168.73,168.73,0,0,0-14,27.88C39.75,53.75,38,61.58,38,68.09a29.84,29.84,0,0,0,.4,4.19l0,8.12c0,2.81-.49,4.71-1.52,6a6.38,6.38,0,0,1-5.18,2,7,7,0,0,1-5.06-2.08c-1.38-1.39-2.06-3.59-2.06-6.74,0-5.57,1.24-12.48,3.68-20.54C30.54,51.61,36,39.93,45,23.33l1.09-2H28.33a7.62,7.62,0,0,0-5.93,2.32c-1.58,1.69-2.77,4.37-3.53,8l-.41,1.89L12,32.42l3.58-21.53h42m2.62-2.63H13.34L13,10.45,9.39,32,9,34.58l2.6.43L18,36.09l2.48.41L21,34l.41-1.89c.65-3.07,1.65-5.39,2.88-6.72a5,5,0,0,1,4-1.48H41.7C33.21,39.72,28,51,25.77,58.24,23.25,66.58,22,73.74,22,79.55c0,3.87.92,6.68,2.83,8.59A9.61,9.61,0,0,0,31.73,91c3.14,0,5.56-1,7.2-3,1.46-1.78,2.13-4.2,2.13-7.65l0-8.13a34.42,34.42,0,0,1-.4-4.18c0-6.19,1.69-13.69,5-22.3A165,165,0,0,1,59.46,18.34l.31-.48.39-.64v-9Z"/><path class="cls-2" d="M13.78,144.41A14.82,14.82,0,0,1,24.27,119.1a14.7,14.7,0,0,1,10.48,4.34l.79.78.77-.79a14.83,14.83,0,0,1,21,21L35.54,166.15Z"/><path class="cls-1" d="M46.8,120.4a13.52,13.52,0,0,1,9.56,23.08L35.53,164.31,14.71,143.48a13.52,13.52,0,1,1,19.12-19.12l1.7,1.7,1.71-1.7a13.48,13.48,0,0,1,9.56-4m0-2.61a16,16,0,0,0-11.27,4.58,16.13,16.13,0,0,0-22.67,23l20.83,20.82L35.53,168l1.85-1.85,20.83-20.82A16.13,16.13,0,0,0,46.8,117.79Z"/><path class="cls-2" d="M66.7,102.13a17.22,17.22,0,0,1,12.18-29.4,17,17,0,0,1,12.17,5l.91.9.9-.91a17.23,17.23,0,1,1,24.37,24.35L92,127.38Z"/><path class="cls-1" d="M105,74.25a15.7,15.7,0,0,1,11.11,26.8L92,125.23,67.78,101.05A15.7,15.7,0,1,1,90,78.85l2,2,2-2a15.65,15.65,0,0,1,11.1-4.6m0-3A18.6,18.6,0,0,0,92,76.54a18.73,18.73,0,0,0-26.33,26.65l24.19,24.19L92,129.52l2.15-2.14,24.18-24.19a18.74,18.74,0,0,0-13.25-32Z"/></g></g></svg>