<svg xmlns="http://www.w3.org/2000/svg" viewBox="0 0 130 180"><defs><style>.cls-1{fill:#fff;}</style></defs><g id="Layer_2" data-name="Layer 2"><g id="Ñëîé_1" data-name="Ñëîé 1"><rect class="cls-1" width="130" height="180" rx="10.03"/><path d="M31.73,89.68a8.33,8.33,0,0,1-6-2.46c-1.64-1.66-2.44-4.16-2.44-7.66,0-5.69,1.25-12.73,3.73-20.93,2.28-7.5,7.79-19.25,16.84-35.92l0-.08H28.33a6.32,6.32,0,0,0-5,1.9c-1.41,1.52-2.49,4-3.21,7.35L19.48,35l-9-1.49,4-23.93H58.85v7.28l-.51.81A167.08,167.08,0,0,0,44.41,45.31C41,54.08,39.32,61.76,39.32,68.09a28.17,28.17,0,0,0,.38,4l0,8.31c0,3.12-.57,5.28-1.81,6.8A7.7,7.7,0,0,1,31.73,89.68Z"/><path class="cls-1" d="M57.54,10.89v5.58l-.31.49a168.73,168.73,0,0,0-14,27.88C39.75,53.75,38,61.58,38,68.09a29.84,29.84,0,0,0,.4,4.19l0,8.12c0,2.81-.49,4.71-1.52,6a6.38,6.38,0,0,1-5.18,2,7,7,0,0,1-5.06-2.08c-1.38-1.39-2.06-3.59-2.06-6.74,0-5.57,1.24-12.48,3.68-20.54C30.54,51.61,36,39.93,45,23.33l1.09-2H28.33a7.62,7.62,0,0,0-5.93,2.32c-1.58,1.69-2.77,4.37-3.53,8l-.41,1.89L12,32.42l3.58-21.53h42m2.62-2.63H13.34L13,10.45,9.39,32,9,34.58l2.6.43L18,36.09l2.48.41L21,34l.41-1.89c.65-3.07,1.65-5.39,2.88-6.72a5,5,0,0,1,4-1.48H41.7C33.21,39.72,28,51,25.77,58.24,23.25,66.58,22,73.74,22,79.55c0,3.87.92,6.68,2.83,8.59A9.61,9.61,0,0,0,31.73,91c3.14,0,5.56-1,7.2-3,1.46-1.78,2.13-4.2,2.13-7.65l0-8.13a34.42,34.42,0,0,1-.4-4.18c0-6.19,1.69-13.69,5-22.3A165,165,0,0,1,59.46,18.34l.31-.48.39-.64v-9Z"/><path d="M28,168.06v-3.67h1.28a8.47,8.47,0,0,0,8.45-8.47v-1.41a4.67,4.67,0,0,0-.51.36,12.55,12.55,0,0,1-10.32,5.31,12.82,12.82,0,1,1,0-25.63q.57,0,1.17.06A12.49,12.49,0,0,1,26.78,129a12.81,12.81,0,1,1,25.62,0,12.61,12.61,0,0,1-1.31,5.59,11.61,11.61,0,0,1,1.17-.06,12.82,12.82,0,1,1-10.53,20.09,2.13,2.13,0,0,0-.31-.18v1.46a8.47,8.47,0,0,0,8.46,8.47h1.28v3.67Z"/><path class="cls-1" d="M39.59,117.48a11.49,11.49,0,0,1,8.66,19.1,11.34,11.34,0,0,1,4-.76,11.54,11.54,0,1,1-9.49,18.09,4.9,4.9,0,0,0-2.62-1.13v3.14a9.73,9.73,0,0,0,9.73,9.74v1.13H29.3v-1.13A9.74,9.74,0,0,0,39,155.92v-3.14a4.9,4.9,0,0,0-2.63,1.13,11.59,11.59,0,1,1-5.47-17.33,11.48,11.48,0,0,1,8.65-19.1m0-2.55A14.1,14.1,0,0,0,25.5,129a13.73,13.73,0,0,0,.69,4.27,14.09,14.09,0,1,0,10,24.68,7.2,7.2,0,0,1-6.89,5.14H26.75v6.23H52.43v-6.23H49.88A7.21,7.21,0,0,1,43,158a14.09,14.09,0,1,0,10-24.67,13.72,13.72,0,0,0,.68-4.27,14.1,14.1,0,0,0-14.09-14.09Z"/><path d="M77.73,126.55v-4.24H79.2A9.77,9.77,0,0,0,89,112.55v-1.63a4.86,4.86,0,0,0-.59.42,14.5,14.5,0,0,1-11.91,6.12,14.79,14.79,0,1,1,0-29.57,12.34,12.34,0,0,1,1.35.07,14.51,14.51,0,0,1-1.53-6.46,14.79,14.79,0,0,1,29.58,0A14.63,14.63,0,0,1,104.34,88a12.34,12.34,0,0,1,1.35-.07,14.79,14.79,0,1,1-12.15,23.18l-.36-.2v1.68a9.77,9.77,0,0,0,9.77,9.76h1.47v4.24Z"/><path class="cls-1" d="M91.07,68.19a13.25,13.25,0,0,1,10,22,13.14,13.14,0,0,1,4.63-.87,13.32,13.32,0,1,1-11,20.87,5.58,5.58,0,0,0-3-1.3v3.62A11.23,11.23,0,0,0,103,123.78v1.3H79.2v-1.3a11.23,11.23,0,0,0,11.23-11.23v-3.62a5.65,5.65,0,0,0-3,1.3,13.36,13.36,0,1,1-6.31-20,13.25,13.25,0,0,1,10-22m0-2.94A16.28,16.28,0,0,0,74.81,81.51a15.85,15.85,0,0,0,.79,4.93,16.26,16.26,0,1,0,11.55,28.47,8.32,8.32,0,0,1-8,5.93H76.26V128h29.63v-7.19H103a8.32,8.32,0,0,1-8-5.94,16.25,16.25,0,1,0,11.55-28.46,15.85,15.85,0,0,0,.79-4.93A16.27,16.27,0,0,0,91.07,65.25Z"/></g></g></svg>