<svg xmlns="http://www.w3.org/2000/svg" viewBox="0 0 130 180"><defs><style>.cls-1{fill:#fff;}.cls-2{fill:#b4171e;}</style></defs><g id="Layer_2" data-name="Layer 2"><g id="Ñëîé_1" data-name="Ñëîé 1"><rect class="cls-1" width="130" height="180" rx="10.03"/><path class="cls-2" d="M34.4,167.37a68.92,68.92,0,0,0-11.72-14.89,77.46,77.46,0,0,0-12.63-9.91L8.3,141.46l1.75-1.1a77.45,77.45,0,0,0,12.63-9.9A69.16,69.16,0,0,0,34.4,115.57l1.13-1.95,1.13,1.95a69.47,69.47,0,0,0,11.72,14.89A78.31,78.31,0,0,0,61,140.36l1.75,1.1L61,142.57a77.89,77.89,0,0,0-12.63,9.91,69.23,69.23,0,0,0-11.72,14.89l-1.13,1.95Z"/><path class="cls-1" d="M35.53,116.22A70.19,70.19,0,0,0,47.47,131.4a79.56,79.56,0,0,0,12.85,10.07,79.56,79.56,0,0,0-12.85,10.07,70.41,70.41,0,0,0-11.94,15.17,70.41,70.41,0,0,0-11.94-15.17,79.56,79.56,0,0,0-12.85-10.07A79.56,79.56,0,0,0,23.59,131.4a70.19,70.19,0,0,0,11.94-15.18m0-5.19-2.26,3.88a67.61,67.61,0,0,1-11.5,14.61,76.19,76.19,0,0,1-12.42,9.74l-3.49,2.21,3.49,2.21a77,77,0,0,1,12.42,9.73A67.43,67.43,0,0,1,33.27,168l2.26,3.88L37.79,168a68,68,0,0,1,11.5-14.62,77,77,0,0,1,12.42-9.73l3.49-2.21-3.49-2.21a77.05,77.05,0,0,1-12.42-9.74,67.61,67.61,0,0,1-11.5-14.61L35.53,111Z"/><path class="cls-2" d="M89.3,134.44A84.16,84.16,0,0,0,75,116.21,95.09,95.09,0,0,0,59.5,104.07l-2.15-1.35,2.15-1.34A96.18,96.18,0,0,0,75,89.25,84.35,84.35,0,0,0,89.3,71l1.38-2.39L92.07,71a84.3,84.3,0,0,0,14.34,18.22,96.26,96.26,0,0,0,15.46,12.13l2.15,1.34-2.15,1.35a95.6,95.6,0,0,0-15.46,12.14,84.11,84.11,0,0,0-14.34,18.23l-1.39,2.38Z"/><path class="cls-1" d="M90.68,71.83A86.45,86.45,0,0,0,105.3,90.4,96.65,96.65,0,0,0,121,102.73a97.66,97.66,0,0,0-15.72,12.32,86.47,86.47,0,0,0-14.62,18.58,86.15,86.15,0,0,0-14.62-18.58,97.66,97.66,0,0,0-15.72-12.32A96.65,96.65,0,0,0,76.06,90.4,86.13,86.13,0,0,0,90.68,71.83m0-6.36-2.76,4.75A83.33,83.33,0,0,1,73.84,88.11,93.85,93.85,0,0,1,58.63,100l-4.27,2.7,4.27,2.7a94.29,94.29,0,0,1,15.21,11.92,83.15,83.15,0,0,1,14.08,17.89L90.68,140l2.76-4.75a83.46,83.46,0,0,1,14.08-17.89,94.73,94.73,0,0,1,15.21-11.92l4.27-2.7-4.27-2.7a93.77,93.77,0,0,1-15.2-11.92A83.44,83.44,0,0,1,93.44,70.22l-2.76-4.75Z"/><path class="cls-2" d="M31.73,89.68a8.33,8.33,0,0,1-6-2.46c-1.64-1.66-2.44-4.16-2.44-7.66,0-5.69,1.25-12.73,3.73-20.93,2.28-7.5,7.79-19.25,16.84-35.92l0-.08H28.33a6.32,6.32,0,0,0-5,1.9c-1.41,1.52-2.49,4-3.21,7.35L19.48,35l-9-1.49,4-23.93H58.85v7.28l-.51.81A167.08,167.08,0,0,0,44.41,45.31C41,54.08,39.32,61.76,39.32,68.09a28.17,28.17,0,0,0,.38,4l0,8.31c0,3.12-.57,5.28-1.81,6.8A7.7,7.7,0,0,1,31.73,89.68Z"/><path class="cls-1" d="M57.54,10.89v5.58l-.31.49a168.73,168.73,0,0,0-14,27.88C39.75,53.75,38,61.58,38,68.09a29.84,29.84,0,0,0,.4,4.19l0,8.12c0,2.81-.49,4.71-1.52,6a6.38,6.38,0,0,1-5.18,2,7,7,0,0,1-5.06-2.08c-1.38-1.39-2.06-3.59-2.06-6.74,0-5.57,1.24-12.48,3.68-20.54C30.54,51.61,36,39.93,45,23.33l1.09-2H28.33a7.62,7.62,0,0,0-5.93,2.32c-1.58,1.69-2.77,4.37-3.53,8l-.41,1.89L12,32.42l3.58-21.53h42m2.62-2.63H13.34L13,10.45,9.39,32,9,34.58l2.6.43L18,36.09l2.48.41L21,34l.41-1.89c.65-3.07,1.65-5.39,2.88-6.72a5,5,0,0,1,4-1.48H41.7C33.21,39.72,28,51,25.77,58.24,23.25,66.58,22,73.74,22,79.55c0,3.87.92,6.68,2.83,8.59A9.61,9.61,0,0,0,31.73,91c3.14,0,5.56-1,7.2-3,1.46-1.78,2.13-4.2,2.13-7.65l0-8.13a34.42,34.42,0,0,1-.4-4.18c0-6.19,1.69-13.69,5-22.3A165,165,0,0,1,59.46,18.34l.31-.48.39-.64v-9Z"/></g></g></svg>