<svg xmlns="http://www.w3.org/2000/svg" viewBox="0 0 130 180"><defs><style>.cls-1{fill:#fff;}</style></defs><g id="Layer_2" data-name="Layer 2"><g id="Ñëîé_1" data-name="Ñëîé 1"><rect class="cls-1" width="130" height="180" rx="10.03"/><path d="M54.09,55.08a28.88,28.88,0,0,0-6.61-6.79L46,47.11,47.54,46a23.51,23.51,0,0,0,5.89-5.6,17.87,17.87,0,0,0-2.56-24c-3.95-3.65-9.15-5.51-15.46-5.51-6.86,0-12.35,1.86-16.3,5.51a17.77,17.77,0,0,0-6,13.5,18.45,18.45,0,0,0,3.48,10.9A23.27,23.27,0,0,0,21.67,46l1.51,1.13-1.5,1.13a28.87,28.87,0,0,0-6.37,6.42h0a22.32,22.32,0,0,0-3.89,13.19c0,5.28,2.32,10,6.91,13.94a24,24,0,0,0,16.26,5.9c6.85,0,12.48-2,16.72-5.93A19.41,19.41,0,0,0,57.75,67,21.17,21.17,0,0,0,54.09,55.08ZM22.76,28.66a11.8,11.8,0,0,1,2.91-7.53c1.83-2.29,5.1-3.45,9.74-3.45,4.12,0,7,1.18,8.88,3.62a14.31,14.31,0,0,1,2.94,9A13.33,13.33,0,0,1,45.05,38a16,16,0,0,1-5.39,4.86l-.6.35L38.42,43a38.72,38.72,0,0,1-11.5-6.76C24.16,33.68,22.76,31.14,22.76,28.66ZM44.55,77.4c-2,2.31-5.32,3.49-10,3.49a13.34,13.34,0,0,1-9.71-3.65,12.28,12.28,0,0,1-3.78-9.42,20.46,20.46,0,0,1,2.47-9.91,21,21,0,0,1,5.57-6.55l.65-.53.78.35c5.54,2.46,9.8,5.16,12.64,8,3,3,4.45,5.95,4.45,9.06A13.47,13.47,0,0,1,44.55,77.4Z"/><path d="M25.63,166.61v-3.22h1.11a7.61,7.61,0,0,0,7.55-6.83A12.51,12.51,0,0,1,17.58,138l18.36-18.35L54.29,138a12.52,12.52,0,0,1-16.73,18.57,7.62,7.62,0,0,0,7.58,6.83h1.1v3.22Z"/><path class="cls-1" d="M35.93,121.19l17.58,17.58A11.41,11.41,0,0,1,37.37,154.9l-.94-.94v1.83a8.71,8.71,0,0,0,8.71,8.71v1H26.73v-1a8.71,8.71,0,0,0,8.71-8.71V154l-.95.94a11.41,11.41,0,0,1-16.13-16.13l17.57-17.58m0-3.11-1.55,1.55L16.8,137.21a13.62,13.62,0,0,0,15.52,21.91,6.51,6.51,0,0,1-5.59,3.17h-2.2v5.42H47.34v-5.42h-2.2a6.48,6.48,0,0,1-5.59-3.18,13.62,13.62,0,0,0,15.52-2.65,13.64,13.64,0,0,0,0-19.25L37.49,119.63l-1.56-1.55Z"/><path d="M80.78,127v-4h1.39a9.6,9.6,0,0,0,9.53-8.61A15.77,15.77,0,0,1,70.63,91L93.77,67.83,116.91,91a15.77,15.77,0,0,1-11.16,26.92,15.65,15.65,0,0,1-9.93-3.51,9.61,9.61,0,0,0,9.54,8.62h1.39v4Z"/><path class="cls-1" d="M93.77,69.79l22.15,22.15a14.38,14.38,0,0,1-20.34,20.34l-1.19-1.2v2.31a11,11,0,0,0,11,11v1.27H82.17v-1.27a11,11,0,0,0,11-11v-2.3L92,112.28A14.38,14.38,0,1,1,71.62,91.94L93.77,69.79m0-3.93-2,2L69.65,90a17.17,17.17,0,0,0,19.56,27.61,8.19,8.19,0,0,1-7,4H79.39v6.82h28.75v-6.82h-2.78a8.19,8.19,0,0,1-7-4A17.16,17.16,0,0,0,117.88,90L95.73,67.82l-2-2Z"/></g></g></svg>