<svg xmlns="http://www.w3.org/2000/svg" viewBox="0 0 130 180"><defs><style>.cls-1{fill:#fff;}.cls-2{fill:#b4171e;}</style></defs><g id="Layer_2" data-name="Layer 2"><g id="Ñëîé_1" data-name="Ñëîé 1"><rect class="cls-1" width="130" height="180" rx="10.03"/><path class="cls-2" d="M54.09,55.08a28.88,28.88,0,0,0-6.61-6.79L46,47.11,47.54,46a23.51,23.51,0,0,0,5.89-5.6,17.87,17.87,0,0,0-2.56-24c-3.95-3.65-9.15-5.51-15.46-5.51-6.86,0-12.35,1.86-16.3,5.51a17.77,17.77,0,0,0-6,13.5,18.45,18.45,0,0,0,3.48,10.9A23.27,23.27,0,0,0,21.67,46l1.51,1.13-1.5,1.13a28.87,28.87,0,0,0-6.37,6.42h0a22.32,22.32,0,0,0-3.89,13.19c0,5.28,2.32,10,6.91,13.94a24,24,0,0,0,16.26,5.9c6.85,0,12.48-2,16.72-5.93A19.41,19.41,0,0,0,57.75,67,21.17,21.17,0,0,0,54.09,55.08ZM22.76,28.66a11.8,11.8,0,0,1,2.91-7.53c1.83-2.29,5.1-3.45,9.74-3.45,4.12,0,7,1.18,8.88,3.62a14.31,14.31,0,0,1,2.94,9A13.33,13.33,0,0,1,45.05,38a16,16,0,0,1-5.39,4.86l-.6.35L38.42,43a38.72,38.72,0,0,1-11.5-6.76C24.16,33.68,22.76,31.14,22.76,28.66ZM44.55,77.4c-2,2.31-5.32,3.49-10,3.49a13.34,13.34,0,0,1-9.71-3.65,12.28,12.28,0,0,1-3.78-9.42,20.46,20.46,0,0,1,2.47-9.91,21,21,0,0,1,5.57-6.55l.65-.53.78.35c5.54,2.46,9.8,5.16,12.64,8,3,3,4.45,5.95,4.45,9.06A13.47,13.47,0,0,1,44.55,77.4Z"/><path class="cls-2" d="M14.18,144.41A14.82,14.82,0,0,1,24.67,119.1a14.68,14.68,0,0,1,10.48,4.34l.79.78.77-.79a14.83,14.83,0,0,1,21,21L35.94,166.15Z"/><path class="cls-1" d="M47.2,120.4a13.52,13.52,0,0,1,9.56,23.08L35.94,164.31,15.11,143.48a13.52,13.52,0,1,1,19.12-19.12l1.71,1.7,1.7-1.7a13.48,13.48,0,0,1,9.56-4m0-2.61a16,16,0,0,0-11.26,4.58,16.14,16.14,0,0,0-22.68,23l20.83,20.82L35.94,168l1.84-1.85,20.83-20.82A16.13,16.13,0,0,0,47.2,117.79Z"/><path class="cls-2" d="M66.9,102.13a17.22,17.22,0,0,1,12.17-29.4,17.06,17.06,0,0,1,12.18,5l.91.9.9-.91a17.22,17.22,0,1,1,24.36,24.35L92.16,127.38Z"/><path class="cls-1" d="M105.24,74.25a15.7,15.7,0,0,1,11.1,26.8L92.16,125.23,68,101.05a15.7,15.7,0,1,1,22.2-22.2l2,2,2-2a15.62,15.62,0,0,1,11.1-4.6m0-3a18.57,18.57,0,0,0-13.08,5.33,18.73,18.73,0,0,0-26.33,26.65L90,127.38l2.14,2.14,2.15-2.14,24.18-24.19a18.74,18.74,0,0,0-13.24-32Z"/></g></g></svg>