<svg xmlns="http://www.w3.org/2000/svg" viewBox="0 0 130 180"><defs><style>.cls-1{fill:#fff;}</style></defs><g id="Layer_2" data-name="Layer 2"><g id="Ñëîé_1" data-name="Ñëîé 1"><rect class="cls-1" width="130" height="180" rx="10.03"/><path d="M54.09,55.08a28.88,28.88,0,0,0-6.61-6.79L46,47.11,47.54,46a23.51,23.51,0,0,0,5.89-5.6,17.87,17.87,0,0,0-2.56-24c-3.95-3.65-9.15-5.51-15.46-5.51-6.86,0-12.35,1.86-16.3,5.51a17.77,17.77,0,0,0-6,13.5,18.45,18.45,0,0,0,3.48,10.9A23.27,23.27,0,0,0,21.67,46l1.51,1.13-1.5,1.13a28.87,28.87,0,0,0-6.37,6.42h0a22.32,22.32,0,0,0-3.89,13.19c0,5.28,2.32,10,6.91,13.94a24,24,0,0,0,16.26,5.9c6.85,0,12.48-2,16.72-5.93A19.41,19.41,0,0,0,57.75,67,21.17,21.17,0,0,0,54.09,55.08ZM22.76,28.66a11.8,11.8,0,0,1,2.91-7.53c1.83-2.29,5.1-3.45,9.74-3.45,4.12,0,7,1.18,8.88,3.62a14.31,14.31,0,0,1,2.94,9A13.33,13.33,0,0,1,45.05,38a16,16,0,0,1-5.39,4.86l-.6.35L38.42,43a38.72,38.72,0,0,1-11.5-6.76C24.16,33.68,22.76,31.14,22.76,28.66ZM44.55,77.4c-2,2.31-5.32,3.49-10,3.49a13.34,13.34,0,0,1-9.71-3.65,12.28,12.28,0,0,1-3.78-9.42,20.46,20.46,0,0,1,2.47-9.91,21,21,0,0,1,5.57-6.55l.65-.53.78.35c5.54,2.46,9.8,5.16,12.64,8,3,3,4.45,5.95,4.45,9.06A13.47,13.47,0,0,1,44.55,77.4Z"/><path d="M28,168.06v-3.67h1.28a8.48,8.48,0,0,0,8.46-8.47v-1.41a4.67,4.67,0,0,0-.51.36,12.57,12.57,0,0,1-10.33,5.31,12.82,12.82,0,1,1,0-25.63,11.46,11.46,0,0,1,1.17.06A12.62,12.62,0,0,1,26.79,129a12.82,12.82,0,1,1,25.63,0,12.62,12.62,0,0,1-1.32,5.59,11.66,11.66,0,0,1,1.18-.06,12.82,12.82,0,1,1-10.54,20.09,2.13,2.13,0,0,0-.31-.18v1.46a8.48,8.48,0,0,0,8.47,8.47h1.27v3.67Z"/><path class="cls-1" d="M39.6,117.48a11.48,11.48,0,0,1,8.66,19.1,11.34,11.34,0,0,1,4-.76,11.54,11.54,0,1,1-9.49,18.09,4.9,4.9,0,0,0-2.62-1.13v3.14a9.74,9.74,0,0,0,9.74,9.74v1.13H29.32v-1.13a9.74,9.74,0,0,0,9.73-9.74v-3.14a4.87,4.87,0,0,0-2.62,1.13,11.54,11.54,0,1,1-9.49-18.09,11.39,11.39,0,0,1,4,.76,11.48,11.48,0,0,1,8.65-19.1m0-2.55A14.1,14.1,0,0,0,25.51,129a13.73,13.73,0,0,0,.69,4.27A14.09,14.09,0,1,0,36.2,158a7.18,7.18,0,0,1-6.88,5.14H26.77v6.23H52.45v-6.23H49.9A7.21,7.21,0,0,1,43,158a14.09,14.09,0,1,0,10-24.67A13.73,13.73,0,0,0,53.7,129a14.11,14.11,0,0,0-14.1-14.09Z"/><path d="M77.75,126.55v-4.24h1.47A9.76,9.76,0,0,0,89,112.55v-1.63a4.75,4.75,0,0,0-.58.42,14.51,14.51,0,0,1-11.92,6.12,14.79,14.79,0,1,1,0-29.57,12.52,12.52,0,0,1,1.36.07A14.51,14.51,0,0,1,76.3,81.5a14.79,14.79,0,0,1,29.57,0A14.63,14.63,0,0,1,104.35,88a12.39,12.39,0,0,1,1.36-.07,14.79,14.79,0,1,1-12.16,23.18l-.36-.2v1.68a9.77,9.77,0,0,0,9.77,9.76h1.47v4.24Z"/><path class="cls-1" d="M91.08,68.19a13.25,13.25,0,0,1,10,22,13.14,13.14,0,0,1,4.63-.87,13.32,13.32,0,1,1-11,20.87,5.55,5.55,0,0,0-3-1.3v3.62A11.23,11.23,0,0,0,103,123.78v1.3H79.21v-1.3a11.22,11.22,0,0,0,11.23-11.23v-3.62a5.62,5.62,0,0,0-3,1.3,13.37,13.37,0,1,1-6.32-20,13.25,13.25,0,0,1,10-22m0-2.94A16.27,16.27,0,0,0,74.83,81.51a15.85,15.85,0,0,0,.79,4.93,16.26,16.26,0,1,0,11.54,28.47,8.31,8.31,0,0,1-8,5.93H76.27V128H105.9v-7.19H103a8.32,8.32,0,0,1-8-5.94,16.25,16.25,0,1,0,11.56-28.46A16.22,16.22,0,0,0,91.08,65.25Z"/></g></g></svg>