<svg xmlns="http://www.w3.org/2000/svg" viewBox="0 0 130 180"><defs><style>.cls-1{fill:#fff;}.cls-2{fill:#b4171e;}</style></defs><g id="Layer_2" data-name="Layer 2"><g id="Ñëîé_1" data-name="Ñëîé 1"><rect class="cls-1" width="130" height="180" rx="10.03"/><path class="cls-2" d="M34.8,167.37a68.92,68.92,0,0,0-11.72-14.89,77.38,77.38,0,0,0-12.62-9.91L8.7,141.46l1.76-1.1a77.8,77.8,0,0,0,12.62-9.9A69.16,69.16,0,0,0,34.8,115.57l1.13-1.95,1.14,1.95a68.85,68.85,0,0,0,11.72,14.89,77.8,77.8,0,0,0,12.62,9.9l1.76,1.1-1.76,1.11a77.38,77.38,0,0,0-12.62,9.91,68.61,68.61,0,0,0-11.72,14.89l-1.14,1.95Z"/><path class="cls-1" d="M35.93,116.22a70.28,70.28,0,0,0,12,15.18,79.53,79.53,0,0,0,12.84,10.07,79.53,79.53,0,0,0-12.84,10.07,70.5,70.5,0,0,0-12,15.17A70.41,70.41,0,0,0,24,151.54a80,80,0,0,0-12.84-10.07A80,80,0,0,0,24,131.4a70.19,70.19,0,0,0,11.94-15.18m0-5.19-2.25,3.88a68,68,0,0,1-11.51,14.61,76.19,76.19,0,0,1-12.42,9.74l-3.49,2.21,3.49,2.21a77,77,0,0,1,12.42,9.73A67.78,67.78,0,0,1,33.68,168l2.25,3.88L38.19,168a68,68,0,0,1,11.5-14.62,76.65,76.65,0,0,1,12.43-9.73l3.49-2.21-3.49-2.21a76.7,76.7,0,0,1-12.43-9.74,68.23,68.23,0,0,1-11.5-14.61L35.93,111Z"/><path class="cls-2" d="M89.3,134.44A84.16,84.16,0,0,0,75,116.21,95.09,95.09,0,0,0,59.5,104.07l-2.15-1.35,2.15-1.34A96.18,96.18,0,0,0,75,89.25,84.35,84.35,0,0,0,89.3,71l1.38-2.39L92.07,71a84.3,84.3,0,0,0,14.34,18.22,96.26,96.26,0,0,0,15.46,12.13l2.15,1.34-2.15,1.35a95.6,95.6,0,0,0-15.46,12.14,84.11,84.11,0,0,0-14.34,18.23l-1.39,2.38Z"/><path class="cls-1" d="M90.68,71.83A86.45,86.45,0,0,0,105.3,90.4,96.65,96.65,0,0,0,121,102.73a97.66,97.66,0,0,0-15.72,12.32,86.47,86.47,0,0,0-14.62,18.58,86.15,86.15,0,0,0-14.62-18.58,97.66,97.66,0,0,0-15.72-12.32A96.65,96.65,0,0,0,76.06,90.4,86.13,86.13,0,0,0,90.68,71.83m0-6.36-2.76,4.75A83.33,83.33,0,0,1,73.84,88.11,93.85,93.85,0,0,1,58.63,100l-4.27,2.7,4.27,2.7a94.29,94.29,0,0,1,15.21,11.92,83.15,83.15,0,0,1,14.08,17.89L90.68,140l2.76-4.75a83.46,83.46,0,0,1,14.08-17.89,94.73,94.73,0,0,1,15.21-11.92l4.27-2.7-4.27-2.7a93.77,93.77,0,0,1-15.2-11.92A83.44,83.44,0,0,1,93.44,70.22l-2.76-4.75Z"/><path class="cls-2" d="M54.09,55.08a28.88,28.88,0,0,0-6.61-6.79L46,47.11,47.54,46a23.51,23.51,0,0,0,5.89-5.6,17.87,17.87,0,0,0-2.56-24c-3.95-3.65-9.15-5.51-15.46-5.51-6.86,0-12.35,1.86-16.3,5.51a17.77,17.77,0,0,0-6,13.5,18.45,18.45,0,0,0,3.48,10.9A23.27,23.27,0,0,0,21.67,46l1.51,1.13-1.5,1.13a28.87,28.87,0,0,0-6.37,6.42h0a22.32,22.32,0,0,0-3.89,13.19c0,5.28,2.32,10,6.91,13.94a24,24,0,0,0,16.26,5.9c6.85,0,12.48-2,16.72-5.93A19.41,19.41,0,0,0,57.75,67,21.17,21.17,0,0,0,54.09,55.08ZM22.76,28.66a11.8,11.8,0,0,1,2.91-7.53c1.83-2.29,5.1-3.45,9.74-3.45,4.12,0,7,1.18,8.88,3.62a14.31,14.31,0,0,1,2.94,9A13.33,13.33,0,0,1,45.05,38a16,16,0,0,1-5.39,4.86l-.6.35L38.42,43a38.72,38.72,0,0,1-11.5-6.76C24.16,33.68,22.76,31.14,22.76,28.66ZM44.55,77.4c-2,2.31-5.32,3.49-10,3.49a13.34,13.34,0,0,1-9.71-3.65,12.28,12.28,0,0,1-3.78-9.42,20.46,20.46,0,0,1,2.47-9.91,21,21,0,0,1,5.57-6.55l.65-.53.78.35c5.54,2.46,9.8,5.16,12.64,8,3,3,4.45,5.95,4.45,9.06A13.47,13.47,0,0,1,44.55,77.4Z"/></g></g></svg>