<svg xmlns="http://www.w3.org/2000/svg" viewBox="0 0 130 180"><defs><style>.cls-1{fill:#fff;}</style></defs><g id="Layer_2" data-name="Layer 2"><g id="Ñëîé_1" data-name="Ñëîé 1"><rect class="cls-1" width="130" height="180" rx="10.03"/><path d="M52.54,75.45c4.77-8,7.19-18.1,7.19-30.15,0-11-2.09-19.54-6.22-25.44a20.76,20.76,0,0,0-17.94-9.22c-7.3,0-13,2.51-17,7.43s-5.89,10.86-5.89,18c0,8.31,1.88,14.48,5.57,18.34s8.71,5.83,14.83,5.83a18.1,18.1,0,0,0,11.63-3.73l2.72-2.16L47,57.79c-.88,7-2.32,12.34-4.3,15.93-2.73,5-6.15,7.39-10.46,7.39a5,5,0,0,1-2.12-.34l-.53-.26-.2-.58A5.85,5.85,0,0,1,29.12,78a12.85,12.85,0,0,0-1-5.19,5.14,5.14,0,0,0-5.13-3,5.74,5.74,0,0,0-5.2,2.59,8.23,8.23,0,0,0-1.35,4.39,9.59,9.59,0,0,0,4.89,8.35,19.32,19.32,0,0,0,10.47,2.82C40.6,87.93,47.58,83.73,52.54,75.45Zm-8.85-28c-2.62,3.32-6,5.22-9.29,5.22h-.13a9.37,9.37,0,0,1-7.42-4.11c-2.11-2.84-3.18-7.18-3.18-12.9,0-5.51,1-10,3.08-13.47,1.88-3.18,4.76-4.72,8.82-4.72,4.3,0,7.3,1.66,9.2,5.08,2.07,3.76,3.12,8.88,3.12,15.21C47.89,40.65,46.47,43.91,43.69,47.45Z"/><path d="M25.34,166.61v-3.22h1.1A7.61,7.61,0,0,0,34,156.56,12.51,12.51,0,0,1,17.28,138l18.36-18.35L54,138a12.52,12.52,0,0,1-16.73,18.57,7.62,7.62,0,0,0,7.57,6.83h1.1v3.22Z"/><path class="cls-1" d="M35.64,121.19l17.57,17.58A11.41,11.41,0,0,1,37.08,154.9l-.95-.94v1.83a8.71,8.71,0,0,0,8.71,8.71v1H26.44v-1a8.7,8.7,0,0,0,8.7-8.71V154l-.94.94a11.41,11.41,0,0,1-16.13-16.13l17.57-17.58m0-3.11-1.56,1.55L16.51,137.21A13.62,13.62,0,0,0,32,159.12a6.49,6.49,0,0,1-5.58,3.17H24.23v5.42H47.05v-5.42H44.84a6.5,6.5,0,0,1-5.59-3.18,13.62,13.62,0,0,0,15.52-21.9L37.2,119.63l-1.56-1.55Z"/><path d="M80.21,127v-4H81.6a9.6,9.6,0,0,0,9.53-8.61A15.77,15.77,0,0,1,70.06,91L93.2,67.83,116.34,91a15.78,15.78,0,0,1-21.09,23.41A9.62,9.62,0,0,0,104.8,123h1.38v4Z"/><path class="cls-1" d="M93.2,69.79l22.15,22.15A14.38,14.38,0,0,1,95,112.28l-1.19-1.2v2.31a11,11,0,0,0,11,11v1.27H81.6v-1.27a11,11,0,0,0,11-11v-2.3l-1.19,1.19A14.38,14.38,0,0,1,71.05,91.94L93.2,69.79m0-3.93-2,2L69.08,90a17.17,17.17,0,0,0,19.56,27.61,8.19,8.19,0,0,1-7,4H78.82v6.82h28.75v-6.82H104.8a8.21,8.21,0,0,1-7-4A17.16,17.16,0,0,0,117.31,90L95.16,67.82l-2-2Z"/></g></g></svg>