<svg xmlns="http://www.w3.org/2000/svg" viewBox="0 0 130 180"><defs><style>.cls-1{fill:#fff;}.cls-2{fill:#b4171e;}</style></defs><g id="Layer_2" data-name="Layer 2"><g id="Ñëîé_1" data-name="Ñëîé 1"><rect class="cls-1" width="130" height="180" rx="10.03"/><path class="cls-2" d="M52.54,75.45c4.77-8,7.19-18.1,7.19-30.15,0-11-2.09-19.54-6.22-25.44a20.76,20.76,0,0,0-17.94-9.22c-7.3,0-13,2.51-17,7.43s-5.89,10.86-5.89,18c0,8.31,1.88,14.48,5.57,18.34s8.71,5.83,14.83,5.83a18.1,18.1,0,0,0,11.63-3.73l2.72-2.16L47,57.79c-.88,7-2.32,12.34-4.3,15.93-2.73,5-6.15,7.39-10.46,7.39a5,5,0,0,1-2.12-.34l-.53-.26-.2-.58A5.85,5.85,0,0,1,29.12,78a12.85,12.85,0,0,0-1-5.19,5.14,5.14,0,0,0-5.13-3,5.74,5.74,0,0,0-5.2,2.59,8.23,8.23,0,0,0-1.35,4.39,9.59,9.59,0,0,0,4.89,8.35,19.32,19.32,0,0,0,10.47,2.82C40.6,87.93,47.58,83.73,52.54,75.45Zm-8.85-28c-2.62,3.32-6,5.22-9.29,5.22h-.13a9.37,9.37,0,0,1-7.42-4.11c-2.11-2.84-3.18-7.18-3.18-12.9,0-5.51,1-10,3.08-13.47,1.88-3.18,4.76-4.72,8.82-4.72,4.3,0,7.3,1.66,9.2,5.08,2.07,3.76,3.12,8.88,3.12,15.21C47.89,40.65,46.47,43.91,43.69,47.45Z"/><path class="cls-2" d="M13.89,144.41A14.82,14.82,0,0,1,24.38,119.1a14.7,14.7,0,0,1,10.48,4.34l.79.78.77-.79a14.83,14.83,0,0,1,21,21L35.65,166.15Z"/><path class="cls-1" d="M46.91,120.4a13.52,13.52,0,0,1,9.56,23.08L35.64,164.31,14.82,143.48a13.52,13.52,0,1,1,19.12-19.12l1.7,1.7,1.71-1.7a13.48,13.48,0,0,1,9.56-4m0-2.61a16,16,0,0,0-11.27,4.58,16.13,16.13,0,0,0-22.67,23L33.8,166.15,35.64,168l1.85-1.85,20.83-20.82a16.13,16.13,0,0,0-11.41-27.54Z"/><path class="cls-2" d="M66.58,102.13a17.22,17.22,0,0,1,12.18-29.4,17,17,0,0,1,12.17,5l.91.9.9-.91a17.23,17.23,0,1,1,24.37,24.35L91.84,127.38Z"/><path class="cls-1" d="M104.92,74.25A15.7,15.7,0,0,1,116,101.05L91.84,125.23,67.66,101.05a15.7,15.7,0,1,1,22.2-22.2l2,2,2-2a15.65,15.65,0,0,1,11.1-4.6m0-3a18.6,18.6,0,0,0-13.08,5.33,18.73,18.73,0,0,0-26.33,26.65L89.7,127.38l2.14,2.14L94,127.38l24.19-24.19a18.74,18.74,0,0,0-13.25-32Z"/></g></g></svg>