<svg xmlns="http://www.w3.org/2000/svg" viewBox="0 0 130 180"><defs><style>.cls-1{fill:#fff;}</style></defs><g id="Layer_2" data-name="Layer 2"><g id="Ñëîé_1" data-name="Ñëîé 1"><rect class="cls-1" width="130" height="180" rx="10.03"/><path d="M52.54,75.45c4.77-8,7.19-18.1,7.19-30.15,0-11-2.09-19.54-6.22-25.44a20.76,20.76,0,0,0-17.94-9.22c-7.3,0-13,2.51-17,7.43s-5.89,10.86-5.89,18c0,8.31,1.88,14.48,5.57,18.34s8.71,5.83,14.83,5.83a18.1,18.1,0,0,0,11.63-3.73l2.72-2.16L47,57.79c-.88,7-2.32,12.34-4.3,15.93-2.73,5-6.15,7.39-10.46,7.39a5,5,0,0,1-2.12-.34l-.53-.26-.2-.58A5.85,5.85,0,0,1,29.12,78a12.85,12.85,0,0,0-1-5.19,5.14,5.14,0,0,0-5.13-3,5.74,5.74,0,0,0-5.2,2.59,8.23,8.23,0,0,0-1.35,4.39,9.59,9.59,0,0,0,4.89,8.35,19.32,19.32,0,0,0,10.47,2.82C40.6,87.93,47.58,83.73,52.54,75.45Zm-8.85-28c-2.62,3.32-6,5.22-9.29,5.22h-.13a9.37,9.37,0,0,1-7.42-4.11c-2.11-2.84-3.18-7.18-3.18-12.9,0-5.51,1-10,3.08-13.47,1.88-3.18,4.76-4.72,8.82-4.72,4.3,0,7.3,1.66,9.2,5.08,2.07,3.76,3.12,8.88,3.12,15.21C47.89,40.65,46.47,43.91,43.69,47.45Z"/><path d="M28.48,168.06v-3.67h1.27a8.48,8.48,0,0,0,8.46-8.47v-1.41a4.67,4.67,0,0,0-.51.36,12.57,12.57,0,0,1-10.33,5.31,12.82,12.82,0,1,1,0-25.63,11.46,11.46,0,0,1,1.17.06A12.62,12.62,0,0,1,27.22,129a12.82,12.82,0,1,1,25.63,0,12.62,12.62,0,0,1-1.32,5.59,11.66,11.66,0,0,1,1.18-.06,12.82,12.82,0,1,1-10.54,20.09,2.13,2.13,0,0,0-.31-.18v1.46a8.48,8.48,0,0,0,8.47,8.47H51.6v3.67Z"/><path class="cls-1" d="M40,117.48a11.48,11.48,0,0,1,8.66,19.1,11.34,11.34,0,0,1,4-.76,11.54,11.54,0,1,1-9.48,18.09,5,5,0,0,0-2.63-1.13v3.14a9.74,9.74,0,0,0,9.74,9.74v1.13H29.75v-1.13a9.74,9.74,0,0,0,9.73-9.74v-3.14a4.9,4.9,0,0,0-2.62,1.13,11.54,11.54,0,1,1-9.49-18.09,11.34,11.34,0,0,1,4,.76A11.49,11.49,0,0,1,40,117.48m0-2.55A14.1,14.1,0,0,0,26,129a13.72,13.72,0,0,0,.68,4.27,14.09,14.09,0,1,0,10,24.68,7.18,7.18,0,0,1-6.88,5.14H27.2v6.23H52.88v-6.23H50.33a7.21,7.21,0,0,1-6.9-5.15,14.09,14.09,0,1,0,10-24.67,13.73,13.73,0,0,0,.69-4.27A14.11,14.11,0,0,0,40,114.93Z"/><path d="M78.18,126.55v-4.24h1.47a9.77,9.77,0,0,0,9.76-9.76v-1.63a4.19,4.19,0,0,0-.59.42,14.51,14.51,0,0,1-11.92,6.12,14.79,14.79,0,1,1,0-29.57,12.52,12.52,0,0,1,1.36.07,14.51,14.51,0,0,1-1.53-6.46,14.79,14.79,0,0,1,29.57,0A14.63,14.63,0,0,1,104.78,88a12.39,12.39,0,0,1,1.36-.07A14.79,14.79,0,1,1,94,111.07l-.36-.2v1.68a9.77,9.77,0,0,0,9.77,9.76h1.47v4.24Z"/><path class="cls-1" d="M91.51,68.19a13.25,13.25,0,0,1,10,22,13.18,13.18,0,0,1,4.63-.87,13.32,13.32,0,1,1-10.95,20.87,5.55,5.55,0,0,0-3-1.3v3.62a11.23,11.23,0,0,0,11.24,11.23v1.3H79.64v-1.3a11.22,11.22,0,0,0,11.23-11.23v-3.62a5.62,5.62,0,0,0-3,1.3,13.37,13.37,0,1,1-6.32-20,13.25,13.25,0,0,1,10-22m0-2.94A16.27,16.27,0,0,0,75.26,81.51a15.85,15.85,0,0,0,.79,4.93,16.26,16.26,0,1,0,11.54,28.47,8.31,8.31,0,0,1-8,5.93H76.7V128h29.63v-7.19h-2.94a8.29,8.29,0,0,1-8-5.94A16.25,16.25,0,1,0,107,86.44,16.19,16.19,0,0,0,91.51,65.25Z"/></g></g></svg>