<svg xmlns="http://www.w3.org/2000/svg" viewBox="0 0 130 180"><defs><style>.cls-1{fill:#fff;}.cls-2{fill:#b4171e;}</style></defs><g id="Layer_2" data-name="Layer 2"><g id="Ñëîé_1" data-name="Ñëîé 1"><rect class="cls-1" width="130" height="180" rx="10.03"/><path class="cls-2" d="M34.51,167.37a68.92,68.92,0,0,0-11.72-14.89,77.46,77.46,0,0,0-12.63-9.91l-1.75-1.11,1.75-1.1a77.88,77.88,0,0,0,12.63-9.9,69.16,69.16,0,0,0,11.72-14.89l1.13-1.95,1.13,1.95a69.16,69.16,0,0,0,11.72,14.89,77.88,77.88,0,0,0,12.63,9.9l1.75,1.1-1.75,1.11a77.89,77.89,0,0,0-12.63,9.91,68.92,68.92,0,0,0-11.72,14.89l-1.13,1.95Z"/><path class="cls-1" d="M35.64,116.22A70.19,70.19,0,0,0,47.58,131.4a79.56,79.56,0,0,0,12.85,10.07,79.56,79.56,0,0,0-12.85,10.07,70.41,70.41,0,0,0-11.94,15.17A70.41,70.41,0,0,0,23.7,151.54a79.56,79.56,0,0,0-12.85-10.07A79.56,79.56,0,0,0,23.7,131.4a70.19,70.19,0,0,0,11.94-15.18m0-5.19-2.26,3.88a67.61,67.61,0,0,1-11.5,14.61,77.05,77.05,0,0,1-12.42,9.74L6,141.47l3.49,2.21a77,77,0,0,1,12.42,9.73A68,68,0,0,1,33.38,168l2.26,3.88L37.9,168a67.43,67.43,0,0,1,11.5-14.62,77,77,0,0,1,12.42-9.73l3.49-2.21-3.49-2.21a76.62,76.62,0,0,1-12.42-9.74,67.61,67.61,0,0,1-11.5-14.61L35.64,111Z"/><path class="cls-2" d="M89.3,134.44A84.16,84.16,0,0,0,75,116.21,95.09,95.09,0,0,0,59.5,104.07l-2.15-1.35,2.15-1.34A96.18,96.18,0,0,0,75,89.25,84.35,84.35,0,0,0,89.3,71l1.38-2.39L92.07,71a84.3,84.3,0,0,0,14.34,18.22,96.26,96.26,0,0,0,15.46,12.13l2.15,1.34-2.15,1.35a95.6,95.6,0,0,0-15.46,12.14,84.11,84.11,0,0,0-14.34,18.23l-1.39,2.38Z"/><path class="cls-1" d="M90.68,71.83A86.45,86.45,0,0,0,105.3,90.4,96.65,96.65,0,0,0,121,102.73a97.66,97.66,0,0,0-15.72,12.32,86.47,86.47,0,0,0-14.62,18.58,86.15,86.15,0,0,0-14.62-18.58,97.66,97.66,0,0,0-15.72-12.32A96.65,96.65,0,0,0,76.06,90.4,86.13,86.13,0,0,0,90.68,71.83m0-6.36-2.76,4.75A83.33,83.33,0,0,1,73.84,88.11,93.85,93.85,0,0,1,58.63,100l-4.27,2.7,4.27,2.7a94.29,94.29,0,0,1,15.21,11.92,83.15,83.15,0,0,1,14.08,17.89L90.68,140l2.76-4.75a83.46,83.46,0,0,1,14.08-17.89,94.73,94.73,0,0,1,15.21-11.92l4.27-2.7-4.27-2.7a93.77,93.77,0,0,1-15.2-11.92A83.44,83.44,0,0,1,93.44,70.22l-2.76-4.75Z"/><path class="cls-2" d="M52.54,75.45c4.77-8,7.19-18.1,7.19-30.15,0-11-2.09-19.54-6.22-25.44a20.76,20.76,0,0,0-17.94-9.22c-7.3,0-13,2.51-17,7.43s-5.89,10.86-5.89,18c0,8.31,1.88,14.48,5.57,18.34s8.71,5.83,14.83,5.83a18.1,18.1,0,0,0,11.63-3.73l2.72-2.16L47,57.79c-.88,7-2.32,12.34-4.3,15.93-2.73,5-6.15,7.39-10.46,7.39a5,5,0,0,1-2.12-.34l-.53-.26-.2-.58A5.85,5.85,0,0,1,29.12,78a12.85,12.85,0,0,0-1-5.19,5.14,5.14,0,0,0-5.13-3,5.74,5.74,0,0,0-5.2,2.59,8.23,8.23,0,0,0-1.35,4.39,9.59,9.59,0,0,0,4.89,8.35,19.32,19.32,0,0,0,10.47,2.82C40.6,87.93,47.58,83.73,52.54,75.45Zm-8.85-28c-2.62,3.32-6,5.22-9.29,5.22h-.13a9.37,9.37,0,0,1-7.42-4.11c-2.11-2.84-3.18-7.18-3.18-12.9,0-5.51,1-10,3.08-13.47,1.88-3.18,4.76-4.72,8.82-4.72,4.3,0,7.3,1.66,9.2,5.08,2.07,3.76,3.12,8.88,3.12,15.21C47.89,40.65,46.47,43.91,43.69,47.45Z"/></g></g></svg>