<svg xmlns="http://www.w3.org/2000/svg" viewBox="0 0 130 180"><defs><style>.cls-1{fill:#fff;}</style></defs><g id="Layer_2" data-name="Layer 2"><g id="Ñëîé_1" data-name="Ñëîé 1"><rect class="cls-1" width="130" height="180" rx="10.03"/><polygon points="36.94 96.39 36.94 96.39 36.94 96.39 36.94 96.39"/><path d="M28.34,82,28,81a7.19,7.19,0,0,1-.31-2.06,15.91,15.91,0,0,1,.34-2.8l3.39-14.29H46.94l3.88,17A5.37,5.37,0,0,1,51,80.61l0,1.33H46.13v6.4H67.85v-6.4h-2l-2.58-.34L63,81.37A5.09,5.09,0,0,1,61.62,79L45.35,11.39l-9.24,3.09L19.64,79.14a4.08,4.08,0,0,1-.83,2.1l-.37.39-4.6.24v6.47H33.07v-6.4H29.4ZM39.55,30.34l6.06,25.1H33.22Z"/><path d="M94.23,75.14A23.22,23.22,0,0,0,127.07,108l1.92-1.92v3.73a17.72,17.72,0,0,1-17.72,17.72v2H130V39.38h0Z"/><path d="M25.8,166.61v-3.22h1.1a7.6,7.6,0,0,0,7.55-6.83A12.51,12.51,0,0,1,17.74,138L36.1,119.64,54.46,138a12.52,12.52,0,0,1-16.74,18.57,7.63,7.63,0,0,0,7.58,6.83h1.1v3.22Z"/><path class="cls-1" d="M36.1,121.19l17.57,17.58A11.41,11.41,0,0,1,37.53,154.9l-.94-.94v1.83a8.71,8.71,0,0,0,8.71,8.71v1H26.9v-1a8.71,8.71,0,0,0,8.7-8.71V154l-.94.94a11.41,11.41,0,1,1-16.14-16.13L36.1,121.19m0-3.11-1.56,1.55L17,137.21a13.62,13.62,0,0,0,15.52,21.91,6.5,6.5,0,0,1-5.58,3.17H24.69v5.42H47.5v-5.42H45.3a6.5,6.5,0,0,1-5.59-3.18,13.62,13.62,0,0,0,15.52-2.65,13.64,13.64,0,0,0,0-19.25L37.65,119.63l-1.55-1.55Z"/></g></g></svg>