<svg xmlns="http://www.w3.org/2000/svg" viewBox="0 0 130 180"><defs><style>.cls-1{fill:#fff;}.cls-2{fill:none;}.cls-3{fill:#b4171e;}</style></defs><g id="Layer_2" data-name="Layer 2"><g id="Ñëîé_1" data-name="Ñëîé 1"><rect class="cls-1" width="130" height="180" rx="10.03"/><polygon class="cls-2" points="36.94 96.39 36.94 96.39 36.94 96.39 36.94 96.39"/><path class="cls-3" d="M28.34,82,28,81a7.19,7.19,0,0,1-.31-2.06,15.91,15.91,0,0,1,.34-2.8l3.39-14.29H46.94l3.88,17A5.37,5.37,0,0,1,51,80.61l0,1.33H46.13v6.4H67.85v-6.4h-2l-2.58-.34L63,81.37A5.09,5.09,0,0,1,61.62,79L45.35,11.39l-9.24,3.09L19.64,79.14a4.08,4.08,0,0,1-.83,2.1l-.37.39-4.6.24v6.47H33.07v-6.4H29.4ZM39.55,30.34l6.06,25.1H33.22Z"/><path class="cls-3" d="M130,59.49,126.49,56A27.77,27.77,0,0,0,87.22,95.26L130,138h0V59.49Z"/><path class="cls-3" d="M18.62,144.41A14.82,14.82,0,0,1,29.11,119.1a14.7,14.7,0,0,1,10.48,4.34l.79.78.77-.79a14.84,14.84,0,0,1,21,21L40.38,166.15Z"/><path class="cls-1" d="M51.64,120.4a13.52,13.52,0,0,1,9.56,23.08L40.37,164.31,19.55,143.48a13.52,13.52,0,1,1,19.12-19.12l1.7,1.7,1.71-1.7a13.48,13.48,0,0,1,9.56-4m0-2.61a16,16,0,0,0-11.27,4.58,16.13,16.13,0,0,0-22.67,23l20.83,20.82L40.37,168l1.85-1.85,20.83-20.82a16.13,16.13,0,0,0-11.41-27.54Z"/></g></g></svg>