<svg xmlns="http://www.w3.org/2000/svg" viewBox="0 0 130 180.17"><defs><style>.cls-1{fill:#fff;}.cls-2{fill:none;}</style></defs><g id="Layer_2" data-name="Layer 2"><g id="Ñëîé_1" data-name="Ñëîé 1"><rect class="cls-1" width="130" height="180" rx="10.03"/><polygon points="36.94 96.39 36.94 96.39 36.94 96.39 36.94 96.39"/><path d="M28.34,82,28,81a7.19,7.19,0,0,1-.31-2.06,15.91,15.91,0,0,1,.34-2.8l3.39-14.29H46.94l3.88,17A5.37,5.37,0,0,1,51,80.61l0,1.33H46.13v6.4H67.85v-6.4h-2l-2.58-.34L63,81.37A5.09,5.09,0,0,1,61.62,79L45.35,11.39l-9.24,3.09L19.64,79.14a4.08,4.08,0,0,1-.83,2.1l-.37.39-4.6.24v6.47H33.07v-6.4H29.4ZM39.55,30.34l6.06,25.1H33.22Z"/><path d="M28.13,168.06v-3.67h1.28a8.47,8.47,0,0,0,8.45-8.47v-1.41a4.67,4.67,0,0,0-.51.36A12.55,12.55,0,0,1,27,160.18a12.82,12.82,0,1,1,0-25.63q.57,0,1.17.06A12.49,12.49,0,0,1,26.88,129a12.81,12.81,0,1,1,25.62,0,12.61,12.61,0,0,1-1.31,5.59,11.66,11.66,0,0,1,1.18-.06,12.82,12.82,0,1,1-10.54,20.09,2.13,2.13,0,0,0-.31-.18v1.46A8.47,8.47,0,0,0,50,164.39h1.28v3.67Z"/><path class="cls-1" d="M39.69,117.48a11.49,11.49,0,0,1,8.66,19.1,11.34,11.34,0,0,1,4-.76,11.54,11.54,0,1,1-9.49,18.09,4.9,4.9,0,0,0-2.62-1.13v3.14A9.73,9.73,0,0,0,50,165.66v1.13H29.4v-1.13a9.74,9.74,0,0,0,9.74-9.74v-3.14a4.9,4.9,0,0,0-2.63,1.13A11.59,11.59,0,1,1,31,136.58a11.48,11.48,0,0,1,8.65-19.1m0-2.55A14.1,14.1,0,0,0,25.6,129a13.73,13.73,0,0,0,.69,4.27,14.09,14.09,0,1,0,10,24.68,7.19,7.19,0,0,1-6.89,5.14H26.85v6.23H52.53v-6.23H50A7.21,7.21,0,0,1,43.09,158a14.09,14.09,0,1,0,10-24.67,13.72,13.72,0,0,0,.68-4.27,14.1,14.1,0,0,0-14.09-14.09Z"/><path class="cls-2" d="M111.26,135.08V133A17.73,17.73,0,0,0,129,115.29v-5.72a8.85,8.85,0,0,0-4.78,2.06,21.11,21.11,0,1,1-10-31.57A20.93,20.93,0,0,1,130,45.26V4.59A4.42,4.42,0,0,0,125.58.17H14.42A4.42,4.42,0,0,0,10,4.59V175.75a4.42,4.42,0,0,0,4.42,4.42H125.58a4.42,4.42,0,0,0,4.42-4.42V135.08Z"/><path d="M109,66.28a20.83,20.83,0,0,0,5.26,13.78,21,21,0,1,0,10,31.57,8.85,8.85,0,0,1,4.78-2.06v5.72A17.73,17.73,0,0,1,111.26,133v2.06H130V45.26A21,21,0,0,0,109,66.28Z"/></g></g></svg>