<svg xmlns="http://www.w3.org/2000/svg" viewBox="0 0 130.11 180"><defs><style>.cls-1{fill:#fff;}.cls-2{fill:#b4171e;}.cls-3{fill:none;}</style></defs><g id="Layer_2" data-name="Layer 2"><g id="Ñëîé_1" data-name="Ñëîé 1"><rect class="cls-1" width="130" height="180" rx="10.03"/><path class="cls-2" d="M130.11,45.19A125.55,125.55,0,0,1,108.78,72.3a142.87,142.87,0,0,1-22.94,18,142.76,142.76,0,0,1,22.94,18,125.8,125.8,0,0,1,21.33,27.11Z"/><path class="cls-2" d="M38.49,170a68.92,68.92,0,0,0-11.72-14.89,78,78,0,0,0-12.62-9.92l-1.76-1.1,1.76-1.1a78.35,78.35,0,0,0,12.62-9.9,69.16,69.16,0,0,0,11.72-14.89l1.13-2,1.14,2a69.11,69.11,0,0,0,11.71,14.89A78.88,78.88,0,0,0,65.1,143l1.76,1.1-1.76,1.1a78.5,78.5,0,0,0-12.63,9.92A68.87,68.87,0,0,0,40.76,170l-1.14,1.95Z"/><path class="cls-1" d="M39.63,118.81A70.35,70.35,0,0,0,51.57,134a79.53,79.53,0,0,0,12.84,10.07,79,79,0,0,0-12.84,10.07A70.09,70.09,0,0,0,39.63,169.3a70.5,70.5,0,0,0-12-15.17,79,79,0,0,0-12.84-10.07A79.53,79.53,0,0,0,27.68,134a70.77,70.77,0,0,0,12-15.18m0-5.19-2.26,3.88a68.23,68.23,0,0,1-11.5,14.61,76.7,76.7,0,0,1-12.43,9.74L10,144.06l3.49,2.2A77.26,77.26,0,0,1,25.87,156a68.23,68.23,0,0,1,11.5,14.61l2.26,3.88,2.25-3.88A68,68,0,0,1,53.39,156a76.74,76.74,0,0,1,12.42-9.74l3.49-2.2-3.49-2.21a76.19,76.19,0,0,1-12.42-9.74A68,68,0,0,1,41.88,117.5l-2.25-3.88Z"/><polygon class="cls-3" points="35.83 94.38 35.83 94.38 35.84 94.38 35.83 94.38"/><path class="cls-2" d="M27.23,80l-.34-1a7.09,7.09,0,0,1-.31-2.06,16,16,0,0,1,.34-2.8l3.39-14.29H45.83l3.89,17a5.75,5.75,0,0,1,.2,1.78l0,1.33H45v6.4H66.74v-6.4h-2l-2.57-.34-.3-.23A5.09,5.09,0,0,1,60.51,77L44.24,9.38,35,12.47,18.53,77.13a4.08,4.08,0,0,1-.83,2.1l-.37.4-4.6.24v6.46H32v-6.4H28.29ZM38.45,28.33l6,25.11H32.11Z"/></g></g></svg>