<svg xmlns="http://www.w3.org/2000/svg" viewBox="0 0 130 180"><defs><style>.cls-1{fill:#910026;}.cls-2{fill:#fff;}.cls-3{fill:#d2cd96;}</style></defs><g id="Layer_2" data-name="Layer 2"><g id="Ñëîé_1" data-name="Ñëîé 1"><rect class="cls-1" x="1" y="1" width="128" height="178" rx="9.03"/><path class="cls-2" d="M120,2a8,8,0,0,1,8,8V170a8,8,0,0,1-8,8H10a8,8,0,0,1-8-8V10a8,8,0,0,1,8-8H120m0-2H10A10,10,0,0,0,0,10V170a10,10,0,0,0,10,10H120a10,10,0,0,0,10-10V10A10,10,0,0,0,120,0Z"/><path class="cls-3" d="M55.47,30a12.34,12.34,0,0,0-1.8-.21l-.56,0a12.75,12.75,0,0,0-2.23.2,11.75,11.75,0,0,1,1.3-2.39A11.49,11.49,0,0,1,55,24.86a9.71,9.71,0,0,0,.14,3.91A10.52,10.52,0,0,0,55.47,30Z"/><path class="cls-3" d="M71.11,19.4a9.77,9.77,0,0,0-12.22,0,14.41,14.41,0,0,1,12.22,0Z"/><path class="cls-3" d="M74.53,30a10.52,10.52,0,0,0,.37-1.2A9.71,9.71,0,0,0,75,24.86a11.49,11.49,0,0,1,2.78,2.69,11.28,11.28,0,0,1,1.3,2.39,12.64,12.64,0,0,0-2.22-.2l-.57,0A12.34,12.34,0,0,0,74.53,30Z"/><path class="cls-3" d="M83.12,50a1,1,0,1,0-1,1A1,1,0,0,0,83.12,50Z"/><path class="cls-3" d="M79.61,45.69a1,1,0,1,0-1,1A1,1,0,0,0,79.61,45.69Z"/><path class="cls-3" d="M88.24,51.79a1,1,0,1,0-1,1A1,1,0,0,0,88.24,51.79Z"/><path class="cls-3" d="M91.74,55.72a1,1,0,1,0-1,1A1,1,0,0,0,91.74,55.72Z"/><path class="cls-3" d="M93.12,60.58a1,1,0,1,0-1,1A1,1,0,0,0,93.12,60.58Z"/><path class="cls-3" d="M92.1,65a1,1,0,1,0-1,1A1,1,0,0,0,92.1,65Z"/><path class="cls-3" d="M63.8,26.43A1.21,1.21,0,1,1,65,27.6,1.19,1.19,0,0,1,63.8,26.43Z"/><path class="cls-3" d="M46.88,50a1,1,0,1,1,1,1A1,1,0,0,1,46.88,50Z"/><path class="cls-3" d="M50.39,45.69a1,1,0,1,1,1,1A1,1,0,0,1,50.39,45.69Z"/><path class="cls-3" d="M41.76,51.79a1,1,0,1,1,1,1A1,1,0,0,1,41.76,51.79Z"/><path class="cls-3" d="M38.26,55.72a1,1,0,1,1,1,1A1,1,0,0,1,38.26,55.72Z"/><path class="cls-3" d="M36.88,60.58a1,1,0,1,1,1,1A1,1,0,0,1,36.88,60.58Z"/><path class="cls-3" d="M37.9,65a1,1,0,1,1,1,1A1,1,0,0,1,37.9,65Z"/><path class="cls-3" d="M74.53,150a12.34,12.34,0,0,0,1.8.21h.56a12.75,12.75,0,0,0,2.23-.19,11.75,11.75,0,0,1-1.3,2.39A11.49,11.49,0,0,1,75,155.14a9.71,9.71,0,0,0-.14-3.91A10.52,10.52,0,0,0,74.53,150Z"/><path class="cls-3" d="M58.89,160.6a9.77,9.77,0,0,0,12.22,0,14.5,14.5,0,0,1-12.22,0Z"/><path class="cls-3" d="M55.47,150a10.52,10.52,0,0,0-.37,1.2,9.71,9.71,0,0,0-.14,3.91,11.36,11.36,0,0,1-2.78-2.7,11,11,0,0,1-1.3-2.38,12.63,12.63,0,0,0,2.22.19h.57A12.34,12.34,0,0,0,55.47,150Z"/><path class="cls-3" d="M46.88,130a1,1,0,1,0,1-1A1,1,0,0,0,46.88,130Z"/><path class="cls-3" d="M50.39,134.31a1,1,0,0,0,2,0,1,1,0,0,0-2,0Z"/><path class="cls-3" d="M41.76,128.21a1,1,0,1,0,1-1A1,1,0,0,0,41.76,128.21Z"/><path class="cls-3" d="M38.26,124.27a1,1,0,1,0,1-1A1,1,0,0,0,38.26,124.27Z"/><path class="cls-3" d="M36.88,119.42a1,1,0,1,0,1-1A1,1,0,0,0,36.88,119.42Z"/><path class="cls-3" d="M37.9,115a1,1,0,1,0,1-1A1,1,0,0,0,37.9,115Z"/><ellipse class="cls-3" cx="65" cy="153.57" rx="1.21" ry="1.17"/><path class="cls-3" d="M83.12,130a1,1,0,1,1-1-1A1,1,0,0,1,83.12,130Z"/><path class="cls-3" d="M79.61,134.31a1,1,0,0,1-2,0,1,1,0,0,1,2,0Z"/><path class="cls-3" d="M88.24,128.21a1,1,0,1,1-1-1A1,1,0,0,1,88.24,128.21Z"/><path class="cls-3" d="M91.74,124.27a1,1,0,1,1-1-1A1,1,0,0,1,91.74,124.27Z"/><path class="cls-3" d="M93.12,119.42a1,1,0,1,1-1-1A1,1,0,0,1,93.12,119.42Z"/><path class="cls-3" d="M92.1,115a1,1,0,1,1-1-1A1,1,0,0,1,92.1,115Z"/><path class="cls-3" d="M61.68,34.82l-2.86-1.76a11,11,0,0,0-5.23-1.61,11.24,11.24,0,0,0-4.58.79l-.59.23.11-.6a12.77,12.77,0,0,1,2.21-5.29,13.81,13.81,0,0,1,6.53-4.79l.87-.3-.44.79a8.28,8.28,0,0,0,1.55,10.25Zm-8.57-4.06.51,0a11.29,11.29,0,0,1,4,.88,8.76,8.76,0,0,1-1.44-3.12,9.11,9.11,0,0,1,.55-5.79A12.84,12.84,0,0,0,51.32,27a11.93,11.93,0,0,0-2,4.42A11.83,11.83,0,0,1,53.11,30.76Z"/><path class="cls-3" d="M72.24,18.1a11.58,11.58,0,0,0-14.48,0l-.45-.52a12.3,12.3,0,0,1,15.38,0Z"/><path class="cls-3" d="M68.32,34.82l2.43-2.29a8.46,8.46,0,0,0,2.44-4.15,8.55,8.55,0,0,0-.89-6.1l-.44-.79.87.3a13.81,13.81,0,0,1,6.53,4.79,12.77,12.77,0,0,1,2.21,5.29l.11.6L81,32.24a11.24,11.24,0,0,0-4.58-.79,11,11,0,0,0-5.23,1.61Zm5-12.07a9.11,9.11,0,0,1,.55,5.79,8.76,8.76,0,0,1-1.44,3.12,11.29,11.29,0,0,1,3.95-.88,11.54,11.54,0,0,1,4.28.61,11.93,11.93,0,0,0-2-4.42A12.84,12.84,0,0,0,73.32,22.75Z"/><path class="cls-3" d="M106.87,92.89a2.81,2.81,0,1,1,2.91-2.81A2.86,2.86,0,0,1,106.87,92.89Zm0-4.94a2.13,2.13,0,1,0,2.21,2.13A2.17,2.17,0,0,0,106.87,88Z"/><path class="cls-3" d="M107.53,37.53a2.82,2.82,0,1,1,2.91-2.82A2.88,2.88,0,0,1,107.53,37.53Zm0-5a2.14,2.14,0,1,0,2.21,2.13A2.18,2.18,0,0,0,107.53,32.58Z"/><path class="cls-3" d="M88.86,20.41a2.81,2.81,0,1,1,2.91-2.81A2.87,2.87,0,0,1,88.86,20.41Zm0-4.94a2.13,2.13,0,1,0,2.21,2.13A2.18,2.18,0,0,0,88.86,15.47Z"/><path class="cls-3" d="M107.58,55.8A30.75,30.75,0,0,0,98.7,40.18a31.27,31.27,0,0,0-9.42-6.09L89.1,34l0-.19A19.79,19.79,0,0,0,85.65,25c-6.1-8.65-17.33-9.35-19.51-9.4v-.68a32.56,32.56,0,0,1,14.6,3,57.6,57.6,0,0,1,7.48,4.6c2.33,1.61,4.61,3.33,6.78,5.11a9.85,9.85,0,0,0,5.55-3.56,9.25,9.25,0,0,0,1.51-7.6L101.67,15l1,1.27c.71.89,4.17,5.66,2.62,11.55A13.26,13.26,0,0,1,101,34.44a41.58,41.58,0,0,1,4.35,8.06,40.64,40.64,0,0,1,2.9,13.21ZM89.74,33.54a32.1,32.1,0,0,1,9.45,6.15,31.12,31.12,0,0,1,8,12.35,40,40,0,0,0-2.49-9.29,40.87,40.87,0,0,0-4.46-8.18l-.18-.25.25-.2a12.68,12.68,0,0,0,4.28-6.5A12.69,12.69,0,0,0,103,17.91a9.69,9.69,0,0,1-1.86,6.61A10.57,10.57,0,0,1,95,28.38l-.17,0-.14-.11c-2.18-1.81-4.49-3.56-6.86-5.19a58.12,58.12,0,0,0-7.38-4.54,27.57,27.57,0,0,0-4.9-1.82,22.09,22.09,0,0,1,10.7,7.88A20.3,20.3,0,0,1,89.74,33.54Z"/><path class="cls-3" d="M52.52,92.35l-.69-2.25A4.5,4.5,0,0,0,50,87.69,4.82,4.82,0,0,0,47,87l-.58.06.21-.52c.53-1.3,3.53-7.86,10.72-9.53a15,15,0,0,1,7.71.3l2.22.66H65a12.93,12.93,0,0,0-3.72.55,12.48,12.48,0,0,0-5.12,3A11.76,11.76,0,0,0,52.52,90Zm-5-6.07a5.42,5.42,0,0,1,2.85.85,5.06,5.06,0,0,1,1.5,1.49A12.47,12.47,0,0,1,55.65,81a13.35,13.35,0,0,1,5.41-3.18,12.52,12.52,0,0,1,1.69-.39,14,14,0,0,0-5.2.19C51.36,79.09,48.42,84.37,47.54,86.28Z"/><path class="cls-3" d="M60.63,103.38a14,14,0,0,1-3.24-.37c-7.19-1.67-10.19-8.23-10.72-9.53L46.46,93,47,93a4.82,4.82,0,0,0,3-.71,4.5,4.5,0,0,0,1.83-2.41l.69-2.25V90a11.76,11.76,0,0,0,3.63,8.49,12.48,12.48,0,0,0,5.12,3,13,13,0,0,0,3.73.55h2.32l-2.22.66A15.28,15.28,0,0,1,60.63,103.38ZM47.54,93.72c.88,1.91,3.82,7.19,10,8.63a14,14,0,0,0,5.2.19,12.52,12.52,0,0,1-1.69-.39A13.35,13.35,0,0,1,55.65,99a12.49,12.49,0,0,1-3.76-7.59,5.18,5.18,0,0,1-1.5,1.49A5.42,5.42,0,0,1,47.54,93.72Z"/><path class="cls-3" d="M69.37,103.38a15.28,15.28,0,0,1-4.47-.67l-2.22-.66H65a13,13,0,0,0,3.73-.55,12.48,12.48,0,0,0,5.12-3A11.76,11.76,0,0,0,77.48,90V87.65l.69,2.25A4.5,4.5,0,0,0,80,92.31,4.82,4.82,0,0,0,83,93l.58-.06-.21.52c-.53,1.3-3.53,7.86-10.72,9.53A14,14,0,0,1,69.37,103.38Zm-2.12-.84a14,14,0,0,0,5.2-.19c6.19-1.44,9.13-6.72,10-8.63a5.42,5.42,0,0,1-2.85-.85,5.18,5.18,0,0,1-1.5-1.49A12.49,12.49,0,0,1,74.35,99a13.35,13.35,0,0,1-5.41,3.18A12.52,12.52,0,0,1,67.25,102.54Z"/><path class="cls-3" d="M77.48,92.35V90a11.76,11.76,0,0,0-3.63-8.49,12.48,12.48,0,0,0-5.12-3A13,13,0,0,0,65,78H62.67l2.23-.66a15,15,0,0,1,7.71-.3c7.19,1.67,10.19,8.23,10.72,9.53l.21.52L83,87a4.82,4.82,0,0,0-3,.71,4.5,4.5,0,0,0-1.83,2.41ZM67.25,77.46a12.52,12.52,0,0,1,1.69.39A13.35,13.35,0,0,1,74.35,81a12.47,12.47,0,0,1,3.76,7.59,5.06,5.06,0,0,1,1.5-1.49,5.42,5.42,0,0,1,2.85-.85c-.88-1.91-3.82-7.19-10-8.63A14,14,0,0,0,67.25,77.46Z"/><path class="cls-3" d="M60.6,77.64a13.63,13.63,0,0,0-5.2,3.15,12.86,12.86,0,0,0-3.74,7,5.19,5.19,0,0,0-1.08-.91,5.6,5.6,0,0,0-2.5-.87c1.05-2.06,4-6.7,9.55-8a13.46,13.46,0,0,1,3-.34m0-.68a13.93,13.93,0,0,0-3.16.36C50.24,79,47.32,85.86,47,86.65a4.19,4.19,0,0,1,.46,0,5.07,5.07,0,0,1,2.73.79,4.82,4.82,0,0,1,2,2.59,12.11,12.11,0,0,1,3.73-8.73,12.9,12.9,0,0,1,5.27-3.1A13.44,13.44,0,0,1,65,77.61h0A15.23,15.23,0,0,0,60.63,77Z"/><path class="cls-3" d="M51.66,92.24a12.86,12.86,0,0,0,3.74,7,13.63,13.63,0,0,0,5.2,3.15,13.46,13.46,0,0,1-3-.34c-5.58-1.3-8.5-6-9.55-8a5.6,5.6,0,0,0,2.5-.87,5.19,5.19,0,0,0,1.08-.91M52.17,90a4.82,4.82,0,0,1-2,2.59,5.07,5.07,0,0,1-2.73.79,4.19,4.19,0,0,1-.46,0c.32.79,3.24,7.65,10.47,9.33a13.93,13.93,0,0,0,3.16.36,15.59,15.59,0,0,0,4.37-.65h0a13.44,13.44,0,0,1-3.82-.56,13,13,0,0,1-5.27-3.1A12.11,12.11,0,0,1,52.17,90Z"/><path class="cls-3" d="M78.34,92.24a5.19,5.19,0,0,0,1.08.91,5.6,5.6,0,0,0,2.5.87c-1,2-4,6.7-9.55,8a13.46,13.46,0,0,1-3,.34,13.63,13.63,0,0,0,5.2-3.15,12.86,12.86,0,0,0,3.74-7M77.83,90a12.11,12.11,0,0,1-3.73,8.73,13,13,0,0,1-5.27,3.1,13.44,13.44,0,0,1-3.82.56h0a15.59,15.59,0,0,0,4.37.65,13.93,13.93,0,0,0,3.16-.36C79.76,101,82.68,94.14,83,93.35a4.19,4.19,0,0,1-.46,0,5.07,5.07,0,0,1-2.73-.79,4.82,4.82,0,0,1-2-2.59Z"/><path class="cls-3" d="M69.4,77.64a13.46,13.46,0,0,1,3,.34c5.58,1.3,8.5,5.94,9.55,8a5.6,5.6,0,0,0-2.5.87,5.49,5.49,0,0,0-1.08.9,12.84,12.84,0,0,0-3.74-7,13.63,13.63,0,0,0-5.2-3.15m0-.68a15.23,15.23,0,0,0-4.37.65h0a13.44,13.44,0,0,1,3.82.56,12.9,12.9,0,0,1,5.27,3.1A12.11,12.11,0,0,1,77.83,90a4.82,4.82,0,0,1,2-2.59,5.07,5.07,0,0,1,2.73-.79,4.19,4.19,0,0,1,.46,0c-.32-.79-3.24-7.65-10.47-9.33A13.93,13.93,0,0,0,69.37,77Z"/><path class="cls-3" d="M82.67,92.34a4.18,4.18,0,0,1-2.28-.6A3.76,3.76,0,0,1,79,90.14L78.94,90l.07-.14a3.76,3.76,0,0,1,1.38-1.6,4.23,4.23,0,0,1,2.4-.6H83a4.21,4.21,0,0,1,2.39.6,3.72,3.72,0,0,1,1.39,1.6l.06.14-.06.14a3.76,3.76,0,0,1-1.38,1.6,4.35,4.35,0,0,1-2.41.6h-.28Zm-3-2.34a3.05,3.05,0,0,0,1.06,1.17,3.57,3.57,0,0,0,2,.49H83a3.49,3.49,0,0,0,2-.49A3.14,3.14,0,0,0,86,90,3.09,3.09,0,0,0,85,88.83a3.5,3.5,0,0,0-2-.49h-.19a3.56,3.56,0,0,0-2,.49A3.05,3.05,0,0,0,79.72,90Z"/><path class="cls-3" d="M65,67.27a2.94,2.94,0,1,1,3-2.94A3,3,0,0,1,65,67.27Zm0-5.19a2.26,2.26,0,1,0,2.33,2.25A2.29,2.29,0,0,0,65,62.08Z"/><path class="cls-3" d="M65,100.41A10.42,10.42,0,1,1,75.77,90,10.61,10.61,0,0,1,65,100.41Zm0-19.8A9.4,9.4,0,1,0,74.72,90,9.57,9.57,0,0,0,65,80.61Z"/><path class="cls-3" d="M65,100.35a4.47,4.47,0,1,1,4.62-4.47A4.55,4.55,0,0,1,65,100.35Zm0-7.92a3.45,3.45,0,1,0,3.57,3.45A3.52,3.52,0,0,0,65,92.43Z"/><path class="cls-3" d="M71.09,94.47A4.47,4.47,0,1,1,75.72,90,4.56,4.56,0,0,1,71.09,94.47Zm0-7.92A3.45,3.45,0,1,0,74.66,90,3.52,3.52,0,0,0,71.09,86.55Z"/><path class="cls-3" d="M65,88.59a4.47,4.47,0,1,1,4.62-4.47A4.55,4.55,0,0,1,65,88.59Zm0-7.92a3.45,3.45,0,1,0,3.57,3.45A3.52,3.52,0,0,0,65,80.67Z"/><path class="cls-3" d="M58.91,94.47A4.47,4.47,0,1,1,63.54,90,4.56,4.56,0,0,1,58.91,94.47Zm0-7.92A3.45,3.45,0,1,0,62.48,90,3.52,3.52,0,0,0,58.91,86.55Z"/><path class="cls-3" d="M83.71,47.42a3.43,3.43,0,0,1-2.25-.82,3.94,3.94,0,0,1-.39-5.7,5.46,5.46,0,0,1,7.24-.48L87.9,41a4.7,4.7,0,0,0-6.3.38,3.27,3.27,0,0,0-.85,2.43,3.31,3.31,0,0,0,1.17,2.31,2.79,2.79,0,0,0,3.84-.24,2,2,0,0,0,.51-1.47A1.92,1.92,0,0,0,85.56,43a1.64,1.64,0,0,0-2.27.14,1.16,1.16,0,0,0,.11,1.66l-.46.51A1.8,1.8,0,0,1,82.29,44a1.77,1.77,0,0,1,.47-1.35A2.38,2.38,0,0,1,86,42.47a2.66,2.66,0,0,1,.26,3.83,3.49,3.49,0,0,1-2.35,1.12Z"/><path class="cls-3" d="M80.13,64.84h-.2A6,6,0,0,1,75.7,63a6.82,6.82,0,0,1-1.08-7.86,7.5,7.5,0,0,1-8.12-1,5.73,5.73,0,0,1-.92-7.77,5.22,5.22,0,0,1,4.86-2A4.33,4.33,0,0,1,74.14,47a3.83,3.83,0,0,1-.78,4A3.33,3.33,0,0,1,71,52a3.19,3.19,0,0,1-3-1.67,2.64,2.64,0,0,1,.45-2.92l.79.68a1.63,1.63,0,0,0-.28,1.82A2.08,2.08,0,0,0,70.94,51a2.3,2.3,0,0,0,1.63-.69,2.87,2.87,0,0,0,.58-3,3.32,3.32,0,0,0-2.85-2,4.1,4.1,0,0,0-3.85,1.58,4.73,4.73,0,0,0,.76,6.42c2.35,2,5.78,2,8.53-.08a.61.61,0,0,1,.78,0,.56.56,0,0,1,0,.76c-2.18,2.62-2.21,5.93-.07,8.24A4.83,4.83,0,0,0,80,63.82c2.16,0,3.84-.81,4.58-2.35a3.68,3.68,0,0,0-.63-4.11,2.91,2.91,0,0,0-2.1-.91,2.74,2.74,0,0,0-2.73,1.41,2.17,2.17,0,0,0,.37,2.42,1.72,1.72,0,0,0,1.2.56,1.77,1.77,0,0,0,1.27-.42l.7.76a2.88,2.88,0,0,1-4-.22,3.16,3.16,0,0,1-.54-3.53,3.81,3.81,0,0,1,3.72-2,4,4,0,0,1,2.86,1.25,4.69,4.69,0,0,1,.8,5.22A5.66,5.66,0,0,1,80.13,64.84ZM76.4,54.06h0Z"/><path class="cls-3" d="M65,73.56l-.24-.2a9.21,9.21,0,0,0-6.36-2.24H58v-.36a8.67,8.67,0,0,0-2.3-6.11l.53-.45a9.36,9.36,0,0,1,2.48,6.23A10.08,10.08,0,0,1,65,72.66a9.92,9.92,0,0,1,6.22-2.2,9.28,9.28,0,0,1,2.42-6.19l.53.45a8.64,8.64,0,0,0-2.24,6.07v.37h-.37a9.1,9.1,0,0,0-6.34,2.21Z"/><path class="cls-3" d="M64.94,70.11,64.76,70a12.13,12.13,0,0,0-3.86-1.42l-.24,0,0-.23a11.65,11.65,0,0,0-1.44-3.71l-.11-.17.11-.18a11.34,11.34,0,0,0,1.46-3.73l0-.23.23,0a12.3,12.3,0,0,0,3.9-1.44l.18-.1.18.1A12,12,0,0,0,69,60.23l.24,0,0,.23a11.56,11.56,0,0,0,1.44,3.71l.11.18-.11.17A11.53,11.53,0,0,0,69.3,68.3l0,.22-.23,0A12.3,12.3,0,0,0,65.12,70ZM61.26,68a12.91,12.91,0,0,1,3.68,1.35,13.25,13.25,0,0,1,3.71-1.37,12.29,12.29,0,0,1,1.4-3.55,12.39,12.39,0,0,1-1.37-3.54A12.62,12.62,0,0,1,65,59.5a13.25,13.25,0,0,1-3.71,1.37,12.29,12.29,0,0,1-1.4,3.56A11.94,11.94,0,0,1,61.26,68Z"/><path class="cls-3" d="M93.61,98H92.9v-.34c0-2.32-1.64-4.62-4.6-6.47a1.29,1.29,0,0,1,0-2.4c3-1.85,4.6-4.15,4.6-6.47V82h.7v.34c0,2.32,1.63,4.62,4.6,6.47a1.29,1.29,0,0,1,0,2.4c-3,1.85-4.6,4.15-4.6,6.47Zm-.36-13.7a10.38,10.38,0,0,1-4.57,5.06c-.32.2-.49.42-.49.63s.17.43.49.63a10.38,10.38,0,0,1,4.57,5.06,10.45,10.45,0,0,1,4.58-5.06c.32-.2.49-.42.49-.63s-.17-.43-.49-.63A10.45,10.45,0,0,1,93.25,84.31Z"/><path class="cls-3" d="M65,33.29a6.86,6.86,0,1,1,7.1-6.86A7,7,0,0,1,65,33.29Zm0-13a6.18,6.18,0,1,0,6.4,6.18A6.3,6.3,0,0,0,65,20.25Z"/><path class="cls-3" d="M65,31.09a4.66,4.66,0,1,1,4.82-4.66A4.75,4.75,0,0,1,65,31.09Zm0-8.64a4,4,0,1,0,4.12,4A4.05,4.05,0,0,0,65,22.45Z"/><path class="cls-3" d="M78.8,72.48a10.89,10.89,0,0,1-5.08-1.31l-.14-.07,0-.15a4.92,4.92,0,0,1,.08-2.5,4.53,4.53,0,0,1,.6-1.28l.2-.31.3.22A9.71,9.71,0,0,0,80.3,68.9h0A9.59,9.59,0,0,0,86.1,67l1.05-.79-.51,1.19a8.23,8.23,0,0,1-3.23,3.84A8.64,8.64,0,0,1,78.8,72.48Zm-4.59-1.83a9,9,0,0,0,8.82,0,7.36,7.36,0,0,0,2.37-2.39,10.31,10.31,0,0,1-5.05,1.33h0a10.48,10.48,0,0,1-5.67-1.73,5,5,0,0,0-.33.79A4.26,4.26,0,0,0,74.21,70.65Z"/><path class="cls-3" d="M77.7,43.31l-.5-.6a10.54,10.54,0,0,0-3.82-2.85,11.06,11.06,0,0,0-6.11-.71l-.83.14.48-.67c2.86-4,7.35-6,11.44-5.2a9.75,9.75,0,0,1,5,2.82l.41.41-.57.15A7.38,7.38,0,0,0,79.52,39a7,7,0,0,0-1.7,3.56Zm-8.59-5a11.4,11.4,0,0,1,4.55.92,11.22,11.22,0,0,1,3.61,2.51A7.58,7.58,0,0,1,79,38.54a8.12,8.12,0,0,1,3.43-2.23,8.94,8.94,0,0,0-4.21-2.22c-3.58-.74-7.52.93-10.23,4.28C68.32,38.34,68.7,38.32,69.11,38.32Z"/><path class="cls-3" d="M76.85,40.13l-.34-.26A11.31,11.31,0,0,0,74,38.43a12.18,12.18,0,0,0-3.13-.89l-.81-.11.64-.49A9.18,9.18,0,0,1,78,35a7.72,7.72,0,0,1,2.16.83l.5.28-.49.3A8.54,8.54,0,0,0,78.29,38a8.42,8.42,0,0,0-1.24,1.79Zm-5-3.12a13.09,13.09,0,0,1,2.51.8,11.89,11.89,0,0,1,2.28,1.28,9.24,9.24,0,0,1,1.15-1.58,8.68,8.68,0,0,1,1.57-1.39,6.12,6.12,0,0,0-1.46-.49A8.19,8.19,0,0,0,71.82,37Z"/><path class="cls-3" d="M57.76,18.1l-.45-.52a12.3,12.3,0,0,1,15.38,0l-.45.52A11.58,11.58,0,0,0,57.76,18.1Z"/><path class="cls-3" d="M23.13,92.89A2.81,2.81,0,1,1,26,90.08,2.87,2.87,0,0,1,23.13,92.89Zm0-4.94a2.13,2.13,0,1,0,2.21,2.13A2.18,2.18,0,0,0,23.13,88Z"/><path class="cls-3" d="M22.47,37.53a2.82,2.82,0,1,1,2.91-2.82A2.87,2.87,0,0,1,22.47,37.53Zm0-5a2.14,2.14,0,1,0,2.21,2.13A2.18,2.18,0,0,0,22.47,32.58Z"/><path class="cls-3" d="M41.14,20.41a2.81,2.81,0,1,1,2.91-2.81A2.86,2.86,0,0,1,41.14,20.41Zm0-4.94a2.13,2.13,0,1,0,2.21,2.13A2.18,2.18,0,0,0,41.14,15.47Z"/><path class="cls-3" d="M22.42,55.8l-.7-.09a40.64,40.64,0,0,1,2.9-13.21A41.58,41.58,0,0,1,29,34.44a13.26,13.26,0,0,1-4.27-6.65c-1.55-5.89,1.91-10.66,2.62-11.55l1-1.27-.39,1.55a9.25,9.25,0,0,0,1.51,7.6A9.85,9.85,0,0,0,35,27.68c2.17-1.78,4.45-3.5,6.78-5.11A57.6,57.6,0,0,1,49.26,18a32.62,32.62,0,0,1,14.6-3v.68c-2.18.05-13.41.75-19.51,9.4a19.79,19.79,0,0,0-3.42,8.8l0,.19-.18.08a31.27,31.27,0,0,0-9.42,6.09A30.75,30.75,0,0,0,22.42,55.8ZM27,17.91a12.69,12.69,0,0,0-1.64,9.71,12.68,12.68,0,0,0,4.28,6.5l.25.2-.18.25a40.87,40.87,0,0,0-4.46,8.18A40,40,0,0,0,22.78,52a31.12,31.12,0,0,1,8-12.35,32.1,32.1,0,0,1,9.45-6.15,20.3,20.3,0,0,1,3.51-8.9,22.09,22.09,0,0,1,10.7-7.88,27.57,27.57,0,0,0-4.9,1.82,58.12,58.12,0,0,0-7.38,4.54c-2.37,1.63-4.68,3.38-6.86,5.19l-.14.11-.17,0a10.57,10.57,0,0,1-6.14-3.86A9.69,9.69,0,0,1,27,17.91Z"/><path class="cls-3" d="M47.33,92.34h-.28a4.3,4.3,0,0,1-2.4-.6,3.72,3.72,0,0,1-1.39-1.6L43.2,90l.06-.14a3.72,3.72,0,0,1,1.39-1.6,4,4,0,0,1,2.39-.6h.17a4.3,4.3,0,0,1,2.4.6A3.76,3.76,0,0,1,51,89.86l.07.14-.07.14a3.76,3.76,0,0,1-1.38,1.6A4.18,4.18,0,0,1,47.33,92.34Zm-.2-.68h.08a3.57,3.57,0,0,0,2-.49A3.05,3.05,0,0,0,50.28,90a3.05,3.05,0,0,0-1.06-1.17,3.56,3.56,0,0,0-2-.49H47a3.5,3.5,0,0,0-2,.49A3.09,3.09,0,0,0,44,90,3.14,3.14,0,0,0,45,91.17a3.49,3.49,0,0,0,2,.49Z"/><path class="cls-3" d="M83.09,88.68a3,3,0,0,1,1.68.43,2.76,2.76,0,0,1,.86.89,2.66,2.66,0,0,1-.86.89,3,3,0,0,1-1.69.43h-.41A3,3,0,0,1,81,90.89a2.66,2.66,0,0,1-.86-.89,2.66,2.66,0,0,1,.86-.89,3,3,0,0,1,1.68-.43h.43m0-.68h-.43a3.79,3.79,0,0,0-2.07.54A3.46,3.46,0,0,0,79.33,90a3.46,3.46,0,0,0,1.26,1.46,3.74,3.74,0,0,0,2.08.54h.41a3.74,3.74,0,0,0,2.08-.54A3.53,3.53,0,0,0,86.42,90a3.53,3.53,0,0,0-1.26-1.46A3.78,3.78,0,0,0,83.09,88Z"/><path class="cls-3" d="M47.34,88.68a3,3,0,0,1,1.68.43,2.66,2.66,0,0,1,.86.89,2.56,2.56,0,0,1-.86.89,3,3,0,0,1-1.69.43h-.41a3,3,0,0,1-1.69-.43,2.66,2.66,0,0,1-.86-.89,2.66,2.66,0,0,1,.86-.89,3,3,0,0,1,1.68-.43h.43m0-.68h-.43a3.78,3.78,0,0,0-2.07.54A3.53,3.53,0,0,0,43.58,90a3.53,3.53,0,0,0,1.26,1.46,3.74,3.74,0,0,0,2.08.54h.41a3.74,3.74,0,0,0,2.08-.54A3.46,3.46,0,0,0,50.67,90a3.46,3.46,0,0,0-1.26-1.46A3.79,3.79,0,0,0,47.34,88Z"/><path class="cls-3" d="M46.29,47.42h-.23a3.49,3.49,0,0,1-2.35-1.12A2.66,2.66,0,0,1,44,42.47a2.38,2.38,0,0,1,3.27.21A1.77,1.77,0,0,1,47.71,44a1.8,1.8,0,0,1-.65,1.27l-.46-.51a1.16,1.16,0,0,0,.11-1.66A1.64,1.64,0,0,0,44.44,43a1.92,1.92,0,0,0-.71,1.39,2,2,0,0,0,.51,1.47,2.79,2.79,0,0,0,3.84.24,3.31,3.31,0,0,0,1.17-2.31,3.27,3.27,0,0,0-.85-2.43A4.69,4.69,0,0,0,42.1,41l-.41-.55a5.46,5.46,0,0,1,7.24.48,3.94,3.94,0,0,1-.39,5.7A3.43,3.43,0,0,1,46.29,47.42Z"/><path class="cls-3" d="M49.87,64.84a5.66,5.66,0,0,1-5.36-2.94,4.69,4.69,0,0,1,.8-5.22,4,4,0,0,1,2.86-1.25,3.83,3.83,0,0,1,3.72,2A3.16,3.16,0,0,1,51.35,61a2.88,2.88,0,0,1-4,.22l.7-.76a1.81,1.81,0,0,0,1.27.42,1.72,1.72,0,0,0,1.2-.56,2.17,2.17,0,0,0,.37-2.42,2.75,2.75,0,0,0-2.73-1.41,2.91,2.91,0,0,0-2.1.91,3.68,3.68,0,0,0-.63,4.11c.74,1.55,2.4,2.4,4.58,2.35a4.83,4.83,0,0,0,3.46-1.52c2.14-2.31,2.11-5.62-.07-8.24a.56.56,0,0,1,0-.76.61.61,0,0,1,.78,0c2.75,2.07,6.18,2.11,8.53.08a4.73,4.73,0,0,0,.76-6.42,4.12,4.12,0,0,0-3.85-1.58,3.32,3.32,0,0,0-2.85,2,2.87,2.87,0,0,0,.58,3,2.3,2.3,0,0,0,1.63.69,2.14,2.14,0,0,0,2.06-1.07,1.63,1.63,0,0,0-.28-1.82l.79-.68a2.64,2.64,0,0,1,.45,2.92,3.12,3.12,0,0,1-3,1.67h-.05a3.33,3.33,0,0,1-2.41-1,3.83,3.83,0,0,1-.78-4,4.33,4.33,0,0,1,3.7-2.65,5.22,5.22,0,0,1,4.86,2,5.73,5.73,0,0,1-.92,7.77,7.5,7.5,0,0,1-8.12,1A6.82,6.82,0,0,1,54.3,63a6,6,0,0,1-4.23,1.86Zm3.74-10.78h0Z"/><path class="cls-3" d="M37.1,98h-.71v-.34c0-2.32-1.63-4.62-4.6-6.47a1.29,1.29,0,0,1,0-2.4c3-1.85,4.6-4.15,4.6-6.47V82h.71v.34c0,2.32,1.64,4.62,4.6,6.47a1.29,1.29,0,0,1,0,2.4c-3,1.85-4.6,4.15-4.6,6.47Zm-.35-13.7a10.45,10.45,0,0,1-4.58,5.06c-.32.2-.49.42-.49.63s.17.43.49.63a10.45,10.45,0,0,1,4.58,5.06,10.38,10.38,0,0,1,4.57-5.06c.32-.2.49-.42.49-.63s-.17-.43-.49-.63A10.38,10.38,0,0,1,36.75,84.31Z"/><path class="cls-3" d="M93.25,85.2a11.56,11.56,0,0,0,4.39,4.46c.24.15.33.28.33.34s-.09.19-.33.34a11.56,11.56,0,0,0-4.39,4.46,11.46,11.46,0,0,0-4.38-4.46c-.24-.15-.33-.28-.33-.34s.09-.19.33-.34a11.46,11.46,0,0,0,4.38-4.46m0-2.87h0c0,2.46-1.69,4.84-4.76,6.75-.87.55-.87,1.29,0,1.83,3.07,1.92,4.76,4.3,4.76,6.76h0c0-2.46,1.69-4.84,4.76-6.76.87-.54.87-1.28,0-1.83-3.07-1.91-4.76-4.29-4.76-6.75Z"/><path class="cls-3" d="M36.75,85.2a11.46,11.46,0,0,0,4.38,4.46c.24.15.33.28.33.34s-.09.19-.33.34a11.46,11.46,0,0,0-4.38,4.46,11.56,11.56,0,0,0-4.39-4.46c-.24-.15-.33-.28-.33-.34s.09-.19.33-.34a11.56,11.56,0,0,0,4.39-4.46m0-2.87h0c0,2.46-1.69,4.84-4.76,6.75-.87.55-.87,1.29,0,1.83,3.07,1.92,4.76,4.3,4.76,6.76h0c0-2.46,1.69-4.84,4.76-6.76.87-.54.87-1.28,0-1.83-3.07-1.91-4.76-4.29-4.76-6.75Z"/><path class="cls-3" d="M51.2,72.48a8.64,8.64,0,0,1-4.61-1.27,8.29,8.29,0,0,1-3.23-3.84l-.51-1.19,1,.79a9.59,9.59,0,0,0,5.75,1.93h.05a9.71,9.71,0,0,0,5.57-1.82l.3-.22.2.31a4.53,4.53,0,0,1,.6,1.28,4.92,4.92,0,0,1,.08,2.5l0,.15-.13.07A10.89,10.89,0,0,1,51.2,72.48Zm-6.6-4.23A7.36,7.36,0,0,0,47,70.64a9,9,0,0,0,8.82,0,4.26,4.26,0,0,0-.09-2,5,5,0,0,0-.33-.79,10.48,10.48,0,0,1-5.67,1.73A10.72,10.72,0,0,1,44.6,68.25Z"/><path class="cls-3" d="M52.3,43.31l-.12-.76A7,7,0,0,0,50.48,39a7.38,7.38,0,0,0-3.65-2.19l-.57-.15.41-.41a9.79,9.79,0,0,1,5-2.82c4.08-.84,8.58,1.2,11.44,5.2l.48.67-.83-.14a11.06,11.06,0,0,0-6.11.71,10.54,10.54,0,0,0-3.82,2.85Zm-4.72-7A8.12,8.12,0,0,1,51,38.54a7.58,7.58,0,0,1,1.72,3.21,11.22,11.22,0,0,1,3.61-2.51A11.65,11.65,0,0,1,62,38.37c-2.71-3.35-6.65-5-10.23-4.28A8.94,8.94,0,0,0,47.58,36.31Z"/><path class="cls-3" d="M53.15,40.13l-.2-.38A8.42,8.42,0,0,0,51.71,38a8.54,8.54,0,0,0-1.9-1.59l-.49-.3.5-.28A7.72,7.72,0,0,1,52,35a9.18,9.18,0,0,1,7.28,2l.64.49-.81.11a12.18,12.18,0,0,0-3.13.89,11.31,11.31,0,0,0-2.47,1.44Zm-2.48-4a8.68,8.68,0,0,1,1.57,1.39,9.24,9.24,0,0,1,1.15,1.58,11.89,11.89,0,0,1,2.28-1.28,13.09,13.09,0,0,1,2.51-.8,8.19,8.19,0,0,0-6-1.38A6.12,6.12,0,0,0,50.67,36.12Z"/><path class="cls-3" d="M71.86,158.51l.44-.79a8.28,8.28,0,0,0-1.55-10.25l-2.43-2.29,2.86,1.76a11.09,11.09,0,0,0,5.23,1.61,11.21,11.21,0,0,0,4.58-.79l.59-.24-.11.61a12.77,12.77,0,0,1-2.21,5.29,13.81,13.81,0,0,1-6.53,4.79Zm.57-10.17a8.76,8.76,0,0,1,1.44,3.12,9.11,9.11,0,0,1-.55,5.79A12.84,12.84,0,0,0,78.68,153a11.93,11.93,0,0,0,2-4.42,11.66,11.66,0,0,1-8.23-.27Z"/><path class="cls-3" d="M65,165.12a12.23,12.23,0,0,1-7.69-2.7l.45-.52a11.58,11.58,0,0,0,14.48,0l.45.52A12.23,12.23,0,0,1,65,165.12Z"/><path class="cls-3" d="M58.14,158.51l-.87-.3a13.81,13.81,0,0,1-6.53-4.79,12.77,12.77,0,0,1-2.21-5.29l-.11-.61.59.24a10.88,10.88,0,0,0,9.81-.82l2.85-1.75-2.42,2.28a8.28,8.28,0,0,0-1.55,10.25Zm-8.8-9.9a11.93,11.93,0,0,0,2,4.42,12.84,12.84,0,0,0,5.36,4.22,9.11,9.11,0,0,1-.55-5.79,8.76,8.76,0,0,1,1.44-3.12,11.66,11.66,0,0,1-8.23.27Z"/><path class="cls-3" d="M22.47,148.1a2.82,2.82,0,1,1,2.91-2.81A2.86,2.86,0,0,1,22.47,148.1Zm0-4.95a2.14,2.14,0,1,0,2.21,2.14A2.18,2.18,0,0,0,22.47,143.15Z"/><path class="cls-3" d="M41.14,165.21a2.82,2.82,0,1,1,2.91-2.81A2.86,2.86,0,0,1,41.14,165.21Zm0-5a2.14,2.14,0,1,0,2.21,2.14A2.18,2.18,0,0,0,41.14,160.26Z"/><path class="cls-3" d="M63.49,165.06a32.49,32.49,0,0,1-14.23-3,57.6,57.6,0,0,1-7.48-4.6c-2.34-1.61-4.62-3.33-6.78-5.11a9.85,9.85,0,0,0-5.55,3.56,9.25,9.25,0,0,0-1.51,7.6l.39,1.55-1-1.27c-.71-.89-4.17-5.66-2.62-11.55A13.22,13.22,0,0,1,29,145.56a41.58,41.58,0,0,1-4.35-8.06,40.7,40.7,0,0,1-2.9-13.21l.7-.09a30.75,30.75,0,0,0,8.88,15.62,31.27,31.27,0,0,0,9.42,6.09l.18.08,0,.19A19.7,19.7,0,0,0,44.35,155c6.1,8.66,17.33,9.36,19.51,9.41v.68Zm-28.3-13.48.14.11c2.18,1.81,4.49,3.56,6.86,5.19a58.12,58.12,0,0,0,7.38,4.54,28.37,28.37,0,0,0,4.9,1.82,22.09,22.09,0,0,1-10.7-7.88,20.3,20.3,0,0,1-3.51-8.9,32.1,32.1,0,0,1-9.45-6.15,31.12,31.12,0,0,1-8-12.35,40,40,0,0,0,2.49,9.29,40.87,40.87,0,0,0,4.46,8.18l.18.25-.25.2A12.05,12.05,0,0,0,27,162.09a9.69,9.69,0,0,1,1.86-6.61A10.57,10.57,0,0,1,35,151.62Z"/><path class="cls-3" d="M65,118.6a2.94,2.94,0,1,1,3-2.93A3,3,0,0,1,65,118.6Zm0-5.19a2.26,2.26,0,1,0,2.33,2.26A2.29,2.29,0,0,0,65,113.41Z"/><path class="cls-3" d="M45.18,140.72a6.17,6.17,0,0,1-3.49-1.14l.41-.55a4.7,4.7,0,0,0,6.3-.38,3.27,3.27,0,0,0,.85-2.43,3.31,3.31,0,0,0-1.17-2.31,2.79,2.79,0,0,0-3.84.24,2,2,0,0,0-.51,1.47,1.92,1.92,0,0,0,.71,1.39,1.65,1.65,0,0,0,2.27-.14,1.16,1.16,0,0,0-.11-1.66l.46-.51a1.8,1.8,0,0,1,.65,1.27,1.77,1.77,0,0,1-.47,1.35,2.37,2.37,0,0,1-3.27.2,2.65,2.65,0,0,1-.26-3.82,3.5,3.5,0,0,1,4.83-.3,3.94,3.94,0,0,1,.39,5.7A5,5,0,0,1,45.18,140.72Z"/><path class="cls-3" d="M60.25,135.71a5.32,5.32,0,0,1-.69,0,4.33,4.33,0,0,1-3.7-2.65,3.83,3.83,0,0,1,.78-4,3.33,3.33,0,0,1,2.41-1,3.14,3.14,0,0,1,3,1.67,2.65,2.65,0,0,1-.45,2.92l-.79-.68a1.63,1.63,0,0,0,.28-1.82A2.12,2.12,0,0,0,59.06,129a2.22,2.22,0,0,0-1.63.69,2.87,2.87,0,0,0-.58,3,3.32,3.32,0,0,0,2.85,2,4.12,4.12,0,0,0,3.85-1.58,4.73,4.73,0,0,0-.76-6.42c-2.35-2-5.78-2-8.53.08a.59.59,0,0,1-.78,0,.54.54,0,0,1,0-.75c2.18-2.62,2.21-5.93.07-8.24a4.83,4.83,0,0,0-3.46-1.52c-2.19-.06-3.84.8-4.58,2.35a3.68,3.68,0,0,0,.63,4.11,2.91,2.91,0,0,0,2.1.91,2.74,2.74,0,0,0,2.73-1.41,2.17,2.17,0,0,0-.37-2.42,1.79,1.79,0,0,0-2.47-.14l-.7-.76a2.89,2.89,0,0,1,4,.22,3.16,3.16,0,0,1,.54,3.53,3.84,3.84,0,0,1-3.72,2,4,4,0,0,1-2.86-1.25,4.69,4.69,0,0,1-.8-5.22c.92-1.9,3-3,5.56-2.94A5.91,5.91,0,0,1,54.3,117a6.82,6.82,0,0,1,1.08,7.86,7.5,7.5,0,0,1,8.12,1,5.73,5.73,0,0,1,.92,7.77A5.15,5.15,0,0,1,60.25,135.71Z"/><path class="cls-3" d="M49.72,67.67a9.08,9.08,0,0,1-5.13-1.58,7.53,7.53,0,0,1-3.23-7.25,6.94,6.94,0,0,1,4.54-5.77A7,7,0,0,1,50.58,53a3.27,3.27,0,0,1,.91-1.6,3.49,3.49,0,0,1,1.71-.89,7,7,0,0,1-.34-2.4,6.41,6.41,0,0,1,2.24-4.74,8,8,0,0,1,8.45-1.21A8.18,8.18,0,0,1,65,43a8.32,8.32,0,0,1,5.75-1.4,7.12,7.12,0,0,1,6,4.38,6.4,6.4,0,0,1,.08,4.48,3.37,3.37,0,0,1,1.68.9,3.22,3.22,0,0,1,.9,1.63,9,9,0,0,1,2.46-.32,6.87,6.87,0,0,1,4.9,2.17A7.29,7.29,0,0,1,88,63c-1.36,2.83-4.31,4.52-7.91,4.52h-.27a8.88,8.88,0,0,1-6.27-2.77,9.47,9.47,0,0,1-2.54-6.23,10.08,10.08,0,0,1-6-2.14,10.23,10.23,0,0,1-6.08,2.16,9.51,9.51,0,0,1-2.55,6.21A9.06,9.06,0,0,1,49.72,67.67Zm-1.39-14a6.12,6.12,0,0,0-2.06.36A6,6,0,0,0,42.41,59a6.53,6.53,0,0,0,2.79,6.29,8,8,0,0,0,10.38-1.15,8.43,8.43,0,0,0,2.28-6v-.54h.56a9,9,0,0,0,6.24-2.19l.35-.31.35.31a9,9,0,0,0,6.21,2.17l.56,0v.54a8.44,8.44,0,0,0,2.27,6,7.78,7.78,0,0,0,5.51,2.43h.24a7.38,7.38,0,0,0,7-3.93A6.32,6.32,0,0,0,86,55.55a5.82,5.82,0,0,0-4.13-1.82,7.11,7.11,0,0,0-2.69.48l-.74.31v-.79a2.19,2.19,0,0,0-.68-1.62,2.36,2.36,0,0,0-1.66-.67h-.83l.35-.72a5.42,5.42,0,0,0,.15-4.34,6.07,6.07,0,0,0-5.12-3.73,7.15,7.15,0,0,0-5.3,1.44l-.34.27-.34-.28a6.25,6.25,0,0,0-1.58-1,6.91,6.91,0,0,0-7.3,1,5.44,5.44,0,0,0-1.89,4,5.88,5.88,0,0,0,.51,2.61l.33.73h-.82a2.44,2.44,0,0,0-1.69.66,2.23,2.23,0,0,0-.68,1.6v.81l-.76-.34A5.88,5.88,0,0,0,48.33,53.66Z"/><path class="cls-3" d="M69.73,138.52a8,8,0,0,1-3.28-.69A8.18,8.18,0,0,1,65,137a8.32,8.32,0,0,1-5.75,1.4,7.12,7.12,0,0,1-6-4.38,6.4,6.4,0,0,1-.08-4.48,3.37,3.37,0,0,1-1.68-.9,3.21,3.21,0,0,1-.9-1.64,8.26,8.26,0,0,1-2.46.33,6.87,6.87,0,0,1-4.9-2.17A7.29,7.29,0,0,1,42,117c1.36-2.83,4.31-4.52,7.91-4.52h.27a8.88,8.88,0,0,1,6.27,2.77A9.47,9.47,0,0,1,59,121.44a10.08,10.08,0,0,1,6,2.14,10.23,10.23,0,0,1,6.08-2.16,9.51,9.51,0,0,1,2.55-6.21,9.12,9.12,0,0,1,11.78-1.3,7.52,7.52,0,0,1,3.23,7.24,6.94,6.94,0,0,1-4.54,5.78,7,7,0,0,1-4.68.06,3.27,3.27,0,0,1-.91,1.6,3.49,3.49,0,0,1-1.71.89,7,7,0,0,1,.34,2.4,6.43,6.43,0,0,1-2.24,4.74A7.92,7.92,0,0,1,69.73,138.52ZM65,135.64l.34.28a6.25,6.25,0,0,0,1.58,1,6.91,6.91,0,0,0,7.3-1,5.44,5.44,0,0,0,1.89-4,5.88,5.88,0,0,0-.51-2.61l-.33-.73h.82a2.53,2.53,0,0,0,1.69-.66,2.23,2.23,0,0,0,.68-1.61v-.8l.76.34A5.94,5.94,0,0,0,87.59,121a6.53,6.53,0,0,0-2.79-6.29,8,8,0,0,0-10.38,1.14,8.47,8.47,0,0,0-2.28,6v.54l-.56,0a9.13,9.13,0,0,0-6.24,2.2l-.35.31-.35-.31a9,9,0,0,0-6.21-2.17l-.56,0v-.54a8.44,8.44,0,0,0-2.27-6,7.74,7.74,0,0,0-5.51-2.43h-.24a7.38,7.38,0,0,0-6.95,3.93A6.32,6.32,0,0,0,44,124.45a5.82,5.82,0,0,0,4.13,1.82,6.92,6.92,0,0,0,2.69-.48l.74-.31v.79a2.19,2.19,0,0,0,.68,1.62,2.36,2.36,0,0,0,1.66.67h.83l-.35.72a5.42,5.42,0,0,0-.15,4.34,6.07,6.07,0,0,0,5.12,3.73,7.16,7.16,0,0,0,5.3-1.44Z"/><path class="cls-3" d="M73.74,115.79a9.36,9.36,0,0,1-2.48-6.23A10.08,10.08,0,0,1,65,107.34a9.92,9.92,0,0,1-6.22,2.2,9.28,9.28,0,0,1-2.42,6.19l-.53-.45a8.64,8.64,0,0,0,2.24-6.07v-.37h.37a9.13,9.13,0,0,0,6.34-2.21l.23-.2.24.2a9.27,9.27,0,0,0,6.36,2.24H72v.36a8.67,8.67,0,0,0,2.3,6.11Z"/><path class="cls-3" d="M65,121.29l-.18-.1A12.13,12.13,0,0,0,61,119.77l-.24,0,0-.23a11.56,11.56,0,0,0-1.44-3.71l-.11-.18.11-.17a11.31,11.31,0,0,0,1.46-3.74l0-.22.23,0a12,12,0,0,0,3.9-1.43l.18-.11.18.11a12,12,0,0,0,3.86,1.42l.24,0,0,.23a11.65,11.65,0,0,0,1.44,3.71l.11.17-.11.18a11.56,11.56,0,0,0-1.46,3.73l0,.23-.23,0a12.3,12.3,0,0,0-3.9,1.44Zm-3.68-2.14A12.62,12.62,0,0,1,65,120.5a13.14,13.14,0,0,1,3.71-1.37,12.47,12.47,0,0,1,1.4-3.56A11.94,11.94,0,0,1,68.74,112a12.64,12.64,0,0,1-3.68-1.36,13,13,0,0,1-3.71,1.38,12.12,12.12,0,0,1-1.4,3.55A12.11,12.11,0,0,1,61.32,119.15Z"/><path class="cls-3" d="M65,160.42a6.86,6.86,0,1,1,7.09-6.85A7,7,0,0,1,65,160.42Zm0-13a6.18,6.18,0,1,0,6.39,6.18A6.3,6.3,0,0,0,65,147.39Z"/><path class="cls-3" d="M65,158.23a4.66,4.66,0,1,1,4.82-4.66A4.75,4.75,0,0,1,65,158.23Zm0-8.64a4,4,0,1,0,4.11,4A4.06,4.06,0,0,0,65,149.59Z"/><path class="cls-3" d="M42.85,113.82l.51-1.19a8.23,8.23,0,0,1,3.23-3.84,9.72,9.72,0,0,1,9.68,0l.14.07,0,.15a4.92,4.92,0,0,1-.08,2.5,4.53,4.53,0,0,1-.6,1.28l-.2.31-.3-.22a9.71,9.71,0,0,0-5.57-1.82h-.05A9.59,9.59,0,0,0,43.9,113Zm6.8-3.4h.05a10.48,10.48,0,0,1,5.67,1.73,5,5,0,0,0,.33-.79,4.26,4.26,0,0,0,.09-2,9,9,0,0,0-8.82,0,7.36,7.36,0,0,0-2.37,2.39A10.31,10.31,0,0,1,49.65,110.42Z"/><path class="cls-3" d="M53.5,146.76a8.9,8.9,0,0,1-1.86-.19,9.72,9.72,0,0,1-5-2.81l-.41-.41.57-.15A7.38,7.38,0,0,0,50.48,141a7,7,0,0,0,1.7-3.56l.12-.76.5.6a10.54,10.54,0,0,0,3.82,2.85,11.05,11.05,0,0,0,6.11.71l.83-.14-.48.67A12.12,12.12,0,0,1,53.5,146.76Zm-5.92-3.07a8.94,8.94,0,0,0,4.21,2.22c3.59.74,7.52-.93,10.23-4.28a11.49,11.49,0,0,1-5.68-.87,11.22,11.22,0,0,1-3.61-2.51A7.64,7.64,0,0,1,51,141.46,8.12,8.12,0,0,1,47.58,143.69Z"/><path class="cls-3" d="M53.48,145.19A6.82,6.82,0,0,1,52,145a7.39,7.39,0,0,1-2.16-.82l-.5-.28.49-.3a8.54,8.54,0,0,0,1.9-1.59A8.42,8.42,0,0,0,53,140.25l.2-.38.34.26a12.07,12.07,0,0,0,5.6,2.32l.81.12-.64.49A9.65,9.65,0,0,1,53.48,145.19Zm-2.81-1.31a6.12,6.12,0,0,0,1.46.49,8.19,8.19,0,0,0,6-1.38,13.09,13.09,0,0,1-2.51-.8,11.89,11.89,0,0,1-2.28-1.28,9.24,9.24,0,0,1-1.15,1.58A8.68,8.68,0,0,1,50.67,143.88Z"/><path class="cls-3" d="M65,165.12a12.23,12.23,0,0,1-7.69-2.7l.45-.52a11.58,11.58,0,0,0,14.48,0l.45.52A12.23,12.23,0,0,1,65,165.12Z"/><path class="cls-3" d="M65,165.4a12.76,12.76,0,0,1-8-2.83l-1.11-.89a17.89,17.89,0,0,1-4.59-2.43,19.31,19.31,0,0,1-3.68-3.68A20.25,20.25,0,0,1,43.81,145c-.84-.39-1.9-.92-3.09-1.6a38.06,38.06,0,0,1-16.29-18h0v0h0v0h0v0h0v0h0v0h0l-.18-.43c-6.79-17,2.71-32.16,4.57-34.87-1.86-2.72-11.36-17.91-4.57-34.87C29.08,43,39.34,37.07,43.81,35a20.25,20.25,0,0,1,3.76-10.57,19.31,19.31,0,0,1,3.68-3.68,17.89,17.89,0,0,1,4.59-2.43l1.1-.89a12.89,12.89,0,0,1,16.11,0l1.11.89a17.89,17.89,0,0,1,4.59,2.43,19.31,19.31,0,0,1,3.68,3.68A20.25,20.25,0,0,1,86.19,35c4.48,2.07,14.74,8,19.61,20.13,6.79,17-2.71,32.16-4.57,34.87,1.86,2.72,11.36,17.9,4.57,34.87-4.88,12.18-15.14,18.06-19.61,20.13a20.25,20.25,0,0,1-3.76,10.57,19.31,19.31,0,0,1-3.68,3.68,17.89,17.89,0,0,1-4.59,2.43l-1.1.89A12.8,12.8,0,0,1,65,165.4ZM44.78,144a.83.83,0,0,1,.42.68,19,19,0,0,0,3.51,10.14,18.05,18.05,0,0,0,3.39,3.4,16.74,16.74,0,0,0,4.31,2.26,1.07,1.07,0,0,1,.27.16l1.17.94a11.46,11.46,0,0,0,14.3,0l1.17-.95a1.3,1.3,0,0,1,.26-.14,17,17,0,0,0,4.32-2.27,17.72,17.72,0,0,0,3.39-3.4,19,19,0,0,0,3.51-10.14.87.87,0,0,1,.52-.74c4.17-1.88,14.37-7.54,19.17-19.51,6.81-17-3.42-32.21-4.61-33.88a.87.87,0,0,1,0-1c1.19-1.67,11.42-16.86,4.61-33.88-4.79-12-15-17.63-19.17-19.51a.86.86,0,0,1-.52-.74,19,19,0,0,0-3.51-10.14,17.72,17.72,0,0,0-3.39-3.4,16.74,16.74,0,0,0-4.31-2.26,1.35,1.35,0,0,1-.26-.15l-1.18-1a11.46,11.46,0,0,0-14.3,0l-1.17,1a1.3,1.3,0,0,1-.26.14,17,17,0,0,0-4.32,2.27,18.05,18.05,0,0,0-3.39,3.4A19,19,0,0,0,45.2,35.37a.85.85,0,0,1-.53.74C40.51,38,30.3,43.66,25.51,55.62c-6.81,17,3.42,32.21,4.61,33.88a.87.87,0,0,1,0,1c-1.19,1.67-11.42,16.86-4.61,33.88.15.37.31.73.46,1.09h0a36.76,36.76,0,0,0,15.35,16.65,38.61,38.61,0,0,0,3.45,1.77ZM29,90.27Zm72.09,0h0ZM29,89.73h0Zm72.08,0Zm-57-54.85h0Zm41.83,0h0Z"/><path class="cls-3" d="M98.07,88.1,99,85a4.14,4.14,0,0,0,0-2.4A4.46,4.46,0,0,0,97,80.07a4.75,4.75,0,0,0-2.1-.58l-.59,0,.3-.48a33.39,33.39,0,0,0,4.55-12.12,26,26,0,0,0-.41-12.41C96.51,47.27,91,42.92,87.91,41l.38-.58a35.59,35.59,0,0,1,7.31,5.88,33.47,33.47,0,0,1,5,6.83,31.08,31.08,0,0,1,3.2,8.76A33.77,33.77,0,0,1,104,72.93a35.38,35.38,0,0,1-4.3,12.36Zm-2.59-9.24a5.39,5.39,0,0,1,1.86.63,5.12,5.12,0,0,1,2.41,3,5.56,5.56,0,0,1,.17.93,34.42,34.42,0,0,0,3.36-10.54A32.66,32.66,0,0,0,103.1,62,30,30,0,0,0,100,53.43a32,32,0,0,0-3.12-4.65,22.3,22.3,0,0,1,2.55,5.48A26.38,26.38,0,0,1,99.84,67,34,34,0,0,1,95.48,78.86Z"/><path class="cls-3" d="M31.92,88.09l-1.6-2.8A35.38,35.38,0,0,1,26,72.93a33.77,33.77,0,0,1,.18-11.06,30.91,30.91,0,0,1,3.2-8.75,33.26,33.26,0,0,1,5-6.84,35.59,35.59,0,0,1,7.31-5.88l.38.58c-3.09,1.94-8.6,6.29-10.83,13.47a26,26,0,0,0-.41,12.41A33.39,33.39,0,0,0,35.4,79l.3.48-.59,0a4.75,4.75,0,0,0-2.1.58,4.46,4.46,0,0,0-2.08,2.56A4.14,4.14,0,0,0,31,85Zm1.22-39.31A32,32,0,0,0,30,53.43,30,30,0,0,0,26.9,62a32.66,32.66,0,0,0-.18,10.83,34.42,34.42,0,0,0,3.36,10.54,5.75,5.75,0,0,1,.17-.93,5.12,5.12,0,0,1,2.41-3,5.39,5.39,0,0,1,1.86-.63A34,34,0,0,1,30.16,67a26.38,26.38,0,0,1,.43-12.7A22.67,22.67,0,0,1,33.14,48.78Z"/><path class="cls-3" d="M41.71,139.6a35.59,35.59,0,0,1-7.31-5.88,33.47,33.47,0,0,1-5-6.83,31.08,31.08,0,0,1-3.2-8.76A33.77,33.77,0,0,1,26,107.07a35.38,35.38,0,0,1,4.3-12.36l1.6-2.79-1,3a4.14,4.14,0,0,0,0,2.4A4.46,4.46,0,0,0,33,99.93a4.75,4.75,0,0,0,2.1.58l.59,0-.3.49a33.39,33.39,0,0,0-4.55,12.12,26,26,0,0,0,.41,12.4C33.49,132.73,39,137.07,42.09,139Zm-11.63-43a34.45,34.45,0,0,0-3.36,10.53A32.73,32.73,0,0,0,26.9,118,30,30,0,0,0,30,126.57a32,32,0,0,0,3.12,4.65,22.67,22.67,0,0,1-2.55-5.48,26.38,26.38,0,0,1-.43-12.7,34,34,0,0,1,4.36-11.9,5.46,5.46,0,0,1-1.86-.63,5.12,5.12,0,0,1-2.41-3A5.75,5.75,0,0,1,30.08,96.63Z"/><path class="cls-3" d="M88.29,139.6l-.38-.58c3.09-2,8.6-6.29,10.83-13.48a26,26,0,0,0,.41-12.4A33.39,33.39,0,0,0,94.6,101l-.3-.49.59,0a4.75,4.75,0,0,0,2.1-.58,4.46,4.46,0,0,0,2.08-2.56A4.14,4.14,0,0,0,99,95l-1-3.07,1.61,2.81a35.38,35.38,0,0,1,4.3,12.36,33.77,33.77,0,0,1-.18,11.06,30.91,30.91,0,0,1-3.2,8.75,33.26,33.26,0,0,1-5,6.84A35.33,35.33,0,0,1,88.29,139.6Zm7.19-38.46A34,34,0,0,1,99.84,113a26.38,26.38,0,0,1-.43,12.7,22.67,22.67,0,0,1-2.55,5.48,32,32,0,0,0,3.12-4.65A30,30,0,0,0,103.1,118a32.73,32.73,0,0,0,.18-10.84,34.45,34.45,0,0,0-3.36-10.53,5.75,5.75,0,0,1-.17.93,5.12,5.12,0,0,1-2.41,3A5.46,5.46,0,0,1,95.48,101.14Z"/><path class="cls-3" d="M100.71,56.56a29.81,29.81,0,0,1,1.7,5.57,32,32,0,0,1,.17,10.61,33.45,33.45,0,0,1-2.5,8.65,5.9,5.9,0,0,0-2.39-2.49,5.76,5.76,0,0,0-1.14-.49,34.44,34.44,0,0,0,4-11.34,29.07,29.07,0,0,0,.17-10.51M88.1,40.69c2.44,1.54,8.56,5.88,11,13.67a26.09,26.09,0,0,1,.41,12.55A33.77,33.77,0,0,1,94.9,79.15a5.16,5.16,0,0,1,2.27.63,4.83,4.83,0,0,1,2.24,2.75,4.55,4.55,0,0,1,0,2.59,35,35,0,0,0,4.26-12.24,32.92,32.92,0,0,0-.18-10.94,30.79,30.79,0,0,0-3.16-8.67,32.91,32.91,0,0,0-5-6.76,34.91,34.91,0,0,0-7.24-5.82Z"/><path class="cls-3" d="M29.29,56.56a29.07,29.07,0,0,0,.17,10.51,34.44,34.44,0,0,0,4,11.34,5.76,5.76,0,0,0-1.14.49,5.85,5.85,0,0,0-2.39,2.49,33.06,33.06,0,0,1-2.5-8.65,32,32,0,0,1,.17-10.61,29.81,29.81,0,0,1,1.7-5.57M41.9,40.69a34.91,34.91,0,0,0-7.24,5.82,32.91,32.91,0,0,0-4.95,6.76,30.79,30.79,0,0,0-3.16,8.67,32.92,32.92,0,0,0-.18,10.94,35,35,0,0,0,4.26,12.24,4.55,4.55,0,0,1,0-2.59,4.83,4.83,0,0,1,2.24-2.75,5.16,5.16,0,0,1,2.27-.63,33.77,33.77,0,0,1-4.59-12.24,26.09,26.09,0,0,1,.41-12.55c2.42-7.79,8.54-12.13,11-13.67Z"/><path class="cls-3" d="M29.92,98.61a5.85,5.85,0,0,0,2.39,2.49,5.76,5.76,0,0,0,1.14.49,34.44,34.44,0,0,0-4,11.34,29.07,29.07,0,0,0-.17,10.51,29.81,29.81,0,0,1-1.7-5.57,32,32,0,0,1-.17-10.61,33.06,33.06,0,0,1,2.5-8.65m.71-3.74a35.16,35.16,0,0,0-4.26,12.25,32.92,32.92,0,0,0,.18,10.94,30.79,30.79,0,0,0,3.16,8.67,33.19,33.19,0,0,0,4.95,6.76,34.91,34.91,0,0,0,7.24,5.82c-2.44-1.54-8.56-5.88-11-13.67a26.09,26.09,0,0,1-.41-12.55,33.7,33.7,0,0,1,4.59-12.24,5.16,5.16,0,0,1-2.27-.63,4.83,4.83,0,0,1-2.24-2.75,4.59,4.59,0,0,1,0-2.6Z"/><path class="cls-3" d="M100.08,98.61a33.45,33.45,0,0,1,2.5,8.65,32,32,0,0,1-.17,10.61,29.81,29.81,0,0,1-1.7,5.57,29.06,29.06,0,0,0-.17-10.51,34.44,34.44,0,0,0-4-11.34,5.76,5.76,0,0,0,1.14-.49,5.85,5.85,0,0,0,2.39-2.49m-.71-3.74a4.59,4.59,0,0,1,0,2.6,4.83,4.83,0,0,1-2.24,2.75,5.16,5.16,0,0,1-2.27.63,33.7,33.7,0,0,1,4.59,12.24,26.09,26.09,0,0,1-.41,12.55c-2.42,7.79-8.54,12.13-11,13.67a34.91,34.91,0,0,0,7.24-5.82,33.19,33.19,0,0,0,5-6.76,30.79,30.79,0,0,0,3.16-8.67,32.92,32.92,0,0,0,.18-10.94,35.16,35.16,0,0,0-4.26-12.25Z"/><path class="cls-3" d="M93.39,69.47l-.58-.38a13.72,13.72,0,0,0,2.43-9.21,14.59,14.59,0,0,0-2.65-6.42,19.15,19.15,0,0,0-5.12-5.23L87,47.89l.53-.25a2.34,2.34,0,0,0,.9-.71,2.17,2.17,0,0,0-.09-2.81L86.2,41.68l2.61,2a20.58,20.58,0,0,1,5.13,5.49,19.06,19.06,0,0,1,2.49,5.79,17.12,17.12,0,0,1,.39,5.25,17.9,17.9,0,0,1-1,4.65A19,19,0,0,1,93.39,69.47ZM88.31,48a20.07,20.07,0,0,1,4.88,5.11,15.4,15.4,0,0,1,2.75,6.71Q96,60.4,96,61c0-.32.07-.6.09-.86a16.78,16.78,0,0,0-.38-5,18.45,18.45,0,0,0-2.4-5.59,20.14,20.14,0,0,0-3.79-4.36.17.17,0,0,1,0,.07A2.88,2.88,0,0,1,89,47.34,3.32,3.32,0,0,1,88.31,48Z"/><path class="cls-3" d="M36.61,69.47a19,19,0,0,1-2.42-4.66,17.9,17.9,0,0,1-1-4.65,17.12,17.12,0,0,1,.39-5.25,19.06,19.06,0,0,1,2.49-5.79,20.58,20.58,0,0,1,5.13-5.49l2.61-2-2.13,2.44a2.17,2.17,0,0,0-.09,2.81,2.34,2.34,0,0,0,.9.71l.53.25-.48.34a19.15,19.15,0,0,0-5.12,5.23,14.59,14.59,0,0,0-2.65,6.42,13.72,13.72,0,0,0,2.43,9.21Zm3.84-24.36a20.14,20.14,0,0,0-3.79,4.36,18.45,18.45,0,0,0-2.4,5.59,16.78,16.78,0,0,0-.38,5c0,.26,0,.54.09.86q0-.57.09-1.17a15.4,15.4,0,0,1,2.75-6.71A20.07,20.07,0,0,1,41.69,48a3.32,3.32,0,0,1-.67-.64,2.88,2.88,0,0,1-.58-2.16A.17.17,0,0,1,40.45,45.11Z"/><path class="cls-3" d="M43.81,138.32l-2.62-1.95a20.73,20.73,0,0,1-5.13-5.49,19.06,19.06,0,0,1-2.49-5.79,17.18,17.18,0,0,1-.39-5.26,17.93,17.93,0,0,1,1-4.64,19,19,0,0,1,2.42-4.66l.58.38a13.72,13.72,0,0,0-2.43,9.21,14.59,14.59,0,0,0,2.65,6.42,19.15,19.15,0,0,0,5.12,5.23l.48.34-.53.25a2.34,2.34,0,0,0-.9.71,2.17,2.17,0,0,0,.09,2.81ZM34,119c0,.32-.07.6-.09.86a16.78,16.78,0,0,0,.38,5,18.45,18.45,0,0,0,2.4,5.59,19.88,19.88,0,0,0,3.79,4.36.17.17,0,0,1,0-.07,2.88,2.88,0,0,1,.58-2.16,3.14,3.14,0,0,1,.67-.64,20.23,20.23,0,0,1-4.88-5.11,15.4,15.4,0,0,1-2.75-6.71Q34,119.6,34,119Z"/><path class="cls-3" d="M86.19,138.32l2.14-2.44a2.17,2.17,0,0,0,.09-2.81,2.34,2.34,0,0,0-.9-.71l-.53-.25.48-.34a19.15,19.15,0,0,0,5.12-5.23,14.59,14.59,0,0,0,2.65-6.42,13.72,13.72,0,0,0-2.43-9.21l.58-.38a19,19,0,0,1,2.42,4.66,17.93,17.93,0,0,1,1,4.64,17.18,17.18,0,0,1-.39,5.26,19.06,19.06,0,0,1-2.49,5.79,20.73,20.73,0,0,1-5.13,5.49Zm2.12-6.3a3.14,3.14,0,0,1,.67.64,2.88,2.88,0,0,1,.58,2.16.17.17,0,0,1,0,.07,19.88,19.88,0,0,0,3.79-4.36,18.45,18.45,0,0,0,2.4-5.59,16.78,16.78,0,0,0,.38-5c0-.26-.05-.54-.09-.86q0,.57-.09,1.17a15.4,15.4,0,0,1-2.75,6.71A20.23,20.23,0,0,1,88.31,132Z"/><path class="cls-3" d="M89.93,45.91A19.51,19.51,0,0,1,93,49.65a18.37,18.37,0,0,1,2.36,5.48,15.08,15.08,0,0,1,.35,2.22,17.33,17.33,0,0,0-2.27-4.44A20.39,20.39,0,0,0,88.87,48a3.16,3.16,0,0,0,.39-.43,3.31,3.31,0,0,0,.67-1.63m-1.34-2a2.48,2.48,0,0,1,.11,3.23,2.81,2.81,0,0,1-1,.82,19.87,19.87,0,0,1,5.21,5.32,15,15,0,0,1,2.7,6.57,14,14,0,0,1-2.49,9.43,18.41,18.41,0,0,0,2.38-4.57,17.64,17.64,0,0,0,1-4.56A17.13,17.13,0,0,0,96.09,55a18.86,18.86,0,0,0-2.45-5.68,20.41,20.41,0,0,0-5-5.4Z"/><path class="cls-3" d="M40.08,45.91a3.22,3.22,0,0,0,.66,1.63,3.16,3.16,0,0,0,.39.43,20.39,20.39,0,0,0-4.61,4.94,17.33,17.33,0,0,0-2.27,4.44,15.08,15.08,0,0,1,.35-2.22A18.37,18.37,0,0,1,37,49.65a19.2,19.2,0,0,1,3.12-3.74m1.33-2a20.41,20.41,0,0,0-5,5.4A18.86,18.86,0,0,0,33.91,55a17.13,17.13,0,0,0-.38,5.16,17.64,17.64,0,0,0,1,4.56,18.41,18.41,0,0,0,2.38,4.57,14,14,0,0,1-2.49-9.43,15,15,0,0,1,2.7-6.57A19.87,19.87,0,0,1,42.32,48a2.81,2.81,0,0,1-1-.82,2.48,2.48,0,0,1,.11-3.23Z"/><path class="cls-3" d="M34.25,122.65a17.33,17.33,0,0,0,2.27,4.44A20.39,20.39,0,0,0,41.13,132a3.16,3.16,0,0,0-.39.43,3.22,3.22,0,0,0-.66,1.63A19.2,19.2,0,0,1,37,130.35a18.37,18.37,0,0,1-2.36-5.48,15.08,15.08,0,0,1-.35-2.22m2.65-11.92a18.41,18.41,0,0,0-2.38,4.57,17.64,17.64,0,0,0-1,4.56,17.13,17.13,0,0,0,.38,5.16,18.86,18.86,0,0,0,2.45,5.68,20.41,20.41,0,0,0,5,5.4,2.48,2.48,0,0,1-.11-3.23,2.81,2.81,0,0,1,1-.82,19.87,19.87,0,0,1-5.21-5.32,15,15,0,0,1-2.7-6.57,14,14,0,0,1,2.49-9.43Z"/><path class="cls-3" d="M95.75,122.65a15.08,15.08,0,0,1-.35,2.22A18.37,18.37,0,0,1,93,130.35a19.2,19.2,0,0,1-3.12,3.74,3.22,3.22,0,0,0-.66-1.63,3.16,3.16,0,0,0-.39-.43,20.39,20.39,0,0,0,4.61-4.94,17.33,17.33,0,0,0,2.27-4.44M93.1,110.73a14,14,0,0,1,2.49,9.43,15,15,0,0,1-2.7,6.57,19.87,19.87,0,0,1-5.21,5.32,2.81,2.81,0,0,1,1,.82,2.48,2.48,0,0,1-.11,3.23,20.41,20.41,0,0,0,5-5.4A18.86,18.86,0,0,0,96.09,125a17.13,17.13,0,0,0,.38-5.16,17.64,17.64,0,0,0-1-4.56,18.41,18.41,0,0,0-2.38-4.57Z"/><path class="cls-3" d="M107.53,148.1a2.82,2.82,0,1,1,2.91-2.81A2.87,2.87,0,0,1,107.53,148.1Zm0-4.95a2.14,2.14,0,1,0,2.21,2.14A2.18,2.18,0,0,0,107.53,143.15Z"/><path class="cls-3" d="M88.86,165.21a2.82,2.82,0,1,1,2.91-2.81A2.87,2.87,0,0,1,88.86,165.21Zm0-5a2.14,2.14,0,1,0,2.21,2.14A2.18,2.18,0,0,0,88.86,160.26Z"/><path class="cls-3" d="M66.51,165.06h-.37v-.68c2.18,0,13.41-.75,19.51-9.41a19.7,19.7,0,0,0,3.42-8.79l0-.19.18-.08a31.27,31.27,0,0,0,9.42-6.09,30.75,30.75,0,0,0,8.88-15.62l.7.09a40.7,40.7,0,0,1-2.9,13.21,41.58,41.58,0,0,1-4.35,8.06,13.22,13.22,0,0,1,4.27,6.65c1.55,5.89-1.91,10.66-2.62,11.55l-1,1.27.39-1.55a9.25,9.25,0,0,0-1.51-7.6A9.85,9.85,0,0,0,95,152.32c-2.16,1.78-4.44,3.5-6.78,5.11a57.6,57.6,0,0,1-7.48,4.6A32.49,32.49,0,0,1,66.51,165.06Zm23.23-18.6a20.3,20.3,0,0,1-3.51,8.9,22.09,22.09,0,0,1-10.7,7.88,28.37,28.37,0,0,0,4.9-1.82,58.12,58.12,0,0,0,7.38-4.54c2.37-1.63,4.68-3.38,6.86-5.19l.14-.11.17,0a10.57,10.57,0,0,1,6.14,3.86,9.69,9.69,0,0,1,1.86,6.61,12.05,12.05,0,0,0-2.64-16.21l-.25-.2.18-.25a40.87,40.87,0,0,0,4.46-8.18,40,40,0,0,0,2.49-9.29,31.12,31.12,0,0,1-8,12.35A32.1,32.1,0,0,1,89.74,146.46Z"/><path class="cls-3" d="M103.58,22a10.68,10.68,0,0,1,0,5.4,11.66,11.66,0,0,1-3.94,6l-1,.79.72,1a39.76,39.76,0,0,1,4.34,8l.12.3A32,32,0,0,0,99.93,39a33.43,33.43,0,0,0-9.23-6.12,21.38,21.38,0,0,0-3.59-8.77l-.26-.36.35.24c2.34,1.61,4.62,3.34,6.79,5.13l.53.44.68-.14A11.64,11.64,0,0,0,102,25.11,10.31,10.31,0,0,0,103.58,22M66.51,15.28h-.37c1.57,0,13.42.5,19.8,9.55a20.29,20.29,0,0,1,3.48,9,31.72,31.72,0,0,1,9.52,6.16,31.24,31.24,0,0,1,9,15.78,40.49,40.49,0,0,0-7.37-21.34A12.92,12.92,0,0,0,105,27.7c1.55-5.9-2-10.61-2.56-11.26a9.66,9.66,0,0,1-1.57,7.88,10.15,10.15,0,0,1-5.93,3.73c-1.65-1.37-4-3.2-6.89-5.21a58.72,58.72,0,0,0-7.42-4.57,31.93,31.93,0,0,0-14.08-3Z"/><path class="cls-3" d="M26.42,22A10.31,10.31,0,0,0,28,25.11a11.64,11.64,0,0,0,6.77,4.27l.68.14.53-.44c2.17-1.79,4.45-3.52,6.79-5.13l.35-.24-.26.36a21.38,21.38,0,0,0-3.59,8.77A33.43,33.43,0,0,0,30.07,39a32,32,0,0,0-3.93,4.46l.12-.3a39.76,39.76,0,0,1,4.34-8l.72-1-1-.79a11.66,11.66,0,0,1-3.94-6,10.68,10.68,0,0,1,0-5.4m37.07-6.69a31.93,31.93,0,0,0-14.08,3A58.72,58.72,0,0,0,42,22.84c-2.91,2-5.24,3.84-6.89,5.21a10.15,10.15,0,0,1-5.93-3.73,9.66,9.66,0,0,1-1.57-7.88c-.51.65-4.11,5.36-2.56,11.26a12.92,12.92,0,0,0,4.4,6.68,40.49,40.49,0,0,0-7.37,21.34,31.24,31.24,0,0,1,9-15.78,31.72,31.72,0,0,1,9.52-6.16,20.29,20.29,0,0,1,3.48-9c6.38-9,18.23-9.51,19.8-9.55Z"/><path class="cls-3" d="M26.14,136.58A32.55,32.55,0,0,0,30.07,141a33.43,33.43,0,0,0,9.23,6.12,21.38,21.38,0,0,0,3.59,8.77l.26.36-.35-.24c-2.34-1.61-4.62-3.34-6.79-5.13l-.53-.44-.68.14A11.64,11.64,0,0,0,28,154.89,10.31,10.31,0,0,0,26.42,158a10.68,10.68,0,0,1,0-5.4,11.66,11.66,0,0,1,3.94-6l1-.79-.72-1a39.76,39.76,0,0,1-4.34-8l-.12-.3m-4.07-12.31a40.58,40.58,0,0,0,7.37,21.35A12.92,12.92,0,0,0,25,152.3c-1.55,5.9,2.05,10.61,2.56,11.25a9.64,9.64,0,0,1,1.57-7.87A10.15,10.15,0,0,1,35.1,152c1.65,1.37,4,3.2,6.89,5.21a57.51,57.51,0,0,0,7.42,4.56,31.76,31.76,0,0,0,14.08,3h.37c-1.57,0-13.42-.5-19.8-9.55a20.29,20.29,0,0,1-3.48-8.95,31.72,31.72,0,0,1-9.52-6.16,31.26,31.26,0,0,1-9-15.79Z"/><path class="cls-3" d="M103.86,136.58l-.12.3a39.76,39.76,0,0,1-4.34,8l-.72,1,1,.79a11.66,11.66,0,0,1,3.94,6,10.68,10.68,0,0,1,0,5.4,10.31,10.31,0,0,0-1.61-3.14,11.64,11.64,0,0,0-6.77-4.27l-.68-.14-.53.44c-2.17,1.79-4.45,3.52-6.79,5.13l-.35.24.26-.36a21.38,21.38,0,0,0,3.59-8.77A33.43,33.43,0,0,0,99.93,141a32.55,32.55,0,0,0,3.93-4.46m4.07-12.31a31.26,31.26,0,0,1-9,15.79,31.72,31.72,0,0,1-9.52,6.16,20.29,20.29,0,0,1-3.48,8.95c-6.38,9.05-18.23,9.51-19.8,9.55h.37a31.76,31.76,0,0,0,14.08-3A57.51,57.51,0,0,0,88,157.16c2.91-2,5.24-3.84,6.89-5.21a10.15,10.15,0,0,1,5.93,3.73,9.64,9.64,0,0,1,1.57,7.87c.51-.64,4.11-5.35,2.56-11.25a12.92,12.92,0,0,0-4.4-6.68,40.58,40.58,0,0,0,7.37-21.35Z"/><path class="cls-3" d="M84.82,140.72a5,5,0,0,1-3.75-1.62,3.94,3.94,0,0,1,.39-5.7,3.5,3.5,0,0,1,4.83.3,2.65,2.65,0,0,1-.26,3.82,2.37,2.37,0,0,1-3.27-.2,1.77,1.77,0,0,1-.47-1.35,1.8,1.8,0,0,1,.65-1.27l.46.51a1.16,1.16,0,0,0-.11,1.66,1.64,1.64,0,0,0,2.27.14,1.92,1.92,0,0,0,.71-1.39,2,2,0,0,0-.51-1.47,2.79,2.79,0,0,0-3.84-.24,3.31,3.31,0,0,0-1.17,2.31,3.27,3.27,0,0,0,.85,2.43,4.7,4.7,0,0,0,6.3.38l.41.55A6.15,6.15,0,0,1,84.82,140.72Z"/><path class="cls-3" d="M69.75,135.71a5.15,5.15,0,0,1-4.17-2,5.73,5.73,0,0,1,.92-7.77,7.5,7.5,0,0,1,8.12-1A6.82,6.82,0,0,1,75.7,117a5.91,5.91,0,0,1,4.23-1.86c2.58,0,4.64,1,5.56,2.94a4.69,4.69,0,0,1-.8,5.22,4,4,0,0,1-2.86,1.25,3.82,3.82,0,0,1-3.72-2,3.16,3.16,0,0,1,.54-3.53,2.81,2.81,0,0,1,1.93-.9,2.88,2.88,0,0,1,2,.68l-.7.76a1.75,1.75,0,0,0-1.27-.42,1.72,1.72,0,0,0-1.2.56,2.17,2.17,0,0,0-.37,2.42,2.74,2.74,0,0,0,2.73,1.41,2.91,2.91,0,0,0,2.1-.91,3.68,3.68,0,0,0,.63-4.11c-.74-1.55-2.44-2.39-4.58-2.35a4.83,4.83,0,0,0-3.46,1.52c-2.14,2.31-2.11,5.62.07,8.24a.54.54,0,0,1,0,.75.58.58,0,0,1-.77,0c-2.76-2.08-6.19-2.11-8.54-.08a4.73,4.73,0,0,0-.76,6.42,4.12,4.12,0,0,0,3.85,1.58,3.32,3.32,0,0,0,2.85-2,2.87,2.87,0,0,0-.58-3,2.22,2.22,0,0,0-1.63-.69,2.15,2.15,0,0,0-2.06,1.07,1.63,1.63,0,0,0,.28,1.82l-.79.68a2.65,2.65,0,0,1-.45-2.92,3.12,3.12,0,0,1,3-1.67h0a3.33,3.33,0,0,1,2.41,1,3.83,3.83,0,0,1,.78,4,4.33,4.33,0,0,1-3.7,2.65A5.32,5.32,0,0,1,69.75,135.71Z"/><path class="cls-3" d="M87.15,113.82,86.1,113a9.59,9.59,0,0,0-5.75-1.93h0a9.71,9.71,0,0,0-5.57,1.82l-.3.22-.2-.31a4.53,4.53,0,0,1-.6-1.28,4.92,4.92,0,0,1-.08-2.5l0-.15.14-.07a9.74,9.74,0,0,1,9.69,0,8.23,8.23,0,0,1,3.23,3.84Zm-12.94-4.47a4.26,4.26,0,0,0,.09,2,5,5,0,0,0,.33.79,10.48,10.48,0,0,1,5.67-1.73h0a10.31,10.31,0,0,1,5.05,1.33A7.36,7.36,0,0,0,83,109.36,9,9,0,0,0,74.21,109.35Z"/><path class="cls-3" d="M74.78,68.35a10.86,10.86,0,0,0,5.52,1.57h0a10.47,10.47,0,0,0,3.92-.76,6.88,6.88,0,0,1-1.43,1.2,7.65,7.65,0,0,1-4,1.1,9.72,9.72,0,0,1-4.27-1,3.88,3.88,0,0,1,.11-1.7c0-.13.09-.26.14-.38m11.54-1.11a10,10,0,0,1-6,2h0a10.07,10.07,0,0,1-5.78-1.89A4.58,4.58,0,0,0,74,68.54a4.72,4.72,0,0,0-.08,2.34,10.61,10.61,0,0,0,4.91,1.26,8.37,8.37,0,0,0,4.42-1.21,8.06,8.06,0,0,0,3.1-3.69Z"/><path class="cls-3" d="M55.22,68.35c.05.12.1.25.14.38a3.88,3.88,0,0,1,.11,1.7,9.72,9.72,0,0,1-4.27,1,7.65,7.65,0,0,1-4-1.1,6.88,6.88,0,0,1-1.43-1.2,10.47,10.47,0,0,0,3.92.76h.05a10.86,10.86,0,0,0,5.52-1.57M43.68,67.24a8.13,8.13,0,0,0,3.1,3.69,8.37,8.37,0,0,0,4.42,1.21,10.61,10.61,0,0,0,4.91-1.26A4.72,4.72,0,0,0,56,68.54a4.58,4.58,0,0,0-.55-1.19,10.07,10.07,0,0,1-5.78,1.89h-.05a10,10,0,0,1-6-2Z"/><path class="cls-3" d="M51.2,108.54h0a9.59,9.59,0,0,1,4.27,1,3.89,3.89,0,0,1-.11,1.7c0,.13-.09.26-.14.38a10.86,10.86,0,0,0-5.52-1.57h-.05a10.68,10.68,0,0,0-3.92.75,7.17,7.17,0,0,1,1.43-1.19,7.65,7.65,0,0,1,4-1.1m0-.68a8.37,8.37,0,0,0-4.42,1.21,8.08,8.08,0,0,0-3.1,3.69,10,10,0,0,1,6-2h.05a10.07,10.07,0,0,1,5.78,1.89,4.58,4.58,0,0,0,.55-1.19,4.72,4.72,0,0,0,.08-2.34,10.61,10.61,0,0,0-4.91-1.26Z"/><path class="cls-3" d="M78.8,108.54a7.65,7.65,0,0,1,4,1.1,7.17,7.17,0,0,1,1.43,1.19,10.68,10.68,0,0,0-3.92-.75h0a10.86,10.86,0,0,0-5.52,1.57c0-.12-.1-.25-.14-.38a3.89,3.89,0,0,1-.11-1.7,9.59,9.59,0,0,1,4.27-1m0-.68a10.61,10.61,0,0,0-4.91,1.26,4.72,4.72,0,0,0,.08,2.34,4.58,4.58,0,0,0,.55,1.19,10.07,10.07,0,0,1,5.78-1.89h0a10,10,0,0,1,6,2,8,8,0,0,0-3.1-3.69,8.37,8.37,0,0,0-4.42-1.21Z"/><path class="cls-3" d="M76.5,146.76a12.12,12.12,0,0,1-9.58-5.38l-.48-.67.83.14a10.8,10.8,0,0,0,6.11-.71,10.54,10.54,0,0,0,3.82-2.85l.5-.6.12.76a7,7,0,0,0,1.7,3.56,7.46,7.46,0,0,0,3.65,2.19l.57.15-.41.41a9.68,9.68,0,0,1-5,2.81A8.9,8.9,0,0,1,76.5,146.76ZM68,141.63c2.71,3.35,6.65,5,10.23,4.28a8.94,8.94,0,0,0,4.21-2.22A8.12,8.12,0,0,1,79,141.46a7.64,7.64,0,0,1-1.72-3.21,11.22,11.22,0,0,1-3.61,2.51A11.49,11.49,0,0,1,68,141.63Z"/><path class="cls-3" d="M85.83,85.15l-.2-.48a17.4,17.4,0,0,0-3.08-4.93,18.56,18.56,0,0,0-7.39-5h0l.26-.63h0a11.16,11.16,0,0,0,9.37-.76,9.92,9.92,0,0,0,4-4.86l.31-.79.35.77A14.08,14.08,0,0,1,86.2,84.79ZM78.24,75.4a18.78,18.78,0,0,1,4.84,3.9,18,18,0,0,1,3,4.65,13.72,13.72,0,0,0,3.4-5.66,13.53,13.53,0,0,0-.38-8.81,10.48,10.48,0,0,1-3.94,4.42A11,11,0,0,1,78.24,75.4Z"/><path class="cls-3" d="M44.17,85.15l-.37-.36a14.08,14.08,0,0,1-3.23-16.34l.35-.77.31.79a9.92,9.92,0,0,0,4,4.86,11.16,11.16,0,0,0,9.37.76h0l.26.63h0a18.56,18.56,0,0,0-7.39,5,17.4,17.4,0,0,0-3.08,4.93ZM40.9,69.48a13.53,13.53,0,0,0-.38,8.81A13.72,13.72,0,0,0,43.92,84a18,18,0,0,1,3-4.65,18.78,18.78,0,0,1,4.84-3.9,11,11,0,0,1-6.92-1.5A10.48,10.48,0,0,1,40.9,69.48Z"/><path class="cls-3" d="M40.92,112.32l-.35-.77A14.08,14.08,0,0,1,43.8,95.21l.37-.36.2.48a17.4,17.4,0,0,0,3.08,4.93,18.6,18.6,0,0,0,7.39,5h0l-.26.64h0a11.16,11.16,0,0,0-9.37.76,9.92,9.92,0,0,0-4,4.86Zm3-16.27a13.4,13.4,0,0,0-3,14.47,10.48,10.48,0,0,1,3.94-4.42,11,11,0,0,1,6.92-1.51,18.54,18.54,0,0,1-4.84-3.89A18,18,0,0,1,43.92,96.05Z"/><path class="cls-3" d="M89.08,112.32l-.31-.79a9.92,9.92,0,0,0-4-4.86,11.16,11.16,0,0,0-9.37-.76h0l-.26-.64h0a18.6,18.6,0,0,0,7.39-5,17.4,17.4,0,0,0,3.08-4.93l.2-.48.37.36a14.08,14.08,0,0,1,3.23,16.34Zm-9.61-7.79a10.67,10.67,0,0,1,5.69,1.57,10.48,10.48,0,0,1,3.94,4.42,13.4,13.4,0,0,0-3-14.47,18,18,0,0,1-3,4.65,18.54,18.54,0,0,1-4.84,3.89C78.63,104.56,79,104.53,79.47,104.53Z"/><path class="cls-3" d="M89,70.35a13.16,13.16,0,0,1,.11,7.85,13.43,13.43,0,0,1-3,5.14,18.43,18.43,0,0,0-2.83-4.27,19.24,19.24,0,0,0-3.8-3.27A10.74,10.74,0,0,0,89,70.35m.06-1.76a10.17,10.17,0,0,1-4.13,5,10.43,10.43,0,0,1-5.5,1.5,12.56,12.56,0,0,1-4.19-.72,18.89,18.89,0,0,1,7.53,5.12,17.63,17.63,0,0,1,3.15,5,13.75,13.75,0,0,0,3.14-16ZM75.27,74.4h0Z"/><path class="cls-3" d="M41,70.35a10.74,10.74,0,0,0,9.49,5.45,19.24,19.24,0,0,0-3.8,3.27,18.43,18.43,0,0,0-2.83,4.27,13.43,13.43,0,0,1-3-5.14A13.16,13.16,0,0,1,41,70.35m-.06-1.76a13.75,13.75,0,0,0,3.14,16,17.79,17.79,0,0,1,3.14-5,19,19,0,0,1,7.54-5.12,12.62,12.62,0,0,1-4.19.72,10.43,10.43,0,0,1-5.5-1.5,10.17,10.17,0,0,1-4.13-5ZM54.73,74.4h0Z"/><path class="cls-3" d="M43.82,96.66a18.16,18.16,0,0,0,2.83,4.26,19,19,0,0,0,3.8,3.28,10.93,10.93,0,0,0-5.8,1.61A10.77,10.77,0,0,0,41,109.65a13.16,13.16,0,0,1-.11-7.85,13.35,13.35,0,0,1,3-5.14M44,95.45a13.75,13.75,0,0,0-3.14,16,10.17,10.17,0,0,1,4.13-5,10.34,10.34,0,0,1,5.5-1.5,12.62,12.62,0,0,1,4.19.72,19,19,0,0,1-7.54-5.12,17.79,17.79,0,0,1-3.14-5ZM54.72,105.6h0Z"/><path class="cls-3" d="M86.18,96.66a13.35,13.35,0,0,1,3,5.14,13.16,13.16,0,0,1-.11,7.85,10.77,10.77,0,0,0-3.69-3.84,10.93,10.93,0,0,0-5.8-1.61,19,19,0,0,0,3.8-3.28,18.16,18.16,0,0,0,2.83-4.26M86,95.45a17.63,17.63,0,0,1-3.15,5,18.89,18.89,0,0,1-7.53,5.12,12.56,12.56,0,0,1,4.19-.72,10.34,10.34,0,0,1,5.5,1.5,10.17,10.17,0,0,1,4.13,5,13.75,13.75,0,0,0-3.14-16ZM75.28,105.6h0Z"/><path class="cls-3" d="M76.52,145.19a9.65,9.65,0,0,1-5.78-2.13l-.64-.49.81-.12a12.07,12.07,0,0,0,5.6-2.32l.34-.26.2.38A8.42,8.42,0,0,0,78.29,142a8.54,8.54,0,0,0,1.9,1.59l.49.3-.5.28A7.39,7.39,0,0,1,78,145,6.82,6.82,0,0,1,76.52,145.19Zm-4.7-2.2a8.2,8.2,0,0,0,6.05,1.38,6.12,6.12,0,0,0,1.46-.49,8.68,8.68,0,0,1-1.57-1.39,9.24,9.24,0,0,1-1.15-1.58,11.89,11.89,0,0,1-2.28,1.28A13.09,13.09,0,0,1,71.82,143Z"/></g></g></svg>