<svg xmlns="http://www.w3.org/2000/svg" viewBox="0 0 130 180"><defs><style>.cls-1{fill:#fff;}</style></defs><g id="Layer_2" data-name="Layer 2"><g id="Ñëîé_1" data-name="Ñëîé 1"><rect class="cls-1" width="130" height="180" rx="10.03"/><path d="M25.86,85c-4,0-7.17-.87-9.43-2.58a8.48,8.48,0,0,1-3.81-6.92,6.4,6.4,0,0,1,2.15-5.12,6.73,6.73,0,0,1,4.39-1.65,6.19,6.19,0,0,1,4.69,2.11,6.92,6.92,0,0,1,1.68,4.66A7.51,7.51,0,0,1,25.37,77h0a8.21,8.21,0,0,0,1.85.17,6.76,6.76,0,0,0,5.16-2c.74-.78,2-2.95,2-8.82V18.08H23.15V10.6H56.42v7.48H45.55l-.33,48.21c0,5.74-1.91,10.36-5.66,13.72A19.91,19.91,0,0,1,25.86,85Z"/><path class="cls-1" d="M55.19,11.82v5H44.34L44,66.28c0,5.39-1.78,9.71-5.26,12.83a18.74,18.74,0,0,1-12.88,4.62c-3.71,0-6.65-.79-8.7-2.34a7.27,7.27,0,0,1-3.32-5.94,5.24,5.24,0,0,1,1.71-4.2,5.59,5.59,0,0,1,3.61-1.35,4.91,4.91,0,0,1,3.76,1.69,6.11,6.11,0,0,1,1.25,5.12L23.9,77.9l1.19.26a9.64,9.64,0,0,0,2.13.2,7.93,7.93,0,0,0,6-2.42c1.06-1.12,2.31-3.7,2.31-9.66V16.86H24.36v-5H55.19m2.44-2.44H21.92v9.91H33.13v47c0,5.8-1.26,7.58-1.64,8a5.55,5.55,0,0,1-4.27,1.65h-.49c0-.15,0-.31,0-.46a8.24,8.24,0,0,0-2-5.45,7.34,7.34,0,0,0-5.61-2.54A8,8,0,0,0,14,69.4a7.6,7.6,0,0,0-2.57,6,9.84,9.84,0,0,0,4.3,7.9c2.48,1.87,5.9,2.82,10.16,2.82a21.12,21.12,0,0,0,14.51-5.24c4-3.61,6.07-8.54,6.07-14.65l.32-47H57.63V9.38Z"/><path d="M25.22,166.61v-3.22h1.1a7.61,7.61,0,0,0,7.56-6.83A12.51,12.51,0,0,1,17.17,138l18.35-18.35L53.88,138a12.52,12.52,0,0,1-16.73,18.57,7.62,7.62,0,0,0,7.57,6.83h1.1v3.22Z"/><path class="cls-1" d="M35.52,121.19,53.1,138.77A11.41,11.41,0,0,1,37,154.9L36,154v1.83a8.7,8.7,0,0,0,8.7,8.71v1H26.32v-1a8.7,8.7,0,0,0,8.7-8.71V154l-.94.94A11.41,11.41,0,0,1,18,138.77l17.57-17.58m0-3.11L34,119.63,16.39,137.21A13.62,13.62,0,0,0,31.9,159.12a6.49,6.49,0,0,1-5.58,3.17h-2.2v5.42H46.93v-5.42H44.72a6.5,6.5,0,0,1-5.59-3.18,13.62,13.62,0,0,0,15.52-21.9L37.08,119.63l-1.56-1.55Z"/><path d="M77.38,127v-4h1.39a9.6,9.6,0,0,0,9.53-8.61A15.77,15.77,0,0,1,67.23,91L90.37,67.83,113.51,91a15.78,15.78,0,0,1-21.09,23.41A9.61,9.61,0,0,0,102,123h1.39v4Z"/><path class="cls-1" d="M90.37,69.79l22.15,22.15a14.38,14.38,0,0,1-20.34,20.34L91,111.08v2.31a11,11,0,0,0,11,11v1.27H78.77v-1.27a11,11,0,0,0,11-11v-2.3l-1.19,1.19A14.38,14.38,0,1,1,68.22,91.94L90.37,69.79m0-3.93-2,2L66.25,90a17.17,17.17,0,0,0,19.56,27.61,8.19,8.19,0,0,1-7,4H76v6.82h28.75v-6.82H102a8.2,8.2,0,0,1-7-4A17.16,17.16,0,0,0,114.48,90L92.33,67.82l-2-2Z"/></g></g></svg>