<svg xmlns="http://www.w3.org/2000/svg" viewBox="0 0 130 180"><defs><style>.cls-1{fill:#fff;}.cls-2{fill:#b4171e;}</style></defs><g id="Layer_2" data-name="Layer 2"><g id="Ñëîé_1" data-name="Ñëîé 1"><rect class="cls-1" width="130" height="180" rx="10.03"/><path class="cls-2" d="M25.86,85c-4,0-7.17-.87-9.43-2.58a8.48,8.48,0,0,1-3.81-6.92,6.4,6.4,0,0,1,2.15-5.12,6.73,6.73,0,0,1,4.39-1.65,6.19,6.19,0,0,1,4.69,2.11,6.92,6.92,0,0,1,1.68,4.66A7.51,7.51,0,0,1,25.37,77h0a8.21,8.21,0,0,0,1.85.17,6.76,6.76,0,0,0,5.16-2c.74-.78,2-2.95,2-8.82V18.08H23.15V10.6H56.42v7.48H45.55l-.33,48.21c0,5.74-1.91,10.36-5.66,13.72A19.91,19.91,0,0,1,25.86,85Z"/><path class="cls-1" d="M55.19,11.82v5H44.34L44,66.28c0,5.39-1.78,9.71-5.26,12.83a18.74,18.74,0,0,1-12.88,4.62c-3.71,0-6.65-.79-8.7-2.34a7.27,7.27,0,0,1-3.32-5.94,5.24,5.24,0,0,1,1.71-4.2,5.59,5.59,0,0,1,3.61-1.35,4.91,4.91,0,0,1,3.76,1.69,6.11,6.11,0,0,1,1.25,5.12L23.9,77.9l1.19.26a9.64,9.64,0,0,0,2.13.2,7.93,7.93,0,0,0,6-2.42c1.06-1.12,2.31-3.7,2.31-9.66V16.86H24.36v-5H55.19m2.44-2.44H21.92v9.91H33.13v47c0,5.8-1.26,7.58-1.64,8a5.55,5.55,0,0,1-4.27,1.65h-.49c0-.15,0-.31,0-.46a8.24,8.24,0,0,0-2-5.45,7.34,7.34,0,0,0-5.61-2.54A8,8,0,0,0,14,69.4a7.6,7.6,0,0,0-2.57,6,9.84,9.84,0,0,0,4.3,7.9c2.48,1.87,5.9,2.82,10.16,2.82a21.12,21.12,0,0,0,14.51-5.24c4-3.61,6.07-8.54,6.07-14.65l.32-47H57.63V9.38Z"/><path class="cls-2" d="M18.83,144.41A14.82,14.82,0,0,1,29.32,119.1a14.68,14.68,0,0,1,10.48,4.34l.79.78.77-.79a14.83,14.83,0,0,1,21,21L40.59,166.15Z"/><path class="cls-1" d="M51.85,120.4a13.52,13.52,0,0,1,9.56,23.08L40.59,164.31,19.76,143.48a13.52,13.52,0,1,1,19.12-19.12l1.71,1.7,1.7-1.7a13.48,13.48,0,0,1,9.56-4m0-2.61a16,16,0,0,0-11.26,4.58,16.14,16.14,0,0,0-22.68,23l20.83,20.82L40.59,168l1.84-1.85,20.83-20.82a16.13,16.13,0,0,0-11.41-27.54Z"/><path class="cls-2" d="M65.11,102.13a17.22,17.22,0,0,1,12.18-29.4,17.06,17.06,0,0,1,12.17,5l.91.9.9-.91a17.22,17.22,0,0,1,24.36,24.35L90.37,127.38Z"/><path class="cls-1" d="M103.45,74.25a15.7,15.7,0,0,1,11.1,26.8L90.37,125.23,66.19,101.05a15.7,15.7,0,1,1,22.2-22.2l2,2,2-2a15.63,15.63,0,0,1,11.1-4.6m0-3a18.6,18.6,0,0,0-13.08,5.33A18.73,18.73,0,0,0,64,103.19l24.19,24.19,2.14,2.14,2.14-2.14,24.19-24.19a18.74,18.74,0,0,0-13.25-32Z"/></g></g></svg>