<svg xmlns="http://www.w3.org/2000/svg" viewBox="0 0 130 180"><defs><style>.cls-1{fill:#fff;}</style></defs><g id="Layer_2" data-name="Layer 2"><g id="Ñëîé_1" data-name="Ñëîé 1"><rect class="cls-1" width="130" height="180" rx="10.03"/><path d="M25.86,85c-4,0-7.17-.87-9.43-2.58a8.48,8.48,0,0,1-3.81-6.92,6.4,6.4,0,0,1,2.15-5.12,6.73,6.73,0,0,1,4.39-1.65,6.19,6.19,0,0,1,4.69,2.11,6.92,6.92,0,0,1,1.68,4.66A7.51,7.51,0,0,1,25.37,77h0a8.21,8.21,0,0,0,1.85.17,6.76,6.76,0,0,0,5.16-2c.74-.78,2-2.95,2-8.82V18.08H23.15V10.6H56.42v7.48H45.55l-.33,48.21c0,5.74-1.91,10.36-5.66,13.72A19.91,19.91,0,0,1,25.86,85Z"/><path class="cls-1" d="M55.19,11.82v5H44.34L44,66.28c0,5.39-1.78,9.71-5.26,12.83a18.74,18.74,0,0,1-12.88,4.62c-3.71,0-6.65-.79-8.7-2.34a7.27,7.27,0,0,1-3.32-5.94,5.24,5.24,0,0,1,1.71-4.2,5.59,5.59,0,0,1,3.61-1.35,4.91,4.91,0,0,1,3.76,1.69,6.11,6.11,0,0,1,1.25,5.12L23.9,77.9l1.19.26a9.64,9.64,0,0,0,2.13.2,7.93,7.93,0,0,0,6-2.42c1.06-1.12,2.31-3.7,2.31-9.66V16.86H24.36v-5H55.19m2.44-2.44H21.92v9.91H33.13v47c0,5.8-1.26,7.58-1.64,8a5.55,5.55,0,0,1-4.27,1.65h-.49c0-.15,0-.31,0-.46a8.24,8.24,0,0,0-2-5.45,7.34,7.34,0,0,0-5.61-2.54A8,8,0,0,0,14,69.4a7.6,7.6,0,0,0-2.57,6,9.84,9.84,0,0,0,4.3,7.9c2.48,1.87,5.9,2.82,10.16,2.82a21.12,21.12,0,0,0,14.51-5.24c4-3.61,6.07-8.54,6.07-14.65l.32-47H57.63V9.38Z"/><path d="M27.47,168.06v-3.67h1.28a8.47,8.47,0,0,0,8.45-8.47v-1.41a5.74,5.74,0,0,0-.5.36,12.57,12.57,0,0,1-10.33,5.31,12.82,12.82,0,1,1,0-25.63,11.61,11.61,0,0,1,1.17.06A12.62,12.62,0,0,1,26.22,129a12.82,12.82,0,1,1,25.63,0,12.62,12.62,0,0,1-1.32,5.59,11.66,11.66,0,0,1,1.18-.06,12.82,12.82,0,1,1-10.54,20.09,2.13,2.13,0,0,0-.31-.18v1.46a8.48,8.48,0,0,0,8.47,8.47H50.6v3.67Z"/><path class="cls-1" d="M39,117.48a11.48,11.48,0,0,1,8.66,19.1,11.34,11.34,0,0,1,4-.76,11.54,11.54,0,1,1-9.49,18.09,4.9,4.9,0,0,0-2.62-1.13v3.14a9.73,9.73,0,0,0,9.73,9.74v1.13H28.74v-1.13a9.74,9.74,0,0,0,9.74-9.74v-3.14a4.87,4.87,0,0,0-2.62,1.13,11.54,11.54,0,1,1-9.49-18.09,11.39,11.39,0,0,1,4,.76A11.48,11.48,0,0,1,39,117.48m0-2.55A14.1,14.1,0,0,0,24.94,129a13.73,13.73,0,0,0,.69,4.27,14.09,14.09,0,1,0,10,24.68,7.19,7.19,0,0,1-6.89,5.14H26.19v6.23H51.87v-6.23H49.32A7.21,7.21,0,0,1,42.43,158a14.09,14.09,0,1,0,10-24.67,13.73,13.73,0,0,0,.69-4.27A14.11,14.11,0,0,0,39,114.93Z"/><path d="M77,126.55v-4.24H78.5a9.76,9.76,0,0,0,9.75-9.76v-1.63a4.75,4.75,0,0,0-.58.42,14.51,14.51,0,0,1-11.92,6.12,14.79,14.79,0,1,1,0-29.57,12.52,12.52,0,0,1,1.36.07,14.51,14.51,0,0,1-1.53-6.46,14.79,14.79,0,0,1,29.57,0A14.63,14.63,0,0,1,103.63,88a12.39,12.39,0,0,1,1.36-.07,14.79,14.79,0,1,1-12.16,23.18l-.36-.2v1.68a9.77,9.77,0,0,0,9.77,9.76h1.47v4.24Z"/><path class="cls-1" d="M90.36,68.19a13.25,13.25,0,0,1,10,22,13.18,13.18,0,0,1,4.63-.87,13.32,13.32,0,1,1-11,20.87,5.55,5.55,0,0,0-3-1.3v3.62a11.23,11.23,0,0,0,11.24,11.23v1.3H78.49v-1.3a11.22,11.22,0,0,0,11.23-11.23v-3.62a5.62,5.62,0,0,0-3,1.3,13.37,13.37,0,1,1-6.32-20,13.25,13.25,0,0,1,10-22m0-2.94A16.27,16.27,0,0,0,74.11,81.51a15.85,15.85,0,0,0,.79,4.93,16.26,16.26,0,1,0,11.54,28.47,8.31,8.31,0,0,1-8,5.93H75.55V128h29.63v-7.19h-2.94a8.32,8.32,0,0,1-8-5.94,16.25,16.25,0,1,0,11.56-28.46A16.19,16.19,0,0,0,90.36,65.25Z"/></g></g></svg>