<svg xmlns="http://www.w3.org/2000/svg" viewBox="0 0 130 180"><defs><style>.cls-1{fill:#fff;}.cls-2{fill:#b4171e;}</style></defs><g id="Layer_2" data-name="Layer 2"><g id="Ñëîé_1" data-name="Ñëîé 1"><rect class="cls-1" width="130" height="180" rx="10.03"/><path class="cls-2" d="M25.86,85c-4,0-7.17-.87-9.43-2.58a8.48,8.48,0,0,1-3.81-6.92,6.4,6.4,0,0,1,2.15-5.12,6.73,6.73,0,0,1,4.39-1.65,6.19,6.19,0,0,1,4.69,2.11,6.92,6.92,0,0,1,1.68,4.66A7.51,7.51,0,0,1,25.37,77h0a8.21,8.21,0,0,0,1.85.17,6.76,6.76,0,0,0,5.16-2c.74-.78,2-2.95,2-8.82V18.08H23.15V10.6H56.42v7.48H45.55l-.33,48.21c0,5.74-1.91,10.36-5.66,13.72A19.91,19.91,0,0,1,25.86,85Z"/><path class="cls-1" d="M55.19,11.82v5H44.34L44,66.28c0,5.39-1.78,9.71-5.26,12.83a18.74,18.74,0,0,1-12.88,4.62c-3.71,0-6.65-.79-8.7-2.34a7.27,7.27,0,0,1-3.32-5.94,5.24,5.24,0,0,1,1.71-4.2,5.59,5.59,0,0,1,3.61-1.35,4.91,4.91,0,0,1,3.76,1.69,6.11,6.11,0,0,1,1.25,5.12L23.9,77.9l1.19.26a9.64,9.64,0,0,0,2.13.2,7.93,7.93,0,0,0,6-2.42c1.06-1.12,2.31-3.7,2.31-9.66V16.86H24.36v-5H55.19m2.44-2.44H21.92v9.91H33.13v47c0,5.8-1.26,7.58-1.64,8a5.55,5.55,0,0,1-4.27,1.65h-.49c0-.15,0-.31,0-.46a8.24,8.24,0,0,0-2-5.45,7.34,7.34,0,0,0-5.61-2.54A8,8,0,0,0,14,69.4a7.6,7.6,0,0,0-2.57,6,9.84,9.84,0,0,0,4.3,7.9c2.48,1.87,5.9,2.82,10.16,2.82a21.12,21.12,0,0,0,14.51-5.24c4-3.61,6.07-8.54,6.07-14.65l.32-47H57.63V9.38Z"/><path class="cls-2" d="M35.2,170a68.68,68.68,0,0,0-11.72-14.89,78.5,78.5,0,0,0-12.63-9.92l-1.75-1.1,1.75-1.1a78.88,78.88,0,0,0,12.63-9.9A69.16,69.16,0,0,0,35.2,118.16l1.13-2,1.13,2a69.16,69.16,0,0,0,11.72,14.89A78.43,78.43,0,0,0,61.81,143l1.75,1.1-1.75,1.1a78.06,78.06,0,0,0-12.63,9.92A68.68,68.68,0,0,0,37.46,170l-1.13,1.95Z"/><path class="cls-1" d="M36.33,118.81A70.67,70.67,0,0,0,48.27,134a80,80,0,0,0,12.84,10.07,79.4,79.4,0,0,0-12.84,10.07A70.41,70.41,0,0,0,36.33,169.3a70.41,70.41,0,0,0-11.94-15.17,79,79,0,0,0-12.85-10.07A79.56,79.56,0,0,0,24.39,134a70.67,70.67,0,0,0,11.94-15.18m0-5.19-2.26,3.88a68.23,68.23,0,0,1-11.5,14.61,77.05,77.05,0,0,1-12.42,9.74l-3.49,2.21,3.49,2.2A77.62,77.62,0,0,1,22.57,156a68.23,68.23,0,0,1,11.5,14.61l2.26,3.88,2.25-3.88A68,68,0,0,1,50.09,156a77.62,77.62,0,0,1,12.42-9.74l3.49-2.2-3.49-2.21a76.19,76.19,0,0,1-12.42-9.74A68,68,0,0,1,38.58,117.5l-2.25-3.88Z"/><path class="cls-2" d="M89,134.44a84.11,84.11,0,0,0-14.34-18.23,95.6,95.6,0,0,0-15.46-12.14L57,102.72l2.15-1.34A96.26,96.26,0,0,0,74.64,89.25,84.3,84.3,0,0,0,89,71l1.39-2.39L91.75,71A84.66,84.66,0,0,0,106.1,89.25a96.18,96.18,0,0,0,15.45,12.13l2.15,1.34-2.15,1.35a95.09,95.09,0,0,0-15.45,12.14,84.47,84.47,0,0,0-14.35,18.23l-1.38,2.38Z"/><path class="cls-1" d="M90.37,71.83A86.35,86.35,0,0,0,105,90.4a96.69,96.69,0,0,0,15.73,12.33A97.69,97.69,0,0,0,105,115.05a86.38,86.38,0,0,0-14.61,18.58,86.79,86.79,0,0,0-14.62-18.58A97.69,97.69,0,0,0,60,102.73,96.69,96.69,0,0,0,75.75,90.4,86.77,86.77,0,0,0,90.37,71.83m0-6.36L87.6,70.22A83.33,83.33,0,0,1,73.52,88.11,93.77,93.77,0,0,1,58.32,100L54,102.73l4.28,2.7a94.21,94.21,0,0,1,15.2,11.92A82.84,82.84,0,0,1,87.6,135.24L90.37,140l2.76-4.75a82.84,82.84,0,0,1,14.08-17.89,94.29,94.29,0,0,1,15.21-11.92l4.27-2.7-4.28-2.7a94.21,94.21,0,0,1-15.2-11.92A83.08,83.08,0,0,1,93.13,70.22l-2.76-4.75Z"/></g></g></svg>