<svg xmlns="http://www.w3.org/2000/svg" viewBox="0 0 130 180"><defs><style>.cls-1{fill:#fff;}</style></defs><g id="Layer_2" data-name="Layer 2"><g id="Ñëîé_1" data-name="Ñëîé 1"><rect class="cls-1" width="130" height="180" rx="10.03"/><path d="M40.61,90.24V80.89h3.45c-.13-.34-10.83-27.15-10.83-27.15L30.67,58l.17,22.86h5.42v9.35H13.87V80.89l5.82,0-.41-60.8H13.87V10.69H36.26v9.36h-5L31,39.88,42.65,20.51l.22-.46H38.44V10.69H59.75v9.36H56.87a4.2,4.2,0,0,0-2.83.79A12.2,12.2,0,0,0,51.09,24L40.69,40.85,55.52,78.2a5.82,5.82,0,0,0,1.4,2.26l1,.62,2.7-.18,1.33,0v9.36Z"/><path class="cls-1" d="M58.45,12v6.74H56.87a5.53,5.53,0,0,0-3.59,1A14,14,0,0,0,50,23.24L39.23,40.72l15.08,38a7.22,7.22,0,0,0,1.76,2.78,5.72,5.72,0,0,0,1,.67l.28.12,3.29,0v6.73H41.92V82.19h4l-.66-1.76a14.1,14.1,0,0,0-.55-1.3L33.46,50.8l-3.92,6.56V82.19H35v6.75H15.17V82.19h3.76a4.35,4.35,0,0,0,.94-.09H21l-.43-63.19-1.13-.14a3.74,3.74,0,0,0-.52,0H15.17V12H35v6.74h-5l-.31,25.93L43.77,21.19,45,18.74H39.74V12H58.45m2.61-2.62H12.56v12H18l.39,58.21-3.21,0H12.56v12h25v-12H32.16V58.08l.83-1.4,9.11,22.9H39.31v12H63.23v-12l-2.64,0-2.61,0-.25-.19h0a5.54,5.54,0,0,1-1-1.78L42.14,41,52.25,24.61a11.24,11.24,0,0,1,2.51-2.69,3,3,0,0,1,2.11-.57h4.19v-12Zm-23.93,12h3.5L32.33,35.1l.17-13.75h4.63Z"/><path d="M25.32,166.61v-3.22h1.11A7.61,7.61,0,0,0,34,156.56,12.51,12.51,0,0,1,17.28,138l18.35-18.35L54,138a12.51,12.51,0,0,1-16.71,18.57,7.61,7.61,0,0,0,7.56,6.83h1.11v3.22Z"/><path class="cls-1" d="M35.63,121.19l17.58,17.58A11.41,11.41,0,0,1,37.07,154.9l-1-.94v1.83a8.71,8.71,0,0,0,8.71,8.71v1H26.43v-1a8.7,8.7,0,0,0,8.7-8.71V154l-.94.94a11.41,11.41,0,0,1-16.13-16.13l17.57-17.58m0-3.11-1.56,1.55L16.5,137.21A13.62,13.62,0,0,0,32,159.12a6.49,6.49,0,0,1-5.58,3.17h-2.2v5.42H47v-5.42H44.83a6.5,6.5,0,0,1-5.59-3.18,13.62,13.62,0,0,0,15.52-21.9L37.19,119.63l-1.56-1.55Z"/><path d="M78.42,127v-4h1.39a9.58,9.58,0,0,0,9.52-8.61A15.77,15.77,0,0,1,68.27,91L91.41,67.83,114.54,91a15.77,15.77,0,0,1-11.15,26.92,15.65,15.65,0,0,1-9.93-3.51A9.6,9.6,0,0,0,103,123h1.39v4Z"/><path class="cls-1" d="M91.4,69.79l22.15,22.15a14.38,14.38,0,1,1-20.33,20.34L92,111.08v2.31a11,11,0,0,0,11,11v1.27H79.81v-1.27a11,11,0,0,0,11-11v-2.3l-1.19,1.19A14.38,14.38,0,0,1,69.25,91.94L91.4,69.79m0-3.93-2,2L67.29,90a17.17,17.17,0,0,0,19.56,27.61,8.22,8.22,0,0,1-7,4H77v6.82h28.75v-6.82H103a8.19,8.19,0,0,1-7-4A17.16,17.16,0,0,0,115.52,90L93.37,67.82l-2-2Z"/></g></g></svg>