<svg xmlns="http://www.w3.org/2000/svg" viewBox="0 0 130 180"><defs><style>.cls-1{fill:#fff;}.cls-2{fill:#b4171e;}</style></defs><g id="Layer_2" data-name="Layer 2"><g id="Ñëîé_1" data-name="Ñëîé 1"><rect class="cls-1" width="130" height="180" rx="10.03"/><path class="cls-2" d="M40.61,90.24V80.89h3.45c-.13-.34-10.83-27.15-10.83-27.15L30.67,58l.17,22.86h5.42v9.35H13.87V80.89l5.82,0-.41-60.8H13.87V10.69H36.26v9.36h-5L31,39.88,42.65,20.51l.22-.46H38.44V10.69H59.75v9.36H56.87a4.2,4.2,0,0,0-2.83.79A12.2,12.2,0,0,0,51.09,24L40.69,40.85,55.52,78.2a5.82,5.82,0,0,0,1.4,2.26l1,.62,2.7-.18,1.33,0v9.36Z"/><path class="cls-1" d="M58.45,12v6.74H56.87a5.53,5.53,0,0,0-3.59,1A14,14,0,0,0,50,23.24L39.23,40.72l15.08,38a7.22,7.22,0,0,0,1.76,2.78,5.72,5.72,0,0,0,1,.67l.28.12,3.29,0v6.73H41.92V82.19h4l-.66-1.76a14.1,14.1,0,0,0-.55-1.3L33.46,50.8l-3.92,6.56V82.19H35v6.75H15.17V82.19h3.76a4.35,4.35,0,0,0,.94-.09H21l-.43-63.19-1.13-.14a3.74,3.74,0,0,0-.52,0H15.17V12H35v6.74h-5l-.31,25.93L43.77,21.19,45,18.74H39.74V12H58.45m2.61-2.62H12.56v12H18l.39,58.21-3.21,0H12.56v12h25v-12H32.16V58.08l.83-1.4,9.11,22.9H39.31v12H63.23v-12l-2.64,0-2.61,0-.25-.19h0a5.54,5.54,0,0,1-1-1.78L42.14,41,52.25,24.61a11.24,11.24,0,0,1,2.51-2.69,3,3,0,0,1,2.11-.57h4.19v-12Zm-23.93,12h3.5L32.33,35.1l.17-13.75h4.63Z"/><path class="cls-2" d="M16.13,144.41a14.84,14.84,0,0,1,21-21l.78.79.79-.79a14.75,14.75,0,0,1,10.48-4.33h0a14.83,14.83,0,0,1,10.48,25.31L37.89,166.15Z"/><path class="cls-1" d="M49.16,120.4a13.52,13.52,0,0,1,9.56,23.08L37.89,164.31,17.07,143.48a13.52,13.52,0,1,1,19.12-19.12l1.7,1.7,1.71-1.7a13.48,13.48,0,0,1,9.56-4m0-2.61a16,16,0,0,0-11.27,4.58,16.13,16.13,0,0,0-22.67,23l20.83,20.82L37.89,168l1.85-1.85,20.83-20.82a16.13,16.13,0,0,0-11.41-27.54Z"/><path class="cls-2" d="M65.15,102.13a17.22,17.22,0,0,1,12.17-29.4,17.06,17.06,0,0,1,12.18,5l.91.9.9-.91a17.22,17.22,0,1,1,24.36,24.35L90.41,127.38Z"/><path class="cls-1" d="M103.49,74.25a15.7,15.7,0,0,1,11.1,26.8L90.41,125.23,66.22,101.05a15.7,15.7,0,0,1,22.21-22.2l2,2,2-2a15.62,15.62,0,0,1,11.1-4.6m0-3a18.58,18.58,0,0,0-13.08,5.33,18.73,18.73,0,0,0-26.33,26.65l24.18,24.19,2.15,2.14,2.14-2.14,24.19-24.19a18.74,18.74,0,0,0-13.25-32Z"/></g></g></svg>