<svg xmlns="http://www.w3.org/2000/svg" viewBox="0 0 130 180"><defs><style>.cls-1{fill:#fff;}</style></defs><g id="Layer_2" data-name="Layer 2"><g id="Ñëîé_1" data-name="Ñëîé 1"><rect class="cls-1" width="130" height="180" rx="10.03"/><path d="M40.61,90.24V80.89h3.45c-.13-.34-10.83-27.15-10.83-27.15L30.67,58l.17,22.86h5.42v9.35H13.87V80.89l5.82,0-.41-60.8H13.87V10.69H36.26v9.36h-5L31,39.88,42.65,20.51l.22-.46H38.44V10.69H59.75v9.36H56.87a4.2,4.2,0,0,0-2.83.79A12.2,12.2,0,0,0,51.09,24L40.69,40.85,55.52,78.2a5.82,5.82,0,0,0,1.4,2.26l1,.62,2.7-.18,1.33,0v9.36Z"/><path class="cls-1" d="M58.45,12v6.74H56.87a5.53,5.53,0,0,0-3.59,1A14,14,0,0,0,50,23.24L39.23,40.72l15.08,38a7.22,7.22,0,0,0,1.76,2.78,5.72,5.72,0,0,0,1,.67l.28.12,3.29,0v6.73H41.92V82.19h4l-.66-1.76a14.1,14.1,0,0,0-.55-1.3L33.46,50.8l-3.92,6.56V82.19H35v6.75H15.17V82.19h3.76a4.35,4.35,0,0,0,.94-.09H21l-.43-63.19-1.13-.14a3.74,3.74,0,0,0-.52,0H15.17V12H35v6.74h-5l-.31,25.93L43.77,21.19,45,18.74H39.74V12H58.45m2.61-2.62H12.56v12H18l.39,58.21-3.21,0H12.56v12h25v-12H32.16V58.08l.83-1.4,9.11,22.9H39.31v12H63.23v-12l-2.64,0-2.61,0-.25-.19h0a5.54,5.54,0,0,1-1-1.78L42.14,41,52.25,24.61a11.24,11.24,0,0,1,2.51-2.69,3,3,0,0,1,2.11-.57h4.19v-12Zm-23.93,12h3.5L32.33,35.1l.17-13.75h4.63Z"/><path d="M27.83,168.06v-3.67H29.1a8.48,8.48,0,0,0,8.46-8.47v-1.41a4.67,4.67,0,0,0-.51.36,12.57,12.57,0,0,1-10.33,5.31,12.82,12.82,0,1,1,0-25.63,11.81,11.81,0,0,1,1.18.06A12.5,12.5,0,0,1,26.57,129a12.82,12.82,0,1,1,25.63,0,12.62,12.62,0,0,1-1.32,5.59,11.66,11.66,0,0,1,1.18-.06,12.82,12.82,0,1,1-10.54,20.09,2.13,2.13,0,0,0-.31-.18v1.46a8.48,8.48,0,0,0,8.47,8.47H51v3.67Z"/><path class="cls-1" d="M39.38,117.48A11.48,11.48,0,0,1,48,136.58a11.34,11.34,0,0,1,4-.76,11.54,11.54,0,1,1-9.48,18.09,5,5,0,0,0-2.63-1.13v3.14a9.74,9.74,0,0,0,9.74,9.74v1.13H29.1v-1.13a9.74,9.74,0,0,0,9.73-9.74v-3.14a4.9,4.9,0,0,0-2.62,1.13,11.54,11.54,0,1,1-9.49-18.09,11.34,11.34,0,0,1,4,.76,11.49,11.49,0,0,1,8.65-19.1m0-2.55A14.1,14.1,0,0,0,25.3,129a13.72,13.72,0,0,0,.68,4.27A14.09,14.09,0,1,0,36,158a7.18,7.18,0,0,1-6.88,5.14H26.55v6.23H52.23v-6.23H49.68a7.21,7.21,0,0,1-6.9-5.15,14.09,14.09,0,1,0,10-24.67,13.73,13.73,0,0,0,.69-4.27,14.11,14.11,0,0,0-14.1-14.09Z"/><path d="M77.06,126.55v-4.24h1.47a9.77,9.77,0,0,0,9.76-9.76v-1.63a4.09,4.09,0,0,0-.58.42,14.51,14.51,0,0,1-11.92,6.12,14.79,14.79,0,1,1,0-29.57,12.34,12.34,0,0,1,1.35.07,14.5,14.5,0,0,1-1.52-6.46,14.79,14.79,0,0,1,29.57,0A14.63,14.63,0,0,1,103.67,88a12.39,12.39,0,0,1,1.36-.07,14.79,14.79,0,1,1-12.16,23.18l-.36-.2v1.68a9.77,9.77,0,0,0,9.77,9.76h1.47v4.24Z"/><path class="cls-1" d="M90.4,68.19a13.25,13.25,0,0,1,10,22,13.14,13.14,0,0,1,4.63-.87,13.32,13.32,0,1,1-11,20.87,5.58,5.58,0,0,0-3-1.3v3.62a11.23,11.23,0,0,0,11.24,11.23v1.3H78.53v-1.3a11.23,11.23,0,0,0,11.23-11.23v-3.62a5.59,5.59,0,0,0-3,1.3,13.37,13.37,0,1,1-6.32-20,13.25,13.25,0,0,1,10-22m0-2.94A16.28,16.28,0,0,0,74.14,81.51a15.85,15.85,0,0,0,.79,4.93,16.26,16.26,0,1,0,11.55,28.47,8.32,8.32,0,0,1-8,5.93H75.59V128h29.63v-7.19h-2.94a8.32,8.32,0,0,1-8-5.94,16.25,16.25,0,1,0,11.55-28.46,15.85,15.85,0,0,0,.79-4.93A16.27,16.27,0,0,0,90.4,65.25Z"/></g></g></svg>