<svg xmlns="http://www.w3.org/2000/svg" viewBox="0 0 130 180"><defs><style>.cls-1{fill:#fff;}.cls-2{fill:#b4171e;}</style></defs><g id="Layer_2" data-name="Layer 2"><g id="Ñëîé_1" data-name="Ñëîé 1"><rect class="cls-1" width="130" height="180" rx="10.03"/><path class="cls-2" d="M40.61,90.24V80.89h3.45c-.13-.34-10.83-27.15-10.83-27.15L30.67,58l.17,22.86h5.42v9.35H13.87V80.89l5.82,0-.41-60.8H13.87V10.69H36.26v9.36h-5L31,39.88,42.65,20.51l.22-.46H38.44V10.69H59.75v9.36H56.87a4.2,4.2,0,0,0-2.83.79A12.2,12.2,0,0,0,51.09,24L40.69,40.85,55.52,78.2a5.82,5.82,0,0,0,1.4,2.26l1,.62,2.7-.18,1.33,0v9.36Z"/><path class="cls-1" d="M58.45,12v6.74H56.87a5.53,5.53,0,0,0-3.59,1A14,14,0,0,0,50,23.24L39.23,40.72l15.08,38a7.22,7.22,0,0,0,1.76,2.78,5.72,5.72,0,0,0,1,.67l.28.12,3.29,0v6.73H41.92V82.19h4l-.66-1.76a14.1,14.1,0,0,0-.55-1.3L33.46,50.8l-3.92,6.56V82.19H35v6.75H15.17V82.19h3.76a4.35,4.35,0,0,0,.94-.09H21l-.43-63.19-1.13-.14a3.74,3.74,0,0,0-.52,0H15.17V12H35v6.74h-5l-.31,25.93L43.77,21.19,45,18.74H39.74V12H58.45m2.61-2.62H12.56v12H18l.39,58.21-3.21,0H12.56v12h25v-12H32.16V58.08l.83-1.4,9.11,22.9H39.31v12H63.23v-12l-2.64,0-2.61,0-.25-.19h0a5.54,5.54,0,0,1-1-1.78L42.14,41,52.25,24.61a11.24,11.24,0,0,1,2.51-2.69,3,3,0,0,1,2.11-.57h4.19v-12Zm-23.93,12h3.5L32.33,35.1l.17-13.75h4.63Z"/><path class="cls-2" d="M38.64,170a68.82,68.82,0,0,0-11.72-14.9,78.54,78.54,0,0,0-12.63-9.92l-1.76-1.1,1.76-1.1a77.8,77.8,0,0,0,12.63-9.9,69.3,69.3,0,0,0,11.72-14.9l1.13-1.93,1.14,1.94a68.93,68.93,0,0,0,11.71,14.89A77.8,77.8,0,0,0,65.25,143l1.76,1.1-1.76,1.1a78.54,78.54,0,0,0-12.63,9.92A68.69,68.69,0,0,0,40.91,170l-1.14,1.94Z"/><path class="cls-1" d="M39.77,118.81A70.67,70.67,0,0,0,51.71,134a79.56,79.56,0,0,0,12.85,10.07,79,79,0,0,0-12.85,10.07A70.41,70.41,0,0,0,39.77,169.3a70.41,70.41,0,0,0-11.94-15.17A79,79,0,0,0,15,144.06,79.56,79.56,0,0,0,27.83,134a70.67,70.67,0,0,0,11.94-15.18m0-5.19-2.26,3.88A67.61,67.61,0,0,1,26,132.11a77.05,77.05,0,0,1-12.42,9.74l-3.49,2.21,3.49,2.2A77.62,77.62,0,0,1,26,156a68.23,68.23,0,0,1,11.5,14.61l2.26,3.88L42,170.61A68.23,68.23,0,0,1,53.53,156,77.62,77.62,0,0,1,66,146.26l3.49-2.2L66,141.85a76.62,76.62,0,0,1-12.42-9.74A67.61,67.61,0,0,1,42,117.5l-2.26-3.88Z"/><path class="cls-2" d="M89,134.44a83.86,83.86,0,0,0-14.35-18.23,95.09,95.09,0,0,0-15.45-12.14l-2.15-1.35,2.15-1.34A96.18,96.18,0,0,0,74.67,89.25,84,84,0,0,0,89,71l1.38-2.39L91.79,71a84,84,0,0,0,14.35,18.22,96.18,96.18,0,0,0,15.45,12.13l2.15,1.34-2.15,1.35a95.09,95.09,0,0,0-15.45,12.14,83.86,83.86,0,0,0-14.35,18.23l-1.39,2.38Z"/><path class="cls-1" d="M90.4,71.83A86.77,86.77,0,0,0,105,90.4a97.08,97.08,0,0,0,15.72,12.33A98.1,98.1,0,0,0,105,115.05,86.79,86.79,0,0,0,90.4,133.63a86.38,86.38,0,0,0-14.61-18.58,98.13,98.13,0,0,0-15.73-12.32A97.12,97.12,0,0,0,75.79,90.4,86.35,86.35,0,0,0,90.4,71.83m0-6.36-2.76,4.75A83.33,83.33,0,0,1,73.56,88.11,93.85,93.85,0,0,1,58.35,100l-4.27,2.7,4.27,2.7a94.29,94.29,0,0,1,15.21,11.92,83.15,83.15,0,0,1,14.08,17.89L90.4,140l2.77-4.75a82.84,82.84,0,0,1,14.08-17.89,94.21,94.21,0,0,1,15.2-11.92l4.27-2.7-4.27-2.7a93.77,93.77,0,0,1-15.2-11.92A83.08,83.08,0,0,1,93.17,70.22L90.4,65.47Z"/></g></g></svg>