<svg xmlns="http://www.w3.org/2000/svg" viewBox="0 0 130 180"><defs><style>.cls-1{fill:#fff;}</style></defs><g id="Layer_2" data-name="Layer 2"><g id="Ñëîé_1" data-name="Ñëîé 1"><rect class="cls-1" width="130" height="180" rx="10.03"/><path d="M47.65,90.22a9.34,9.34,0,0,1-5.19-1.61c-1-.67-2.37-2-4.47-6.62H35.31c-6.41,0-12.12-2.88-16.94-8.57S11.29,59,11.29,46.35c0-10.56,2.05-19.13,6.1-25.45,4.33-6.77,10.35-10.21,17.92-10.21,7,0,12.87,3.26,17.46,9.71,4.36,6.12,6.56,14.85,6.56,26,0,9.28-1.14,16.2-3.48,21.17a36.45,36.45,0,0,1-3.68,6.22L58.7,77l-.58,2.34a17.85,17.85,0,0,1-3.7,7.85A9.11,9.11,0,0,1,47.65,90.22Zm3.58-15.29A22.34,22.34,0,0,1,49,77.3l1.07.85.61-.32Zm-19.3-8.7a4,4,0,0,0-1.8.93c-.2.15-.83.59-.83,2.45,0,.32,0,1.16,1.48,2.32a7.07,7.07,0,0,0,4.53,1.43h.09A38.34,38.34,0,0,0,33.67,68C32.94,66.23,32.26,66.23,31.93,66.23Zm.75-9.76A11.26,11.26,0,0,1,42,60.84a21.47,21.47,0,0,1,2.5,4.22c.15-.56.3-1.17.43-1.85a89.82,89.82,0,0,0,1.26-16.86c0-9.31-1-16.44-3-21.19-1.65-4-4.16-5.83-7.92-5.83-3.1,0-5.47,1.85-7.44,5.83-2.29,4.57-3.44,11.69-3.44,21.19A115.63,115.63,0,0,0,25,58.58L25,59A11.16,11.16,0,0,1,32.68,56.47Z"/><path class="cls-1" d="M35.31,12c6.55,0,12.07,3.08,16.4,9.15C55.9,27,58,35.52,58,46.34c0,9.1-1.11,15.85-3.36,20.61a34.39,34.39,0,0,1-3.55,6l-.9,1.14a23.87,23.87,0,0,1-2.12,2.24l-.72.67.45.88A3.87,3.87,0,0,0,48.55,79l.34.22a2.75,2.75,0,0,0,1.16.28,2,2,0,0,0,1.22-.39l.57-.39v-.42a4,4,0,0,0,.19-.72l.45-2.18,4.7,2.35L56.85,79a16.62,16.62,0,0,1-3.39,7.3,7.86,7.86,0,0,1-5.8,2.59,8,8,0,0,1-4.47-1.38c-.84-.55-2-1.75-4-6.08l-.35-.76H35.31c-6,0-11.37-2.73-15.94-8.11S12.6,58.64,12.6,46.34c0-10.29,2-18.62,5.89-24.74,4.07-6.38,9.73-9.6,16.82-9.6M23.87,61l1.72-.86.34-.23c1.56-1.41,3.82-2.12,6.75-2.12A10,10,0,0,1,41,61.64a20.4,20.4,0,0,1,2.35,4l1.5,3.27.94-3.47c.16-.58.31-1.23.46-2A91,91,0,0,0,47.5,46.34c0-9.47-1-16.76-3.07-21.68C42.59,20.19,39.61,18,35.31,18c-3.59,0-6.41,2.15-8.62,6.56-2.36,4.74-3.57,12.07-3.57,21.76a115,115,0,0,0,.56,12.38l0,.35L23.87,61M35.31,74.66h1.77L36.67,73a38.44,38.44,0,0,0-1.8-5.59c-.72-1.72-1.65-2.53-2.93-2.53a4.81,4.81,0,0,0-2.57,1.18c-.92.67-1.37,1.81-1.37,3.51,0,.44,0,1.81,2,3.35a8.32,8.32,0,0,0,5.33,1.7m0-65.28c-8,0-14.44,3.64-19,10.81C12.11,26.74,10,35.53,10,46.34c0,12.95,2.42,22.08,7.39,27.93s11.12,9,17.93,9h1.86c2,4.29,3.39,5.62,4.57,6.41a10.73,10.73,0,0,0,5.92,1.81,10.42,10.42,0,0,0,7.72-3.43,19.34,19.34,0,0,0,4-8.43l.32-1.33.51-2-1.87-.93-4.24-2.12A38,38,0,0,0,57,68.06c2.43-5.12,3.61-12.23,3.61-21.72,0-11.38-2.29-20.36-6.8-26.7C49,12.83,42.75,9.38,35.31,9.38ZM26.1,56.62c-.25-3-.36-6.42-.36-10.28,0-9.28,1.1-16.21,3.29-20.59,2.29-4.59,4.68-5.12,6.28-5.12,3.21,0,5.28,1.55,6.71,5,1.9,4.6,2.87,11.56,2.87,20.69a98.12,98.12,0,0,1-.94,15c-.3-.46-.6-.89-.91-1.3a12.57,12.57,0,0,0-10.36-4.86,13.85,13.85,0,0,0-6.58,1.45Zm7.55,15.26a5.11,5.11,0,0,1-2.06-1c-.45-.35-1-.85-1-1.29,0-.94.19-1.32.29-1.39A4.87,4.87,0,0,1,32,67.55c0,.07.18.3.44.91a31.33,31.33,0,0,1,1.18,3.42Z"/><path d="M25.24,166.34v-3.22h1.1a7.6,7.6,0,0,0,7.56-6.82,12.52,12.52,0,0,1-16.72-18.58l18.36-18.35L53.9,137.72A12.51,12.51,0,0,1,37.19,156.3a7.59,7.59,0,0,0,7.55,6.82h1.1v3.22Z"/><path class="cls-1" d="M35.54,120.93,53.12,138.5A11.41,11.41,0,0,1,37,154.64l-.94-.95v1.83a8.71,8.71,0,0,0,8.71,8.71v1H26.34v-1a8.71,8.71,0,0,0,8.71-8.71v-1.83l-.95.95A11.41,11.41,0,0,1,18,138.5l17.57-17.57m0-3.12L34,119.37,16.41,136.94a13.62,13.62,0,0,0,15.52,21.91A6.52,6.52,0,0,1,26.34,162h-2.2v5.41H47V162h-2.2a6.5,6.5,0,0,1-5.59-3.18,13.62,13.62,0,0,0,15.52-21.91L37.1,119.37l-1.56-1.56Z"/><path d="M77.22,127v-4h1.39a9.59,9.59,0,0,0,9.52-8.61A15.77,15.77,0,0,1,67.07,91L90.2,67.83,113.34,91a15.78,15.78,0,0,1-21.09,23.41A9.62,9.62,0,0,0,101.8,123h1.39v4Z"/><path class="cls-1" d="M90.2,69.79l22.15,22.15A14.38,14.38,0,1,1,92,112.28l-1.19-1.2v2.31a11,11,0,0,0,11,11v1.27H78.61v-1.27a11,11,0,0,0,11-11v-2.3l-1.19,1.19A14.38,14.38,0,0,1,68.05,91.94L90.2,69.79m0-3.93-2,2L66.09,90a17.16,17.16,0,0,0,19.55,27.61,8.19,8.19,0,0,1-7,4H75.83v6.82h28.75v-6.82H101.8a8.19,8.19,0,0,1-7-4A17.16,17.16,0,0,0,114.32,90L92.17,67.82l-2-2Z"/></g></g></svg>