<svg xmlns="http://www.w3.org/2000/svg" viewBox="0 0 130 180"><defs><style>.cls-1{fill:#fff;}</style></defs><g id="Layer_2" data-name="Layer 2"><g id="Ñëîé_1" data-name="Ñëîé 1"><rect class="cls-1" width="130" height="180" rx="10.03"/><path d="M47.65,90.22a9.34,9.34,0,0,1-5.19-1.61c-1-.67-2.37-2-4.47-6.62H35.31c-6.41,0-12.12-2.88-16.94-8.57S11.29,59,11.29,46.35c0-10.56,2.05-19.13,6.1-25.45,4.33-6.77,10.35-10.21,17.92-10.21,7,0,12.87,3.26,17.46,9.71,4.36,6.12,6.56,14.85,6.56,26,0,9.28-1.14,16.2-3.48,21.17a36.45,36.45,0,0,1-3.68,6.22L58.7,77l-.58,2.34a17.85,17.85,0,0,1-3.7,7.85A9.11,9.11,0,0,1,47.65,90.22Zm3.58-15.29A22.34,22.34,0,0,1,49,77.3l1.07.85.61-.32Zm-19.3-8.7a4,4,0,0,0-1.8.93c-.2.15-.83.59-.83,2.45,0,.32,0,1.16,1.48,2.32a7.07,7.07,0,0,0,4.53,1.43h.09A38.34,38.34,0,0,0,33.67,68C32.94,66.23,32.26,66.23,31.93,66.23Zm.75-9.76A11.26,11.26,0,0,1,42,60.84a21.47,21.47,0,0,1,2.5,4.22c.15-.56.3-1.17.43-1.85a89.82,89.82,0,0,0,1.26-16.86c0-9.31-1-16.44-3-21.19-1.65-4-4.16-5.83-7.92-5.83-3.1,0-5.47,1.85-7.44,5.83-2.29,4.57-3.44,11.69-3.44,21.19A115.63,115.63,0,0,0,25,58.58L25,59A11.16,11.16,0,0,1,32.68,56.47Z"/><path class="cls-1" d="M35.31,12c6.55,0,12.07,3.08,16.4,9.15C55.9,27,58,35.52,58,46.34c0,9.1-1.11,15.85-3.36,20.61a34.39,34.39,0,0,1-3.55,6l-.9,1.14a23.87,23.87,0,0,1-2.12,2.24l-.72.67.45.88A3.87,3.87,0,0,0,48.55,79l.34.22a2.75,2.75,0,0,0,1.16.28,2,2,0,0,0,1.22-.39l.57-.39v-.42a4,4,0,0,0,.19-.72l.45-2.18,4.7,2.35L56.85,79a16.62,16.62,0,0,1-3.39,7.3,7.86,7.86,0,0,1-5.8,2.59,8,8,0,0,1-4.47-1.38c-.84-.55-2-1.75-4-6.08l-.35-.76H35.31c-6,0-11.37-2.73-15.94-8.11S12.6,58.64,12.6,46.34c0-10.29,2-18.62,5.89-24.74,4.07-6.38,9.73-9.6,16.82-9.6M23.87,61l1.72-.86.34-.23c1.56-1.41,3.82-2.12,6.75-2.12A10,10,0,0,1,41,61.64a20.4,20.4,0,0,1,2.35,4l1.5,3.27.94-3.47c.16-.58.31-1.23.46-2A91,91,0,0,0,47.5,46.34c0-9.47-1-16.76-3.07-21.68C42.59,20.19,39.61,18,35.31,18c-3.59,0-6.41,2.15-8.62,6.56-2.36,4.74-3.57,12.07-3.57,21.76a115,115,0,0,0,.56,12.38l0,.35L23.87,61M35.31,74.66h1.77L36.67,73a38.44,38.44,0,0,0-1.8-5.59c-.72-1.72-1.65-2.53-2.93-2.53a4.81,4.81,0,0,0-2.57,1.18c-.92.67-1.37,1.81-1.37,3.51,0,.44,0,1.81,2,3.35a8.32,8.32,0,0,0,5.33,1.7m0-65.28c-8,0-14.44,3.64-19,10.81C12.11,26.74,10,35.53,10,46.34c0,12.95,2.42,22.08,7.39,27.93s11.12,9,17.93,9h1.86c2,4.29,3.39,5.62,4.57,6.41a10.73,10.73,0,0,0,5.92,1.81,10.42,10.42,0,0,0,7.72-3.43,19.34,19.34,0,0,0,4-8.43l.32-1.33.51-2-1.87-.93-4.24-2.12A38,38,0,0,0,57,68.06c2.43-5.12,3.61-12.23,3.61-21.72,0-11.38-2.29-20.36-6.8-26.7C49,12.83,42.75,9.38,35.31,9.38ZM26.1,56.62c-.25-3-.36-6.42-.36-10.28,0-9.28,1.1-16.21,3.29-20.59,2.29-4.59,4.68-5.12,6.28-5.12,3.21,0,5.28,1.55,6.71,5,1.9,4.6,2.87,11.56,2.87,20.69a98.12,98.12,0,0,1-.94,15c-.3-.46-.6-.89-.91-1.3a12.57,12.57,0,0,0-10.36-4.86,13.85,13.85,0,0,0-6.58,1.45Zm7.55,15.26a5.11,5.11,0,0,1-2.06-1c-.45-.35-1-.85-1-1.29,0-.94.19-1.32.29-1.39A4.87,4.87,0,0,1,32,67.55c0,.07.18.3.44.91a31.33,31.33,0,0,1,1.18,3.42Z"/><path d="M27.3,168.06v-3.67h1.28A8.47,8.47,0,0,0,37,155.92v-1.41a4.67,4.67,0,0,0-.51.36,12.55,12.55,0,0,1-10.33,5.31,12.82,12.82,0,0,1,0-25.63,11.81,11.81,0,0,1,1.18.06A12.49,12.49,0,0,1,26.05,129a12.81,12.81,0,1,1,25.62,0,12.61,12.61,0,0,1-1.31,5.59,11.61,11.61,0,0,1,1.17-.06A12.82,12.82,0,1,1,41,154.64a2.13,2.13,0,0,0-.31-.18v1.46a8.47,8.47,0,0,0,8.46,8.47h1.28v3.67Z"/><path class="cls-1" d="M38.86,117.48a11.49,11.49,0,0,1,8.66,19.1,11.34,11.34,0,0,1,4-.76A11.54,11.54,0,1,1,42,153.91a4.9,4.9,0,0,0-2.63-1.13v3.14a9.74,9.74,0,0,0,9.74,9.74v1.13H28.57v-1.13a9.73,9.73,0,0,0,9.73-9.74v-3.14a4.9,4.9,0,0,0-2.62,1.13,11.59,11.59,0,1,1-5.47-17.33,11.48,11.48,0,0,1,8.65-19.1m0-2.55a14,14,0,0,0-13.41,18.36,14.09,14.09,0,1,0,10,24.68,7.2,7.2,0,0,1-6.89,5.14H26v6.23H51.7v-6.23H49.15A7.21,7.21,0,0,1,42.26,158a14.09,14.09,0,1,0,10-24.67A13.72,13.72,0,0,0,53,129a14.1,14.1,0,0,0-14.09-14.09Z"/><path d="M76.86,126.55v-4.24h1.47a9.77,9.77,0,0,0,9.76-9.76v-1.63a4.86,4.86,0,0,0-.59.42,14.5,14.5,0,0,1-11.91,6.12,14.79,14.79,0,1,1,0-29.57,12.46,12.46,0,0,1,1.35.07,14.51,14.51,0,0,1-1.53-6.46,14.79,14.79,0,0,1,29.58,0A14.63,14.63,0,0,1,103.47,88a12.34,12.34,0,0,1,1.35-.07,14.79,14.79,0,1,1-12.15,23.18l-.36-.2v1.68a9.77,9.77,0,0,0,9.77,9.76h1.47v4.24Z"/><path class="cls-1" d="M90.2,68.19a13.25,13.25,0,0,1,10,22,13.14,13.14,0,0,1,4.63-.87,13.32,13.32,0,1,1-10.95,20.87,5.58,5.58,0,0,0-3-1.3v3.62a11.23,11.23,0,0,0,11.24,11.23v1.3H78.33v-1.3a11.23,11.23,0,0,0,11.23-11.23v-3.62a5.65,5.65,0,0,0-3,1.3,13.36,13.36,0,1,1-6.31-20,13.25,13.25,0,0,1,10-22m0-2.94A16.28,16.28,0,0,0,73.94,81.51a15.85,15.85,0,0,0,.79,4.93,16.26,16.26,0,1,0,11.55,28.47,8.32,8.32,0,0,1-8,5.93H75.39V128H105v-7.19h-2.94a8.32,8.32,0,0,1-8-5.94,16.25,16.25,0,1,0,11.55-28.46,15.85,15.85,0,0,0,.79-4.93A16.27,16.27,0,0,0,90.2,65.25Z"/></g></g></svg>