<svg width="107" height="159" viewBox="0 0 107 159" fill="none" xmlns="http://www.w3.org/2000/svg">
<path d="M82.256 64.0683C82.256 64.0683 91.6997 77.7651 69.5377 108.227L68.8847 107.747L67.6102 87.31L64.4837 84.7058L82.256 64.0683Z" fill="white"/>
<path d="M69.3836 108.453L68.7306 107.974C68.6707 107.919 68.6313 107.846 68.6188 107.766L67.3519 87.4443L64.3104 84.9165C64.2834 84.8941 64.2611 84.8665 64.2448 84.8355C64.2284 84.8044 64.2184 84.7704 64.2153 84.7355C64.2064 84.6999 64.2061 84.6628 64.2142 84.6272C64.2224 84.5915 64.2389 84.5582 64.2623 84.5301L82.0479 63.8842C82.0772 63.8548 82.1125 63.8319 82.1514 63.8174C82.1904 63.8028 82.232 63.7968 82.2735 63.7998C82.315 63.8029 82.3553 63.8148 82.3917 63.8349C82.4282 63.8549 82.4599 63.8826 82.4846 63.916C82.5788 64.0513 84.8851 67.5028 84.4812 74.736C84.1003 81.3715 81.2511 92.5721 69.8117 108.324C69.8117 108.324 69.8117 108.324 69.7944 108.399C69.7737 108.433 69.7456 108.462 69.7123 108.484C69.679 108.505 69.6413 108.519 69.6019 108.524C69.5625 108.529 69.5225 108.526 69.4847 108.513C69.4469 108.501 69.4124 108.481 69.3836 108.453ZM69.1566 107.605L69.4789 107.838C89.2598 80.5167 83.4382 66.762 82.2146 64.5481L64.8681 84.6688L67.7863 87.0888C67.815 87.1141 67.838 87.1453 67.8535 87.1803C67.8691 87.2153 67.8769 87.2532 67.8765 87.2914L69.1566 107.605Z" fill="#B3B5B8"/>
<g style="mix-blend-mode:multiply" opacity="0.7">
<path d="M81.8322 77.9514C82.2301 75.686 83.0365 73.5118 84.2122 71.5347C83.9115 66.4836 82.256 64.0683 82.256 64.0683L64.4837 84.7058L67.6102 87.31L68.8847 107.747L69.352 108.093C70.0783 106.462 80.045 90.4303 81.8322 77.9514Z" fill="#ADAFB2"/>
</g>
<g style="mix-blend-mode:multiply" opacity="0.7">
<path d="M84.0561 69.9292C83.8908 67.868 83.2764 65.8676 82.256 64.0683L64.4837 84.7058L67.6102 87.31L67.9062 92.1326L84.0561 69.9292Z" fill="#ADAFB2"/>
</g>
<path d="M62.5982 49.7846C62.5982 49.7846 46.6194 44.9884 24.4908 75.5031L25.1462 75.9717L44.9939 70.8815L48.4324 73.068L62.5982 49.7846Z" fill="white"/>
<path d="M24.981 76.1955L24.3255 75.727C24.2924 75.7077 24.2633 75.6821 24.2402 75.6515C24.217 75.621 24.2002 75.5861 24.1907 75.549C24.1811 75.5118 24.1791 75.4732 24.1847 75.4353C24.1903 75.3974 24.2035 75.3609 24.2233 75.3282C30.5573 66.6091 40.4763 55.3096 51.7183 50.9108C58.4789 48.2841 62.4751 49.4266 62.6349 49.4746C62.6754 49.4838 62.713 49.5028 62.7445 49.5298C62.776 49.5568 62.8004 49.5911 62.8157 49.6297C62.8295 49.7131 62.8099 49.7985 62.7612 49.8675L48.6112 73.1317C48.5926 73.1648 48.5671 73.1935 48.5364 73.2159C48.5057 73.2383 48.4706 73.2539 48.4334 73.2617C48.3614 73.2736 48.2876 73.2567 48.2279 73.2146L44.9585 71.1351L25.2107 76.2367C25.172 76.2496 25.1307 76.2525 25.0906 76.2453C25.0505 76.2381 25.0128 76.221 24.981 76.1955ZM24.8798 75.4444L25.2021 75.6774L44.9293 70.6165C44.9667 70.608 45.0056 70.608 45.0431 70.6166C45.0806 70.6251 45.1156 70.6421 45.1456 70.6661L48.3384 72.6825L62.1526 49.9898C59.7264 49.548 44.7465 48.2452 24.8798 75.4444Z" fill="#B3B5B8"/>
<g style="mix-blend-mode:multiply" opacity="0.7">
<path d="M49.4909 54.473C51.518 53.3892 53.3352 51.9524 54.8568 50.2302C59.7601 48.9528 62.5887 49.7256 62.5887 49.7256L48.4322 73.068L44.9913 70.8923L25.146 75.9716L24.6862 75.5934C25.9824 74.4569 38.1803 60.0165 49.4909 54.473Z" fill="#ADAFB2"/>
</g>
<g style="mix-blend-mode:multiply" opacity="0.7">
<path d="M56.4623 49.8812C58.4758 49.4019 60.5701 49.3689 62.598 49.7846L48.4322 73.0679L44.9913 70.8923L40.31 72.0954L56.4623 49.8812Z" fill="#ADAFB2"/>
</g>
<path d="M27.361 128.896C28.2667 127.799 29.0918 126.638 29.8298 125.423C30.2138 124.84 30.6003 124.246 30.9435 123.642C31.2885 123.147 31.5879 122.621 31.838 122.072C31.8671 122.019 31.8809 121.959 31.8776 121.899C31.0537 122.743 30.34 123.688 29.7536 124.711C28.7865 125.96 27.9201 127.283 27.1626 128.668C27.0108 128.884 27.1768 129.104 27.361 128.896Z" fill="#E8887E"/>
<path d="M28.4153 129.91L27.7314 130.709C27.2752 131.296 26.8568 131.91 26.479 132.55C26.3488 132.77 26.5496 132.987 26.7447 132.781C27.2164 132.246 27.6599 131.687 28.0732 131.106C28.3799 130.562 28.6975 130.021 29.0042 129.477C29.1965 129.134 29.3697 128.775 29.5437 128.463C29.1712 128.946 28.8119 129.421 28.4153 129.91Z" fill="#AADDF9"/>
<path d="M22.3111 141.503C23.6223 139.904 24.9443 138.307 26.1188 136.608C27.2601 135.118 28.2738 133.535 29.1491 131.876C29.1671 131.847 29.1749 131.813 29.1714 131.779C28.6589 132.253 28.2042 132.787 27.817 133.368C27.1315 134.224 26.4953 135.113 25.8482 136C24.5806 137.757 23.1872 139.417 21.9662 141.22C21.8045 141.478 22.0904 141.771 22.3111 141.503Z" fill="#DE3F2C"/>
<path d="M24.3806 134.902C23.9116 135.409 23.4534 135.918 22.9953 136.427C22.9735 136.459 22.9478 136.487 22.9189 136.512C22.4435 137.101 22.0055 137.719 21.6074 138.362C21.493 138.563 21.6796 138.742 21.8565 138.567C23.2269 137.069 24.4525 135.446 25.517 133.717C25.1052 134.079 24.725 134.475 24.3806 134.902Z" fill="#F3C241"/>
<path d="M24.0718 133.466C24.5824 132.971 25.0397 132.424 25.4361 131.833L25.6352 131.561C25.9128 131.044 26.1856 130.549 26.479 130.013C26.1174 130.378 25.7902 130.775 25.5014 131.2C24.9231 131.869 24.3827 132.569 23.8826 133.298C23.7574 133.497 23.9274 133.649 24.0718 133.466Z" fill="#DE3F2C"/>
<path d="M30.5805 137.061C29.8539 137.699 29.1775 138.392 28.5574 139.134L28.2594 139.442C27.5721 140.206 26.8932 140.983 26.2359 141.765C26.1256 141.899 26.1985 142.177 26.392 142.028C27.3068 141.251 28.145 140.388 28.8949 139.451C29.3181 138.945 29.7222 138.423 30.1263 137.901C30.2436 137.755 30.3511 137.601 30.4481 137.44C30.4481 137.44 30.5433 137.223 30.5805 137.061Z" fill="#AADDF9"/>
<path d="M24.2047 142.233C23.7357 142.74 23.2475 143.231 22.7245 143.725C22.0446 144.457 21.3923 145.218 20.6634 145.915C20.6361 146.034 20.722 146.156 20.8491 146.049C21.669 145.398 22.4317 144.678 23.129 143.898C23.2236 143.783 23.3074 143.665 23.3912 143.548C23.9969 142.743 24.6591 141.939 25.2097 141.075C24.8861 141.445 24.55 141.868 24.2047 142.233Z" fill="#E8887E"/>
<path d="M28.9355 140.267C29.5527 139.746 30.1081 139.156 30.5907 138.508C31.0929 137.935 31.5148 137.297 31.8448 136.611C30.7272 137.677 29.7006 138.835 28.7755 140.071C28.6326 140.198 28.7479 140.44 28.9355 140.267Z" fill="#DE3F2C"/>
<path d="M32.4337 138.463C33.782 137.027 35.0234 135.494 36.1479 133.877C36.6299 133.213 37.1061 132.526 37.5797 131.85C38.0534 131.173 38.281 130.577 38.6891 129.988L38.4541 130.219C38.1969 130.546 37.948 130.888 37.6874 131.181C37.0592 131.935 36.4285 132.701 35.8195 133.472C34.5212 134.998 33.3112 136.597 32.1954 138.261C32.0702 138.46 32.2676 138.642 32.4337 138.463Z" fill="#E8887E"/>
<path d="M32.6764 136.21C32.9976 135.924 33.2939 135.611 33.5621 135.275C33.8585 134.884 34.1307 134.475 34.3774 134.051C34.1384 134.241 33.9182 134.454 33.7198 134.686C33.2723 135.094 32.8732 135.552 32.5305 136.051C32.465 136.139 32.5626 136.309 32.6764 136.21Z" fill="#F3C241"/>
<path d="M40.6382 130.525C41.1005 130.088 41.5224 129.609 41.899 129.096C42.3873 128.328 42.8218 127.526 43.1995 126.698C42.8112 127.12 42.4567 127.571 42.139 128.048C41.5098 128.773 40.9185 129.529 40.3675 130.315C40.2506 130.527 40.4506 130.698 40.6382 130.525Z" fill="#DE3F2C"/>
<path d="M35.9252 135.247C36.9081 134.173 37.8222 133.037 38.662 131.847C39.0991 131.231 39.528 130.601 39.9268 129.953C40.1275 129.623 40.3257 129.305 40.5205 128.951C40.5601 128.778 40.6995 128.617 40.7932 128.456C40.8869 128.296 40.9472 128.082 40.8155 128.359C40.8702 128.277 40.9137 128.187 40.9447 128.093C40.6624 128.381 40.4303 128.749 40.178 129.055C39.9257 129.361 39.862 129.54 39.6969 129.764C39.2406 130.365 38.8309 131.01 38.3746 131.611C37.5043 132.777 36.5765 133.895 35.7445 135.092C35.6557 135.231 35.8041 135.379 35.9252 135.247Z" fill="#F3C241"/>
<path d="M44.4913 127.222C45.0522 126.597 45.5661 125.931 46.0288 125.23C46.295 124.813 46.5421 124.381 46.7891 123.948C47.0242 123.432 47.2911 122.931 47.5881 122.448C47.6029 122.383 47.5881 122.448 47.5881 122.448C47.0624 123.027 46.6004 123.661 46.2101 124.339C45.5797 125.253 44.8569 126.122 44.3139 127.101C44.2168 127.227 44.3411 127.38 44.4913 127.222Z" fill="#AADDF9"/>
<path d="M44.9074 124.757C45.1179 124.548 45.3106 124.322 45.4834 124.081C45.6319 123.788 45.796 123.503 45.975 123.227C45.7748 123.421 45.5959 123.635 45.4414 123.867C45.2482 124.164 45.0274 124.432 44.845 124.732C44.781 124.762 44.8443 124.834 44.9074 124.757Z" fill="#E8887E"/>
<path d="M31.7331 121.138C32.9162 119.657 33.9551 118.066 34.8357 116.388L34.9353 116.252C34.38 116.847 33.8845 117.496 33.4559 118.188C32.7803 119.084 32.1529 120.015 31.5764 120.977C31.4744 121.124 31.6094 121.28 31.7331 121.138Z" fill="#F3C241"/>
<path d="M29.3039 123.494C29.0284 123.852 28.7505 124.22 28.4642 124.575L28.0415 125.377C27.9453 125.549 28.1162 125.747 28.2606 125.564C28.8638 124.769 29.4153 123.951 29.9611 123.11C30.214 122.701 30.4369 122.274 30.6815 121.853C30.8141 121.621 30.9684 121.395 31.1119 121.166C31.1119 121.166 31.1589 120.961 31.2451 120.833C30.5656 121.712 29.9701 122.622 29.3039 123.494Z" fill="#DE3F2C"/>
<path d="M25.1399 140.536C26.3805 139.443 27.5861 138.354 28.7284 137.194C28.0406 138.06 27.331 138.922 26.6132 139.77C26.6132 139.77 26.5711 139.953 26.6725 139.908C27.2039 139.523 27.6882 139.076 28.1156 138.578C28.8519 137.848 29.7058 137.202 30.3655 136.409C31.0253 135.616 31.7626 134.931 32.4066 134.157C32.1431 134.711 31.8713 135.252 31.6187 135.808C31.6014 135.884 31.6696 135.934 31.7268 135.833C32.4611 134.864 33.5134 134.047 34.3293 133.119C34.9296 132.496 35.4669 131.815 35.9332 131.086C35.7631 131.704 35.498 132.292 35.1472 132.828C35.1274 132.915 35.1542 133.046 35.2522 132.966C35.8787 132.378 36.4702 131.754 37.0237 131.097C37.3991 130.576 37.6157 129.958 37.6475 129.317C37.7796 128.392 38.6954 128.42 39.3276 127.996C39.2267 128.219 39.1019 128.431 38.9553 128.627C38.9553 128.627 38.9256 128.757 38.9896 128.726C40.4883 128.009 41.6891 126.791 42.385 125.283C42.3923 125.578 42.3481 125.872 42.2544 126.152C42.2321 126.249 42.3137 126.291 42.3842 126.182C42.8245 125.713 43.1332 125.136 43.2794 124.51C43.3734 124.198 43.4462 123.88 43.4971 123.558C43.5882 122.863 44.08 122.554 44.6284 122.248C45.1767 121.941 45.6997 121.845 46.249 121.584C46.0774 121.901 45.8858 122.206 45.6752 122.499C45.6603 122.564 45.6207 122.737 45.7379 122.672C46.7804 122.19 47.7676 121.596 48.6823 120.901C49.0407 120.554 49.3164 120.131 49.4892 119.664C49.6186 119.363 49.7275 119.053 49.8152 118.737C49.8359 118.67 49.8517 118.602 49.8622 118.532C49.981 118.822 50.1465 119.09 50.352 119.327C50.2352 118.733 50.2891 118.118 50.5075 117.554C50.5817 117.229 50.7642 116.93 50.9033 116.621C51.0425 116.311 51.1309 116.024 51.2252 115.761C51.6204 115.008 51.8547 114.182 51.9135 113.333C51.9722 112.485 51.854 111.634 51.5664 110.833C51.2788 110.033 50.8281 109.301 50.2427 108.683C49.6574 108.066 48.9501 107.576 48.1658 107.246C47.2102 106.801 46.1327 106.691 45.1068 106.933C43.9117 107.063 42.7523 107.419 41.6903 107.982C40.8805 108.481 40.222 109.192 39.7853 110.037C39.4993 110.54 39.2458 111.051 38.974 111.591C38.6974 112.103 38.3156 112.551 37.8536 112.904C37.8387 112.969 37.7308 113.092 37.8016 113.131C38.0925 113.301 38.4353 113.36 38.7659 113.295C38.2513 113.881 37.6161 114.349 36.9037 114.666C36.2332 115.059 35.5497 115.607 35.7934 116.482C35.9055 116.838 36.294 117.279 36.2531 117.657C36.2209 117.797 35.905 117.884 35.7928 117.927C35.4441 118.043 35.1394 118.263 34.9198 118.557C34.7345 118.839 34.6013 119.151 34.5265 119.48C34.5038 119.554 34.4865 119.63 34.4745 119.707C34.4692 120.08 34.3849 120.449 34.227 120.787C33.9091 121.297 33.4482 121.702 32.9017 121.951C33.137 122.02 33.3835 122.042 33.6271 122.015C33.1892 122.351 32.7832 122.726 32.4141 123.137C32.1666 123.497 31.9826 123.897 31.8698 124.32C31.7312 124.925 31.6575 125.545 31.454 126.136C31.6658 125.957 31.8692 125.765 32.0618 125.57C31.9413 125.974 31.847 126.386 31.7797 126.802C31.6083 127.685 31.3384 128.547 30.9752 129.371C30.7098 129.756 30.5151 130.185 30.4004 130.638C30.4004 130.638 30.3831 130.714 30.4761 130.655C30.7796 130.534 31.0431 130.331 31.2369 130.067C31.2097 130.186 31.1849 130.294 31.1626 130.392C30.9035 131.026 30.5761 131.611 30.311 132.222C30.046 132.832 29.6249 133.577 29.2968 134.264C28.9688 134.951 28.6383 135.251 28.3724 135.816C28.3724 135.816 28.3402 135.956 28.4233 135.941C28.6003 135.886 28.7704 135.81 28.9303 135.716C27.7502 137.3 26.4598 138.799 25.0686 140.201C24.9591 140.381 25.0252 140.589 25.1399 140.536Z" fill="#DE3F2C"/>
<path d="M33.9127 121.364C34.179 121.231 34.4145 121.045 34.6042 120.816C34.7939 120.587 34.9335 120.321 35.014 120.035C35.0799 119.649 35.2467 119.288 35.4974 118.988C35.748 118.688 36.0737 118.459 36.4414 118.326C36.4414 118.326 36.5063 118.34 36.5171 118.343C36.2103 119.856 36.0188 121.39 35.9444 122.932C36.3522 122.195 36.6243 121.405 36.9889 120.658C37.0013 120.604 37.1027 120.559 37.0971 120.683C37.1101 121.527 37.0166 122.369 36.819 123.19C36.7105 123.607 36.5749 124.017 36.4129 124.416C36.2713 124.736 36.0756 125.044 35.9556 125.369C36.6277 124.734 37.2165 124.017 37.7082 123.234C37.7231 123.169 37.8603 123.166 37.8164 123.259C37.3838 124.104 37.0245 124.977 36.5619 125.804C36.1409 126.491 35.7876 127.218 35.5072 127.974C36.179 127.377 36.5983 126.54 37.2533 125.917C37.2533 125.917 37.3615 125.942 37.3507 125.939C36.8955 127.132 36.2255 128.218 35.7186 129.387C36.3949 128.713 37.1232 128.092 37.8968 127.532C38.7608 127.031 39.4991 126.34 40.0556 125.512C40.0556 125.512 40.1802 125.415 40.1638 125.537C40.1082 125.986 39.97 126.421 39.7561 126.82C40.3506 126.258 40.8502 125.604 41.2355 124.883C41.4818 124.258 41.8084 123.668 42.207 123.127C42.207 123.127 42.3109 123.071 42.3152 123.151C42.2508 123.432 42.2597 123.742 42.2386 124.032C42.5166 123.664 42.7562 123.264 43.0641 122.913C43.0641 122.913 43.2088 122.878 43.1723 122.938C42.7935 123.648 43.0895 124.443 42.8829 125.147C42.7758 125.507 42.6312 125.855 42.4515 126.186C42.8917 125.717 43.2005 125.14 43.3466 124.514C43.4407 124.202 43.5135 123.884 43.5644 123.563C43.6554 122.867 44.1472 122.558 44.6956 122.252C45.244 121.945 45.767 121.849 46.3163 121.588C46.1447 121.905 45.953 122.21 45.7424 122.503C45.7276 122.568 45.688 122.741 45.8051 122.676C46.8245 122.188 47.7889 121.593 48.6822 120.901C49.0405 120.554 49.3163 120.131 49.4891 119.664C49.6185 119.363 49.7273 119.053 49.8151 118.737C49.8358 118.67 49.8516 118.602 49.8621 118.532C49.9809 118.822 50.1464 119.09 50.3519 119.327C50.2351 118.733 50.289 118.118 50.5074 117.554C50.5816 117.229 50.764 116.93 50.9032 116.621C51.0423 116.311 51.1308 116.024 51.2251 115.761C51.6203 115.008 51.8546 114.182 51.9133 113.333C51.9721 112.485 51.8539 111.634 51.5663 110.833C51.2787 110.033 50.828 109.301 50.2426 108.683C49.6572 108.066 48.95 107.576 48.1657 107.246C47.2101 106.801 46.1326 106.691 45.1067 106.932C43.9116 107.063 42.7522 107.419 41.6902 107.982C40.8804 108.481 40.2219 109.192 39.7852 110.037C39.4992 110.54 39.2456 111.051 38.9738 111.591C38.6973 112.103 38.3154 112.551 37.8534 112.904C37.8386 112.969 37.7307 113.092 37.8015 113.131C38.0924 113.301 38.4351 113.36 38.7658 113.295C38.2512 113.881 37.6159 114.349 36.9036 114.666C36.2331 115.059 35.5496 115.607 35.7933 116.482C35.9054 116.838 36.2938 117.279 36.253 117.657C36.2208 117.797 35.9049 117.884 35.7927 117.927C35.444 118.043 35.1393 118.263 34.9197 118.557C34.7344 118.839 34.6012 119.151 34.5264 119.48C34.5037 119.554 34.4863 119.63 34.4744 119.707C34.4691 120.08 34.3847 120.449 34.2269 120.787C34.0923 121.017 33.922 121.224 33.7223 121.4L33.9127 121.364Z" fill="#E36831"/>
<path d="M37.4144 127.103C37.3922 127.2 37.4737 127.241 37.5442 127.132C38.502 126.186 39.4101 125.19 40.2651 124.149C40.7533 123.586 41.1864 122.976 41.5584 122.33C41.514 122.448 41.4857 122.572 41.4742 122.697C41.4594 122.762 41.5608 122.717 41.5824 122.722C41.7132 122.531 41.8542 122.347 42.0047 122.17C41.9565 122.307 41.9241 122.448 41.9082 122.592C41.8909 122.668 41.9858 122.701 42.0488 122.624C42.6822 121.977 43.3571 121.371 44.0691 120.812C44.1986 120.693 44.3631 120.572 44.5192 120.437C44.3439 120.686 44.218 120.966 44.1481 121.262C44.1481 121.262 44.1932 121.363 44.2563 121.287C45.0768 120.887 45.8498 120.396 46.5608 119.824C46.7292 119.676 46.8787 119.507 47.0057 119.323C47.1224 119.677 47.3063 120.004 47.5473 120.289C47.5015 120.015 47.538 119.735 47.6523 119.482C47.7088 119.378 47.7804 119.284 47.8647 119.201C47.8996 119.15 47.9445 119.106 47.9967 119.072C48.1308 118.971 48.2763 118.886 48.4304 118.819L48.9753 118.477C49.5252 118.199 50.0224 117.828 50.4447 117.38C50.9395 116.828 51.288 116.161 51.4582 115.44C51.5566 115.656 51.6229 115.886 51.655 116.122C51.622 115.818 52.0084 115.224 52.0886 114.924C52.2111 114.551 52.2954 114.166 52.3401 113.776C52.3431 112.964 52.1955 112.159 51.9048 111.401C51.5829 110.383 51.037 109.45 50.3072 108.67C49.5774 107.89 48.6821 107.283 47.6872 106.894C46.6922 106.504 45.6227 106.343 44.5571 106.42C43.4916 106.498 42.457 106.813 41.5293 107.342C41.1431 107.549 40.7784 107.793 40.4402 108.071C40.0547 108.521 39.6956 108.994 39.3649 109.485C39.161 109.789 38.9144 110.062 38.6329 110.296C38.4734 110.396 38.3138 110.496 38.146 110.583C38.4384 110.527 38.7349 110.496 39.0325 110.49C39.0974 110.505 39.0692 110.578 39.0077 110.598C38.7669 110.805 38.4927 110.958 38.2519 111.164C37.9525 111.387 37.7476 111.713 37.678 112.08L37.6558 112.177C37.636 112.263 37.6162 112.35 37.6529 112.438C37.6395 112.703 37.5492 112.959 37.3932 113.175C37.3461 113.38 37.3016 113.574 37.2005 113.767C37.5177 113.811 37.8406 113.78 38.1435 113.676L38.2557 113.634C38.1737 113.877 38.0095 114.085 37.791 114.221L37.5301 114.366C37.1958 114.75 37.0209 115.247 37.0412 115.756C37.0264 115.821 37.0422 116.746 37.0149 117.263C37.3371 117.068 37.6219 116.817 37.8561 116.522C37.7867 117.018 37.7446 117.517 37.73 118.018C37.6999 118.796 37.5449 119.523 37.4946 120.239C37.497 120.257 37.5048 120.274 37.517 120.287C37.5292 120.301 37.5452 120.31 37.5629 120.314C37.5805 120.318 37.599 120.317 37.6158 120.31C37.6326 120.303 37.647 120.291 37.6569 120.276C38.1685 119.594 38.6042 118.859 38.9561 118.083C38.8967 118.342 38.8398 118.591 38.7804 118.85C38.5456 119.603 38.3693 120.372 38.2533 121.152C38.2384 121.217 38.2984 121.253 38.3614 121.177C38.5496 120.977 38.7024 120.747 38.8135 120.496C38.8432 120.366 38.9727 120.248 39.0565 120.13C38.814 120.791 38.5583 121.461 38.2534 122.096C38.2311 122.194 38.2978 122.3 38.3875 122.207C38.9427 121.572 39.4538 120.881 39.9642 120.293C39.7778 120.659 39.5997 121.04 39.4132 121.406C39.2268 121.773 38.8412 122.413 38.625 122.909C38.6052 122.996 38.6711 123.056 38.74 123.004C39.1054 122.752 39.4265 122.441 39.6906 122.084C39.373 123.024 38.9884 123.939 38.5397 124.824C38.2208 125.57 37.7008 126.349 37.4144 127.103Z" fill="#EEA840"/>
<g style="mix-blend-mode:overlay" opacity="0.5">
<path d="M39.6823 111.879C40.2529 111.09 40.9352 110.387 41.7078 109.794L41.1778 111.015C41.2139 110.954 41.2541 110.894 41.2981 110.838C41.5059 110.366 41.79 109.932 42.139 109.552C42.9467 108.7 44.0543 108.195 45.228 108.143C47.1743 108.145 48.3967 109.768 49.0105 111.512C48.9874 110.64 48.6856 109.797 48.1493 109.108C48.7617 109.616 49.2556 110.252 49.5964 110.97C49.9373 111.689 50.1169 112.473 50.1226 113.268C50.1226 113.268 50.8231 111.154 48.636 108.275C49.7051 109.019 50.5632 110.027 51.1265 111.2C51.6898 112.374 51.9391 113.674 51.85 114.972C52.0855 114.057 52.1134 113.101 51.9318 112.174C51.7501 111.247 51.3635 110.372 50.8002 109.613C50.0354 108.426 48.9073 107.518 47.5841 107.025C46.2609 106.531 44.8136 106.478 43.4581 106.874C41.9788 107.256 40.6981 108.181 39.8707 109.465C40.6968 108.701 41.6501 108.088 42.6877 107.653C41.1913 108.635 40.1187 110.143 39.6823 111.879Z" fill="#FFFAD0"/>
</g>
<g style="mix-blend-mode:overlay" opacity="0.5">
<path d="M40.2302 123.209C40.2129 123.284 40.2104 123.295 40.3167 123.228C40.8438 122.667 41.4392 122.154 42.0047 121.624C42.3849 121.256 42.771 120.912 43.1763 120.584C43.3748 120.414 43.6827 120.063 43.4814 120.495C43.4665 120.56 43.4393 120.679 43.5623 120.639C44.5582 120.073 45.4548 119.348 46.2166 118.494C46.1291 118.733 46.0296 118.969 45.9185 119.199C45.8888 119.328 45.9224 119.53 46.0761 119.406C46.4439 119.092 46.7543 118.73 47.133 118.419L47.3847 118.215C47.2406 118.546 47.1197 118.825 47.089 118.909C47.0584 118.993 47.0593 119.039 47.1691 119.007C47.9397 118.598 48.6101 118.024 49.1322 117.325C49.6543 116.627 50.0152 115.821 50.189 114.967C50.2187 114.837 50.0574 114.846 50.016 114.927C49.8068 115.332 49.5623 115.718 49.2854 116.079C49.3775 115.852 49.4326 115.611 49.4487 115.366C49.4445 115.353 49.4371 115.342 49.4272 115.333C49.4173 115.324 49.4053 115.317 49.3922 115.314C49.3791 115.312 49.3655 115.312 49.3527 115.316C49.3398 115.32 49.3282 115.327 49.3189 115.336C49.1452 115.509 48.9877 115.698 48.8484 115.9C48.8995 115.561 48.8779 115.214 48.7849 114.884C48.7525 114.544 48.663 114.212 48.5202 113.902C48.4553 113.887 48.4012 113.875 48.3814 113.961C48.0635 115.023 47.5725 116.025 46.9281 116.927C46.9281 116.927 46.4634 117.515 46.6499 117.148C46.8363 116.781 46.9857 116.577 47.1356 116.27C47.3511 115.907 47.5137 115.515 47.6184 115.106C47.6382 115.02 47.5383 115.008 47.4885 115.076C47.0547 115.669 46.5832 116.234 46.0769 116.767C46.0769 116.767 45.7848 117.098 45.8519 116.954C45.919 116.81 46.2009 116.374 46.3484 116.078C46.6088 115.533 46.8394 114.975 47.039 114.405C47.2574 113.953 47.3708 113.458 47.3706 112.956C47.3706 112.956 47.2841 112.937 47.2516 112.929C46.2706 114.081 45.4763 115.412 44.5612 116.624C44.2857 116.982 44.0019 117.327 43.7073 117.669C43.6152 117.773 42.854 118.611 43.0733 118.001C43.368 117.475 43.5687 116.901 43.6665 116.306C43.6863 116.219 43.5583 116.281 43.5366 116.276C43.2893 116.561 43.0528 116.848 42.8355 117.151C42.7959 117.324 42.8132 117.248 42.8825 116.945C42.9518 116.643 43.0087 116.394 43.019 116.101C43.2614 115.315 43.4451 114.513 43.5684 113.701C43.5857 113.625 43.4933 113.582 43.4386 113.671C43.0976 114.117 42.9315 114.693 42.6288 115.169C42.4597 115.461 42.3264 115.794 42.1789 116.09C42.0963 116.297 42.025 116.509 41.9655 116.724C41.8991 116.367 41.9125 115.961 41.8776 115.566L41.5795 113.587C41.6116 113.446 41.3847 113.542 41.3649 113.629C41.2907 113.953 41.1917 114.385 41.1174 114.71C41.1655 113.922 41.1407 113.132 41.0431 112.349C41.0704 112.23 40.8815 112.21 40.8051 112.295C40.4002 112.824 40.1098 113.432 39.9526 114.079C39.8642 114.982 39.8312 115.89 39.8538 116.798C39.8216 116.938 39.9938 116.932 40.0593 116.845C40.2284 116.429 40.3506 115.995 40.4237 115.552C40.466 115.914 40.3629 116.414 40.3817 116.68C40.4057 117.47 40.3647 118.246 40.3429 119.037C40.3256 119.113 40.4121 119.132 40.4727 119.067C40.6394 118.889 40.7778 118.686 40.8833 118.467C41.0342 118.206 41.3367 117.183 41.1353 118.013C40.9919 118.83 40.7446 119.626 40.3995 120.381C40.3723 120.5 40.4598 120.565 40.5402 120.413C40.7334 120.116 40.9949 119.869 41.1882 119.572C41.3814 119.275 41.4086 119.156 41.5447 118.959C41.4715 119.131 41.4296 119.314 41.4209 119.5C41.129 120.334 40.7829 121.147 40.385 121.936C40.385 121.936 40.3677 122.011 40.4607 121.953C40.5538 121.895 41.0629 121.511 41.0348 121.584C40.7932 122.291 40.4439 122.723 40.2302 123.209Z" fill="#FFFAD0"/>
</g>
<g style="mix-blend-mode:overlay" opacity="0.8">
<path d="M33.2796 129.916C33.3041 129.87 33.3282 129.824 33.3521 129.778C33.3287 129.82 33.3045 129.866 33.2796 129.916Z" fill="#FFFAD0"/>
</g>
<path d="M9.42973 115.872C10.325 114.774 11.1358 113.609 11.8552 112.389C12.2392 111.806 12.6257 111.212 12.9797 110.61C13.3172 110.11 13.6162 109.586 13.8742 109.04C13.9041 108.984 13.9186 108.921 13.9163 108.857C13.0852 109.696 12.3676 110.641 11.7815 111.667C10.8155 112.916 9.9492 114.239 9.19055 115.624C9.09036 115.862 9.2563 116.082 9.42973 115.872Z" fill="#E8887E"/>
<path d="M10.4839 116.887C10.2548 117.141 10.0341 117.409 9.80249 117.675C9.34623 118.261 8.92788 118.876 8.55001 119.515C8.41984 119.735 8.63152 119.955 8.81578 119.747C9.29132 119.215 9.73492 118.656 10.1443 118.071C10.451 117.527 10.7685 116.986 11.0752 116.442C11.2676 116.099 11.4515 115.743 11.6148 115.428C11.2472 115.89 10.8913 116.4 10.4839 116.887Z" fill="#AADDF9"/>
<path d="M4.37981 128.479C5.69097 126.88 7.01294 125.283 8.1875 123.584C9.33222 122.096 10.3495 120.513 11.2286 118.854C11.242 118.828 11.2488 118.798 11.2484 118.768C10.7359 119.243 10.2813 119.776 9.894 120.357C9.20858 121.213 8.57231 122.102 7.92521 122.989C6.6576 124.747 5.26422 126.407 4.05409 128.211C3.87323 128.454 4.16989 128.75 4.37981 128.479Z" fill="#DE3F2C"/>
<path d="M6.44915 121.878C5.97656 122.384 5.51839 122.893 5.07465 123.406C5.06368 123.438 5.05621 123.47 5.05238 123.503C4.54261 124.094 4.07572 124.721 3.65524 125.379C3.54084 125.58 3.72749 125.759 3.90432 125.584C5.27422 124.084 6.50319 122.461 7.57569 120.737C7.16849 121.085 6.79162 121.466 6.44915 121.878Z" fill="#F3C241"/>
<path d="M6.14374 120.477C6.64712 119.975 7.10378 119.429 7.50806 118.844C7.53034 118.747 7.63081 118.656 7.69635 118.569C7.97402 118.052 8.24673 117.557 8.54016 117.022C8.1822 117.388 7.85859 117.786 7.57341 118.211C6.99509 118.879 6.45465 119.58 5.95461 120.309C5.83682 120.475 5.99597 120.625 6.14374 120.477Z" fill="#DE3F2C"/>
<path d="M12.6408 124.024C11.9076 124.658 11.2274 125.35 10.6069 126.095L10.3197 126.404C9.62159 127.166 8.94268 127.943 8.28541 128.725C8.17504 128.859 8.19384 129.125 8.44145 128.989C9.35227 128.212 10.1835 127.347 10.9227 126.406C11.3459 125.9 11.75 125.378 12.1541 124.856C12.2802 124.703 12.369 124.564 12.4868 124.398C12.4527 124.447 12.582 124.181 12.6408 124.024Z" fill="#AADDF9"/>
<path d="M6.28427 129.211C5.81528 129.718 5.32714 130.209 4.80407 130.704C4.12424 131.435 3.47191 132.196 2.74295 132.893C2.71572 133.012 2.80163 133.134 2.9395 133.029C3.75331 132.372 4.51552 131.652 5.21944 130.878L5.4708 130.526C6.08727 129.723 6.7495 128.919 7.28934 128.053C6.95731 128.41 6.61877 128.844 6.28427 129.211Z" fill="#E8887E"/>
<path d="M10.9941 127.287C11.6146 126.769 12.1703 126.178 12.6493 125.527C13.1515 124.955 13.5734 124.316 13.9033 123.63C12.7858 124.696 11.7591 125.854 10.834 127.091C10.6961 127.196 10.8272 127.419 10.9941 127.287Z" fill="#DE3F2C"/>
<path d="M14.5023 125.44C15.8544 124.006 17.096 122.473 18.2166 120.853C18.6986 120.19 19.1747 119.502 19.6484 118.826C20.122 118.149 20.3497 117.553 20.7578 116.964L20.5203 117.205C20.2631 117.533 20.0142 117.874 19.7428 118.165C19.1146 118.92 18.4839 119.685 17.8748 120.456C16.5805 121.985 15.3707 123.584 14.2508 125.245C14.1497 125.438 14.3363 125.618 14.5023 125.44Z" fill="#E8887E"/>
<path d="M14.745 123.186C15.0663 122.9 15.3626 122.587 15.6307 122.251C15.9255 121.859 16.1977 121.45 16.446 121.027C16.207 121.217 15.9868 121.43 15.7885 121.662C15.3444 122.073 14.9457 122.531 14.5992 123.027C14.5444 123.117 14.6189 123.339 14.745 123.186Z" fill="#F3C241"/>
<path d="M22.7067 117.501C23.169 117.064 23.5909 116.585 23.9675 116.072C24.463 115.306 24.9048 114.506 25.2896 113.679C24.909 114.107 24.5549 114.558 24.2292 115.029C23.6467 115.783 22.9743 116.482 22.4576 117.296C22.3191 117.504 22.4974 117.67 22.7067 117.501Z" fill="#DE3F2C"/>
<path d="M18.0371 122.233C19.0126 121.154 19.9228 120.018 20.763 118.831C21.211 118.217 21.6398 117.587 22.0278 116.936C22.2285 116.607 22.4375 116.291 22.6215 115.935C22.6611 115.762 22.8005 115.6 22.8942 115.44C22.9879 115.279 23.0482 115.066 22.9164 115.343C22.9628 115.256 23.0024 115.166 23.0349 115.074C22.7654 115.381 22.5131 115.703 22.279 116.038C22.1114 116.273 21.9522 116.521 21.7871 116.745C21.3416 117.348 20.9319 117.994 20.4756 118.594C19.5944 119.758 18.6666 120.876 17.8455 122.076C17.7243 122.207 17.8834 122.358 18.0371 122.233Z" fill="#F3C241"/>
<path d="M26.5599 114.197C27.1246 113.576 27.6388 112.91 28.0973 112.206C28.3636 111.789 28.6106 111.357 28.8576 110.924C29.0965 110.409 29.3669 109.908 29.6674 109.426C29.6823 109.361 29.6674 109.426 29.6674 109.426C29.1417 110.005 28.6798 110.639 28.2895 111.317C27.6699 112.233 26.9362 113.101 26.3933 114.08C26.2638 114.198 26.4204 114.359 26.5599 114.197Z" fill="#AADDF9"/>
<path d="M26.976 111.733C27.1865 111.525 27.3791 111.299 27.5519 111.058C27.751 110.785 27.8253 110.46 28.0435 110.203C27.8433 110.397 27.6644 110.612 27.5099 110.843C27.3167 111.14 27.0959 111.408 26.9135 111.708C26.8387 111.736 26.9129 111.81 26.976 111.733Z" fill="#E8887E"/>
<path d="M13.8018 108.114C14.9862 106.643 16.0237 105.059 16.8995 103.386L16.9991 103.249C16.4378 103.842 15.9385 104.49 15.5089 105.183C14.8544 106.103 14.1915 107.009 13.6269 107.983C13.5431 108.1 13.6782 108.256 13.8018 108.114Z" fill="#F3C241"/>
<path d="M11.3724 110.47L10.5435 111.554C10.3926 111.815 10.2501 112.09 10.11 112.353C9.96997 112.617 10.1848 112.723 10.3291 112.54C10.9323 111.745 11.4839 110.927 12.0296 110.086C12.2825 109.677 12.5055 109.25 12.75 108.829L13.1804 108.142C13.1804 108.142 13.2274 107.937 13.2571 107.807C12.645 108.691 12.0387 109.598 11.3724 110.47Z" fill="#DE3F2C"/>
<path d="M7.22068 127.458C8.46126 126.365 9.66692 125.276 10.8092 124.116C10.1213 124.982 9.42262 125.846 8.69394 126.692C8.69394 126.692 8.65186 126.875 8.75325 126.83C9.28463 126.445 9.76896 125.998 10.1963 125.5C10.9833 124.816 11.7343 124.092 12.4463 123.331C13.1036 122.548 13.8542 121.856 14.4873 121.079C14.2239 121.633 13.9521 122.174 13.6994 122.73C13.6821 122.806 13.7504 122.856 13.8076 122.755C14.5419 121.786 15.5942 120.969 16.4209 120.043C17.0215 119.42 17.5588 118.739 18.0248 118.01C17.8547 118.628 17.5895 119.216 17.2388 119.753C17.219 119.839 17.2458 119.971 17.3463 119.88C17.9751 119.292 18.5702 118.668 19.1286 118.013C19.5005 117.49 19.7134 116.871 19.7415 116.231C19.8737 115.306 20.7895 115.333 21.435 114.901C21.33 115.126 21.2046 115.341 21.0602 115.543C21.0602 115.543 21.0305 115.673 21.0945 115.642C22.5884 114.92 23.7848 113.703 24.4791 112.197C24.4864 112.492 24.4422 112.786 24.3485 113.065C24.3262 113.163 24.4078 113.204 24.4891 113.098C24.9221 112.624 25.2265 112.048 25.3734 111.423C25.4675 111.111 25.5403 110.794 25.5912 110.472C25.6697 110.2 25.8106 109.949 26.0026 109.74C26.1946 109.532 26.4326 109.37 26.6977 109.269C27.1181 109.024 27.769 108.866 28.3183 108.605C28.1559 108.928 27.9637 109.234 27.7445 109.52C27.7296 109.585 27.69 109.758 27.8072 109.694C28.8538 109.202 29.8435 108.597 30.759 107.89C31.1174 107.543 31.3932 107.121 31.566 106.653C31.7005 106.354 31.8095 106.044 31.8919 105.727C31.9127 105.66 31.9284 105.591 31.939 105.521C32.0612 105.809 32.2263 106.077 32.4287 106.316C32.3153 105.722 32.3729 105.108 32.595 104.545C32.6693 104.221 32.8409 103.919 32.98 103.61C33.1192 103.3 33.2077 103.014 33.302 102.751C33.789 101.767 34.0374 100.682 34.0271 99.5839C33.8676 98.4628 33.4457 97.3951 32.7956 96.4675C32.1455 95.5398 31.2856 94.7785 30.2858 94.2454C29.3266 93.7998 28.2457 93.6885 27.216 93.9292C26.0236 94.0575 24.8672 94.4146 23.8103 94.9808C22.9976 95.4791 22.3355 96.1885 21.8945 97.0333C21.6085 97.5366 21.3549 98.0473 21.094 98.5904C20.8134 99.102 20.4279 99.5486 19.9628 99.9012C19.9504 99.9552 19.84 100.089 19.9108 100.128C20.1912 100.314 20.5295 100.391 20.8627 100.346C20.3399 100.912 19.7018 101.359 18.9913 101.658C18.31 102.048 17.6373 102.599 17.8701 103.472C17.9823 103.827 18.3707 104.269 18.3406 104.649C18.3085 104.789 17.9926 104.876 17.8695 104.916C17.5209 105.032 17.2162 105.252 16.9966 105.547C16.8161 105.831 16.6833 106.142 16.6032 106.469C16.5859 106.545 16.5686 106.62 16.5512 106.696C16.5459 107.07 16.4616 107.438 16.3037 107.777C15.9859 108.286 15.525 108.691 14.9785 108.941C15.2136 109.01 15.4603 109.032 15.7039 109.004C15.2663 109.338 14.8635 109.714 14.5016 110.128C14.2462 110.485 14.0581 110.885 13.9466 111.309C13.808 111.915 13.7451 112.537 13.5308 113.125C13.7446 112.944 13.9483 112.752 14.141 112.548C14.0252 112.957 13.9302 113.372 13.8564 113.791C13.685 114.675 13.4152 115.536 13.052 116.36C12.7865 116.745 12.5919 117.174 12.4771 117.627C12.4771 117.627 12.4598 117.703 12.5528 117.645C12.8564 117.523 13.1199 117.32 13.3136 117.057C13.2864 117.176 13.2592 117.295 13.2394 117.381C12.9827 118.005 12.6528 118.6 12.3878 119.211C12.1228 119.821 11.7017 120.567 11.3844 121.256C11.0671 121.946 10.715 122.24 10.4491 122.805C10.4491 122.805 10.4169 122.946 10.5001 122.931C10.6771 122.875 10.8472 122.799 11.007 122.705C9.82323 124.334 8.51972 125.872 7.10728 127.307C7.02752 127.357 7.09362 127.565 7.22068 127.458Z" fill="#DE3F2C"/>
<path d="M19.4506 114.071C19.4283 114.168 19.5099 114.21 19.5804 114.101C20.5416 113.157 21.4499 112.162 22.3013 111.118C22.7895 110.554 23.2225 109.945 23.5945 109.298C23.5553 109.418 23.5271 109.541 23.5104 109.666C23.4955 109.731 23.5969 109.686 23.6186 109.691C23.7494 109.499 23.8904 109.315 24.0409 109.139C23.998 109.277 23.9657 109.418 23.9444 109.56C23.9468 109.576 23.9537 109.59 23.9643 109.601C23.9749 109.613 23.9886 109.621 24.0038 109.624C24.0189 109.628 24.0347 109.626 24.0492 109.621C24.0637 109.615 24.0762 109.605 24.085 109.593C24.7184 108.945 25.3932 108.34 26.1052 107.78C26.2348 107.662 26.3992 107.54 26.5661 107.408C26.387 107.655 26.2607 107.935 26.1951 108.233C26.199 108.243 26.2053 108.252 26.2136 108.26C26.2219 108.267 26.2318 108.272 26.2425 108.274C26.2532 108.277 26.2644 108.277 26.275 108.274C26.2856 108.271 26.2953 108.265 26.3033 108.258C27.1223 107.86 27.8921 107.368 28.597 106.792C28.7679 106.642 28.9183 106.47 29.0443 106.28C29.1578 106.636 29.342 106.964 29.5859 107.246C29.5388 106.977 29.5745 106.699 29.6884 106.451C29.7449 106.347 29.8165 106.252 29.9008 106.169C29.9358 106.118 29.9806 106.074 30.0328 106.04C30.1669 105.939 30.3125 105.854 30.4665 105.787L31.0906 105.498C31.6436 105.221 32.1444 104.851 32.5707 104.403C33.0682 103.854 33.4137 103.184 33.5735 102.46C33.6718 102.677 33.7381 102.907 33.7702 103.142C33.7372 102.839 34.1237 102.245 34.2063 101.934C34.3251 101.539 34.3956 101.131 34.4161 100.719C34.4212 99.9077 34.2736 99.1021 33.9808 98.3447C33.6494 97.3381 33.1057 96.4142 32.3865 95.6353C31.6674 94.8564 30.7894 94.2407 29.8118 93.8297C28.6004 93.3712 27.2902 93.2373 26.0112 93.4413C24.7322 93.6453 23.5291 94.1802 22.5212 94.9928C22.1261 95.4256 21.8086 95.9671 21.4567 96.4098C21.2489 96.7132 20.9988 96.9853 20.7138 97.218C20.5543 97.318 20.3948 97.4179 20.227 97.5046C20.5196 97.4511 20.816 97.4201 21.1134 97.4119C21.1784 97.4267 21.0961 97.4875 21.0887 97.5199C20.8479 97.7264 20.5845 97.8823 20.3329 98.0863C20.0417 98.316 19.839 98.6393 19.759 99.0014L19.7367 99.0987C19.7169 99.1851 19.6972 99.2716 19.7339 99.3596C19.7251 99.6261 19.6344 99.8834 19.4741 100.096C19.4296 100.291 19.3826 100.496 19.2815 100.689C19.5986 100.733 19.9216 100.702 20.2245 100.598L20.3367 100.556C20.2547 100.799 20.0904 101.007 19.872 101.143L19.6111 101.288C19.2816 101.675 19.1073 102.17 19.1222 102.678C19.1073 102.742 19.1232 103.668 19.1067 104.187C19.4256 103.991 19.7068 103.739 19.9371 103.444C19.8713 103.941 19.8328 104.441 19.8218 104.942C19.7808 105.718 19.6258 106.444 19.5756 107.161C19.5533 107.258 19.6782 107.31 19.7379 107.198C20.2495 106.516 20.6852 105.781 21.0371 105.004C20.9948 105.264 20.9361 105.52 20.8614 105.772C20.6319 106.526 20.4558 107.295 20.3342 108.074C20.3366 108.087 20.3427 108.098 20.3517 108.108C20.3607 108.117 20.3722 108.124 20.3848 108.127C20.3975 108.129 20.4107 108.129 20.4228 108.124C20.435 108.12 20.4455 108.112 20.4532 108.101C20.6379 107.9 20.7871 107.669 20.8944 107.417C20.9241 107.288 21.0537 107.169 21.1374 107.052C20.895 107.713 20.6525 108.374 20.3452 109.021C20.3229 109.118 20.3788 109.222 20.4685 109.129C21.0237 108.494 21.5348 107.803 22.0452 107.214C21.8587 107.581 21.6806 107.961 21.4942 108.328C21.3077 108.695 20.9114 109.332 20.6952 109.829C20.6754 109.915 20.7412 109.976 20.8102 109.923C21.1755 109.671 21.4967 109.36 21.7608 109.004C21.4469 109.944 21.0659 110.86 20.6206 111.746C20.257 112.538 19.7793 113.282 19.4506 114.071Z" fill="#EEA840"/>
<g style="mix-blend-mode:overlay" opacity="0.5">
<path d="M21.7606 98.8115C22.3332 98.0239 23.0152 97.3221 23.7862 96.7272L23.2413 98.013L23.3724 97.8382C23.5802 97.3663 23.8643 96.9317 24.2134 96.552C25.0123 95.6936 26.119 95.1863 27.2915 95.1411C29.2378 95.1431 30.4711 96.7677 31.02 98.4973C30.9968 97.6248 30.695 96.7824 30.1587 96.0933C30.7794 96.5968 31.2819 97.2302 31.6307 97.9489C31.9796 98.6676 32.1663 99.454 32.1778 100.253C32.1778 100.253 32.8891 98.1404 30.6911 95.2597C31.7603 96.0034 32.6184 97.0112 33.1817 98.1848C33.745 99.3585 33.9942 100.658 33.9052 101.956C34.1406 101.041 34.1686 100.085 33.9869 99.1582C33.8053 98.231 33.4187 97.356 32.8554 96.597C32.0906 95.4104 30.9625 94.5025 29.6393 94.0089C28.3161 93.5153 26.8688 93.4623 25.5133 93.858C24.034 94.2405 22.7532 95.1656 21.9259 96.4491C22.7519 95.6856 23.7053 95.0724 24.7429 94.6371C23.2656 95.6113 22.2029 97.0987 21.7606 98.8115Z" fill="#FFFAD0"/>
</g>
<g style="mix-blend-mode:overlay" opacity="0.5">
<path d="M22.2987 110.185C22.2814 110.26 22.3438 110.286 22.3853 110.204C22.9232 109.645 23.5186 109.133 24.0757 108.589C24.4534 108.232 24.8396 107.888 25.2448 107.56C25.4541 107.392 25.7512 107.039 25.5499 107.471C25.5351 107.536 25.5078 107.655 25.6309 107.615C26.6355 107.042 27.5385 106.307 28.3034 105.44C28.2159 105.68 28.1164 105.915 28.0053 106.145C27.9756 106.275 28.02 106.478 28.1628 106.352C28.5307 106.038 28.8411 105.676 29.2198 105.365L29.4714 105.161C29.3382 105.495 29.2064 105.772 29.1758 105.855C29.1452 105.939 29.1461 105.985 29.2558 105.953C30.0264 105.544 30.6969 104.97 31.219 104.271C31.7411 103.573 32.102 102.767 32.2758 101.913C32.3055 101.783 32.155 101.794 32.1027 101.873C31.8914 102.275 31.6508 102.661 31.383 103.028C31.4547 102.788 31.4887 102.539 31.4839 102.289C31.4797 102.276 31.4723 102.265 31.4624 102.256C31.4525 102.247 31.4404 102.24 31.4274 102.237C31.4143 102.234 31.4007 102.235 31.3878 102.239C31.375 102.242 31.3633 102.25 31.3541 102.259C31.1801 102.43 31.0259 102.62 30.8943 102.825C30.9348 102.486 30.9133 102.141 30.8309 101.81C30.7947 101.468 30.7016 101.136 30.5554 100.825C30.5013 100.813 30.4364 100.798 30.4166 100.884C30.0994 101.954 29.6066 102.964 28.9583 103.872C28.9583 103.872 28.4936 104.459 28.6801 104.093C28.8665 103.726 29.0267 103.524 29.1658 103.214C29.3813 102.851 29.5439 102.46 29.6486 102.051C29.6684 101.964 29.5793 101.955 29.5296 102.023C29.0957 102.616 28.6242 103.181 28.1179 103.714C28.1179 103.714 27.815 104.042 27.8929 103.901C28.0296 103.602 28.2311 103.319 28.3786 103.023C28.6448 102.48 28.8755 101.921 29.0692 101.349C29.2876 100.898 29.401 100.403 29.4008 99.9009C29.4157 99.8361 29.3143 99.8811 29.2818 99.8737C28.3117 101.028 27.5065 102.356 26.5914 103.569C26.3159 103.927 26.0321 104.271 25.7375 104.613C25.6454 104.717 24.8842 105.555 25.1035 104.946C25.4258 104.426 25.66 103.857 25.7965 103.262C25.8138 103.186 25.6775 103.234 25.6559 103.229C25.4083 103.508 25.1778 103.801 24.9655 104.107C24.9259 104.279 24.9408 104.215 25.0125 103.901C25.0843 103.588 25.1387 103.35 25.2031 103.069C25.4453 102.284 25.6289 101.482 25.7525 100.669C25.7698 100.594 25.6774 100.55 25.6119 100.637C25.3195 101.123 25.0529 101.624 24.8129 102.138C24.6437 102.435 24.4934 102.742 24.363 103.059C24.2716 103.263 24.1966 103.474 24.1388 103.69C24.0749 103.322 24.0858 102.927 24.0509 102.532C23.9624 101.875 23.8846 101.22 23.8068 100.565C23.7849 100.412 23.6013 100.518 23.5815 100.605C23.5073 100.929 23.4083 101.361 23.334 101.685C23.3803 100.899 23.359 100.11 23.2705 99.3276C23.2657 99.3022 23.2536 99.2787 23.2356 99.26C23.2177 99.2413 23.1946 99.2283 23.1694 99.2225C23.1441 99.2167 23.1177 99.2184 23.0934 99.2274C23.0691 99.2364 23.0479 99.2523 23.0325 99.2731C22.6243 99.8007 22.3303 100.407 22.1692 101.055C22.0808 101.958 22.0478 102.866 22.0704 103.774C22.0382 103.914 22.2212 103.91 22.2759 103.821C22.4071 103.426 22.4929 103.019 22.5315 102.605C22.5446 102.982 22.5306 103.359 22.4895 103.733C22.5134 104.523 22.4725 105.299 22.4507 106.09C22.4468 106.107 22.4498 106.125 22.4592 106.14C22.4686 106.155 22.4835 106.166 22.5007 106.17C22.518 106.174 22.536 106.171 22.551 106.161C22.5659 106.152 22.5766 106.137 22.5805 106.12C22.7471 105.942 22.8856 105.74 22.9911 105.52C23.142 105.259 23.4445 104.236 23.2431 105.066C23.1008 105.88 22.8544 106.672 22.5098 107.423C22.4801 107.553 22.5675 107.618 22.6504 107.455C22.8436 107.158 23.1052 106.911 23.2984 106.614C23.4916 106.317 23.5189 106.198 23.6549 106.002C23.5924 106.176 23.5508 106.358 23.5312 106.542C23.2443 107.378 22.8981 108.192 22.4952 108.978C22.4952 108.978 22.4779 109.054 22.571 108.996C22.664 108.937 23.1731 108.553 23.145 108.627C22.8219 109.292 22.5124 109.699 22.2987 110.185Z" fill="#FFFAD0"/>
</g>
<g style="mix-blend-mode:overlay" opacity="0.8">
<path d="M13.1978 119.999C13.7354 119.292 14.2598 118.593 14.8215 117.88C15.0479 117.499 15.2521 117.105 15.4331 116.7C15.2773 116.983 15.0986 117.465 14.9279 117.813C14.5253 118.533 14.1619 119.274 13.8391 120.032L14.1498 119.819C14.4885 119.536 14.8062 119.228 15.1004 118.899C15.2522 118.684 15.3775 118.485 15.5085 118.31C16.0137 117.595 16.5597 116.901 17.0241 116.166C17.1339 115.933 17.2236 115.691 17.2922 115.442C17.1046 115.616 16.9769 115.825 16.8109 116.003C16.6449 116.182 16.3051 116.82 16.5305 116.383C16.8503 115.888 17.103 115.353 17.2819 114.792C17.2992 114.716 17.2102 114.707 17.1629 114.764C16.8043 115.137 16.33 115.518 16.023 115.914C16.2986 115.547 16.5181 115.141 16.6745 114.71C16.8128 114.354 16.9702 114.015 17.1059 113.671C17.247 113.055 17.3182 112.445 17.4135 111.83C17.3838 111.96 17.2676 112.07 17.1946 112.19C17.1216 112.309 16.4316 113.334 16.6387 112.927C16.6783 112.754 16.8079 112.636 16.8799 112.47C17.144 111.936 17.366 111.382 17.5438 110.814C17.2827 111.166 17.0038 111.504 16.7082 111.828C16.7082 111.828 16.6127 111.897 16.6108 111.806C16.5025 111.087 16.592 110.352 16.8697 109.681C17.1126 109.278 17.2558 108.824 17.2872 108.355C17.2891 108.09 17.2775 107.825 17.2524 107.562C17.1962 107.931 17.0797 108.289 16.9076 108.62L16.8853 108.718C16.8853 108.718 16.8853 108.718 16.8729 108.772C16.4828 109.169 16.0637 109.537 15.6191 109.872C15.4388 110.039 15.3189 110.26 15.278 110.502C15.237 110.743 15.2774 110.992 15.3928 111.208C15.5124 111.438 15.5371 111.705 15.4616 111.952C15.3126 112.305 15.0112 112.577 14.8572 112.951C14.7032 113.325 14.6883 113.39 14.6039 113.61C14.8421 113.448 15.0889 113.3 15.3433 113.165C15.3433 113.165 15.419 113.182 15.419 113.182C14.9899 114.418 14.385 115.586 13.6232 116.65C13.9664 116.516 14.2905 116.338 14.587 116.12C14.433 116.806 14.1893 117.47 13.8621 118.092C13.8621 118.092 13.8349 118.211 13.82 118.276C13.7458 118.6 13.585 118.905 13.4567 119.217C13.2124 119.786 12.9489 120.34 12.6746 120.892C12.8705 120.607 13.0453 120.309 13.1978 119.999Z" fill="#FFFAD0"/>
</g>
<path d="M36.3997 101.106C38.8355 97.4474 40.8749 93.5407 42.4837 89.4512L33.0345 82.5897C29.6385 85.3879 26.5506 88.5399 23.8231 91.9922C25.3033 94.1661 27.1987 96.0265 29.4003 97.4667C31.4647 99.138 33.8454 100.376 36.3997 101.106Z" fill="white"/>
<path d="M29.8465 98.1034L29.3459 97.7044L28.7862 97.3146C26.7715 95.9307 25.0366 94.1787 23.6728 92.1511C23.6542 92.0993 23.6509 92.0433 23.6632 91.9897C23.6755 91.936 23.7029 91.887 23.7421 91.8485C26.4413 88.3789 29.4965 85.2011 32.8577 82.3671C32.9058 82.3326 32.9634 82.3138 33.0226 82.3131C33.0818 82.3124 33.1398 82.3299 33.1887 82.3633L42.6704 89.2323C42.719 89.2676 42.7548 89.3177 42.7724 89.3751C42.7901 89.4325 42.7886 89.494 42.7683 89.5505C41.1351 93.6582 39.0727 97.5822 36.6154 101.257C36.5856 101.304 36.5417 101.341 36.4899 101.362C36.4382 101.382 36.3812 101.387 36.327 101.373C33.9796 100.702 31.7805 99.5929 29.8465 98.1034ZM29.6319 97.2011L30.1841 97.6234C32.0273 99.0096 34.0957 100.068 36.2984 100.752C38.6378 97.212 40.6173 93.4469 42.2076 89.5131L33.1049 82.8787C29.8394 85.5983 26.855 88.6381 24.1964 91.9525C25.6617 94.0281 27.5058 95.8088 29.6319 97.2011Z" fill="#B3B5B8"/>
<path d="M40.274 94.4279C41.1251 92.818 41.8845 91.1614 42.5487 89.4659L33.0995 82.6043C31.7064 83.7445 30.3757 84.9587 29.1131 86.2416C31.9677 89.9867 35.8431 92.8292 40.274 94.4279Z" fill="#ADAFB2"/>
<path d="M34.0051 91.3773C32.0518 89.9632 30.3226 88.2634 28.8754 86.3352C28.8314 86.2842 28.8094 86.218 28.8141 86.1509C28.8188 86.0838 28.8498 86.0212 28.9005 85.9769C30.1734 84.6984 31.5112 83.486 32.9085 82.3446C32.9566 82.3101 33.0142 82.2912 33.0734 82.2905C33.1326 82.2898 33.1906 82.3074 33.2395 82.3408L42.6705 89.2323C42.7191 89.2676 42.7549 89.3177 42.7725 89.3751C42.7902 89.4325 42.7887 89.494 42.7684 89.5505C42.7684 89.5505 42.0203 91.5746 40.4863 94.5449C40.4539 94.6048 40.4006 94.6506 40.3365 94.6737C40.2724 94.6968 40.2021 94.6955 40.1389 94.6701C37.9494 93.8666 35.8844 92.7581 34.0051 91.3773ZM29.4948 86.2154C30.8683 88.0135 32.488 89.6097 34.3063 90.9572C36.0998 92.2497 38.0571 93.2985 40.1269 94.0759C41.2812 91.7694 41.9477 90.1019 42.1654 89.5489L33.0626 82.9145C32.64 83.3182 31.2439 84.4432 29.4574 86.2296L29.4948 86.2154Z" fill="#545456"/>
<path d="M25.375 90.1862C24.8887 90.7687 24.3758 91.3679 23.823 91.9921C25.3033 94.166 27.1986 96.0265 29.4002 97.4666C31.4466 99.125 33.8045 100.357 36.3348 101.091C36.7685 100.439 37.1624 99.8127 37.5455 99.1838C32.6318 97.5596 28.3669 94.4065 25.375 90.1862Z" fill="#ADAFB2"/>
<path d="M29.8464 98.1033L29.3458 97.7043L28.7861 97.3145C26.7714 95.9305 25.0365 94.1786 23.6727 92.1509C23.6542 92.0991 23.6509 92.0431 23.6631 91.9895C23.6754 91.9359 23.7028 91.8869 23.742 91.8483C24.22 91.2525 24.7196 90.6616 25.294 90.0424C25.3202 90.0099 25.3536 89.984 25.3916 89.9669C25.4296 89.9497 25.4712 89.9417 25.5128 89.9435C25.5545 89.9453 25.5952 89.9568 25.6316 89.9772C25.668 89.9976 25.6991 90.0262 25.7224 90.0608C27.1662 92.1532 28.9448 93.994 30.9869 95.5092C33.0208 96.9816 35.267 98.1365 37.6482 98.9342C37.689 98.9457 37.7264 98.9667 37.7574 98.9956C37.7885 99.0244 37.8121 99.0603 37.8265 99.1001C37.8375 99.1393 37.8384 99.1806 37.8294 99.2202C37.8203 99.2598 37.8014 99.2966 37.7745 99.3271C37.3342 100.057 36.9428 100.672 36.5613 101.245C36.5314 101.292 36.4875 101.328 36.4358 101.349C36.3841 101.37 36.3271 101.374 36.2729 101.361C33.9453 100.687 31.7652 99.5823 29.8464 98.1033ZM29.6318 97.201L30.1841 97.6232C32.0262 99.0111 34.0949 100.07 36.2984 100.752C36.5936 100.308 36.883 99.8396 37.2089 99.3113C34.8932 98.5037 32.7075 97.3633 30.7207 95.926C28.6667 94.4477 26.8645 92.6485 25.3832 90.5974C24.9782 91.0735 24.5949 91.5544 24.2347 91.9839C25.6917 94.0446 27.5224 95.8142 29.6318 97.201Z" fill="#545456"/>
<path d="M27.9614 87.3432C27.4816 87.8476 26.9702 88.3902 26.449 88.9761C29.4181 93.1013 33.6095 96.1899 38.4304 97.8053C38.8259 97.1224 39.1898 96.4777 39.5272 95.8497C34.9042 94.2401 30.8736 91.2757 27.9614 87.3432Z" fill="#ADAFB2"/>
<path d="M31.6713 94.608C29.5668 93.0916 27.7254 91.2404 26.2205 89.1284C26.192 89.0744 26.1838 89.012 26.1974 88.9525C26.2111 88.893 26.2456 88.8403 26.2948 88.8041C26.7845 88.2565 27.2825 87.7221 27.8096 87.1603C27.8681 87.1066 27.9438 87.0755 28.0232 87.0727C28.0648 87.0764 28.1051 87.0886 28.1417 87.1087C28.1783 87.1289 28.2102 87.1564 28.2355 87.1896C29.6546 89.1693 31.3755 90.9144 33.3356 92.3614C35.2611 93.7537 37.3767 94.8625 39.6174 95.654C39.6555 95.6645 39.6901 95.6849 39.7176 95.7132C39.7452 95.7415 39.7647 95.7766 39.7741 95.815C39.7826 95.8524 39.7826 95.8913 39.7741 95.9287C39.7655 95.9662 39.7486 96.0012 39.7246 96.0312C39.3764 96.6567 39.0233 97.3039 38.6279 97.9868C38.5945 98.0196 38.5538 98.0438 38.509 98.0573C38.4643 98.0709 38.4169 98.0733 38.371 98.0645C35.9768 97.2553 33.7182 96.09 31.6713 94.608ZM26.809 88.9446C28.2564 90.9369 30.0116 92.6866 32.009 94.128C33.9457 95.5229 36.072 96.6342 38.3232 97.4279C38.62 96.9271 38.8952 96.4214 39.1472 95.9672C36.9787 95.1659 34.9311 94.0693 33.0626 92.7084C31.1303 91.3097 29.4157 89.6329 27.9745 87.7327C27.542 88.1797 27.1652 88.5825 26.7883 88.9854L26.809 88.9446Z" fill="#545456"/>
<g style="mix-blend-mode:screen" opacity="0.5">
<path d="M35.4407 84.3121L34.7577 83.8144C32.9684 85.4636 30.8525 86.7991 29.129 88.5089C27.6438 90.023 26.1488 91.5803 24.722 93.1874C24.9513 93.4788 25.2489 93.82 25.6305 94.1917C28.6471 90.6565 31.9265 87.3539 35.4407 84.3121Z" fill="white"/>
</g>
<g style="mix-blend-mode:multiply">
<path d="M30.6395 98.3191C32.3851 99.5718 34.3337 100.514 36.3997 101.105C38.8354 97.4473 40.8749 93.5406 42.4836 89.4511L38.7473 86.7756C37.2184 89.3262 31.8841 97.1594 30.6395 98.3191Z" fill="#B3B5B8"/>
</g>
<path d="M53.9897 113.881C56.4289 110.225 58.4686 106.317 60.0736 102.226L50.6352 95.3672C47.2429 98.1669 44.1586 101.32 41.4346 104.772C42.9087 106.951 44.8052 108.813 47.0119 110.247C49.0713 111.912 51.444 113.148 53.9897 113.881Z" fill="white"/>
<path d="M47.4364 110.879L46.9142 110.475L46.323 110.123C44.303 108.745 42.567 106.992 41.2096 104.96C41.1812 104.911 41.1675 104.856 41.1703 104.8C41.173 104.744 41.1919 104.69 41.2248 104.645C43.9643 101.158 47.0708 97.9756 50.4909 95.1523C50.5371 95.1183 50.5927 95.0994 50.65 95.0983C50.7074 95.0971 50.7636 95.1138 50.8111 95.1459L60.2387 102.003C60.2873 102.038 60.3231 102.088 60.3407 102.145C60.3584 102.203 60.357 102.264 60.3366 102.321C58.719 106.429 56.6749 110.357 54.2378 114.04C54.2059 114.085 54.1617 114.119 54.1106 114.14C54.0595 114.161 54.0036 114.166 53.9494 114.156C51.5896 113.488 49.379 112.375 47.4364 110.879ZM47.2011 110.017L47.7533 110.439C49.5969 111.825 51.6652 112.883 53.8676 113.568C56.2058 110.028 58.1819 106.262 59.766 102.327L50.6633 95.6922C47.4014 98.4156 44.4174 101.455 41.7548 104.766C43.2259 106.841 45.0733 108.622 47.2011 110.017Z" fill="#B3B5B8"/>
<path d="M57.9071 107.213C58.7558 105.602 59.5152 103.946 60.1817 102.251L50.7433 95.392C49.3445 96.5285 48.01 97.742 46.7461 99.0268C49.6007 102.772 53.4762 105.614 57.9071 107.213Z" fill="#ADAFB2"/>
<path d="M51.59 104.174C49.6369 102.759 47.9038 101.062 46.447 99.1403C46.4095 99.0846 46.3918 99.0179 46.3968 98.951C46.4018 98.8841 46.4292 98.8208 46.4745 98.7713C47.7478 97.49 49.0894 96.2782 50.4934 95.1414C50.5388 95.1058 50.5947 95.0859 50.6524 95.0848C50.7102 95.0837 50.7667 95.1013 50.8136 95.1351L60.2387 102.003C60.2873 102.038 60.3231 102.088 60.3407 102.145C60.3584 102.203 60.3569 102.264 60.3366 102.321C59.669 104.026 58.9071 105.694 58.0545 107.315C58.0246 107.375 57.9734 107.421 57.9111 107.444C57.8488 107.468 57.7798 107.468 57.7179 107.443C55.5318 106.646 53.4689 105.546 51.59 104.174ZM47.0797 99.0122C48.45 100.8 50.0639 102.387 51.8745 103.727C53.668 105.02 55.6253 106.069 57.6952 106.846C58.4523 105.373 59.1326 103.862 59.7336 102.319L50.6308 95.6848C50.2107 96.0777 48.8122 97.2135 47.0364 99.0023L47.0797 99.0122Z" fill="#545456"/>
<path d="M42.9433 102.956C42.4462 103.536 41.9441 104.138 41.3913 104.762C42.8654 106.941 44.7619 108.803 46.9686 110.237C49.019 111.896 51.3803 113.129 53.9139 113.863C54.3369 113.209 54.7308 112.583 55.1139 111.954C50.2002 110.33 45.9353 107.177 42.9433 102.956Z" fill="#ADAFB2"/>
<path d="M47.4364 110.878L46.9141 110.474L46.3229 110.123C44.3029 108.745 42.5669 106.992 41.2095 104.959C41.1811 104.911 41.1675 104.856 41.1702 104.8C41.1729 104.744 41.1918 104.69 41.2247 104.644C41.6869 104.068 42.1707 103.496 42.7767 102.838C42.8033 102.805 42.8381 102.778 42.8778 102.761C42.9174 102.745 42.9607 102.738 43.0036 102.743C43.0463 102.741 43.0887 102.751 43.1261 102.771C43.1636 102.792 43.1946 102.822 43.2159 102.859C44.6985 104.979 46.5297 106.833 48.6318 108.342C50.6658 109.796 52.9076 110.934 55.2814 111.719C55.3212 111.729 55.3577 111.75 55.3872 111.778C55.4166 111.807 55.4379 111.843 55.4489 111.883C55.4565 111.922 55.4558 111.963 55.4468 112.002C55.4379 112.041 55.4209 112.078 55.3969 112.11C54.9773 112.799 54.5726 113.422 54.1837 114.027C54.1517 114.072 54.1076 114.107 54.0564 114.127C54.0053 114.148 53.9494 114.153 53.8953 114.143C51.5554 113.472 49.3637 112.365 47.4364 110.878ZM47.201 110.017L47.7533 110.439C49.6 111.82 51.6674 112.878 53.8676 113.568C54.1678 113.102 54.4572 112.634 54.7781 112.127C52.4571 111.32 50.2679 110.175 48.2815 108.729C46.2318 107.249 44.4295 105.454 42.9416 103.411C42.5208 103.906 42.1424 104.365 41.7931 104.797C43.2558 106.858 45.0898 108.628 47.201 110.017Z" fill="#545456"/>
<path d="M45.5512 100.118C45.0606 100.62 44.5601 101.165 44.0389 101.751C47.0052 105.869 51.1877 108.955 55.9987 110.576C56.3833 109.89 56.7472 109.245 57.0846 108.617C52.4722 107.008 48.4525 104.046 45.5512 100.118Z" fill="#ADAFB2"/>
<path d="M49.2615 107.383C47.1548 105.869 45.313 104.018 43.8106 101.904C43.7744 101.854 43.7556 101.794 43.7573 101.732C43.759 101.671 43.781 101.612 43.82 101.564C44.352 100.981 44.8634 100.438 45.3348 99.9207C45.3639 99.8912 45.399 99.8684 45.4377 99.8537C45.4765 99.839 45.5179 99.8328 45.5592 99.8355C45.5991 99.839 45.6377 99.851 45.6725 99.8707C45.7073 99.8905 45.7374 99.9175 45.7607 99.9499C47.2009 101.915 48.9416 103.642 50.9189 105.067C52.8418 106.465 54.9568 107.577 57.1983 108.37C57.2369 108.38 57.2726 108.399 57.3022 108.425C57.3318 108.452 57.3545 108.485 57.3682 108.523C57.3758 108.562 57.3751 108.603 57.3662 108.642C57.3572 108.681 57.3402 108.718 57.3162 108.75C56.9789 109.378 56.615 110.023 56.2195 110.706C56.1902 110.763 56.1411 110.808 56.0811 110.832C56.0212 110.856 55.9546 110.857 55.8937 110.836C53.5227 110.023 51.2871 108.859 49.2615 107.383ZM44.3667 101.712C45.8099 103.706 47.5668 105.453 49.5691 106.885C51.5017 108.288 53.6278 109.403 55.8809 110.196C56.1669 109.692 56.4421 109.187 56.6965 108.722C54.5272 107.925 52.4787 106.832 50.6095 105.474C48.6732 104.08 46.958 102.402 45.5214 100.498C45.1479 100.936 44.7711 101.339 44.3667 101.712Z" fill="#545456"/>
<g style="mix-blend-mode:screen" opacity="0.5">
<path d="M53.0198 97.0848L52.3368 96.5871C50.5583 98.2388 48.4316 99.5719 46.7081 101.282C45.2229 102.796 43.7279 104.353 42.3011 105.96C42.5412 106.254 42.828 106.593 43.2096 106.964C46.2273 103.43 49.5066 100.128 53.0198 97.0848Z" fill="white"/>
</g>
<g style="mix-blend-mode:multiply">
<path d="M48.2295 111.094C49.9745 112.348 51.9233 113.291 53.9896 113.881C56.4289 110.225 58.4685 106.317 60.0736 102.226L56.3147 99.5001C54.8083 102.101 49.4633 109.932 48.2295 111.094Z" fill="#B3B5B8"/>
</g>
<path d="M61.3232 106.414C64.7417 100.881 67.1478 94.7837 68.429 88.4076L44.4501 71.0185C38.7838 74.2019 33.7264 78.3622 29.5116 83.3072C33.9859 88.1723 39.0127 92.4995 44.4901 96.201C49.6843 100.249 55.3336 103.676 61.3232 106.414Z" fill="#813FFA"/>
<path d="M45.6812 97.4634L44.2769 96.4366L42.8701 95.4206C37.928 91.9416 33.3788 87.9364 29.3025 83.4754L29.1483 83.3036L29.3035 83.123C33.5485 78.152 38.6342 73.9648 44.3291 70.752L44.4837 70.6736L68.7309 88.2833L68.6913 88.4562C67.3879 94.8607 64.9717 100.987 61.5524 106.558L61.4272 106.756L61.2108 106.707C55.7172 104.192 50.5106 101.093 45.6812 97.4634ZM44.612 95.9673L46.0138 97.0049C50.7487 100.548 55.8414 103.586 61.2088 106.069C64.4961 100.659 66.8359 94.7286 68.1275 88.5319L44.4267 71.3203C38.931 74.4641 34.0104 78.5186 29.8753 83.3108C34.3087 88.0564 39.2506 92.3007 44.612 95.9673Z" fill="#004B6D"/>
<g style="mix-blend-mode:multiply" opacity="0.4">
<path d="M68.429 88.4076L44.4501 71.0185C38.7838 74.2019 33.7264 78.3622 29.5116 83.3072C33.9859 88.1723 39.0127 92.4995 44.4901 96.201C49.6973 100.255 55.3613 103.686 61.3665 106.424C64.7709 100.885 67.1623 94.7843 68.429 88.4076ZM51.1641 93.5545C48.2041 97.2335 35.5264 84.8323 35.5264 84.8323C35.2158 84.6726 34.9503 84.4377 34.7541 84.1489C34.5579 83.8601 34.4374 83.5267 34.4037 83.1793C34.3699 82.832 34.4239 82.4817 34.5608 82.1607C34.6977 81.8397 34.9131 81.5582 35.1871 81.342C35.1871 81.342 41.4007 74.9387 42.7095 74.2942C44.0183 73.6497 45.6438 75.1026 45.6438 75.1026L57.2619 83.53C55.514 87.0286 53.4759 90.3745 51.169 93.5329L51.1641 93.5545Z" fill="#813FFA"/>
</g>
<g style="mix-blend-mode:multiply" opacity="0.4">
<path d="M54.2806 102.765C56.5466 104.133 58.8991 105.352 61.3233 106.414C64.7418 100.881 67.1478 94.7837 68.4291 88.4076L63.3343 84.7043C60.1832 90.66 57.759 97.0211 54.2806 102.765Z" fill="#079BD7"/>
</g>
<path d="M102.854 16.8228C102.782 16.6679 102.703 16.5169 102.616 16.3702C102.486 16.3405 102.324 16.3034 102.14 16.2613C92.8502 15.613 84.4469 22.6297 78.1645 28.6875C66.4571 43.0241 54.7506 57.3571 43.0449 71.6865C51.1208 78.3383 59.5855 84.5042 68.3941 90.1514C78.4273 74.5745 88.4644 59.0137 98.5054 43.469C102.321 35.6065 106.395 25.4712 102.854 16.8228Z" fill="white"/>
<path d="M55.2876 81.4627C51.0915 78.4088 46.9109 75.1879 42.8764 71.8753C42.8212 71.8264 42.7869 71.7583 42.7804 71.6849C42.7739 71.6115 42.7958 71.5384 42.8416 71.4806L77.9321 28.5091C84.7642 21.9402 92.9687 15.3443 102.189 16.045C102.373 16.0871 102.546 16.1268 102.676 16.1565C102.72 16.1624 102.762 16.1791 102.797 16.2052C102.833 16.2313 102.862 16.2658 102.881 16.3058C102.943 16.4337 103.021 16.5881 103.092 16.775C106.612 25.2705 102.881 35.0977 98.7403 43.6364L90.428 56.5209L68.6321 90.2059C68.5923 90.2676 68.5296 90.311 68.4577 90.3266C68.3858 90.3421 68.3107 90.3285 68.2489 90.2887C63.8403 87.5161 59.4763 84.549 55.2876 81.4627ZM43.4291 71.6493C47.3977 74.9013 51.4934 78.0459 55.6104 81.0475C59.7191 84.0358 64.0015 86.9615 68.321 89.7251L89.974 56.1667L98.2755 43.2798C102.319 34.9689 106.019 25.2714 102.603 16.9246L102.465 16.6314L102.151 16.5595C93.1976 15.8858 85.0695 22.3968 78.3428 28.8534L43.4291 71.6493Z" fill="#B3B5B8"/>
<path d="M102.657 33.2945C104.189 28.0942 104.953 21.9219 102.853 16.8228C102.782 16.6679 102.703 16.5168 102.615 16.3702C102.486 16.3404 102.323 16.3033 102.14 16.2612C96.6642 15.8606 91.0191 18.538 86.5417 21.5851C91.7588 25.7486 97.091 29.6086 102.657 33.2945Z" fill="#813FFA"/>
<g style="mix-blend-mode:multiply" opacity="0.9">
<path d="M102.854 16.8228C102.782 16.6679 102.703 16.5169 102.616 16.3702C102.486 16.3405 102.324 16.3034 102.14 16.2613C92.8502 15.613 84.4469 22.6297 78.1645 28.6875C66.4571 43.0241 54.7506 57.3571 43.0449 71.6865C51.1208 78.3383 59.5855 84.5042 68.3941 90.1514C78.4273 74.5745 88.4644 59.0137 98.5054 43.469C102.321 35.6065 106.395 25.4712 102.854 16.8228ZM99.2468 21.1386L57.0199 79.118C53.5139 76.5634 50.086 73.9168 46.7361 71.178L77.3773 32.9208C79.4029 30.4385 82.2805 27.2184 82.2805 27.2184C87.0163 23.0929 93.4213 17.6434 99.6048 17.7853C102.029 17.8397 99.2468 21.1386 99.2468 21.1386Z" fill="#D1D3D4"/>
</g>
<g style="mix-blend-mode:multiply" opacity="0.9">
<path d="M98.5056 43.469C102.321 35.6065 106.392 25.482 102.854 16.8228C102.788 16.66 102.665 16.4042 102.665 16.4042C102.665 16.4042 100.925 29.5197 98.3278 34.749C86.5905 52.0666 74.8558 69.3735 63.1235 86.6695C65.2188 88.0593 66.2823 88.7351 68.4116 90.0758C78.4332 74.5493 88.4645 59.0137 98.5056 43.469Z" fill="#D1D3D4"/>
</g>
<g style="mix-blend-mode:screen">
<path d="M96.5507 19.5883C93.7329 20.7304 91.1193 22.3216 88.8118 24.3002C84.4276 28.0777 80.4557 32.308 76.9623 36.9207L49.8946 71.3551C50.8328 72.2297 51.2695 72.6595 52.191 73.5076C57.8949 65.4518 63.8171 57.5371 69.86 49.741C77.6612 39.6857 85.8756 26.8812 96.5507 19.5883Z" fill="#ADAFB2"/>
</g>
<g opacity="0.4">
<path d="M80.2662 30.3971L79.6423 29.8903L67.9769 44.4412L68.6475 44.9929C72.5176 40.1232 76.3905 35.258 80.2662 30.3971Z" fill="#3B3D3F"/>
<path d="M81.8807 31.6995L80.8603 30.8858C76.9941 35.7715 73.1375 40.6481 69.2907 45.5155L70.3878 46.3924L81.8807 31.6995Z" fill="#3B3D3F"/>
<path d="M83.1168 32.6651L82.4796 32.1665L71.0441 46.9066L71.728 47.45C75.5215 42.5172 79.3178 37.5889 83.1168 32.6651Z" fill="#3B3D3F"/>
<path d="M84.752 33.9267L83.7158 33.132C79.9423 38.0769 76.1552 43.0149 72.3545 47.946L73.4674 48.8037C77.2287 43.8788 80.9902 38.9198 84.752 33.9267Z" fill="#3B3D3F"/>
<path d="M86.004 34.8733L85.3618 34.3964L74.1588 49.3148L74.8584 49.839L86.004 34.8733Z" fill="#3B3D3F"/>
<path d="M87.5806 36.0419L86.6053 35.3294C82.9173 40.3318 79.2113 45.3301 75.4872 50.3242L76.5392 51.0997C80.2321 46.0757 83.9126 41.0564 87.5806 36.0419Z" fill="#3B3D3F"/>
<path d="M89.0149 37.0869L88.2061 36.4922C84.5492 41.5244 80.8959 46.5575 77.2463 51.5914L78.115 52.2226C81.7807 47.1848 85.414 42.1395 89.0149 37.0869Z" fill="#3B3D3F"/>
<path d="M90.623 38.2172L89.6427 37.5264C86.0241 42.5902 82.4092 47.6548 78.7978 52.7203L79.8572 53.4633L90.623 38.2172Z" fill="#3B3D3F"/>
<path d="M91.999 39.1693L91.2511 38.6568C87.6853 43.7554 84.1139 48.8452 80.537 53.9261L81.3739 54.4476L91.999 39.1693Z" fill="#3B3D3F"/>
<path d="M93.533 40.226L92.6269 39.609C89.0883 44.7214 85.556 49.8391 82.0302 54.9621L83.0179 55.6205C86.531 50.487 90.036 45.3555 93.533 40.226Z" fill="#3B3D3F"/>
<path d="M95.3418 41.4251L94.1767 40.6464L83.7008 56.1181L84.9559 56.9515L95.3418 41.4251Z" fill="#3B3D3F"/>
<path d="M97.1582 42.5917L95.9808 41.867L85.6671 57.3759L86.9379 58.1902L97.1582 42.5917Z" fill="#3B3D3F"/>
<path d="M98.5105 43.4474L97.8043 43.0013L87.6332 58.6338L88.3993 59.1163L98.5055 43.469L98.5105 43.4474Z" fill="#3B3D3F"/>
<path d="M79.0484 29.4017L78.1646 28.6874L66.3676 43.1172L67.3231 43.9161C71.2332 39.0708 75.1416 34.2326 79.0484 29.4017Z" fill="#3B3D3F"/>
</g>
<g style="mix-blend-mode:multiply" opacity="0.7">
<path d="M88.1458 56.5443C86.7803 58.4201 84.8889 59.849 82.7105 60.6505C80.5321 61.4519 78.1645 61.5899 75.9072 61.0471C73.6498 60.5042 71.6039 59.3048 70.0282 57.6005C68.4525 55.8962 67.4176 53.7635 67.0544 51.4721C66.6912 49.1806 67.016 46.8332 67.9878 44.7267C68.9595 42.6201 70.5345 40.8489 72.5138 39.6371C74.493 38.4252 76.7876 37.827 79.1075 37.9182C81.4274 38.0093 83.6684 38.7857 85.5472 40.1492C86.7957 41.0552 87.8533 42.198 88.6596 43.5125C89.4659 44.827 90.0052 46.2873 90.2465 47.8099C90.4878 49.3325 90.4265 50.8876 90.066 52.3863C89.7056 53.885 89.0531 55.2979 88.1458 56.5443Z" fill="#898B8E"/>
</g>
<path d="M87.9681 55.48C86.6892 57.2305 84.9196 58.5629 82.883 59.3088C80.8463 60.0546 78.6339 60.1805 76.5252 59.6706C74.4165 59.1606 72.5061 58.0377 71.0354 56.4436C69.5647 54.8495 68.5995 52.8558 68.2619 50.7144C67.9243 48.5729 68.2294 46.3797 69.1386 44.4118C70.0478 42.4439 71.5204 40.7897 73.3703 39.658C75.2201 38.5263 77.3644 37.9679 79.5321 38.0534C81.6998 38.139 83.7938 38.8645 85.5495 40.1384C86.7191 40.9853 87.7099 42.0546 88.4648 43.285C89.2198 44.5154 89.7242 45.8826 89.9489 47.3082C90.1736 48.7337 90.1143 50.1895 89.7744 51.5918C89.4345 52.9942 88.8206 54.3155 87.9681 55.48Z" fill="#290661"/>
<path d="M72.4776 58.0982C70.6779 56.7895 69.3067 54.9771 68.5375 52.8901C67.7683 50.8031 67.6356 48.5353 68.1562 46.3734C68.6768 44.2115 69.8273 42.2527 71.4622 40.7446C73.0971 39.2364 75.1429 38.2467 77.3411 37.9006C79.5393 37.5546 81.7911 37.8676 83.8117 38.8002C85.8323 39.7328 87.531 41.2431 88.693 43.14C89.855 45.037 90.4281 47.2355 90.3398 49.4575C90.2516 51.6795 89.506 53.8252 88.1972 55.6233C86.4383 58.0299 83.7965 59.6416 80.8502 60.1055C77.9039 60.5693 74.8932 59.8476 72.4776 58.0982ZM85.387 40.3513C83.6743 39.105 81.6303 38.3943 79.5136 38.3088C77.397 38.2234 75.3027 38.7673 73.4959 39.8715C71.689 40.9758 70.2506 42.5908 69.3628 44.5124C68.475 46.4339 68.1775 48.5757 68.508 50.6666C68.8386 52.7576 69.7823 54.7039 71.2198 56.2592C72.6573 57.8145 74.524 58.909 76.5837 59.4043C78.6434 59.8996 80.8037 59.7733 82.7912 59.0415C84.7786 58.3097 86.504 57.0053 87.7491 55.2932C89.4072 52.999 90.089 50.1419 89.6454 47.3462C89.2019 44.5506 87.6692 42.0435 85.3821 40.3729L85.387 40.3513Z" fill="#140330"/>
<path d="M86.1753 54.4097C85.1412 55.8266 83.7098 56.9051 82.0621 57.5091C80.4144 58.113 78.6243 58.2153 76.9181 57.8029C75.2119 57.3905 73.6661 56.482 72.4761 55.1922C71.2862 53.9024 70.5054 52.2892 70.2325 50.5564C69.9597 48.8237 70.207 47.0492 70.9431 45.4572C71.6793 43.8652 72.8713 42.5272 74.3685 41.6123C75.8657 40.6973 77.6009 40.2465 79.3548 40.3168C81.1087 40.3871 82.8025 40.9753 84.2223 42.0072C85.1661 42.6931 85.9655 43.5583 86.5745 44.5531C87.1836 45.5479 87.5905 46.6529 87.7719 47.8048C87.9533 48.9567 87.9056 50.133 87.6317 51.2663C87.3577 52.3996 86.8629 53.4678 86.1753 54.4097Z" fill="#A370F7"/>
<path d="M73.5653 56.6296C72.0943 55.562 70.973 54.0825 70.3435 52.3783C69.7139 50.6741 69.6043 48.8218 70.0285 47.0557C70.4527 45.2896 71.3916 43.6891 72.7265 42.4567C74.0614 41.2243 75.7323 40.4154 77.5277 40.1323C79.3231 39.8492 81.1625 40.1046 82.8129 40.8663C84.4634 41.6279 85.8509 42.8616 86.7999 44.4112C87.7489 45.9607 88.2166 47.7566 88.144 49.5715C88.0715 51.3864 87.4618 53.1389 86.3921 54.6071C84.9574 56.5714 82.8019 57.8871 80.3978 58.2662C77.9936 58.6453 75.5367 58.0568 73.5653 56.6296ZM84.0357 42.2259C82.6524 41.2259 81.0037 40.6579 79.2978 40.5938C77.592 40.5297 75.9056 40.9724 74.4517 41.8659C72.9979 42.7593 71.842 44.0635 71.13 45.6136C70.4179 47.1636 70.1818 48.8899 70.4515 50.5744C70.7211 52.2589 71.4844 53.8258 72.6449 55.0772C73.8054 56.3286 75.3109 57.2083 76.9713 57.6051C78.6317 58.0019 80.3723 57.8979 81.9732 57.3064C83.5741 56.715 84.9635 55.6624 85.9656 54.2819C86.6318 53.3642 87.1103 52.3243 87.3739 51.2215C87.6374 50.1187 87.6808 48.9748 87.5016 47.855C87.3224 46.7353 86.924 45.6618 86.3293 44.6959C85.7346 43.73 84.9552 42.8907 84.0357 42.2259Z" fill="#7D7E81"/>
<g style="mix-blend-mode:multiply">
<path d="M84.2223 42.0072C82.8025 40.9753 81.1087 40.3871 79.3548 40.3168C77.6009 40.2465 75.8657 40.6973 74.3685 41.6123C72.8713 42.5272 71.6793 43.8652 70.9431 45.4572C70.207 47.0492 69.9597 48.8237 70.2325 50.5564C70.5054 52.2892 71.2862 53.9024 72.4761 55.1922C73.6661 56.482 75.2119 57.3905 76.9181 57.8029C78.6243 58.2153 80.4144 58.113 82.0621 57.5091C83.7098 56.9051 85.1412 55.8266 86.1753 54.4097C86.8629 53.4678 87.3577 52.3996 87.6317 51.2663C87.9056 50.133 87.9533 48.9567 87.7719 47.8048C87.5905 46.6529 87.1836 45.5479 86.5745 44.5531C85.9655 43.5583 85.1661 42.6931 84.2223 42.0072ZM74.8668 54.8234C73.6364 53.9399 72.6963 52.7111 72.1658 51.2931C71.6352 49.8751 71.5381 48.3318 71.8867 46.8588C72.2353 45.3859 73.0139 44.0497 74.1239 43.02C75.2338 41.9902 76.6249 41.3132 78.1207 41.0749C79.6166 40.8366 81.1497 41.0477 82.5257 41.6814C83.9016 42.3151 85.0583 43.3429 85.8489 44.6343C86.6396 45.9257 87.0286 47.4226 86.9667 48.935C86.9047 50.4474 86.3945 51.9072 85.5009 53.1291C84.3109 54.7562 82.5256 55.8472 80.5338 56.1646C78.5419 56.4819 76.505 55.9998 74.8668 54.8234Z" fill="#C9CACC"/>
</g>
<g style="mix-blend-mode:screen" opacity="0.6">
<path d="M75.651 39.3166C74.2569 39.7217 72.9903 40.4774 71.9721 41.5114C72.0849 41.7647 72.2193 42.023 72.3429 42.2788C73.4685 41.0821 74.9452 40.2731 76.5605 39.9685C83.3526 38.6458 87.6073 44.0791 87.6073 44.0791C87.4622 43.4202 84.3062 36.6687 75.651 39.3166Z" fill="white"/>
</g>
<g style="mix-blend-mode:screen" opacity="0.6">
<path d="M71.0261 42.6597C69.6103 44.9465 68.9214 47.6085 69.0501 50.295C69.1951 47.8296 69.9998 45.4486 71.3802 43.4005L71.0261 42.6597Z" fill="white"/>
</g>
<g style="mix-blend-mode:multiply" opacity="0.9">
<path d="M70.0609 62.6865C69.9406 62.4557 69.7906 62.2417 69.6147 62.0497C69.3753 61.9576 69.1239 61.9 68.8683 61.8788C67.5804 61.6863 65.1916 62.1745 61.1166 65.5526L46.9494 91.1789C46.2979 92.3674 45.8592 93.6605 45.6533 95C46.8648 94.3912 47.9607 93.5758 48.8917 92.5906L68.9582 71.1816C70.916 66.2608 70.6494 63.8451 70.0609 62.6865Z" fill="#D1D3D4"/>
</g>
<path d="M71.0532 61.0369C70.9761 60.8468 70.8709 60.6694 70.7412 60.5104C70.5464 60.4371 70.3426 60.3905 70.1354 60.3717C69.0789 60.3118 67.0274 60.9682 63.2976 64.3799L49.054 88.7488C48.4183 89.8612 47.9482 91.0603 47.6584 92.3082C48.7193 91.6217 49.677 90.7877 50.5025 89.8313L69.3536 68.7582C71.4501 64.1763 71.4394 62.0353 71.0532 61.0369Z" fill="white"/>
<path d="M47.4501 92.5221C47.4085 92.4931 47.376 92.4529 47.3564 92.4061C47.3369 92.3593 47.3312 92.3079 47.3399 92.258C47.6449 90.9763 48.1411 89.7478 48.8118 88.6137L63.0662 64.2472C63.0639 64.2341 63.0643 64.2207 63.0672 64.2077C63.0702 64.1947 63.0758 64.1824 63.0836 64.1716C66.1391 61.3677 68.5021 59.9977 70.1192 60.095C70.3578 60.1041 70.5927 60.1578 70.8115 60.2535L70.9197 60.2783C71.0729 60.459 71.1953 60.6638 71.2818 60.8844C71.8694 62.3954 71.3013 65.075 69.5734 68.8426C69.5712 68.8686 69.5654 68.894 69.5561 68.9183L50.7541 90.0253C49.8768 91.0056 48.862 91.8537 47.7413 92.5433C47.6964 92.5699 47.6445 92.5822 47.5924 92.5784C47.5403 92.5746 47.4907 92.555 47.4501 92.5221ZM63.5193 64.5557L49.2831 88.8922C48.7717 89.7906 48.3559 90.74 48.0425 91.725C48.8797 91.117 49.6524 90.4248 50.3484 89.6594L69.1114 68.6231C71.164 64.1335 71.1576 62.0731 70.824 61.1436C70.772 60.9998 70.6945 60.8665 70.5953 60.75C70.4531 60.695 70.3038 60.6608 70.1518 60.6484C69.117 60.5935 67.1619 61.2265 63.5193 64.5557Z" fill="#B3B5B8"/>
<g style="mix-blend-mode:multiply">
<path d="M71.0533 61.037C70.9762 60.8469 70.871 60.6694 70.7412 60.5105L70.6871 60.4981L47.6758 92.2326L47.6486 92.3515C48.7159 91.6525 49.677 90.8037 50.5025 89.8313L69.3536 68.7583C71.4501 64.1764 71.4394 62.0354 71.0533 61.037Z" fill="#B3B5B8"/>
</g>
</svg>
